<svg width="21" height="24" viewBox="0 0 21 24" fill="none" xmlns="http://www.w3.org/2000/svg">
<g clip-path="url(#clip0_330_2755)">
<path d="M20.8425 22.8074V22.6896C20.7836 22.1592 20.7836 21.5698 20.6657 21.0394C19.8995 16.973 16.5403 14.0263 12.7686 13.9084C11.3542 13.9084 9.88081 13.9084 8.58427 13.9084C8.17173 13.9084 7.7592 13.9674 7.28773 14.0263C4.39998 14.5567 2.04263 16.7962 1.04075 19.684C1.33542 19.684 1.68902 19.684 1.98369 19.684C2.98557 17.2677 4.98931 15.3818 7.46453 14.9103C7.87706 14.8514 8.23067 14.7925 8.58427 14.7925C9.93975 14.7925 11.3542 14.7925 12.7686 14.7925C16.1278 14.8514 19.0745 17.5623 19.8406 21.1573C19.9585 21.6288 19.9585 22.1592 20.0174 22.6896V22.8074C20.0174 22.8074 20.0174 22.8074 20.0174 22.8664H1.45329C1.45329 22.8664 1.39436 22.8664 1.33542 22.8664C1.33542 22.8074 1.33542 22.7485 1.33542 22.7485C1.33542 22.277 1.39436 21.8056 1.45329 21.393C1.15862 21.393 0.863952 21.393 0.569283 21.3341C0.51035 21.8056 0.451416 22.277 0.451416 22.7485C0.451416 23.0432 0.451416 23.3378 0.628217 23.5736C0.863952 23.8093 1.15862 23.8093 1.39436 23.8093H7.52346H19.8995C20.1353 23.8093 20.4299 23.8093 20.6068 23.5736C20.9014 23.3378 20.9014 22.9842 20.8425 22.8074Z" fill="black"/>
<path d="M15.833 4.7147C15.9509 5.18617 16.0688 5.71657 16.0688 6.24697C16.0688 7.66138 15.4794 9.01686 14.4776 10.0777C13.4757 11.0795 12.1202 11.6689 10.6469 11.6689C9.23247 11.6689 7.87699 11.0795 6.87512 10.0777C5.87325 9.07579 5.28391 7.72032 5.28391 6.30591C5.28391 3.35922 7.70019 0.942939 10.6469 0.942939V0.707205V0.825072C12.0613 0.825072 13.4168 1.41441 14.4186 2.41628C14.5365 2.53415 14.5954 2.59308 14.6544 2.71095C15.1258 2.88775 15.5973 3.00562 16.0098 3.18242C15.7152 2.71095 15.4205 2.23948 15.008 1.82695C13.8293 0.648271 12.2381 0 10.5879 0C7.22872 0 4.45884 2.76988 4.3999 6.18804C4.3999 7.83818 5.04817 9.42939 6.22685 10.6081C7.40552 11.7867 8.99673 12.435 10.6469 12.435C12.297 12.435 13.8882 11.7867 15.0669 10.6081C16.2456 9.42939 16.8939 7.83818 16.8939 6.18804C16.8939 5.7755 16.8349 5.36297 16.776 4.95043C16.4813 4.95043 16.1277 4.83256 15.833 4.7147Z" fill="black"/>
</g>
<defs>
<clipPath id="clip0_330_2755">
<rect width="20.45" height="23.7503" fill="white" transform="translate(0.451416)"/>
</clipPath>
</defs>
</svg>
