<?xml version="1.0" encoding="utf-8"?>
<!-- Generator: Adobe Illustrator 24.0.2, SVG Export Plug-In . SVG Version: 6.00 Build 0)  -->
<svg version="1.1" xmlns="http://www.w3.org/2000/svg" xmlns:xlink="http://www.w3.org/1999/xlink" x="0px" y="0px"
	 viewBox="0 0 200 200" style="enable-background:new 0 0 200 200;" xml:space="preserve">
<style type="text/css">
	.st0{display:none;}
	.st1{display:inline;}
	.st2{clip-path:url(#SVGID_2_);}
	.st3{fill:none;stroke:#000000;stroke-miterlimit:10;}
	.st4{fill:#231815;}
	.st5{fill:none;stroke:#231815;stroke-miterlimit:10;}
</style>
<g id="圖層_1" class="st0">
	<g class="st1">
		<defs>
			<rect id="SVGID_1_" x="5" y="5" width="180" height="170"/>
		</defs>
		<clipPath id="SVGID_2_">
			<use xlink:href="#SVGID_1_"  style="overflow:visible;"/>
		</clipPath>
		<g class="st2">
			<path d="M101.7,102.9c-0.7,3.2-1.3,6.2-1.9,9.2h-0.1c-0.6-3-1.3-6.1-1.9-9.2c-2.7,2.2-5.2,4.4-7.9,6.4c0,0-0.1,0-0.1-0.1
				c2.2-2.5,4.2-5.2,6.4-7.9c-3.2-0.7-6.2-1.3-9.2-1.9v-0.1c3-0.6,6.1-1.3,9.2-1.9c-2.2-2.7-4.4-5.3-6.5-7.9c0,0,0,0,0.1-0.1
				c2.7,2.2,5.2,4.4,8,6.6c0.7-3.2,1.3-6.2,1.9-9.2h0.1c0.6,3,1.3,6.1,1.9,9.2c2.7-2.2,5.3-4.4,7.9-6.6c0,0,0,0,0.1,0.1
				c-2.2,2.6-4.2,5.2-6.6,7.9c3.2,0.7,6.2,1.3,9.2,1.9v0.1c-3,0.6-6.1,1.3-9.2,1.9c2.2,2.7,4.4,5.3,6.6,8c0,0,0,0-0.1,0.1
				C107,107.2,104.5,105.1,101.7,102.9z"/>
			<path d="M9.2,93.6c0.7,0.1,1.5-0.1,2.1-0.5c0.7-0.4,1.3-1,1.9-1.6c0.6-0.6,1.3-1.3,1.9-2.2c0.6-0.7,1.3-1.5,2.1-2.1
				c0.7-0.6,1.6-1.2,2.4-1.6c0.8-0.4,1.8-0.5,2.8-0.5c1,0.1,1.8,0.4,2.4,0.9c0.7,0.5,1.2,1.1,1.6,1.7c0.4,0.7,0.7,1.5,0.8,2.3
				s0.2,1.7,0.1,2.6c-0.1,0.8-0.2,1.6-0.6,2.3c-0.2,0.7-0.6,1.3-1,1.8c-0.4,0.5-0.8,1-1.2,1.3c-0.4,0.4-0.7,0.6-1.1,0.7
				c-0.1-0.1-0.5-0.2-0.8-0.4c-0.4-0.2-0.8-0.4-1.3-0.6c-0.5-0.2-0.8-0.4-1.2-0.6c-0.4-0.1-0.6-0.2-0.8-0.4c0.8,0.1,1.6,0.1,2.4-0.1
				c0.8-0.2,1.6-0.5,2.2-1c0.6-0.5,1.2-1,1.6-1.6c0.5-0.6,0.7-1.2,0.7-1.9c0-0.5,0-1-0.2-1.5c-0.2-0.5-0.4-1-0.7-1.3
				c-0.4-0.4-0.7-0.7-1.1-1c-0.5-0.2-1-0.4-1.5-0.5c-0.8-0.1-1.6,0.1-2.3,0.5c-0.7,0.4-1.5,1-2.1,1.6c-0.6,0.6-1.3,1.3-1.9,2.1
				c-0.6,0.7-1.3,1.5-2.1,2.1c-0.7,0.6-1.5,1.2-2.2,1.6c-0.7,0.4-1.7,0.6-2.5,0.5c-0.8-0.1-1.6-0.4-2.2-0.8c-0.6-0.5-1.1-1-1.5-1.7
				c-0.4-0.7-0.6-1.5-0.8-2.2C5,91.2,5,90.5,5,89.8c0.1-1.1,0.4-2.1,0.8-2.9C6.3,86,7.1,85.3,8,84.8c0.1,0.1,0.5,0.2,0.8,0.4
				c0.4,0.1,0.8,0.4,1.2,0.5c0.5,0.2,0.8,0.4,1.3,0.6c0.5,0.1,0.8,0.2,1.2,0.4c-1.1-0.2-2.1-0.2-2.8-0.1c-0.7,0.1-1.5,0.4-1.9,0.6
				c-0.5,0.2-1,0.7-1.2,1.1c-0.2,0.5-0.5,1-0.5,1.5c0,0.5,0,0.9,0.1,1.3c0.1,0.5,0.2,0.9,0.6,1.2c0.4,0.4,0.6,0.7,1,1
				C8.3,93.4,8.6,93.6,9.2,93.6z"/>
			<path d="M16.8,73c0.4-1.1,0.8-2.1,1.5-2.8c0.6-0.7,1.3-1.2,2.1-1.6c0.8-0.4,1.7-0.5,2.7-0.5c1,0,1.9,0.1,3,0.5
				c0.8,0.2,1.7,0.7,2.4,1.3c0.7,0.6,1.3,1.2,1.8,2.1c0.5,0.8,0.7,1.6,0.8,2.5c0.1,1,0,1.8-0.4,2.8c-0.4,1.2-0.8,2.2-1.5,2.9
				c-0.6,0.7-1.3,1.2-2.2,1.6c-0.8,0.4-1.7,0.5-2.7,0.5c-1,0-1.9-0.2-2.9-0.5c-1-0.4-1.7-0.7-2.4-1.3c-0.7-0.6-1.3-1.2-1.7-2.1
				c-0.5-0.7-0.7-1.6-0.8-2.6C16.4,74.9,16.5,74,16.8,73z M29.6,76.8c0.2-0.6,0.2-1.2,0-1.7c-0.1-0.5-0.5-1.1-0.8-1.5
				c-0.4-0.5-1-0.8-1.6-1.2c-0.6-0.4-1.2-0.6-1.9-0.8c-0.6-0.2-1.3-0.4-2.1-0.5c-0.7-0.1-1.5-0.1-2.2-0.1c-0.7,0-1.3,0.2-1.9,0.6
				c-0.6,0.4-1,1-1.2,1.7c-0.2,0.6-0.2,1.2-0.1,1.7c0.1,0.6,0.4,1.1,0.8,1.6c0.4,0.5,0.8,0.8,1.5,1.3c0.6,0.5,1.2,0.6,1.9,0.8
				c0.7,0.2,1.6,0.4,2.3,0.5c0.8,0.1,1.6,0.1,2.2,0c0.6-0.1,1.3-0.4,1.8-0.7C29,78,29.4,77.5,29.6,76.8z"/>
			<path d="M39.2,54.9h0.1h0.1c0,0,0.1,0,0.1,0.1v0.1c0,0.4-0.1,0.7-0.1,1c0,0.2-0.1,0.6-0.1,0.8c0,0.2-0.1,0.6-0.1,0.9
				c0,0.2-0.1,0.6-0.1,1c0,0.1,0,0.2-0.1,0.4c-0.1,0.1,0.1,0.4,0,0.5c-0.1,0.2-0.2,0.4-0.4,0.2c-0.1-0.1-0.2-0.1-0.5-0.2L37,58.9
				c0.4,0.7,0.6,1.6,0.5,2.3c-0.1,0.7-0.4,1.5-0.7,2.1c-0.5,0.8-1,1.3-1.6,1.7c-0.6,0.4-1.3,0.5-2.1,0.5c-0.7,0-1.5-0.2-2.3-0.5
				c-0.8-0.4-1.7-0.7-2.5-1.3l-3.5-2.1c-0.2-0.1-0.6-0.1-0.8,0c-0.2,0.2-0.5,0.5-0.7,0.8c0,0.1-0.1,0.1-0.2,0
				c-0.1-0.1-0.1-0.1-0.1-0.2c0-0.4,0.1-0.7,0.1-1c0-0.2,0.1-0.6,0.1-0.8c0-0.2,0.1-0.6,0.1-0.8c0-0.2,0.1-0.6,0.1-1
				c0-0.1,0-0.2,0-0.4s0.1-0.2,0.1-0.4c0.1-0.2,0.2-0.4,0.4-0.2c0.1,0,0.2,0.1,0.5,0.2l5.5,3.3c1.7,1,3,1.5,4,1.6
				c1,0,1.7-0.4,2.3-1.3c0.2-0.4,0.2-1,0.1-1.7c-0.2-0.7-0.7-1.3-1.5-2.1l-5.6-3.3c-0.2-0.1-0.6-0.1-0.8,0c-0.2,0.2-0.5,0.5-0.7,0.8
				c0,0.1-0.1,0.1-0.2,0c-0.1-0.1-0.1-0.1-0.1-0.2c0-0.4,0.1-0.7,0.1-1c0-0.2,0.1-0.6,0.1-0.8c0-0.2,0.1-0.6,0.1-0.9
				c0-0.2,0.1-0.6,0.1-1c0-0.1,0-0.2,0-0.4c0-0.1,0.1-0.2,0.1-0.4c0.1-0.2,0.2-0.4,0.4-0.2c0.1,0.1,0.2,0.1,0.5,0.2l9,5.3
				c0.2,0.1,0.6,0.1,0.8,0C38.7,55.6,39,55.4,39.2,54.9z"/>
			<path d="M41.9,53.9l0.2-0.4c0.1-0.2,0.2-0.5,0.2-0.6c0-0.2-0.1-0.5-0.2-0.6c-0.1-0.2-0.2-0.4-0.5-0.6c-0.2-0.2-0.4-0.4-0.5-0.5
				L29.4,41.2c-0.2-0.2-0.6-0.4-1-0.4c-0.4,0-0.7,0.1-1,0.5c-0.1,0-0.1,0-0.2,0c-0.1-0.1-0.1-0.1-0.1-0.2c0.1-0.4,0.2-0.6,0.2-1
				s0.1-0.5,0.2-0.7c0.1-0.2,0.1-0.5,0.2-0.7c0.1-0.2,0.1-0.6,0.2-0.9c0-0.1,0.1-0.2,0.1-0.4c0-0.1,0.1-0.2,0.1-0.4
				c0.1-0.2,0.2-0.2,0.4-0.2s0.2,0.1,0.5,0.2L43.1,49c0.1,0.1,0.4,0.2,0.6,0.5c0.2,0.1,0.5,0.2,0.7,0.4c0.2,0.1,0.5,0.1,0.7,0.1
				c0.2,0,0.5-0.1,0.6-0.4l0.2-0.2l0.5,0.4l-4,4.6L41.9,53.9z"/>
			<path d="M58.1,22.2l0.4,0.5c-0.1,0.1-0.2,0.2-0.4,0.4c-0.1,0.1-0.2,0.1-0.2,0.2c-0.1,0.1-0.1,0.2-0.1,0.4c0,0.1,0,0.4,0,0.5
				c0.6,2.2,1.1,4.4,1.7,6.6c0.6,2.2,1.2,4.4,1.8,6.6l-1.9,1.5c-0.8-0.5-1.6-1-2.3-1.5c-0.7-0.5-1.3-0.9-2.1-1.2
				c-0.6-0.4-1.2-0.7-1.8-1.1c-0.6-0.4-1.2-0.7-1.8-1.1c0.4,1.5,0.8,3,1.2,4.5c0.4,1.5,0.8,3,1.2,4.5l-1.9,1.5
				c-1.2-0.7-2.3-1.5-3.3-2.1c-1-0.6-1.8-1.1-2.8-1.7c-0.8-0.5-1.7-1.1-2.7-1.6c-0.8-0.5-1.8-1.1-2.8-1.7c-0.4-0.2-0.6-0.2-0.7-0.2
				c-0.2,0-0.4,0.1-0.6,0.2l-0.6,0.5L38,37.3l4.9-3.6l0.4,0.5l-0.6,0.4c-0.1,0.1-0.1,0.1-0.2,0.2c0,0,0,0.1,0,0.2l0.1,0.1
				c0,0,0.1,0.1,0.2,0.1c1.6,1,3.2,1.9,4.9,2.9c1.6,1,3.2,1.9,4.9,2.9L50,33c-0.4-0.2-0.7-0.4-1-0.6c-0.4-0.2-0.7-0.5-1.1-0.6
				c-0.4-0.2-0.6-0.2-0.7-0.2c-0.2,0-0.4,0.1-0.6,0.2L46,32.3l-0.4-0.5l4.9-3.6l0.4,0.5l-0.6,0.5c-0.1,0.1-0.1,0.1-0.2,0.2
				c-0.1,0.1,0,0.1,0,0.2l0.1,0.1c0,0,0.1,0.1,0.2,0.1c1.6,1,3.2,1.9,4.9,2.9c1.7,1,3.2,1.9,4.9,2.9L56.8,25c0-0.1,0-0.1-0.1-0.1
				c-0.1-0.1-0.1-0.1-0.2-0.1c-0.1,0-0.2,0.1-0.4,0.2l-0.5,0.4l-0.4-0.5L58.1,22.2z"/>
			<path d="M68,18.2c1.1-0.5,2.2-0.6,3-0.6c1,0,1.8,0.2,2.5,0.6c0.7,0.4,1.5,1,2.1,1.7c0.6,0.7,1.1,1.7,1.6,2.7
				c0.4,0.9,0.5,1.7,0.5,2.7c0,1-0.1,1.8-0.5,2.7c-0.4,0.9-0.8,1.6-1.5,2.3c-0.6,0.7-1.5,1.2-2.4,1.6c-1.2,0.5-2.2,0.7-3.2,0.6
				c-1,0-1.8-0.2-2.5-0.6c-0.7-0.4-1.5-1-1.9-1.7c-0.6-0.7-1.1-1.7-1.5-2.7c-0.4-0.9-0.5-1.8-0.5-2.8c0-1,0.1-1.8,0.5-2.6
				c0.4-0.9,0.8-1.6,1.5-2.2C66.1,19.2,67,18.6,68,18.2z M73,30.6c0.6-0.2,1.1-0.6,1.3-1c0.2-0.4,0.5-1,0.6-1.6
				c0.1-0.6,0.1-1.2,0-1.9c-0.1-0.7-0.2-1.3-0.6-2.1c-0.2-0.6-0.5-1.2-0.8-1.9c-0.4-0.6-0.8-1.2-1.3-1.7c-0.5-0.5-1.1-0.9-1.7-1.1
				c-0.6-0.2-1.3-0.2-2.1,0.1c-0.6,0.2-1.1,0.6-1.3,1c-0.2,0.4-0.6,1-0.7,1.6c-0.1,0.6-0.1,1.2,0,1.9c0.1,0.7,0.2,1.3,0.5,2.1
				s0.6,1.5,1.1,2.2c0.5,0.7,1,1.2,1.5,1.7c0.5,0.5,1.1,0.9,1.7,1C71.7,31,72.3,31,73,30.6z"/>
			<path d="M86.3,13.4c1.2-0.1,2.2-0.1,3.2,0c1,0.2,1.7,0.6,2.4,1.1c0.7,0.6,1.2,1.2,1.7,2.1c0.5,0.8,0.7,1.8,0.8,3
				c0.1,1,0.1,1.8-0.1,2.7c-0.2,0.8-0.5,1.7-1,2.4c-0.5,0.7-1.1,1.3-1.9,1.9c-0.7,0.5-1.7,0.9-2.7,1c-1.2,0.2-2.3,0.1-3.3,0
				c-1-0.2-1.7-0.6-2.4-1.2c-0.6-0.6-1.2-1.3-1.6-2.2c-0.4-0.9-0.7-1.8-0.8-2.9c-0.1-1-0.1-1.9,0.1-2.8c0.2-0.8,0.5-1.7,1-2.4
				c0.5-0.7,1.1-1.3,1.9-1.8C84.3,13.9,85.2,13.5,86.3,13.4z M88.6,26.5c0.6-0.1,1.1-0.4,1.6-0.7c0.4-0.4,0.7-0.8,1-1.5
				c0.2-0.6,0.4-1.2,0.4-1.9c0-0.7,0-1.5-0.1-2.2c-0.1-0.6-0.2-1.3-0.5-2.1c-0.2-0.7-0.5-1.3-0.8-1.9c-0.4-0.6-0.8-1.1-1.5-1.5
				c-0.6-0.4-1.2-0.5-2.1-0.4c-0.6,0.1-1.1,0.4-1.6,0.7c-0.5,0.4-0.8,1-1.1,1.5c-0.2,0.6-0.4,1.2-0.5,1.9c-0.1,0.7,0,1.5,0.1,2.2
				c0.1,0.8,0.4,1.6,0.6,2.3c0.2,0.7,0.6,1.5,1.1,1.9c0.4,0.6,1,1,1.5,1.3C87.1,26.6,87.8,26.6,88.6,26.5z"/>
			<path d="M111.9,26.5v0.6l-2.8-0.2c-0.4,0-0.7-0.1-1-0.2c-0.2-0.1-0.4-0.2-0.5-0.4c-0.1-0.1-0.1-0.4-0.1-0.7c0-0.2,0-0.6,0-1
				c-0.2,0.4-0.5,0.7-0.8,1c-0.4,0.2-0.7,0.5-1.1,0.7c-0.4,0.1-0.8,0.4-1.2,0.4c-0.4,0-0.8,0.1-1.2,0.1c-0.8,0-1.7-0.2-2.3-0.7
				c-0.6-0.4-1.2-1-1.6-1.6c-0.4-0.6-0.7-1.3-0.8-2.2s-0.2-1.7-0.1-2.5c0.1-1,0.2-1.9,0.6-2.8c0.4-1,0.8-1.7,1.5-2.4
				c0.6-0.7,1.3-1.2,2.3-1.7c0.8-0.4,1.9-0.6,3-0.5c0.5,0,1,0.1,1.5,0.5c0.5,0.4,1,0.6,1.3,1l0.4-5.5c0-0.4-0.1-0.7-0.2-1
				c-0.1-0.2-0.6-0.5-1-0.5c-0.1,0-0.1-0.1-0.1-0.2c0-0.1,0-0.2,0.1-0.2c-0.1,0,0.1-0.1,0.5-0.2c0.2-0.1,0.5-0.2,0.7-0.2
				c0.2,0,0.5-0.2,0.7-0.2c0.2-0.1,0.5-0.2,0.8-0.4c0.1,0,0.2-0.1,0.4-0.1c0.1,0,0.2,0,0.4,0c0.2,0,0.4,0.1,0.5,0.2
				c0.1,0.1,0,0.2,0,0.5l-1.2,18.3c0,0.2,0,0.5,0,0.7c0,0.2,0,0.5,0.1,0.7c0,0.2,0.1,0.5,0.2,0.6c0.1,0.1,0.4,0.2,0.6,0.2H111.9z
				 M107.5,22.7l0.4-6.4c-0.1-0.9-0.5-1.6-1-2.2c-0.6-0.6-1.2-0.8-1.9-1c-0.6,0-1.1,0.1-1.6,0.4c-0.5,0.4-0.8,0.7-1.2,1.2
				s-0.6,1.2-0.7,1.8c-0.2,0.7-0.4,1.5-0.4,2.2c0,0.7,0,1.6,0.1,2.3c0.1,0.7,0.2,1.5,0.5,2.1c0.2,0.6,0.6,1.1,1,1.5
				c0.4,0.4,1,0.6,1.6,0.6c0.4,0,0.7,0,1.1-0.2c0.4-0.1,0.7-0.4,1-0.6c0.2-0.2,0.6-0.5,0.7-0.9C107.3,23.5,107.4,23.1,107.5,22.7z"
				/>
			<path d="M137.5,38.8c-0.4,0.6-0.8,1-1.3,1.3c-0.5,0.4-1,0.5-1.6,0.6c-0.6,0.1-1.1,0.1-1.6,0c-0.5-0.1-1.1-0.2-1.6-0.5
				c-0.6-0.4-1.2-0.7-1.6-1.1c-0.5-0.5-0.8-0.8-1.3-1.5c-0.4-0.5-0.7-1-1.1-1.6c-0.4-0.6-0.7-1-1.1-1.5c-0.4-0.5-0.7-0.9-1.2-1.3
				c-0.4-0.4-0.8-0.7-1.3-1c-0.6-0.2-1.3-0.4-2.1-0.5c-0.7,0-1.5,0-2.1,0.1l-0.2-0.4c0.5-0.4,1-0.7,1.6-0.8c0.6-0.1,1.1-0.4,1.7-0.4
				c0.6,0,1.1,0,1.7,0.1c0.6,0.1,1.1,0.2,1.6,0.5c-0.8-0.7-1.5-1.6-1.8-2.7c-0.5-1-0.7-2.1-0.7-3.2c-0.1-1.1,0-2.2,0.1-3.3
				c0.2-1.1,0.5-2.2,1-3.3c0.6-1.3,1.3-2.5,2.3-3.6c1-1.1,1.9-1.9,3.2-2.7c1.2-0.6,2.4-1.1,3.8-1.2c1.3-0.1,2.8,0.1,4.2,0.9
				c1.5,0.6,2.5,1.5,3.4,2.6c0.8,1.1,1.3,2.2,1.7,3.5c0.4,1.3,0.4,2.5,0.2,4c-0.1,1.3-0.6,2.7-1.1,4c-0.6,1.3-1.3,2.5-2.3,3.6
				c-1,1.1-1.9,2.1-3.2,2.7c-1.2,0.6-2.4,1.1-3.9,1.2c-1.3,0.1-2.8-0.1-4.2-0.8l-0.1-0.1c0.6,0.6,1.1,1.1,1.5,1.8
				c0.5,0.6,0.8,1.2,1.2,1.8c0.4,0.6,0.8,1.1,1.2,1.6c0.5,0.5,1,0.9,1.5,1.1c0.2,0.1,0.5,0.1,0.7,0.1c0.2,0,0.6,0,0.8,0
				c0.2,0,0.6-0.1,0.8-0.2c0.2-0.1,0.5-0.2,0.7-0.5L137.5,38.8z M127.5,20.1c-0.2,0.6-0.5,1.2-0.7,1.9c-0.2,0.7-0.4,1.5-0.5,2.2
				c-0.1,0.7-0.1,1.6-0.1,2.3c0,0.7,0.1,1.5,0.4,2.2c0.2,0.7,0.5,1.3,1,1.8c0.5,0.5,1.1,1,1.8,1.3c1,0.4,1.8,0.5,2.8,0.2
				c1-0.2,1.8-0.7,2.7-1.3c0.8-0.7,1.7-1.6,2.4-2.5c0.7-1,1.3-2.1,1.8-3.3c0.2-0.6,0.5-1.2,0.7-1.9c0.2-0.7,0.4-1.5,0.5-2.2
				c0.1-0.7,0.1-1.5,0.1-2.3c0-0.7-0.1-1.5-0.4-2.2c-0.2-0.7-0.5-1.3-1-1.8c-0.5-0.5-1.1-1-1.7-1.3c-1-0.4-1.9-0.4-2.9-0.1
				c-1,0.2-1.8,0.7-2.7,1.3c-0.8,0.6-1.7,1.5-2.4,2.4C128.7,17.9,128,19,127.5,20.1z"/>
			<path d="M152.5,46.2v0.1c0,0,0,0.1-0.1,0.1l-0.1,0.1h-0.1c-0.4-0.1-0.7-0.2-1-0.4c-0.2-0.1-0.6-0.2-0.8-0.2
				c-0.2-0.1-0.6-0.1-0.8-0.2c-0.2-0.1-0.6-0.1-1-0.2c-0.1,0-0.2-0.1-0.4-0.1s-0.2-0.1-0.4-0.1c-0.2-0.1-0.2-0.2-0.2-0.4
				c0-0.1,0.1-0.2,0.2-0.5l0.8-1.1c-0.8,0.2-1.6,0.4-2.3,0.1c-0.7-0.2-1.5-0.5-1.9-1c-0.7-0.6-1.2-1.2-1.5-1.8
				c-0.2-0.6-0.4-1.3-0.2-2.1c0.1-0.7,0.4-1.5,0.8-2.2c0.5-0.7,1-1.6,1.7-2.3l2.5-3.2c0.2-0.2,0.2-0.6,0.1-0.9
				c-0.1-0.2-0.4-0.6-0.7-0.8c-0.1,0,0-0.1,0-0.2c0.1-0.1,0.1-0.1,0.2-0.1c0.4,0.1,0.7,0.2,1,0.2c0.2,0,0.6,0.1,0.8,0.2
				c0.2,0.1,0.6,0.1,0.8,0.2c0.2,0.1,0.6,0.1,1,0.2c0.1,0,0.2,0.1,0.4,0.1c0.1,0,0.2,0.1,0.4,0.1c0.2,0.1,0.2,0.4,0.2,0.4
				c0,0.1-0.1,0.2-0.2,0.5l-4,5c-1.2,1.5-1.9,2.8-2.1,3.8c-0.1,1,0.1,1.8,1,2.4c0.4,0.4,1,0.4,1.6,0.4c0.7-0.1,1.5-0.5,2.3-1.1
				l4.1-5.1c0.2-0.2,0.2-0.6,0.1-0.9c-0.1-0.2-0.4-0.6-0.7-0.8c-0.1,0,0-0.1,0-0.2c0-0.1,0.1-0.1,0.1-0.1c0.4,0.1,0.7,0.2,1,0.2
				c0.2,0.1,0.6,0.1,0.8,0.2c0.2,0.1,0.6,0.1,0.8,0.2c0.2,0.1,0.6,0.1,1,0.2c0.1,0,0.2,0.1,0.4,0.1c0.1,0,0.2,0.1,0.4,0.2
				c0.2,0.1,0.2,0.2,0.2,0.4c0,0.1-0.1,0.2-0.2,0.5l-6.6,8.1c-0.2,0.2-0.2,0.6-0.1,0.8C151.9,45.6,152.1,45.8,152.5,46.2z"/>
			<path d="M160.5,46.8c-0.6,0.5-1.1,1-1.6,1.6c-0.5,0.6-0.8,1.2-1.1,1.9c-0.2,0.6-0.4,1.3-0.2,2.1c0.1,0.7,0.4,1.3,0.8,2.1
				c0.2,0.4,0.5,0.6,0.8,0.9c0.4,0.2,0.7,0.4,1.1,0.5s0.7,0.2,1.1,0.2s0.7,0,1.1-0.2l0.2,0.4c-0.6,0.4-1.2,0.5-1.8,0.6
				c-0.6,0.1-1.2,0-1.7-0.1c-0.6-0.1-1.1-0.4-1.6-0.7s-0.8-0.7-1.2-1.2c-0.7-0.9-1.1-1.7-1.3-2.5c-0.2-0.9-0.1-1.8,0-2.7
				c0.2-0.8,0.5-1.7,1.1-2.4c0.5-0.7,1.1-1.5,1.8-2.1c0.7-0.6,1.5-1,2.3-1.3s1.7-0.5,2.5-0.5s1.7,0.2,2.5,0.6
				c0.8,0.4,1.6,1.1,2.3,1.9c0.5,0.6,0.8,1.3,0.8,1.9c0.1,0.7,0,1.5-0.2,2.2c-0.2,0.7-0.6,1.5-1.1,2.1c-0.5,0.6-1.1,1.2-1.7,1.7
				L160.5,46.8z M167.5,45.9c-0.4-0.5-0.8-0.7-1.5-0.8c-0.6-0.1-1.1-0.1-1.7,0c-0.6,0.1-1.2,0.2-1.8,0.5c-0.6,0.2-1.1,0.5-1.5,0.9
				l2.8,3.4c0.2,0.2,0.4,0.4,0.6,0.4c0.2,0,0.5,0,0.7,0c0.2-0.1,0.5-0.1,0.6-0.2c0.1-0.1,0.4-0.2,0.4-0.2c0.5-0.5,1-0.8,1.2-1.2
				c0.2-0.4,0.4-0.7,0.5-1.1c0-0.4,0-0.6,0-0.8C167.7,46.3,167.5,46,167.5,45.9z"/>
			<path d="M173,58.4c-0.5,0.2-0.7,0.6-1,1.1c-0.2,0.5-0.2,1-0.4,1.6c0,0.6-0.1,1.2-0.1,1.8c0,0.6-0.1,1.3-0.2,1.9
				c-0.1,0.6-0.4,1.2-0.7,1.7c-0.4,0.6-0.8,1-1.6,1.3c-0.6,0.4-1.1,0.5-1.7,0.4c-0.6,0-1.1-0.2-1.6-0.5c-0.5-0.2-1-0.6-1.3-1.1
				s-0.7-1-1-1.5c-0.2-0.5-0.5-0.8-0.6-1.5c-0.1-0.5-0.2-1-0.4-1.5c-0.1-0.5-0.1-1-0.1-1.5c0-0.5,0.1-1,0.2-1.3l4.1-0.2
				c-0.7,0.4-1.3,0.7-1.7,1.2c-0.5,0.5-0.7,1-0.8,1.5c-0.1,0.5-0.2,1-0.2,1.5c0,0.5,0.1,0.9,0.4,1.2c0.2,0.5,0.6,0.8,1.1,1.1
				c0.5,0.2,1.1,0.1,1.6-0.1c0.5-0.2,0.8-0.6,1.1-1.1c0.2-0.5,0.4-1,0.4-1.6c0.1-0.6,0.1-1.2,0.1-1.8c0-0.6,0.1-1.3,0.2-1.9
				c0.1-0.6,0.4-1.2,0.7-1.7c0.4-0.6,0.8-1,1.6-1.3c0.6-0.4,1.1-0.5,1.7-0.4c0.6,0.1,1.1,0.2,1.6,0.5c0.5,0.2,0.8,0.6,1.3,1.1
				c0.4,0.5,0.7,1,1,1.5c0.5,0.8,0.7,1.7,0.8,2.5c0.1,0.8,0,1.8-0.2,2.8l-4.1,0.4c0.7-0.4,1.3-0.7,1.8-1.1c0.5-0.5,0.7-0.9,1-1.3
				c0.2-0.5,0.4-1,0.4-1.5c0-0.5-0.1-0.9-0.2-1.2c-0.1-0.2-0.2-0.5-0.5-0.6c-0.2-0.1-0.5-0.2-0.7-0.4c-0.2-0.1-0.5-0.1-0.8,0
				C173.6,58.1,173.2,58.2,173,58.4z"/>
			<path d="M172.1,79.6c-0.7,0.2-1.5,0.2-2.1-0.1c-0.6-0.4-1.1-1-1.5-1.8c-0.2-0.8-0.4-1.7-0.2-2.3c0.1-0.6,0.5-1.2,0.8-1.7
				c0.5-0.5,1-0.8,1.7-1.2c0.7-0.4,1.3-0.6,2.1-0.8l6.9-2.3l-0.6-1.7l0.6-0.2c0.1,0.4,0.4,0.7,0.6,1c0.2,0.2,0.6,0.5,1.1,0.7
				c0.4,0.2,0.8,0.4,1.3,0.5c0.5,0.1,1,0.2,1.5,0.2c0.1,0,0.1,0,0.2,0.1c0.1,0,0.1,0.1,0.2,0.4c0,0.1,0,0.2-0.1,0.4l-3.2,1.1l1,2.9
				l-0.7,0.2l-1-2.9l-6.8,2.3c-1,0.4-1.7,0.6-2.3,1c-0.6,0.4-1,0.7-1.3,1.1c-0.2,0.4-0.5,0.7-0.6,1c-0.1,0.2,0,0.6,0,0.8
				c0.1,0.2,0.2,0.4,0.4,0.6c0.1,0.2,0.4,0.2,0.5,0.4c0.1,0.1,0.4,0.1,0.6,0.2c0.2,0,0.4,0,0.6,0L172.1,79.6z"/>
			<path class="st3" d="M24.2,107.2c4.5,37.8,36.6,67.2,75.6,67.2c38.9,0,71.1-29.3,75.6-67.2"/>
		</g>
	</g>
</g>
<g id="圖層_2">
	<path d="M102.1,102.8c-0.7,3.2-1.3,6.3-2,9.3c0,0-0.1,0-0.1,0c-0.7-3.1-1.3-6.1-2-9.3c-2.7,2.2-5.3,4.4-7.9,6.5
		c0,0-0.1-0.1-0.1-0.1c2.2-2.6,4.3-5.2,6.5-8c-3.2-0.7-6.3-1.4-9.4-2c0,0,0-0.1,0-0.1c3.1-0.7,6.2-1.3,9.4-2c-2.2-2.7-4.4-5.4-6.6-8
		c0,0,0.1-0.1,0.1-0.1c2.6,2.2,5.3,4.4,8,6.6c0.7-3.2,1.3-6.3,2-9.3c0,0,0.1,0,0.1,0c0.7,3.1,1.3,6.1,2,9.3c2.7-2.2,5.3-4.4,8-6.6
		c0,0,0.1,0.1,0.1,0.1c-2.2,2.6-4.3,5.3-6.6,8c3.2,0.7,6.3,1.4,9.4,2c0,0,0,0.1,0,0.1c-3.1,0.7-6.2,1.3-9.3,2
		c2.3,2.8,4.5,5.4,6.7,8.1c0,0-0.1,0-0.1,0.1C107.5,107.3,104.8,105.1,102.1,102.8z"/>
	<g>
		<path class="st4" d="M8.6,93.5c0.7,0.1,1.5-0.1,2.1-0.5c0.7-0.4,1.3-0.9,2-1.6c0.7-0.7,1.3-1.4,2-2.1c0.7-0.8,1.4-1.5,2.1-2.1
			c0.7-0.6,1.5-1.2,2.4-1.6c0.9-0.4,1.8-0.5,2.8-0.5c1,0.1,1.8,0.4,2.5,0.9c0.7,0.5,1.2,1.1,1.6,1.8s0.7,1.5,0.8,2.3
			c0.1,0.8,0.2,1.7,0.1,2.5s-0.3,1.6-0.6,2.3c-0.3,0.7-0.6,1.3-1,1.9c-0.4,0.5-0.8,1-1.2,1.4c-0.4,0.4-0.8,0.6-1.1,0.8
			c-0.2-0.1-0.5-0.2-0.9-0.4c-0.4-0.2-0.9-0.4-1.3-0.6s-0.9-0.4-1.3-0.6C19.2,97.2,19,97,18.8,97c0.8,0.2,1.7,0.1,2.5-0.1
			c0.8-0.2,1.6-0.5,2.2-1c0.7-0.4,1.2-1,1.6-1.6c0.4-0.6,0.7-1.3,0.7-2c0-0.5,0-1-0.2-1.5c-0.2-0.5-0.4-0.9-0.8-1.3
			c-0.3-0.4-0.7-0.7-1.2-1c-0.4-0.3-0.9-0.4-1.4-0.4c-0.9-0.1-1.6,0.1-2.4,0.5s-1.4,0.9-2.1,1.6c-0.7,0.6-1.3,1.4-2,2.1
			c-0.7,0.8-1.3,1.5-2.1,2.1s-1.5,1.2-2.3,1.6c-0.8,0.4-1.7,0.6-2.6,0.5c-0.9-0.1-1.6-0.3-2.2-0.8c-0.6-0.5-1.1-1-1.5-1.7
			c-0.4-0.7-0.7-1.4-0.8-2.2s-0.2-1.6-0.1-2.4c0.1-1.1,0.4-2.1,0.9-3s1.2-1.6,2.2-2.1c0.2,0.1,0.5,0.2,0.9,0.4
			c0.4,0.2,0.8,0.4,1.3,0.6c0.5,0.2,0.9,0.4,1.3,0.6s0.8,0.3,1.1,0.4c-1.1-0.2-2-0.2-2.8-0.1c-0.8,0.1-1.5,0.3-2,0.6
			c-0.5,0.3-0.9,0.7-1.2,1.1c-0.3,0.5-0.5,0.9-0.5,1.4c0,0.4,0,0.9,0.1,1.3c0.1,0.5,0.3,0.9,0.6,1.3c0.3,0.4,0.6,0.7,1,1
			S8,93.4,8.6,93.5z"/>
		<path class="st4" d="M30.4,69.2c0,0,0.1-0.1,0.1-0.1c0.1,0,0.1,0,0.2,0c0,0,0.1,0,0.1,0.1c0,0,0.1,0.1,0.1,0.1
			c0,0.4,0.1,0.7,0.1,1c0,0.3,0,0.6,0.1,0.9c0,0.3,0.1,0.6,0.1,0.9c0,0.3,0.1,0.6,0.1,1c0,0.1,0,0.3,0,0.4c0,0.1,0,0.3,0,0.4
			c-0.1,0.2-0.2,0.4-0.3,0.4c-0.1,0-0.3,0-0.5-0.1l-1.3-0.4c0.6,0.7,0.9,1.4,1,2.2c0.1,0.8,0,1.5-0.2,2.2c-0.3,0.9-0.7,1.6-1.2,2.1
			c-0.5,0.5-1.1,0.8-1.9,0.9c-0.7,0.1-1.5,0.2-2.4,0s-1.8-0.4-2.8-0.7l-3.9-1.2c-0.3-0.1-0.6,0-0.8,0.2c-0.2,0.3-0.4,0.6-0.6,1
			c0,0.1-0.1,0.1-0.3,0.1c-0.1,0-0.2-0.1-0.2-0.2c0-0.4-0.1-0.7-0.1-1c0-0.3,0-0.6-0.1-0.9c0-0.3-0.1-0.6-0.1-0.9
			c0-0.3-0.1-0.6-0.1-1c0-0.1,0-0.3,0-0.4c0-0.1,0-0.2,0.1-0.4c0.1-0.3,0.2-0.4,0.3-0.4c0.1,0,0.3,0,0.5,0.1l6.2,2
			c1.9,0.6,3.3,0.8,4.3,0.6c1-0.2,1.6-0.8,2-1.8c0.2-0.5,0-1-0.3-1.7c-0.4-0.6-1-1.2-1.9-1.8l-6.3-2c-0.3-0.1-0.6,0-0.8,0.2
			c-0.2,0.3-0.4,0.6-0.6,1c0,0.1-0.1,0.1-0.3,0.1c-0.1,0-0.2-0.1-0.2-0.2c0-0.4-0.1-0.7-0.1-1s-0.1-0.6-0.1-0.9
			c0-0.3-0.1-0.6-0.1-0.9c0-0.3-0.1-0.6-0.1-1c0-0.1,0-0.3,0-0.4c0-0.1,0-0.2,0.1-0.4c0.1-0.2,0.2-0.4,0.3-0.4c0.1,0,0.3,0,0.5,0.1
			L29,70.5c0.3,0.1,0.6,0,0.8-0.2S30.2,69.7,30.4,69.2z"/>
		<path class="st4" d="M31.9,67.5l0.2-0.3c0.2-0.2,0.2-0.5,0.2-0.7c-0.1-0.2-0.2-0.4-0.3-0.6c-0.2-0.2-0.4-0.4-0.6-0.6
			c-0.2-0.2-0.4-0.3-0.6-0.4l-6.3-4.3c-0.3-0.2-0.6-0.3-0.9-0.2c-0.3,0.1-0.6,0.3-0.9,0.7c0,0-0.1,0.1-0.1,0c-0.1,0-0.1,0-0.2-0.1
			c-0.1-0.1-0.1-0.1-0.1-0.2c0.1-0.4,0.1-0.7,0.2-1s0.1-0.6,0.1-0.8c0-0.3,0.1-0.5,0.1-0.8c0-0.3,0.1-0.6,0.2-0.9
			c0-0.1,0-0.3,0.1-0.4s0.1-0.2,0.2-0.3c0.1-0.2,0.3-0.3,0.4-0.3c0.1,0,0.3,0.1,0.5,0.3l1.1,0.7c-0.4-0.8-0.6-1.7-0.5-2.5
			s0.4-1.5,0.8-2.2c0.7-1,1.4-1.6,2.3-1.9c0.8-0.2,1.7-0.2,2.7,0.1c-0.4-0.5-0.6-0.9-0.8-1.4s-0.2-1-0.2-1.4c0-0.5,0.1-0.9,0.2-1.3
			c0.2-0.4,0.3-0.8,0.6-1.2c0.5-0.8,1.1-1.4,1.8-1.7c0.6-0.3,1.3-0.4,2-0.4c0.7,0.1,1.5,0.3,2.3,0.7c0.8,0.4,1.6,0.9,2.5,1.5
			l3.4,2.3c0.2,0.1,0.4,0.2,0.6,0.4s0.5,0.2,0.7,0.3c0.2,0.1,0.5,0.1,0.7,0.1c0.2,0,0.4-0.2,0.6-0.4l0.2-0.3l0.5,0.4l-3.5,5.1
			L41.6,53l0.2-0.3c0.2-0.2,0.2-0.5,0.2-0.7c-0.1-0.2-0.2-0.4-0.3-0.6c-0.2-0.2-0.4-0.4-0.6-0.6c-0.2-0.2-0.4-0.3-0.6-0.4L37.1,48
			c-1.6-1.1-3-1.7-4-1.8c-1-0.1-1.8,0.3-2.4,1.2c-0.3,0.5-0.4,1.1-0.1,1.9c0.2,0.8,0.8,1.6,1.6,2.4c0.3,0.2,0.6,0.3,0.9,0.5
			c0.3,0.2,0.6,0.4,0.9,0.6l3.4,2.3c0.2,0.1,0.4,0.2,0.6,0.4c0.2,0.1,0.5,0.2,0.7,0.3c0.2,0.1,0.5,0.1,0.7,0.1
			c0.2,0,0.4-0.2,0.6-0.4l0.2-0.3l0.5,0.4l-3.5,5.1l-0.5-0.4l0.2-0.3c0.2-0.2,0.2-0.5,0.2-0.7c-0.1-0.2-0.2-0.4-0.3-0.6
			c-0.2-0.2-0.4-0.4-0.6-0.6c-0.2-0.2-0.4-0.3-0.6-0.4l-3.4-2.3c-1.6-1.1-3-1.7-4-1.8c-1-0.1-1.8,0.3-2.4,1.2
			c-0.3,0.5-0.4,1.1-0.1,2c0.3,0.8,0.9,1.6,1.8,2.5l4.9,3.3c0.2,0.1,0.4,0.2,0.6,0.4c0.2,0.1,0.5,0.2,0.7,0.3
			c0.2,0.1,0.5,0.1,0.7,0.1c0.2,0,0.4-0.2,0.6-0.4l0.2-0.3l0.5,0.4l-3.5,5.1L31.9,67.5z"/>
		<path class="st4" d="M46.4,46.6l0.3-0.2c0.2-0.2,0.3-0.4,0.4-0.6c0-0.2,0-0.5-0.1-0.7c-0.1-0.2-0.2-0.5-0.4-0.7s-0.3-0.4-0.4-0.6
			l-4.6-6.1c-0.2-0.3-0.5-0.4-0.8-0.5c-0.3,0-0.7,0.1-1.1,0.3c0,0-0.1,0-0.1,0c-0.1,0-0.1-0.1-0.1-0.1c-0.1-0.1-0.1-0.2-0.1-0.2
			c0.2-0.3,0.4-0.6,0.5-0.9s0.3-0.5,0.4-0.7c0.1-0.2,0.3-0.5,0.4-0.7c0.1-0.2,0.3-0.5,0.5-0.8c0.1-0.1,0.1-0.2,0.2-0.3
			c0.1-0.1,0.2-0.2,0.3-0.3c0.2-0.2,0.4-0.2,0.5-0.1c0.1,0.1,0.2,0.2,0.4,0.4l0.8,1c-0.1-0.9,0-1.8,0.4-2.5c0.4-0.7,0.9-1.3,1.5-1.8
			c1-0.7,1.9-1.1,2.8-1c0.9,0,1.7,0.4,2.5,1c-0.2-0.6-0.3-1.1-0.2-1.6c0-0.5,0.1-1,0.3-1.4c0.2-0.4,0.4-0.8,0.7-1.2
			c0.3-0.4,0.6-0.7,1-0.9c0.8-0.6,1.5-0.9,2.2-1c0.7-0.1,1.4,0,2.1,0.3c0.7,0.3,1.3,0.8,1.9,1.4c0.6,0.6,1.3,1.4,1.9,2.2l2.5,3.3
			c0.1,0.2,0.3,0.3,0.4,0.6c0.2,0.2,0.4,0.4,0.6,0.5s0.4,0.3,0.7,0.3s0.5,0,0.7-0.2l0.3-0.2l0.4,0.5l-5,3.7l-0.4-0.5l0.3-0.2
			c0.2-0.2,0.3-0.4,0.4-0.6c0-0.2,0-0.5-0.1-0.7c-0.1-0.2-0.2-0.5-0.4-0.7c-0.1-0.2-0.3-0.4-0.4-0.6L57.8,30c-1.2-1.6-2.2-2.6-3.1-3
			c-0.9-0.4-1.8-0.3-2.7,0.3c-0.5,0.3-0.7,0.9-0.7,1.7c0,0.8,0.2,1.7,0.7,2.7c0.2,0.2,0.4,0.5,0.7,0.8c0.2,0.3,0.4,0.5,0.6,0.8
			l2.5,3.3c0.1,0.2,0.3,0.3,0.4,0.6c0.2,0.2,0.4,0.4,0.6,0.5c0.2,0.2,0.4,0.3,0.7,0.3c0.2,0,0.5,0,0.7-0.2l0.3-0.2l0.4,0.5l-5,3.7
			l-0.4-0.5l0.3-0.2c0.2-0.2,0.3-0.4,0.4-0.6c0-0.2,0-0.5-0.1-0.7c-0.1-0.2-0.2-0.5-0.4-0.7c-0.1-0.2-0.3-0.4-0.4-0.6l-2.5-3.3
			c-1.2-1.6-2.2-2.6-3.1-3c-0.9-0.4-1.8-0.3-2.7,0.3c-0.5,0.4-0.7,1-0.7,1.8c0,0.9,0.3,1.8,0.9,2.9l3.5,4.7c0.1,0.2,0.3,0.3,0.4,0.6
			c0.2,0.2,0.4,0.4,0.6,0.5c0.2,0.2,0.4,0.3,0.7,0.3s0.5,0,0.7-0.2l0.3-0.2l0.4,0.5l-5,3.7L46.4,46.6z"/>
		<path class="st4" d="M67.8,24.5c0.3,0.7,0.6,1.3,1,1.9s0.9,1.2,1.5,1.6c0.6,0.4,1.2,0.7,1.9,0.9c0.7,0.1,1.4,0.1,2.2-0.2
			c0.4-0.1,0.7-0.3,1-0.6s0.6-0.5,0.8-0.8c0.2-0.3,0.4-0.7,0.5-1c0.1-0.4,0.2-0.8,0.1-1.2l0.4-0.2c0.1,0.7,0.1,1.3,0,1.9
			c-0.1,0.6-0.3,1.1-0.6,1.6c-0.3,0.5-0.7,0.9-1.1,1.3s-1,0.7-1.5,0.9c-1,0.4-2,0.5-2.9,0.4s-1.8-0.4-2.5-0.8c-0.8-0.4-1.5-1-2-1.8
			c-0.6-0.7-1-1.5-1.4-2.4c-0.3-0.9-0.5-1.7-0.6-2.6c-0.1-0.9,0.1-1.8,0.3-2.6c0.3-0.8,0.7-1.6,1.4-2.3c0.6-0.7,1.5-1.3,2.6-1.7
			c0.8-0.3,1.5-0.4,2.2-0.2c0.7,0.1,1.4,0.4,2,0.8c0.6,0.4,1.2,1,1.7,1.6s0.9,1.4,1.2,2.2L67.8,24.5z M69.1,17.6
			c-0.6,0.2-1,0.6-1.3,1.1c-0.3,0.5-0.5,1.1-0.6,1.7c-0.1,0.6-0.1,1.2,0,1.9c0.1,0.6,0.2,1.2,0.4,1.7l4.1-1.6
			c0.3-0.1,0.5-0.3,0.6-0.5c0.1-0.2,0.2-0.4,0.2-0.7c0-0.2,0-0.5-0.1-0.7c0-0.2-0.1-0.4-0.1-0.5c-0.3-0.7-0.5-1.2-0.8-1.5
			c-0.3-0.4-0.6-0.6-0.9-0.8c-0.3-0.1-0.6-0.2-0.8-0.2C69.5,17.5,69.3,17.5,69.1,17.6z"/>
		<path class="st4" d="M86.8,26.2l0.1,0.6L80.9,28l-0.1-0.6l0.4-0.1c0.3-0.1,0.5-0.2,0.6-0.4s0.2-0.4,0.2-0.7c0-0.3,0-0.5,0-0.8
			c0-0.3-0.1-0.5-0.1-0.7l-1.5-7.5c-0.1-0.4-0.2-0.6-0.5-0.8s-0.6-0.2-1.1-0.1c-0.1,0-0.2,0-0.2-0.2c0-0.1,0-0.2,0.1-0.3
			c0.3-0.2,0.6-0.4,0.8-0.6c0.2-0.2,0.5-0.3,0.7-0.5s0.4-0.3,0.7-0.5c0.2-0.2,0.5-0.4,0.8-0.6c0.1-0.1,0.2-0.2,0.3-0.2
			c0.1-0.1,0.2-0.1,0.3-0.1c0.2,0,0.4,0,0.5,0.1c0.1,0.1,0.1,0.3,0.2,0.5l0.4,1.9c0.3-1,0.8-1.8,1.5-2.5c0.7-0.7,1.6-1.1,2.6-1.3
			l0.5,2.7c-0.6,0.1-1.1,0.2-1.6,0.4c-0.5,0.1-0.9,0.3-1.3,0.5c-0.4,0.2-0.7,0.4-0.9,0.7c-0.2,0.3-0.4,0.6-0.5,1l1.4,6.8
			c0,0.2,0.1,0.4,0.2,0.7s0.2,0.5,0.3,0.7c0.1,0.2,0.3,0.4,0.5,0.5c0.2,0.1,0.4,0.2,0.7,0.1L86.8,26.2z"/>
		<path class="st4" d="M112.4,8.4c-0.1,0.7,0,1.5,0.4,2.2s0.8,1.4,1.5,2.1c0.6,0.7,1.3,1.4,2,2.1c0.7,0.7,1.4,1.5,2,2.3
			c0.6,0.8,1.1,1.6,1.4,2.5s0.4,1.8,0.2,2.8c-0.2,1-0.5,1.8-1,2.4c-0.5,0.6-1.2,1.1-1.9,1.5c-0.7,0.4-1.5,0.6-2.4,0.7
			c-0.9,0.1-1.7,0.1-2.5-0.1c-0.8-0.1-1.6-0.4-2.3-0.7s-1.3-0.7-1.8-1.2c-0.5-0.4-0.9-0.9-1.3-1.3c-0.3-0.4-0.6-0.8-0.7-1.2
			c0.1-0.2,0.2-0.5,0.4-0.9c0.2-0.4,0.4-0.8,0.7-1.3c0.2-0.4,0.5-0.9,0.7-1.2c0.2-0.4,0.3-0.6,0.4-0.8c-0.2,0.8-0.3,1.6-0.1,2.5
			c0.1,0.8,0.4,1.6,0.8,2.3c0.4,0.7,0.9,1.3,1.5,1.8c0.6,0.5,1.2,0.8,1.9,0.9c0.5,0.1,1,0.1,1.5-0.1c0.5-0.1,0.9-0.4,1.4-0.7
			c0.4-0.3,0.8-0.7,1-1.1c0.3-0.4,0.5-0.9,0.6-1.4c0.1-0.8,0-1.6-0.3-2.4s-0.8-1.5-1.4-2.2s-1.3-1.4-2-2.2c-0.7-0.7-1.4-1.4-2-2.2
			s-1.1-1.6-1.4-2.4c-0.3-0.8-0.4-1.7-0.3-2.6c0.1-0.8,0.5-1.6,1-2.1c0.5-0.6,1.1-1,1.8-1.4c0.7-0.3,1.5-0.6,2.3-0.7
			c0.8-0.1,1.6-0.1,2.4,0c1.1,0.2,2,0.6,2.9,1.1c0.9,0.6,1.5,1.3,2,2.3c-0.1,0.2-0.2,0.5-0.4,0.8s-0.4,0.8-0.6,1.2
			c-0.2,0.4-0.4,0.9-0.7,1.3c-0.2,0.4-0.4,0.8-0.5,1c0.2-1.1,0.3-2,0.3-2.8c-0.1-0.8-0.2-1.5-0.5-2c-0.3-0.6-0.6-1-1-1.3
			c-0.4-0.3-0.9-0.5-1.4-0.6c-0.4-0.1-0.9-0.1-1.3,0c-0.5,0.1-0.9,0.2-1.3,0.5S113.3,6.6,113,7C112.7,7.4,112.5,7.9,112.4,8.4z"/>
		<path class="st4" d="M126.7,22.4c-0.3,0.7-0.4,1.4-0.6,2.1c-0.1,0.8-0.1,1.5,0,2.2c0.1,0.7,0.4,1.3,0.8,1.9c0.4,0.6,1,1,1.8,1.3
			c0.4,0.1,0.8,0.2,1.2,0.3c0.4,0,0.8,0,1.2-0.1s0.8-0.2,1.1-0.4c0.3-0.2,0.6-0.4,0.9-0.8l0.4,0.2c-0.4,0.6-0.8,1.1-1.3,1.4
			s-1,0.6-1.6,0.8c-0.6,0.2-1.1,0.2-1.7,0.2c-0.6,0-1.2-0.2-1.7-0.4c-1-0.4-1.8-0.9-2.4-1.6c-0.6-0.7-1.1-1.5-1.3-2.3
			c-0.3-0.9-0.4-1.7-0.3-2.7s0.3-1.8,0.6-2.7c0.3-0.9,0.8-1.6,1.4-2.3c0.6-0.7,1.2-1.3,2-1.7c0.8-0.4,1.6-0.7,2.6-0.8
			c0.9-0.1,2,0.1,3,0.5c0.8,0.3,1.3,0.7,1.8,1.3c0.4,0.6,0.7,1.2,0.9,2c0.2,0.7,0.2,1.5,0.1,2.3c-0.1,0.8-0.3,1.6-0.6,2.4
			L126.7,22.4z M132.3,18.2c-0.6-0.2-1.1-0.2-1.7-0.1c-0.6,0.2-1.1,0.5-1.5,0.9c-0.5,0.4-0.9,0.8-1.3,1.4c-0.4,0.5-0.7,1-0.9,1.5
			l4.1,1.6c0.3,0.1,0.5,0.1,0.8,0c0.2-0.1,0.4-0.2,0.6-0.4c0.2-0.2,0.3-0.3,0.4-0.5c0.1-0.2,0.2-0.3,0.2-0.4
			c0.3-0.7,0.4-1.2,0.4-1.7c0-0.5,0-0.9-0.2-1.2c-0.1-0.3-0.3-0.6-0.5-0.7C132.6,18.3,132.5,18.2,132.3,18.2z"/>
		<path class="st4" d="M139.6,36.4l-0.3,0.6l-5.3-3.2l0.3-0.6l0.4,0.2c0.2,0.1,0.5,0.2,0.7,0.1s0.4-0.2,0.6-0.4s0.4-0.4,0.5-0.6
			c0.2-0.2,0.3-0.4,0.4-0.6l4-6.5c0.2-0.3,0.2-0.6,0.1-0.9c-0.1-0.3-0.3-0.6-0.7-0.8c-0.1,0-0.1-0.1,0-0.3c0.1-0.1,0.1-0.2,0.2-0.1
			c0.4,0.1,0.7,0.1,1,0.1c0.3,0,0.6,0.1,0.8,0.1c0.3,0,0.5,0.1,0.8,0.1c0.3,0,0.6,0.1,0.9,0.1c0.1,0,0.3,0,0.4,0.1
			c0.1,0,0.2,0.1,0.3,0.1c0.2,0.1,0.3,0.3,0.3,0.4c0,0.1-0.1,0.3-0.2,0.5l-1,1.6c0.8-0.5,1.8-0.8,2.8-0.8c1,0,1.9,0.2,2.8,0.8
			l-1.4,2.4c-0.5-0.3-1-0.6-1.4-0.8c-0.5-0.2-0.9-0.4-1.3-0.5c-0.4-0.1-0.8-0.2-1.1-0.1c-0.4,0-0.7,0.2-1,0.4l-3.6,6
			c-0.1,0.2-0.2,0.4-0.3,0.6c-0.1,0.2-0.2,0.5-0.3,0.7c-0.1,0.3-0.1,0.5,0,0.7c0,0.2,0.2,0.4,0.4,0.6L139.6,36.4z"/>
		<path class="st4" d="M151.2,36.1c-0.5,0.5-0.9,1.1-1.2,1.8c-0.4,0.7-0.6,1.4-0.7,2.1c-0.1,0.7-0.1,1.4,0.1,2.1
			c0.2,0.7,0.6,1.3,1.2,1.8c0.3,0.3,0.6,0.5,1,0.7s0.7,0.3,1.1,0.4s0.8,0.1,1.2,0c0.4-0.1,0.7-0.2,1.1-0.4l0.3,0.3
			c-0.6,0.4-1.1,0.7-1.7,0.9s-1.2,0.2-1.8,0.2s-1.1-0.2-1.7-0.4s-1-0.6-1.5-0.9c-0.8-0.7-1.4-1.5-1.7-2.4c-0.3-0.9-0.5-1.7-0.5-2.6
			c0-0.9,0.2-1.8,0.6-2.6c0.4-0.9,0.9-1.6,1.5-2.3c0.6-0.7,1.3-1.3,2.1-1.7c0.8-0.5,1.6-0.8,2.5-0.9s1.8-0.1,2.7,0.2
			c0.9,0.3,1.8,0.8,2.7,1.5c0.6,0.5,1,1.1,1.2,1.8s0.3,1.4,0.2,2.2s-0.3,1.5-0.7,2.2c-0.4,0.7-0.8,1.4-1.4,2.1L151.2,36.1z M158,34
			c-0.5-0.4-1-0.6-1.6-0.6c-0.6,0-1.2,0.1-1.7,0.3c-0.6,0.2-1.1,0.5-1.7,0.9s-1,0.7-1.3,1.1l3.3,2.9c0.2,0.2,0.5,0.3,0.7,0.3
			c0.2,0,0.5-0.1,0.7-0.2c0.2-0.1,0.4-0.2,0.6-0.4c0.2-0.1,0.3-0.2,0.3-0.3c0.5-0.5,0.8-1,1-1.4c0.2-0.4,0.3-0.8,0.3-1.2
			c0-0.3-0.1-0.6-0.2-0.8C158.2,34.3,158.1,34.1,158,34z"/>
		<path class="st4" d="M154.8,48.7l0.2,0.3c0.2,0.2,0.4,0.3,0.6,0.4c0.2,0,0.5,0,0.7-0.1s0.5-0.2,0.7-0.4c0.2-0.2,0.4-0.3,0.6-0.4
			l6.1-4.6c0.3-0.2,0.4-0.5,0.5-0.8c0-0.3-0.1-0.7-0.4-1c0,0,0-0.1,0-0.1c0-0.1,0.1-0.1,0.1-0.1c0.1-0.1,0.2-0.1,0.2-0.1
			c0.3,0.2,0.6,0.4,0.9,0.5s0.5,0.3,0.7,0.4c0.2,0.1,0.5,0.3,0.7,0.4c0.2,0.1,0.5,0.3,0.8,0.5c0.1,0.1,0.2,0.1,0.3,0.2
			c0.1,0.1,0.2,0.2,0.3,0.3c0.2,0.2,0.2,0.4,0.1,0.5c-0.1,0.1-0.2,0.2-0.4,0.4l-1,0.8c0.9-0.1,1.8,0,2.5,0.3
			c0.7,0.4,1.3,0.9,1.8,1.5c0.6,0.8,0.9,1.5,1,2.2c0.1,0.7,0,1.4-0.3,2.1c-0.3,0.7-0.7,1.3-1.4,1.9s-1.4,1.3-2.2,1.9l-3.3,2.5
			c-0.2,0.1-0.3,0.3-0.6,0.4s-0.4,0.4-0.5,0.6c-0.2,0.2-0.2,0.4-0.3,0.7c0,0.2,0,0.5,0.2,0.7l0.2,0.3l-0.5,0.4l-3.7-4.9l0.5-0.4
			l0.3,0.3c0.2,0.2,0.4,0.3,0.6,0.4c0.2,0,0.5,0,0.7-0.1c0.2-0.1,0.5-0.2,0.7-0.4c0.2-0.2,0.4-0.3,0.6-0.4l3.3-2.5
			c1.6-1.2,2.6-2.2,3-3.2c0.4-0.9,0.3-1.8-0.3-2.7c-0.4-0.5-1-0.7-1.8-0.7c-0.9,0-1.8,0.3-2.9,0.9l-4.7,3.5
			c-0.2,0.1-0.3,0.3-0.6,0.4c-0.2,0.2-0.4,0.4-0.5,0.6c-0.2,0.2-0.2,0.4-0.3,0.7s0,0.5,0.2,0.7l0.3,0.3L158,54l-3.7-4.9L154.8,48.7z
			"/>
		<path class="st4" d="M164.7,62.7l0.2,0.4c0.1,0.2,0.3,0.4,0.5,0.5c0.2,0.1,0.5,0.1,0.7,0c0.3,0,0.5-0.1,0.8-0.2
			c0.2-0.1,0.5-0.2,0.6-0.3l6.8-3.5c0.3-0.2,0.5-0.4,0.6-0.7c0.1-0.3,0-0.7-0.2-1.1c0-0.1,0-0.1,0.2-0.2c0.1-0.1,0.2-0.1,0.2,0
			c0.3,0.2,0.5,0.5,0.8,0.6c0.2,0.2,0.4,0.4,0.6,0.5c0.2,0.2,0.4,0.3,0.6,0.5s0.5,0.4,0.8,0.6c0.1,0.1,0.2,0.2,0.3,0.3
			s0.2,0.2,0.2,0.3c0.1,0.2,0.1,0.4,0,0.5c-0.1,0.1-0.2,0.2-0.5,0.3l-9.1,4.7c-0.2,0.1-0.4,0.2-0.6,0.3c-0.2,0.1-0.4,0.3-0.6,0.5
			c-0.2,0.2-0.3,0.4-0.4,0.6s-0.1,0.4,0.1,0.7l0.2,0.4l-0.6,0.3l-2.8-5.5L164.7,62.7z M182.3,56c-0.1-0.1-0.1-0.2-0.1-0.3
			c0-0.1,0.1-0.2,0.3-0.3l1.5-0.8c0.2-0.1,0.3-0.1,0.4-0.1c0.1,0,0.2,0.1,0.3,0.3l0.8,1.6c0.1,0.2,0,0.4-0.2,0.6l-1.5,0.8
			c-0.2,0.1-0.3,0.1-0.4,0.1c-0.1,0-0.2-0.1-0.3-0.2L182.3,56z"/>
		<path class="st4" d="M173.1,78.3c-0.7,0.3-1.4,0.2-2.1-0.1c-0.6-0.4-1.1-1-1.4-1.8c-0.3-0.9-0.4-1.7-0.3-2.3
			c0.1-0.7,0.4-1.2,0.9-1.7c0.5-0.5,1-0.9,1.7-1.2c0.7-0.3,1.4-0.6,2.1-0.9l7-2.5l-0.6-1.7l0.6-0.2c0.1,0.4,0.3,0.7,0.7,1
			c0.3,0.3,0.7,0.5,1.1,0.7c0.4,0.2,0.9,0.3,1.3,0.5s1,0.2,1.5,0.2c0.1,0,0.2,0,0.2,0.1c0.1,0.1,0.1,0.2,0.2,0.4
			c0.1,0.2,0,0.3-0.1,0.3l-3.2,1.1l1.1,3l-0.7,0.3l-1.1-3l-6.8,2.4c-0.9,0.3-1.7,0.7-2.3,1s-1,0.7-1.3,1.1c-0.3,0.4-0.5,0.7-0.5,1
			c-0.1,0.3-0.1,0.6,0,0.9c0.1,0.2,0.2,0.4,0.3,0.6c0.1,0.2,0.3,0.3,0.5,0.4c0.2,0.1,0.4,0.2,0.6,0.2c0.2,0,0.4,0,0.6-0.1
			L173.1,78.3z"/>
		<path class="st4" d="M187.8,94.4l-0.7,0.1c0-0.2-0.1-0.4-0.1-0.5s-0.1-0.3-0.1-0.4c0-0.1-0.1-0.2-0.2-0.3s-0.3-0.1-0.5-0.2
			c-0.8-0.2-1.8-0.4-2.8-0.6c-1-0.2-2.1-0.4-3.1-0.6c-1.1-0.2-2.2-0.4-3.3-0.7c-1.1-0.2-2.2-0.5-3.3-0.7c-1.5-0.4-2.9-0.7-4.3-1.1
			c-1.3-0.4-2.5-0.9-3.5-1.4c-1.1-0.6-2.1-1.2-2.9-2.1c-0.8-0.8-1.3-1.8-1.5-3l3-0.4c0.2,1.1,0.5,2,1,2.7c0.5,0.7,1.2,1.4,2,1.9
			c0.8,0.5,1.6,0.9,2.5,1.3s1.8,0.6,2.8,0.8l-0.2-1.6c1.2-0.7,2.4-1.4,3.3-1.9c1-0.6,1.9-1.1,2.8-1.7c0.9-0.5,1.8-1.1,2.7-1.6
			c0.9-0.5,1.8-1.1,2.9-1.7c0.3-0.2,0.5-0.4,0.6-0.6c0.1-0.2,0.1-0.4,0-0.6l-0.1-0.7l0.7-0.1l0.9,6l-0.7,0.1l-0.1-0.8
			c0-0.1,0-0.2-0.1-0.3c0-0.1-0.1-0.1-0.2-0.1c0,0-0.1,0-0.2,0.1c-0.1,0-0.1,0.1-0.2,0.1c-1.7,0.9-3.3,1.9-4.9,2.9
			c-1.6,1-3.2,1.9-4.9,2.9l11.1,2.2c0.1,0,0.1,0,0.2,0c0.1,0,0.2-0.1,0.2-0.2c0-0.1,0-0.3,0-0.4l-0.1-0.5l0.7-0.1L187.8,94.4z"/>
	</g>
	<path class="st5" d="M23.6,107.2c4.5,38.2,37,67.8,76.4,67.8s71.9-29.6,76.4-67.8"/>
</g>
</svg>
