<svg width="148" height="220" viewBox="0 0 148 220" fill="none" xmlns="http://www.w3.org/2000/svg">
<g clip-path="url(#clip0_1252_860)">
<path d="M135.653 141.005C135.42 140.423 134.722 140.19 134.141 140.423C133.559 140.656 133.326 141.354 133.559 141.935C133.675 142.168 142.052 162.179 144.844 195.568C92.4906 211.158 55.9597 198.71 49.561 196.266C51.7714 186.959 53.9819 176.838 55.6107 169.392C55.727 168.81 55.8434 168.345 55.8434 168.345C55.9597 167.763 55.6107 167.181 55.029 166.949C54.4473 166.832 53.8656 167.181 53.6329 167.763C53.6329 167.763 53.5165 168.228 53.4002 168.926C51.8878 176.023 50.4917 182.422 49.0956 188.123C25.5948 187.541 10.0052 179.281 6.28227 177.07C8.84176 165.553 12.332 151.243 16.5202 138.911C20.4758 127.277 26.2929 120.761 32.9243 117.388C32.9243 117.388 32.9243 117.388 33.0406 117.388C33.1569 117.388 33.2733 117.388 33.3896 117.271C33.6223 117.155 33.7386 117.039 33.855 116.806C42.2315 112.85 51.7714 113.897 60.3806 115.643C73.9925 118.551 82.9507 113.897 86.9063 111.105C87.0226 113.199 87.2553 115.526 87.3717 117.853C88.8841 136.933 90.8619 163.109 90.2802 168.81C89.8148 172.998 91.9089 173.929 92.7233 174.162C92.956 174.162 93.0723 174.278 93.305 174.278C95.8645 174.278 99.2384 171.37 101.565 165.902C102.729 166.483 104.823 167.414 107.499 167.414C108.429 167.414 109.476 167.298 110.523 166.949C114.828 165.785 118.435 161.946 121.11 155.664C121.343 155.082 121.11 154.384 120.529 154.151C119.947 153.919 119.365 154.151 119.016 154.733C116.573 160.317 113.548 163.691 109.942 164.738C106.568 165.669 103.543 164.389 102.38 163.691C102.496 163.342 102.612 162.877 102.729 162.528C105.986 151.475 106.102 120.529 104.59 114.595C104.474 114.014 103.776 113.665 103.194 113.781C102.612 113.897 102.263 114.595 102.38 115.177C103.892 120.994 103.776 151.01 100.634 161.946C98.5404 169.043 94.7011 172.3 93.1887 171.951C92.607 171.835 92.258 170.672 92.4906 169.043C93.0723 163.226 91.2109 137.98 89.5821 117.62C89.3494 114.712 89.1168 111.92 89.0004 109.36C89.1168 109.244 89.1168 109.244 89.1168 109.244C89.5821 108.778 89.5821 108.08 89.1168 107.615C89.0004 107.499 89.0004 107.499 88.8841 107.499C88.7677 105.288 88.5351 103.31 88.4187 101.565C88.3024 100.169 88.186 98.4241 87.9534 96.4463C87.9534 96.33 87.9534 96.2136 87.9534 96.2136C85.2775 71.7821 74.1088 9.42358 62.5911 2.55948C59.3336 0.581695 56.076 0.116333 52.8185 1.1634C45.489 3.49021 41.1844 12.7975 40.9518 13.2628C40.7191 13.8445 40.9518 14.4262 41.5335 14.7752C42.1152 15.0079 42.8132 14.7752 43.0459 14.1935C43.0459 14.0772 47.1178 5.35166 53.5165 3.37387C54.68 3.02485 55.9597 2.90851 57.2394 3.02485C52.4695 5.81702 49.3283 13.7282 48.8629 14.7752C48.6302 15.3569 48.9793 15.9386 49.561 16.1713C49.6773 16.1713 49.7937 16.2877 49.91 16.2877C50.3754 16.2877 50.7244 16.055 50.9571 15.5896C52.2368 12.3321 56.4251 3.95557 60.9623 4.30459C61.0787 4.42093 61.3114 4.53727 61.4277 4.53727C71.782 10.587 82.9507 69.8043 85.7429 95.8646C82.2527 97.8424 64.9179 107.615 52.1205 108.08C46.3034 108.313 42.3479 107.266 40.1374 104.939C38.625 103.31 38.0433 101.1 38.2759 98.3078C38.625 95.3993 38.1596 92.8398 37.9269 91.6764C39.9047 92.1417 42.5805 91.7927 44.6747 90.513C49.3283 87.7208 51.4224 83.8815 51.4224 83.8815C51.6551 83.8815 45.2564 81.7874 41.3008 79.8096C39.0903 78.7626 37.2289 78.6462 35.9491 79.1116C36.2981 76.4357 35.8328 74.3416 35.3674 73.1782C35.7164 73.0619 36.0655 72.9455 36.4145 72.8292C37.3452 72.4802 38.7413 72.0148 39.0903 72.3638C39.5557 72.7128 40.2537 72.5965 40.6027 72.1311C40.9518 71.6658 40.8354 70.9677 40.3701 70.6187C39.0903 69.688 37.3452 70.2697 35.7164 70.8514C33.506 71.5494 32.1099 71.8985 31.1792 70.8514C30.1321 69.5716 30.3648 68.8736 32.2262 66.0814C33.0406 64.918 33.9713 63.4056 34.9021 61.5441C37.2289 56.7742 37.4615 48.6303 37.5779 45.4891C37.5779 45.0238 37.5779 44.6748 37.5779 44.5584C37.6942 43.9767 37.3452 43.5114 36.8798 43.2787C36.2981 43.046 35.7164 43.395 35.4838 43.9767C35.3674 44.2094 35.3674 44.3257 35.3674 45.3728C35.2511 48.0486 35.0184 56.1925 32.9243 60.4971C32.1099 62.2422 31.1792 63.5219 30.4811 64.8017C28.8523 67.3612 27.3399 69.5716 29.5504 72.2475C30.4811 73.4109 31.6445 73.7599 32.8079 73.7599C32.9243 73.7599 33.1569 73.7599 33.2733 73.7599C33.6223 74.6906 34.0877 76.7848 33.7386 79.3443C33.6223 79.8096 33.9713 80.275 34.3204 80.5077C34.204 80.624 34.204 80.7403 34.0877 80.973C33.6223 82.6018 34.553 85.743 35.3674 85.6266C34.4367 88.0698 34.9021 89.6986 35.9491 90.7456C35.7164 90.9783 35.6001 91.4437 35.7164 91.7927C35.7164 91.7927 36.5308 94.7012 36.1818 98.1914C35.8328 101.682 36.6472 104.59 38.625 106.684C41.0681 109.244 45.14 110.64 50.8407 110.64C51.3061 110.64 51.7714 110.64 52.3531 110.64C56.3087 110.524 60.6133 109.593 64.8016 108.197C65.2669 109.709 65.965 112.618 66.1977 114.595C64.5689 114.479 62.8238 114.246 61.0787 113.897C52.8185 111.687 42.8132 110.64 33.7386 114.595C32.5752 110.989 29.085 99.7038 26.7582 81.322C23.966 59.45 29.434 37.927 30.1321 36.1819C30.3648 35.8329 30.3648 35.3675 30.1321 35.0185C29.7831 34.5531 29.085 34.3205 28.6197 34.6695C27.2236 35.6002 21.8719 59.799 24.6641 81.5547C27.1072 100.751 30.7138 112.152 31.8772 115.526C25.0131 119.133 18.8471 125.997 14.7751 138.096C5.81691 163.924 0.116221 197.779 -0.000119569 198.128C-0.11646 198.71 0.348902 199.291 0.930605 199.408C1.04695 199.408 1.04695 199.408 1.16329 199.408C1.74499 199.408 2.21035 199.059 2.21035 198.477C2.21035 198.477 2.32669 198.012 2.44303 197.197C7.56202 199.64 37.3452 207.435 44.442 207.552C43.0459 212.554 41.9988 216.044 41.1844 217.673C40.9518 218.255 41.1844 218.953 41.6498 219.186C41.7661 219.302 41.9988 219.302 42.1152 219.302C42.5805 219.302 42.9296 219.069 43.1622 218.72C43.6276 217.673 44.3256 215.928 44.9073 213.834C83.5324 228.26 144.611 213.136 146.24 209.529C146.473 209.064 146.589 208.482 146.705 207.901C147.287 207.901 147.752 207.319 147.752 206.737C146.24 166.134 135.769 141.237 135.653 141.005ZM66.7794 107.15C75.1559 104.241 82.8344 100.053 86.0919 98.3078C86.2083 99.5875 86.3246 100.751 86.4409 101.798C86.5573 103.776 86.7899 106.103 86.9063 108.546C84.6958 110.291 78.4134 114.595 68.4081 114.479C68.0591 112.152 67.2447 108.778 66.7794 107.15Z" fill="#93795B"/>
<path d="M139.26 44.6748C145.891 69.9207 145.658 116.922 145.542 134.606C145.542 140.888 145.542 141.121 145.658 141.47C145.775 141.935 146.24 142.168 146.705 142.168C146.822 142.168 146.938 142.168 147.171 142.052C147.636 141.819 147.985 141.237 147.869 140.772C147.869 140.307 147.869 137.747 147.869 134.606C147.985 116.806 148.334 69.5716 141.586 44.0931C133.443 13.0301 119.598 0.698036 119.016 0.232674C118.551 -0.116348 117.853 -0.116348 117.388 0.349014C117.039 0.814377 117.039 1.51242 117.504 1.97778C117.504 2.09412 131.232 14.3099 139.26 44.6748Z" fill="#93795B"/>
</g>
<defs>
<clipPath id="clip0_1252_860">
<rect width="147.753" height="220" fill="white"/>
</clipPath>
</defs>
</svg>
