<svg width="180" height="211" viewBox="0 0 180 211" fill="none" xmlns="http://www.w3.org/2000/svg">
<path d="M114.7 97.1326C122.491 94.8055 120.67 89.2406 120.67 89.2406C121.075 89.0382 120.063 85.8005 117.635 83.9792C115.206 82.158 114.093 85.0922 114.093 85.0922C114.093 85.0922 112.879 84.2828 111.463 84.384C109.54 84.5863 107.011 86.8123 105.999 89.3418C104.886 92.0736 103.166 93.5913 102.356 94.1984C102.053 94.4008 101.851 94.5019 101.851 94.5019C101.851 94.5019 106.91 99.4598 114.7 97.1326ZM115.206 88.33C115.813 88.33 116.522 88.33 117.129 88.4312C117.028 88.4312 116.926 88.5323 116.926 88.5323C115.611 92.9842 108.326 92.3772 108.326 92.3772C108.225 92.3772 108.023 92.3772 107.921 92.3772C110.957 90.6571 113.79 88.4312 115.206 88.33Z" fill="#93795B"/>
<path d="M148.494 133.659C146.673 133.052 144.953 132.444 143.233 131.939C144.751 129.106 147.584 120.606 137.466 106.745C129.169 95.3115 129.27 91.7702 129.472 82.3604C129.574 78.2121 129.675 73.1531 129.169 65.7669C127.55 43.9121 114.599 33.9964 111.462 31.8717C109.236 10.118 103.672 0 94.0595 0C82.9297 0 78.3766 1.31534 69.6751 10.0168C65.7291 13.9628 61.7831 14.064 57.1288 14.2664C52.2722 14.4687 46.8085 14.6711 40.5353 19.3254C29.3044 27.8245 25.3584 38.1448 26.8761 55.143C26.9772 56.4584 27.0784 57.7737 27.2808 59.0891C28.4949 72.3436 29.5067 82.7651 17.4663 95.7162C11.1932 102.394 0.872824 115.75 2.08698 129.51C2.69406 136.492 6.33654 142.461 12.7109 147.419C6.64008 158.448 1.58108 171.298 0.0633854 176.255C-0.138974 176.761 0.164565 177.267 0.670465 177.47C0.771645 177.47 0.872824 177.47 0.974004 177.47C1.37872 177.47 1.78344 177.166 1.88462 176.761C2.59288 174.535 4.0094 170.589 6.033 165.834C16.7581 177.065 33.9586 175.851 38.107 175.345C36.8929 180.505 35.1728 187.385 33.8575 192.748C33.7563 193.254 34.0598 193.759 34.5657 193.861V193.962C35.6787 195.581 74.633 207.216 74.633 207.216V207.115C75.0377 207.014 75.4424 206.711 75.4424 206.205C75.9483 199.527 77.7695 193.962 79.9955 187.486C80.8049 185.26 81.5132 182.832 82.3226 180.303C84.8521 172.208 84.8521 162.394 84.8521 157.132C84.8521 156.019 84.8521 155.008 84.8521 154.401C84.9533 151.264 79.7931 145.598 72.407 137.807C70.7881 136.087 69.1692 134.468 68.0563 133.153C63.0984 127.588 56.117 115.547 54.7005 112.714C53.7899 110.792 56.5218 106.138 60.2654 103.203C63.3008 100.775 67.348 96.6268 68.9669 94.9067C69.6751 95.9185 69.2704 97.1327 69.1693 97.5374C68.3598 98.0433 67.5504 98.5492 66.7409 99.2575L66.4374 99.4598C60.8725 104.316 56.3194 108.566 56.5218 111.197C56.7241 113.827 59.3548 118.279 59.6583 118.785C59.8607 119.089 60.1642 119.291 60.4678 119.291C60.6701 119.291 60.7713 119.291 60.9737 119.19C61.4796 118.886 61.5808 118.279 61.2772 117.875C60.569 116.66 58.5454 113.018 58.4442 111.096C58.2418 109.173 64.9197 103.406 67.6516 100.978L67.9551 100.775C70.4846 98.5492 73.1153 97.9421 74.1271 97.7398C74.3294 98.2457 74.4306 98.6504 74.2282 99.1563C73.7223 100.775 71.4964 102.192 70.9905 102.394C70.6869 102.495 69.8775 102.799 66.0327 109.072C66.0327 109.173 66.0327 109.173 65.9315 109.274C65.0209 110.185 64.6161 110.994 64.515 111.601C64.3126 113.524 66.5386 120.404 67.0445 121.821C67.2468 122.326 67.7527 122.63 68.2586 122.428C68.7645 122.225 69.0681 121.719 68.8657 121.214C67.7527 117.976 66.3362 113.018 66.4374 111.905C66.5386 111.5 67.348 110.185 73.3176 105.733C73.6212 105.531 73.8235 105.328 73.9247 105.227C74.9365 105.025 80.0967 104.924 81.5132 106.138C81.7156 106.239 81.7155 106.34 81.7155 106.34C81.7155 106.441 81.6144 106.644 81.412 106.745C80.4002 107.453 77.7695 107.352 76.353 107.048C75.8471 106.947 75.3412 107.251 75.24 107.757C74.633 110.488 72.2046 113.119 72.1035 113.119C71.9011 113.321 71.7999 113.524 71.7999 113.827C71.7999 114.839 79.3884 124.856 80.7038 126.374C81.7155 127.487 83.3344 128.6 85.0545 129.814C87.4828 131.534 90.3158 133.557 91.8335 135.885C93.0477 137.605 94.7678 139.831 96.4878 141.955C98.6126 144.586 100.737 147.318 101.344 148.633C102.761 151.77 100.94 176.357 99.422 192.039C99.422 192.242 99.422 192.343 99.5232 192.444C98.6126 197.301 96.9937 209.847 96.9937 209.847C97.8032 211.061 102.255 210.353 103.166 210.555C106.302 211.061 112.272 194.67 112.272 194.67H112.171C113.688 190.218 121.075 169.072 119.658 164.62C118.241 159.965 105.189 149.342 103.065 147.621C102.255 146.104 100.231 143.574 98.1067 140.842C96.3866 138.718 94.6666 136.593 93.5536 134.873C91.8335 132.343 88.8993 130.219 86.2686 128.397C84.6498 127.284 83.1321 126.171 82.2215 125.16C81.9179 124.856 81.7156 124.552 81.3108 124.148C83.5368 124.148 87.584 124.35 90.2147 125.969C94.0595 128.195 97.4996 132.444 97.4996 132.444C97.702 132.647 98.0055 132.849 98.2079 132.849C98.4102 132.849 98.6126 132.748 98.8149 132.647C99.2197 132.343 99.3208 131.736 98.9161 131.331C98.8149 131.129 95.1725 126.778 91.0241 124.35C87.0781 122.023 80.8049 122.225 79.5908 122.326C78.8825 121.416 78.1743 120.404 77.466 119.392C80.0967 119.291 87.2804 119.493 89.6076 119.898C90.9229 120.101 95.9819 124.148 99.2197 126.88C99.422 127.082 99.6244 127.082 99.8268 127.082C100.13 127.082 100.333 126.981 100.535 126.778C100.839 126.374 100.839 125.767 100.434 125.362C99.1185 124.148 92.2383 118.279 89.9111 117.875C88.697 117.672 86.2686 117.47 84.0427 117.369C86.5722 116.66 88.697 116.155 89.1017 116.053C89.7088 116.155 93.2501 117.773 96.1843 119.291C96.2855 119.392 96.4878 119.392 96.589 119.392C96.9937 119.392 97.2973 119.19 97.4996 118.886C97.4996 118.785 97.6008 118.684 97.6008 118.583C98.7138 119.392 99.8268 120.404 101.041 121.517C105.088 125.362 110.349 131.028 115.408 136.593C120.366 141.955 124.919 147.014 128.359 150.151C134.936 156.323 135.341 163.81 135.037 173.018C134.835 182.326 132.306 208.835 132.204 209.139C132.103 209.645 132.508 210.151 133.115 210.151H133.216C133.722 210.151 134.127 209.746 134.228 209.24C134.228 209.038 135.24 198.211 136.049 187.891C154.869 192.95 169.843 187.689 173.688 186.07C171.664 195.378 169.742 202.866 169.742 203.068C169.641 203.574 169.944 204.08 170.45 204.282C170.551 204.282 170.653 204.282 170.653 204.282C171.057 204.282 171.462 203.979 171.563 203.574C171.664 203.27 178.646 175.851 179.86 161.078C181.479 145.699 168.933 140.64 148.494 133.659ZM117.837 165.429C118.849 168.566 113.79 184.754 110.349 194.569L101.446 192.748C101.446 192.646 101.547 192.646 101.547 192.545C101.85 189.004 104.582 160.674 103.773 150.859C108.528 154.906 116.825 162.293 117.837 165.429ZM70.9905 139.426C75.7459 144.485 83.0309 152.073 82.9297 154.603C82.9297 155.311 82.9297 156.222 82.9297 157.436C82.9297 162.596 82.9297 172.208 80.5014 179.999C79.692 182.529 78.9837 184.856 78.1743 187.082C77.9719 187.588 77.8707 188.093 77.6684 188.599C57.4324 187.284 42.5589 181.719 39.0176 180.303C40.5353 173.928 41.7495 168.869 41.7495 168.465C41.7495 167.959 41.3448 167.453 40.7377 167.453C40.1306 167.453 39.7259 167.857 39.7259 168.363C39.7259 168.566 39.6247 169.072 39.4224 169.78C19.6923 167.655 11.6991 160.471 9.47311 157.942C14.6333 146.812 21.6147 134.67 27.7867 131.534C37.7023 126.475 49.4392 129.814 55.7123 131.635C56.2182 131.736 56.6229 131.939 57.1288 132.04C59.8607 132.748 61.7831 132.647 63.0985 131.736C63.3008 131.534 63.5032 131.331 63.7055 131.129C64.6161 132.444 65.6279 133.557 66.5386 134.569C67.7527 136.087 69.2704 137.706 70.9905 139.426ZM71.294 96.6268C71.294 95.4126 70.9905 93.9961 69.574 92.8831C69.1692 92.5796 68.5622 92.5796 68.2586 92.9843C68.1574 93.0855 62.6937 98.8527 59.1524 101.787C55.7123 104.519 51.4628 110.185 53.0816 113.726C53.8911 115.547 58.2418 123.237 62.6937 129.409C62.6937 129.611 62.4914 129.915 62.1878 130.219C61.3784 130.724 59.8607 130.724 57.9383 130.219C57.5336 130.117 57.0277 130.016 56.5218 129.814C49.9451 127.891 37.8035 124.451 27.1796 129.915C22.7277 132.242 18.0734 138.515 13.8238 145.8C7.95542 141.247 4.71766 135.783 4.11058 129.409C3.19996 119.898 8.66368 108.161 18.984 97.0315C31.5303 83.4734 30.4174 72.0401 29.2032 58.8867C29.102 57.5714 29.0008 56.256 28.7985 54.9407C27.382 38.7519 31.1256 28.8363 41.7495 20.8431C47.5168 16.4923 52.4746 16.29 57.23 16.0876C62.0867 15.8852 66.6397 15.6829 71.0917 11.231C79.3884 2.93422 83.4356 1.82124 94.1607 1.82124C102.457 1.82124 107.415 11.5345 109.439 31.5681C109.236 31.9728 109.338 32.3776 109.641 32.6811C109.844 34.6035 109.945 36.5259 110.046 38.6507C111.058 56.5596 103.267 58.9879 94.1607 61.9221C92.3394 62.5292 90.417 63.1362 88.697 63.8445C80.6026 67.1834 81.2097 74.3672 81.8167 81.3486C82.0191 84.0805 82.2215 86.8123 82.0191 89.3418C81.3108 95.9185 77.7695 97.2339 76.353 97.5374C76.2518 97.0315 75.9483 96.5256 75.6448 96.1209C75.4424 95.9185 75.1389 95.7162 74.8353 95.7162C74.5318 95.9185 73.1153 95.9185 71.294 96.6268ZM74.0259 114.131C74.7341 113.22 76.1507 111.399 76.8589 109.274C77.3648 109.375 78.0731 109.375 78.7813 109.375C78.4778 109.578 77.9719 109.881 77.7695 110.691C77.5672 111.703 77.9719 112.816 79.1861 114.232C79.4896 114.536 80.299 115.547 81.2096 116.357C79.9955 116.762 78.7813 117.065 77.9719 117.267C77.8707 117.267 77.8707 117.369 77.7695 117.369C77.1625 117.369 76.7577 117.47 76.4542 117.47C75.3412 116.053 74.4306 114.839 74.0259 114.131ZM89.4052 114.333C88.8993 114.333 86.1675 115.042 83.4356 115.75C82.3226 114.94 79.5908 112.208 79.6919 111.096C80.1979 111.096 81.412 111.601 82.2215 112.006C83.0309 112.411 83.9415 112.816 84.8521 113.018C85.2569 113.119 85.6616 113.22 86.1675 113.321C87.0781 113.524 88.2922 113.827 89.7088 114.333C89.5064 114.333 89.5064 114.333 89.4052 114.333ZM178.241 161.078C177.836 165.733 176.926 171.601 175.813 177.47C154.869 184.957 140.501 179.695 137.061 178.178C137.162 176.255 137.263 174.535 137.263 173.22C137.466 163.911 137.162 155.615 129.877 148.937C126.538 145.901 121.985 140.842 117.027 135.48C111.968 129.915 106.707 124.148 102.559 120.303C95.476 113.625 89.6076 112.31 86.471 111.5C85.9651 111.399 85.5604 111.298 85.2568 111.197C84.5486 110.994 83.7392 110.59 82.9297 110.286C82.0191 109.881 81.1085 109.477 80.299 109.274C81.1085 109.173 81.9179 108.87 82.525 108.465C83.1321 108.06 83.4356 107.352 83.5368 106.644C83.638 106.037 83.5368 105.025 82.0191 104.316C79.7931 103.102 73.7223 102.9 72.7105 103.709C72.6094 103.811 72.407 103.912 72.0023 104.215C71.5976 104.519 71.1928 104.822 70.8893 105.025C71.1928 104.62 71.3952 104.418 71.4964 104.215C72.407 103.811 75.1389 102.192 75.8471 99.7634C75.8471 99.6622 75.8471 99.6622 75.8471 99.561C77.5672 99.2575 82.525 97.841 83.4356 89.6454C83.7392 86.9135 83.5368 84.0805 83.2332 81.2475C82.6262 74.3672 82.2215 68.4988 89.0005 65.6657C90.7206 64.9575 92.5418 64.3504 94.363 63.8445C103.368 61.0115 112.677 57.9761 111.564 38.6507C111.462 37.133 111.361 35.7165 111.26 34.3C115.51 37.6389 125.425 47.251 126.842 65.7669C127.348 72.9507 127.246 78.0097 127.145 82.1581C126.943 91.7702 126.842 95.7162 135.543 107.655C145.459 121.315 142.12 129.106 141.007 131.129C138.983 130.421 137.162 129.814 135.341 129.308C124.009 125.564 117.129 123.338 115.408 120.809C113.486 117.976 113.79 112.816 113.992 111.197C115.813 110.387 117.23 109.375 118.241 108.465C122.086 105.126 124.11 100.067 123.3 95.8174C122.693 92.4784 122.997 88.4312 123.3 84.4852C123.705 79.5274 124.11 74.8731 122.693 71.3318C121.277 67.7905 120.366 64.3504 119.962 61.315V61.0115C119.86 60.5056 119.354 60.1009 118.849 60.202C118.343 60.3032 117.938 60.8091 118.039 61.315V61.5174C118.444 64.7551 119.456 68.2964 120.872 72.0401C122.086 75.0755 121.682 79.6286 121.378 84.2828C121.075 88.33 120.67 92.4784 121.378 96.1209C121.884 99.0551 120.771 103.608 116.926 106.947C114.093 109.477 107.415 113.119 95.476 109.274C94.9701 109.072 94.4642 109.375 94.2619 109.881C94.0595 110.387 94.363 110.893 94.8689 111.096C98.8149 112.411 102.255 112.917 105.29 112.917C107.921 112.917 110.147 112.512 111.968 111.905C111.766 114.333 111.766 118.886 113.79 121.821C115.914 124.957 122.188 126.981 134.734 131.129C138.477 132.343 142.727 133.76 147.482 135.379C168.022 142.36 179.354 146.913 178.241 161.078Z" fill="#93795B"/>
</svg>
