<svg width="200" height="200" viewBox="0 0 200 200" fill="none" xmlns="http://www.w3.org/2000/svg">
<g clip-path="url(#clip0_294_7093)">
<path d="M101.671 102.872C100.944 106.029 100.337 109.064 99.7307 112.1H99.6094C99.0029 109.064 98.2752 106.029 97.6687 102.872C95.0002 105.057 92.4531 107.243 89.7846 109.307C89.7846 109.307 89.6633 109.307 89.6633 109.186C91.8466 106.636 93.9086 103.964 96.0919 101.293C92.9382 100.564 89.9059 99.9572 86.8735 99.3501V99.2287C89.9059 98.6215 92.9382 97.893 96.0919 97.2858C93.9086 94.6144 91.7253 91.943 89.542 89.393C89.542 89.393 89.542 89.393 89.6633 89.2715C92.3318 91.4572 94.8789 93.643 97.6687 95.8287C98.3964 92.6715 99.0029 89.6358 99.6094 86.6001H99.7307C100.337 89.6358 101.065 92.6715 101.671 95.8287C104.34 93.643 107.008 91.4572 109.555 89.2715C109.555 89.2715 109.555 89.2715 109.677 89.393C107.493 91.943 105.431 94.6144 103.127 97.2858C106.281 98.0144 109.313 98.6215 112.345 99.2287V99.3501C109.313 99.9572 106.281 100.686 103.127 101.293C105.31 103.964 107.493 106.636 109.677 109.307C109.677 109.307 109.677 109.307 109.555 109.429C107.008 107.243 104.461 105.057 101.671 102.872Z" fill="black"/>
<path d="M9.24528 93.6429C9.97305 93.7643 10.7008 93.5214 11.3073 93.1571C12.035 92.7929 12.6415 92.1857 13.248 91.5786C13.8544 90.9714 14.5822 90.2429 15.1887 89.3929C15.7951 88.6643 16.5229 87.9357 17.2507 87.3286C17.9784 86.7214 18.8275 86.1143 19.6766 85.75C20.5256 85.3857 21.496 85.2643 22.4663 85.2643C23.4367 85.3857 24.2857 85.6286 24.8922 86.1143C25.6199 86.6 26.1051 87.2071 26.469 87.8143C26.8329 88.5429 27.1968 89.2714 27.3181 90.1214C27.4394 90.9714 27.5606 91.8214 27.4394 92.6714C27.3181 93.5214 27.1968 94.25 26.8329 94.9786C26.5903 95.7071 26.2264 96.3143 25.8625 96.8C25.4987 97.2857 25.0135 97.7714 24.6496 98.1357C24.2857 98.5 23.9218 98.7429 23.558 98.8643C23.4367 98.7429 23.0728 98.6214 22.7089 98.5C22.345 98.2571 21.8598 98.1357 21.3747 97.8929C20.8895 97.65 20.5256 97.5286 20.1617 97.2857C19.7978 97.1643 19.5553 97.0429 19.3127 96.9214C20.1617 97.0429 20.8895 97.0429 21.7385 96.8C22.5876 96.5571 23.3154 96.3143 23.9218 95.8286C24.5283 95.3429 25.1348 94.8571 25.4987 94.25C25.9838 93.6429 26.2264 93.0357 26.2264 92.3071C26.2264 91.8214 26.2264 91.3357 25.9838 90.85C25.7412 90.3643 25.6199 89.8786 25.2561 89.5143C24.8922 89.15 24.5283 88.7857 24.1644 88.5429C23.6792 88.3 23.1941 88.1786 22.7089 88.0571C21.8598 87.9357 21.1321 88.1786 20.4043 88.5429C19.6766 88.9071 18.9488 89.5143 18.3423 90.1214C17.7358 90.7286 17.0081 91.4571 16.4016 92.1857C15.7951 92.9143 15.0674 93.6429 14.3396 94.25C13.6119 94.8571 12.8841 95.4643 12.1563 95.8286C11.4286 96.1929 10.4582 96.4357 9.60916 96.3143C8.76011 96.1929 8.03235 95.95 7.42588 95.4643C6.81941 94.9786 6.33423 94.4929 5.97035 93.7643C5.60647 93.0357 5.36388 92.3071 5.12129 91.5786C5 91.2143 5 90.4857 5 89.7571C5.12129 88.6643 5.36388 87.6929 5.84906 86.8429C6.33423 85.9929 7.06199 85.2643 8.03235 84.7786C8.15364 84.9 8.51752 85.0214 8.8814 85.1429C9.24528 85.2643 9.73046 85.5071 10.0943 85.6286C10.5795 85.8714 10.9434 85.9929 11.4286 86.2357C11.9137 86.3571 12.2776 86.4786 12.6415 86.6C11.5499 86.3571 10.5795 86.3571 9.85175 86.4786C9.12399 86.6 8.39623 86.8429 7.91105 87.0857C7.42588 87.3286 6.9407 87.8143 6.69811 88.1786C6.45553 88.6643 6.21294 89.15 6.21294 89.6357C6.21294 90.1214 6.21294 90.4857 6.33423 90.9714C6.45553 91.4571 6.57682 91.8214 6.9407 92.1857C7.30458 92.55 7.54717 92.9143 7.91105 93.1571C8.27493 93.4 8.63881 93.6429 9.24528 93.6429Z" fill="black"/>
<path d="M16.7653 73C17.1292 71.9071 17.6143 70.9357 18.2208 70.2071C18.8273 69.4785 19.555 68.9928 20.2828 68.6285C21.1318 68.2643 21.9809 68.1428 22.9513 68.1428C23.9216 68.1428 24.892 68.2643 25.9836 68.6285C26.8327 68.8714 27.6817 69.3571 28.4095 69.9643C29.1372 70.5714 29.7437 71.1785 30.2289 72.0285C30.7141 72.8785 30.9566 73.6071 31.0779 74.5785C31.1992 75.55 31.0779 76.4 30.7141 77.3714C30.3502 78.5857 29.865 79.5571 29.2585 80.2857C28.6521 81.0143 27.9243 81.5 27.0752 81.8643C26.2262 82.2285 25.3771 82.35 24.4068 82.35C23.4364 82.35 22.4661 82.1071 21.4957 81.8643C20.5254 81.5 19.7976 81.1357 19.0699 80.5285C18.3421 79.9214 17.7356 79.3143 17.3717 78.4643C16.8866 77.7357 16.644 76.8857 16.5227 75.9143C16.4014 74.9428 16.5227 73.9714 16.7653 73ZM29.6224 76.7642C29.865 76.1571 29.865 75.55 29.6224 75.0643C29.5011 74.5785 29.1372 73.9714 28.7734 73.6071C28.4095 73.1214 27.803 72.7571 27.1965 72.3928C26.5901 72.0285 25.9836 71.7857 25.2558 71.5428C24.6494 71.3 23.9216 71.1785 23.1938 71.0571C22.4661 70.9357 21.7383 70.9357 21.0106 70.9357C20.2828 70.9357 19.6763 71.1785 19.0699 71.5428C18.4634 71.9071 18.0995 72.5143 17.8569 73.2428C17.6143 73.85 17.6143 74.4571 17.7356 74.9428C17.8569 75.55 18.0995 76.0357 18.5847 76.5214C18.9486 77.0071 19.4337 77.3714 20.0402 77.8571C20.6467 78.3428 21.2531 78.4643 21.9809 78.7071C22.7087 78.95 23.5577 79.0714 24.2855 79.1928C25.1345 79.3142 25.8623 79.3142 26.4688 79.1928C27.0752 79.0714 27.803 78.8285 28.2882 78.4643C29.0159 77.9785 29.3798 77.4928 29.6224 76.7642Z" fill="black"/>
<path d="M39.2047 54.907H39.326H39.4473C39.4473 54.907 39.5686 54.907 39.5686 55.0285V55.1499C39.5686 55.5142 39.4473 55.8785 39.4473 56.1213C39.4473 56.3642 39.326 56.7285 39.326 56.9713C39.326 57.2142 39.2047 57.5785 39.2047 57.8213C39.2047 58.0642 39.0834 58.4285 39.0834 58.7928C39.0834 58.9142 39.0834 59.0356 38.9622 59.157C38.8409 59.2785 39.0834 59.5213 38.9622 59.6428C38.8409 59.8856 38.7196 60.007 38.5983 59.8856C38.477 59.7642 38.3557 59.7642 38.1131 59.6428L37.0215 58.9142C37.3853 59.6428 37.6279 60.4928 37.5066 61.2213C37.3853 61.9499 37.1427 62.6785 36.7789 63.2856C36.2937 64.1356 35.8085 64.6213 35.202 64.9856C34.5956 65.3499 33.8678 65.4713 33.1401 65.4713C32.4123 65.4713 31.6845 65.2285 30.8355 64.9856C29.9864 64.6213 29.1374 64.257 28.2883 63.6499L24.7708 61.5856C24.5282 61.4642 24.1643 61.4642 23.9217 61.5856C23.6791 61.8285 23.4365 62.0713 23.194 62.4356C23.194 62.557 23.0727 62.557 22.9514 62.4356C22.8301 62.3142 22.8301 62.3142 22.8301 62.1928C22.8301 61.8285 22.9514 61.4642 22.9514 61.2213C22.9514 60.9785 23.0727 60.6142 23.0727 60.3713C23.0727 60.1285 23.194 59.7642 23.194 59.5213C23.194 59.2785 23.3153 58.9142 23.3153 58.5499C23.3153 58.4285 23.3153 58.307 23.3153 58.1856C23.3153 58.0642 23.4365 57.9428 23.4365 57.8213C23.5578 57.5785 23.6791 57.457 23.8004 57.5785C23.9217 57.5785 24.043 57.6999 24.2856 57.8213L29.7438 61.0999C31.4419 62.0713 32.7762 62.557 33.7465 62.6785C34.7169 62.6785 35.4446 62.3142 36.0511 61.3428C36.2937 60.9785 36.2937 60.3713 36.1724 59.6428C35.9298 58.9142 35.4446 58.307 34.7169 57.5785L29.1374 54.2999C28.8948 54.1785 28.5309 54.1785 28.2883 54.2999C28.0457 54.5428 27.8031 54.7856 27.5605 55.1499C27.5605 55.2713 27.4392 55.2713 27.3179 55.1499C27.1967 55.0285 27.1967 55.0285 27.1967 54.907C27.1967 54.5428 27.3179 54.1785 27.3179 53.9356C27.3179 53.6928 27.4392 53.3285 27.4392 53.0856C27.4392 52.8428 27.5605 52.4785 27.5605 52.2356C27.5605 51.9928 27.6818 51.6285 27.6818 51.2642C27.6818 51.1428 27.6818 51.0213 27.6818 50.8999C27.6818 50.7785 27.8031 50.657 27.8031 50.5356C27.9244 50.2928 28.0457 50.1713 28.167 50.2928C28.2883 50.4142 28.4096 50.4142 28.6522 50.5356L37.6279 55.8785C37.8705 55.9999 38.2344 55.9999 38.477 55.8785C38.7196 55.6356 38.9622 55.3928 39.2047 54.907Z" fill="black"/>
<path d="M41.8735 53.9356L42.1161 53.5714C42.2374 53.3285 42.3587 53.0856 42.3587 52.9642C42.3587 52.7214 42.2374 52.4785 42.1161 52.3571C41.9948 52.1142 41.8735 51.9928 41.6309 51.7499C41.3884 51.5071 41.2671 51.3856 41.1458 51.2642L29.3803 41.1856C29.1377 40.9428 28.7738 40.8214 28.4099 40.8214C28.046 40.8214 27.6822 40.9428 27.4396 41.3071C27.3183 41.3071 27.3183 41.3071 27.197 41.3071C27.0757 41.1856 27.0757 41.1856 27.0757 41.0642C27.197 40.6999 27.3183 40.4571 27.3183 40.0928C27.3183 39.7285 27.4396 39.6071 27.5609 39.3642C27.6822 39.1214 27.6822 38.8785 27.8034 38.6356C27.9247 38.3928 27.9247 38.0285 28.046 37.7856C28.046 37.6642 28.1673 37.5428 28.1673 37.4214C28.1673 37.2999 28.2886 37.1785 28.2886 37.0571C28.4099 36.8142 28.5312 36.8142 28.6525 36.8142C28.7738 36.8142 28.8951 36.9356 29.1377 37.0571L43.0865 48.9571C43.2078 49.0785 43.4503 49.1999 43.6929 49.4428C43.9355 49.5642 44.1781 49.6856 44.4207 49.8071C44.6633 49.9285 44.9059 49.9285 45.1485 49.9285C45.391 49.9285 45.6336 49.8071 45.7549 49.5642L45.9975 49.3214L46.4827 49.6856L42.48 54.2999L41.8735 53.9356Z" fill="black"/>
<path d="M58.1265 22.2427L58.4904 22.7284C58.3691 22.8498 58.2478 22.9712 58.1265 23.0927C58.0052 23.2141 57.8839 23.2141 57.8839 23.3355C57.7626 23.457 57.7626 23.5784 57.7626 23.6998C57.7626 23.8212 57.7626 24.0641 57.7626 24.1855C58.3691 26.3712 58.8542 28.557 59.4607 30.7427C60.0672 32.9284 60.6736 35.1141 61.2801 37.2998L59.3394 38.757C58.4904 38.2712 57.7626 37.7855 57.0348 37.2998C56.3071 36.8141 55.7006 36.4498 54.9728 36.0855C54.3664 35.7212 53.7599 35.357 53.1534 34.9927C52.547 34.6284 51.9405 34.2641 51.334 33.8998C51.6979 35.357 52.1831 36.9355 52.547 38.3927C52.9108 39.8498 53.396 41.4284 53.7599 42.8855L51.8192 44.3427C50.6063 43.6141 49.5146 42.8855 48.5443 42.2784C47.5739 41.6712 46.7249 41.1855 45.7545 40.5784C44.9054 40.0927 44.0564 39.4855 43.086 38.9998C42.237 38.5141 41.2666 37.907 40.2963 37.2998C39.9324 37.057 39.6898 37.057 39.5685 37.057C39.3259 37.057 39.2046 37.1784 38.962 37.2998L38.3556 37.7855L37.9917 37.2998L42.8435 33.657L43.2073 34.1427L42.6009 34.507C42.4796 34.6284 42.4796 34.6284 42.3583 34.7498C42.3583 34.7498 42.3583 34.8712 42.3583 34.9927L42.4796 35.1141C42.4796 35.1141 42.6009 35.2355 42.7222 35.2355C44.299 36.207 45.8758 37.1784 47.5739 38.1498C49.1507 39.1212 50.7275 40.0927 52.4257 41.0641L49.9998 33.0498C49.6359 32.807 49.272 32.6855 49.0294 32.4427C48.6656 32.1998 48.3017 31.957 47.9378 31.8355C47.5739 31.5927 47.3313 31.5927 47.21 31.5927C46.9674 31.5927 46.8461 31.7141 46.6036 31.8355L45.9971 32.3212L45.6332 31.8355L50.485 28.1927L50.8488 28.6784L50.2424 29.1641C50.1211 29.2855 50.1211 29.2855 49.9998 29.407C49.8785 29.5284 49.9998 29.5284 49.9998 29.6498L50.1211 29.7712C50.1211 29.7712 50.2424 29.8927 50.3637 29.8927C51.9405 30.8641 53.5173 31.8355 55.2154 32.807C56.9135 33.7784 58.3691 34.7498 60.0672 35.7212L56.7922 25.0355C56.7922 24.9141 56.7922 24.9141 56.6709 24.9141C56.5496 24.7927 56.5497 24.7927 56.4284 24.7927C56.3071 24.7927 56.1858 24.9141 56.0645 25.0355L55.5793 25.3998L55.2154 24.9141L58.1265 22.2427Z" fill="black"/>
<path d="M67.9513 18.2356C69.043 17.7498 70.1346 17.6284 70.9837 17.6284C71.954 17.6284 72.8031 17.8713 73.5309 18.2356C74.2586 18.5998 74.9864 19.207 75.5928 19.9356C76.1993 20.6641 76.6845 21.6356 77.1697 22.607C77.5335 23.457 77.6548 24.307 77.6548 25.2784C77.6548 26.2498 77.5335 27.0998 77.1697 27.9498C76.8058 28.7998 76.3206 29.5284 75.7141 30.257C75.1077 30.9856 74.2586 31.4713 73.2883 31.8356C72.0753 32.3213 71.105 32.5641 70.1346 32.4427C69.1643 32.4427 68.3152 32.1998 67.5875 31.8356C66.8597 31.4713 66.1319 30.8641 65.6468 30.1356C65.0403 29.407 64.5551 28.4356 64.1912 27.4641C63.8273 26.6141 63.7061 25.6427 63.7061 24.6713C63.7061 23.6998 63.8273 22.8498 64.1912 22.1213C64.5551 21.2713 65.0403 20.5427 65.6468 19.9356C66.1319 19.207 66.981 18.5998 67.9513 18.2356ZM73.0457 30.6213C73.6521 30.3784 74.1373 30.0141 74.3799 29.6498C74.6225 29.2856 74.8651 28.6784 74.9864 28.0713C75.1077 27.4641 75.1077 26.857 74.9864 26.1284C74.8651 25.3998 74.7438 24.7927 74.3799 24.0641C74.1373 23.457 73.8947 22.8498 73.5309 22.1213C73.167 21.5141 72.6818 20.907 72.1966 20.4213C71.7114 19.9356 71.105 19.5713 70.4985 19.3284C69.892 19.0856 69.1643 19.0856 68.4365 19.4498C67.83 19.6927 67.3449 20.057 67.1023 20.4213C66.8597 20.7856 66.4958 21.3927 66.3745 21.9998C66.2532 22.607 66.2532 23.2141 66.3745 23.9427C66.4958 24.6713 66.6171 25.2784 66.8597 26.007C67.1023 26.7356 67.4662 27.4641 67.9513 28.1927C68.4365 28.9213 68.9217 29.407 69.4069 29.8927C69.892 30.3784 70.4985 30.7427 71.105 30.8641C71.7114 30.9856 72.3179 30.9856 73.0457 30.6213Z" fill="black"/>
<path d="M86.2668 13.3784C87.4797 13.257 88.4501 13.257 89.4204 13.3784C90.3908 13.6213 91.1186 13.9856 91.8463 14.4713C92.5741 15.0784 93.0593 15.6856 93.5444 16.5356C94.0296 17.3856 94.2722 18.357 94.3935 19.5713C94.5148 20.5427 94.5148 21.3927 94.2722 22.2427C94.0296 23.0927 93.787 23.9427 93.3019 24.6713C92.8167 25.3999 92.2102 26.007 91.3611 26.6141C90.6334 27.0999 89.663 27.4641 88.6927 27.5856C87.4797 27.8284 86.3881 27.707 85.4178 27.5856C84.4474 27.3427 83.7196 26.9784 82.9919 26.3713C82.3854 25.7641 81.7789 25.0356 81.4151 24.1856C81.0512 23.3356 80.6873 22.3641 80.566 21.2713C80.4447 20.2999 80.4447 19.3284 80.6873 18.4784C80.9299 17.6284 81.1725 16.7784 81.6576 16.0499C82.1428 15.3213 82.7493 14.7141 83.5983 14.2284C84.3261 13.8641 85.1752 13.4999 86.2668 13.3784ZM88.5714 26.4927C89.1779 26.3713 89.663 26.1284 90.1482 25.7641C90.5121 25.3999 90.876 24.9141 91.1186 24.307C91.3611 23.6999 91.4824 23.0927 91.4824 22.3641C91.4824 21.6356 91.4824 20.907 91.3611 20.1784C91.2399 19.5713 91.1186 18.8427 90.876 18.1141C90.6334 17.3856 90.3908 16.7784 90.0269 16.1713C89.663 15.5641 89.1779 15.0784 88.5714 14.7141C87.9649 14.3499 87.3584 14.2284 86.5094 14.3499C85.9029 14.4713 85.4178 14.7141 84.9326 15.0784C84.4474 15.4427 84.0835 16.0499 83.8409 16.5356C83.5983 17.1427 83.477 17.7499 83.3558 18.4784C83.2345 19.207 83.3558 19.9356 83.477 20.6641C83.5983 21.5141 83.8409 22.2427 84.0835 22.9713C84.3261 23.6999 84.69 24.4284 85.1752 24.9141C85.539 25.5213 86.1455 25.8856 86.6307 26.2499C87.1159 26.6141 87.8436 26.6141 88.5714 26.4927Z" fill="black"/>
<path d="M111.86 26.4928V27.0999L109.07 26.8571C108.706 26.8571 108.342 26.7356 108.1 26.6142C107.857 26.4928 107.736 26.3713 107.614 26.2499C107.493 26.1285 107.493 25.8856 107.493 25.5213C107.493 25.2785 107.493 24.9142 107.493 24.5499C107.251 24.9142 107.008 25.2785 106.644 25.5213C106.28 25.7642 105.916 26.0071 105.552 26.2499C105.189 26.3713 104.703 26.6142 104.34 26.6142C103.976 26.6142 103.49 26.7356 103.127 26.7356C102.278 26.7356 101.428 26.4928 100.822 26.0071C100.216 25.6428 99.6091 25.0356 99.2452 24.4285C98.8813 23.8213 98.5174 23.0928 98.3961 22.2428C98.2748 21.3928 98.1536 20.5428 98.2749 19.6928C98.3961 18.7213 98.5174 17.7499 98.8813 16.8999C99.2452 15.9285 99.7304 15.1999 100.337 14.4713C100.943 13.7428 101.671 13.2571 102.641 12.7713C103.49 12.4071 104.582 12.1642 105.674 12.2856C106.159 12.2856 106.644 12.4071 107.129 12.7713C107.614 13.1356 108.1 13.3785 108.464 13.7428L108.827 8.27848C108.827 7.9142 108.706 7.54991 108.585 7.30705C108.464 7.0642 107.978 6.82134 107.614 6.82134C107.493 6.82134 107.493 6.69991 107.493 6.57848C107.493 6.45705 107.493 6.33562 107.614 6.33562C107.493 6.33562 107.736 6.2142 108.1 6.09277C108.342 5.97134 108.585 5.84991 108.827 5.84991C109.07 5.84991 109.313 5.60705 109.555 5.60705C109.798 5.48562 110.04 5.3642 110.404 5.24277C110.526 5.24277 110.647 5.12134 110.768 5.12134C110.889 5.12134 111.011 5.12134 111.132 5.12134C111.375 5.12134 111.496 5.24277 111.617 5.3642C111.738 5.48562 111.617 5.60705 111.617 5.84991L110.404 24.1856C110.404 24.4285 110.404 24.6713 110.404 24.9142C110.404 25.1571 110.404 25.3999 110.526 25.6428C110.526 25.8856 110.647 26.1285 110.768 26.2499C110.889 26.3713 111.132 26.4928 111.375 26.4928H111.86ZM107.493 22.7285L107.857 16.2928C107.736 15.4428 107.372 14.7142 106.887 14.1071C106.28 13.4999 105.674 13.2571 104.946 13.1356C104.34 13.1356 103.854 13.2571 103.369 13.4999C102.884 13.8642 102.52 14.2285 102.156 14.7142C101.792 15.1999 101.55 15.9285 101.428 16.5356C101.186 17.2642 101.065 17.9928 101.065 18.7213C101.065 19.4499 101.065 20.2999 101.186 21.0285C101.307 21.7571 101.428 22.4856 101.671 23.0928C101.914 23.6999 102.278 24.1856 102.641 24.5499C103.005 24.9142 103.612 25.1571 104.218 25.1571C104.582 25.1571 104.946 25.1571 105.31 24.9142C105.674 24.7928 106.038 24.5499 106.28 24.3071C106.523 24.0642 106.887 23.8213 107.008 23.4571C107.251 23.4571 107.372 23.0928 107.493 22.7285Z" fill="black"/>
<path d="M137.453 38.757C137.089 39.3642 136.604 39.7285 136.118 40.0927C135.633 40.457 135.148 40.5785 134.542 40.6999C133.935 40.8213 133.45 40.8213 132.965 40.6999C132.48 40.5785 131.873 40.457 131.388 40.2142C130.781 39.8499 130.175 39.4856 129.811 39.1213C129.326 38.6356 128.962 38.2713 128.477 37.6642C128.113 37.1785 127.749 36.6928 127.385 36.0856C127.021 35.4785 126.658 35.1142 126.294 34.6285C125.93 34.1427 125.566 33.7785 125.081 33.2927C124.717 32.9285 124.232 32.5642 123.746 32.3213C123.14 32.0785 122.412 31.957 121.684 31.8356C120.957 31.8356 120.229 31.8356 119.622 31.957L119.38 31.5927C119.865 31.2285 120.35 30.8642 120.957 30.7428C121.563 30.6213 122.048 30.3785 122.655 30.3785C123.261 30.3785 123.746 30.3785 124.353 30.4999C124.959 30.6213 125.445 30.7428 125.93 30.9856C125.081 30.257 124.474 29.407 124.11 28.3142C123.625 27.3428 123.383 26.2499 123.383 25.157C123.261 24.0642 123.383 22.9713 123.504 21.8785C123.746 20.7856 123.989 19.6927 124.474 18.5999C125.081 17.2642 125.808 16.0499 126.779 14.957C127.749 13.8642 128.72 13.0142 129.932 12.2856C131.145 11.6785 132.358 11.1927 133.693 11.0713C135.027 10.9499 136.482 11.1927 137.938 11.9213C139.393 12.5285 140.485 13.3785 141.334 14.4713C142.183 15.5642 142.668 16.657 143.032 17.9927C143.396 19.3285 143.396 20.5427 143.275 21.9999C143.153 23.3356 142.668 24.6713 142.183 26.007C141.577 27.3427 140.849 28.557 139.879 29.6499C138.908 30.7427 137.938 31.7142 136.725 32.3213C135.512 32.9285 134.299 33.4142 132.843 33.5356C131.509 33.657 130.054 33.4142 128.598 32.6856L128.477 32.5642C129.083 33.1713 129.569 33.657 129.932 34.3856C130.418 34.9928 130.781 35.5999 131.145 36.207C131.509 36.8142 131.994 37.2999 132.358 37.7856C132.843 38.2713 133.329 38.6356 133.814 38.8785C134.056 38.9999 134.299 38.9999 134.542 38.9999C134.784 38.9999 135.148 38.9999 135.391 38.9999C135.633 38.9999 135.997 38.8785 136.24 38.757C136.482 38.6356 136.725 38.5142 136.967 38.2713L137.453 38.757ZM127.507 20.057C127.264 20.6642 127.021 21.2713 126.779 21.9999C126.536 22.7285 126.415 23.457 126.294 24.1856C126.172 24.9142 126.172 25.7642 126.172 26.4928C126.172 27.2213 126.294 27.9499 126.536 28.6785C126.779 29.407 127.021 30.0142 127.507 30.4999C127.992 30.9856 128.598 31.4713 129.326 31.8356C130.296 32.1999 131.145 32.3213 132.116 32.0785C133.086 31.8356 133.935 31.3499 134.784 30.7428C135.633 30.0142 136.482 29.1642 137.21 28.1928C137.938 27.2213 138.544 26.1285 139.029 24.9142C139.272 24.307 139.515 23.6999 139.757 22.9713C140 22.2428 140.121 21.5142 140.242 20.7856C140.364 20.057 140.364 19.3285 140.364 18.4785C140.364 17.7499 140.242 17.0213 140 16.2927C139.757 15.5642 139.515 14.957 139.029 14.4713C138.544 13.9856 137.938 13.4999 137.331 13.1356C136.361 12.7713 135.391 12.7713 134.42 13.0142C133.45 13.257 132.601 13.7427 131.752 14.3499C130.903 14.957 130.054 15.807 129.326 16.7785C128.72 17.8713 127.992 18.9642 127.507 20.057Z" fill="black"/>
<path d="M152.493 46.1641V46.2855C152.493 46.2855 152.493 46.4069 152.372 46.4069L152.251 46.5284H152.13C151.766 46.4069 151.402 46.2855 151.159 46.1641C150.917 46.0427 150.553 45.9212 150.31 45.9212C150.068 45.7998 149.704 45.7998 149.461 45.6784C149.219 45.5569 148.855 45.5569 148.491 45.4355C148.369 45.4355 148.248 45.3141 148.127 45.3141C148.006 45.3141 147.884 45.1927 147.763 45.1927C147.52 45.0712 147.52 44.9498 147.52 44.8284C147.52 44.7069 147.642 44.5855 147.763 44.3427L148.612 43.2498C147.763 43.4927 147.035 43.6141 146.307 43.3712C145.58 43.1284 144.852 42.8855 144.367 42.3998C143.639 41.7927 143.154 41.1855 142.911 40.5784C142.669 39.9712 142.547 39.2427 142.669 38.5141C142.79 37.7855 143.033 37.0569 143.518 36.3284C144.003 35.5998 144.488 34.7498 145.216 34.0212L147.763 30.8641C148.006 30.6212 148.006 30.2569 147.884 30.0141C147.763 29.7712 147.52 29.4069 147.157 29.1641C147.035 29.1641 147.157 29.0427 147.157 28.9212C147.278 28.7998 147.278 28.7998 147.399 28.7998C147.763 28.9212 148.127 29.0427 148.369 29.0427C148.612 29.0427 148.976 29.1641 149.219 29.2855C149.461 29.4069 149.825 29.4069 150.068 29.5284C150.31 29.6498 150.674 29.6498 151.038 29.7712C151.159 29.7712 151.281 29.8927 151.402 29.8927C151.523 29.8927 151.644 30.0141 151.766 30.0141C152.008 30.1355 152.008 30.3784 152.008 30.3784C152.008 30.4998 151.887 30.6212 151.766 30.8641L147.763 35.8427C146.55 37.2998 145.822 38.6355 145.701 39.6069C145.58 40.5784 145.822 41.4284 146.671 42.0355C147.035 42.3998 147.642 42.3998 148.248 42.3998C148.976 42.2784 149.704 41.9141 150.553 41.3069L154.677 36.2069C154.919 35.9641 154.919 35.5998 154.798 35.3569C154.677 35.1141 154.434 34.7498 154.07 34.5069C153.949 34.5069 154.07 34.3855 154.07 34.2641C154.07 34.1427 154.192 34.1427 154.192 34.1427C154.555 34.2641 154.919 34.3855 155.162 34.3855C155.405 34.5069 155.768 34.5069 156.011 34.6284C156.254 34.7498 156.617 34.7498 156.86 34.8712C157.103 34.9927 157.467 34.9927 157.83 35.1141C157.952 35.1141 158.073 35.2355 158.194 35.2355C158.316 35.2355 158.437 35.3569 158.558 35.4784C158.801 35.5998 158.801 35.7212 158.801 35.8427C158.801 35.9641 158.679 36.0855 158.558 36.3284L152.008 44.4641C151.766 44.7069 151.766 45.0712 151.887 45.3141C151.887 45.5569 152.13 45.7998 152.493 46.1641Z" fill="black"/>
<path d="M160.498 46.7713C159.892 47.257 159.407 47.7427 158.922 48.3498C158.436 48.957 158.073 49.5641 157.83 50.2927C157.587 50.8998 157.466 51.6284 157.587 52.357C157.709 53.0856 157.951 53.6927 158.436 54.4213C158.679 54.7856 158.922 55.0284 159.286 55.2713C159.649 55.5141 160.013 55.6356 160.377 55.757C160.741 55.8784 161.105 55.9998 161.469 55.9998C161.833 55.9998 162.197 55.9998 162.56 55.757L162.803 56.1213C162.197 56.4856 161.59 56.607 160.984 56.7284C160.377 56.8498 159.771 56.7284 159.286 56.607C158.679 56.4856 158.194 56.2427 157.709 55.8784C157.224 55.5141 156.86 55.1498 156.496 54.6641C155.768 53.8141 155.404 52.9641 155.162 52.1141C154.919 51.2641 155.04 50.2927 155.162 49.4427C155.404 48.5927 155.647 47.7427 156.253 47.0141C156.738 46.2856 157.345 45.557 158.073 44.9498C158.8 44.3427 159.528 43.9784 160.377 43.6141C161.226 43.2498 162.075 43.1284 162.924 43.1284C163.773 43.1284 164.622 43.3713 165.472 43.7356C166.321 44.0998 167.048 44.8284 167.776 45.6784C168.261 46.2856 168.625 47.0141 168.625 47.6213C168.746 48.3498 168.625 49.0784 168.383 49.807C168.14 50.5356 167.776 51.2641 167.291 51.8713C166.806 52.4784 166.199 53.0856 165.593 53.5713L160.498 46.7713ZM167.534 45.9213C167.17 45.4356 166.684 45.1927 166.078 45.0713C165.472 44.9498 164.986 44.9498 164.38 45.0713C163.773 45.1927 163.167 45.3141 162.56 45.557C161.954 45.7998 161.469 46.0427 161.105 46.407L163.895 49.807C164.137 50.0498 164.259 50.1713 164.501 50.1713C164.744 50.1713 164.986 50.1713 165.229 50.1713C165.472 50.0498 165.714 50.0498 165.835 49.9284C165.957 49.807 166.199 49.6856 166.199 49.6856C166.684 49.1998 167.17 48.8356 167.412 48.4713C167.655 48.107 167.776 47.7427 167.897 47.3784C167.897 47.0141 167.897 46.7713 167.897 46.5284C167.655 46.2856 167.534 46.0427 167.534 45.9213Z" fill="black"/>
<path d="M172.992 58.4284C172.507 58.6712 172.264 59.0355 172.021 59.5213C171.779 60.007 171.779 60.4927 171.657 61.0998C171.657 61.707 171.536 62.3141 171.536 62.9212C171.536 63.5284 171.415 64.257 171.294 64.8641C171.172 65.4712 170.93 66.0784 170.566 66.5641C170.202 67.1712 169.717 67.5355 168.989 67.8998C168.383 68.2641 167.897 68.3855 167.291 68.2641C166.684 68.2641 166.199 68.0212 165.714 67.7784C165.229 67.5355 164.744 67.1712 164.38 66.6855C164.016 66.1998 163.652 65.7141 163.41 65.2284C163.167 64.7427 162.924 64.3784 162.803 63.7712C162.682 63.2855 162.56 62.7998 162.439 62.3141C162.318 61.8284 162.318 61.3427 162.318 60.857C162.318 60.3712 162.439 59.8855 162.56 59.5213L166.684 59.2784C165.957 59.6427 165.35 60.007 164.986 60.4927C164.501 60.9784 164.259 61.4641 164.137 61.9498C164.016 62.4355 163.895 62.9212 163.895 63.407C163.895 63.8927 164.016 64.257 164.259 64.6212C164.501 65.107 164.865 65.4712 165.35 65.7141C165.835 65.957 166.442 65.8355 166.927 65.5927C167.412 65.3498 167.776 64.9855 168.019 64.4998C168.261 64.0141 168.383 63.5284 168.383 62.9212C168.504 62.3141 168.504 61.707 168.504 61.0998C168.504 60.4927 168.625 59.7641 168.746 59.157C168.868 58.5498 169.11 57.9427 169.474 57.457C169.838 56.8498 170.323 56.4855 171.051 56.1212C171.657 55.757 172.143 55.6355 172.749 55.757C173.356 55.8784 173.841 55.9998 174.326 56.2427C174.811 56.4855 175.175 56.8498 175.66 57.3355C176.024 57.8212 176.388 58.307 176.631 58.7927C177.116 59.6427 177.358 60.4927 177.48 61.3427C177.601 62.1927 177.48 63.1641 177.237 64.1355L173.113 64.4998C173.841 64.1355 174.447 63.7712 174.932 63.407C175.418 62.9212 175.66 62.557 175.903 62.0712C176.145 61.5855 176.267 61.0998 176.267 60.6141C176.267 60.1284 176.145 59.7641 176.024 59.3998C175.903 59.157 175.781 58.9141 175.539 58.7927C175.296 58.6712 175.054 58.5498 174.811 58.4284C174.569 58.307 174.326 58.307 173.962 58.4284C173.598 58.0641 173.234 58.1855 172.992 58.4284Z" fill="black"/>
<path d="M172.143 79.557C171.415 79.7999 170.687 79.7999 170.081 79.4356C169.474 79.0713 168.989 78.4642 168.625 77.6142C168.383 76.7642 168.261 75.9142 168.383 75.307C168.504 74.6999 168.868 74.0927 169.232 73.607C169.717 73.1213 170.202 72.757 170.93 72.3927C171.657 72.0284 172.264 71.7856 172.992 71.5427L179.905 69.2356L179.299 67.5356L179.905 67.2927C180.027 67.657 180.269 68.0213 180.512 68.2642C180.755 68.507 181.118 68.7499 181.604 68.9927C181.967 69.2356 182.453 69.357 182.938 69.4784C183.423 69.5999 183.908 69.7213 184.393 69.7213C184.515 69.7213 184.515 69.7213 184.636 69.8427C184.757 69.8427 184.757 69.9642 184.879 70.207C184.879 70.3284 184.879 70.4499 184.757 70.5713L181.604 71.6642L182.574 74.5784L181.846 74.8213L180.876 71.907L174.083 74.2142C173.113 74.5784 172.385 74.8213 171.779 75.1856C171.172 75.5499 170.808 75.9142 170.445 76.2784C170.202 76.6427 169.959 77.007 169.838 77.2499C169.717 77.4927 169.838 77.857 169.838 78.0999C169.959 78.3427 170.081 78.4642 170.202 78.707C170.323 78.9499 170.566 78.9499 170.687 79.0713C170.808 79.1927 171.051 79.1927 171.294 79.3142C171.536 79.3142 171.657 79.3142 171.9 79.3142L172.143 79.557Z" fill="black"/>
<path d="M24.1646 107.243C28.6524 145.007 60.7953 174.393 99.7306 174.393C138.666 174.393 170.809 145.129 175.297 107.243" stroke="black" stroke-miterlimit="10"/>
</g>
<defs>
<clipPath id="clip0_294_7093">
<rect width="180" height="170" fill="white" transform="translate(5 5)"/>
</clipPath>
</defs>
</svg>
