<?xml version="1.0" encoding="utf-8"?>
<!-- Generator: Adobe Illustrator 24.0.2, SVG Export Plug-In . SVG Version: 6.00 Build 0)  -->
<svg version="1.1" id="圖層_1" xmlns="http://www.w3.org/2000/svg" xmlns:xlink="http://www.w3.org/1999/xlink" x="0px" y="0px"
	 viewBox="0 0 180 241" style="enable-background:new 0 0 180 241;" xml:space="preserve">
<style type="text/css">
	.st0{clip-path:url(#SVGID_2_);}
	.st1{fill:#93795B;}
</style>
<g>
	<defs>
		<rect id="SVGID_1_" x="15.5" y="0" width="148.8" height="241"/>
	</defs>
	<clipPath id="SVGID_2_">
		<use xlink:href="#SVGID_1_"  style="overflow:visible;"/>
	</clipPath>
	<g class="st0">
		<path class="st1" d="M52.9,108.7c-0.5-0.1-1.1,0.1-1.3,0.7c-2.7,9.1-9.7,9.1-10,9.1c-0.7,0-1.1,0.4-1.1,1c0,0.5,0.4,1.1,1,1.1
			c0,0,0,0,0.1,0c0.4,0,2.5-0.1,4.8-1.3c2.4-1.2,5.6-3.8,7.2-9.4C53.8,109.5,53.5,108.9,52.9,108.7z"/>
		<path class="st1" d="M52.3,119.7c0.1,0.4,0.5,0.7,1,0.7c0.1,0,0.2,0,0.4-0.1c0.1-0.1,3.9-1.6,5.7-7c0.2-0.5-0.1-1.1-0.7-1.3
			c-0.5-0.2-1.1,0.1-1.3,0.7c-1.4,4.4-4.2,5.6-4.5,5.7C52.3,118.6,52.1,119.2,52.3,119.7z"/>
		<path class="st1" d="M25,97c-0.8,2.2-1.5,6,0.3,9.1c2.3,3.9,6.1,4.4,7.5,4.4c0.3,0,0.4,0,0.5,0c0.5-0.1,1-0.5,1-1.1
			c0-0.5-0.5-1-1.1-1c-0.1,0-3.9,0.3-6-3.3c-2.1-3.7,0.4-9,0.4-9.1c0.2-0.3,0.1-0.8-0.1-1.1c-0.2-0.3-0.7-0.4-1.1-0.3
			c-2.7,0.7-7.4,1.2-8.8-0.3c0.3-0.4,1.5-1.2,2.6-2c4.9-3.4,14.2-9.7,17.4-24.8c1.4-6.5,1.7-13.3,2.1-19.8
			C40.5,32.4,41.2,18.1,56,8.3c9.9-6.5,22.4-7.9,34.2-3.7c9,3.3,16.2,9.4,18.2,15.8c0.1,0.3,0.3,0.5,0.7,0.7c0.3,0.1,0.7,0.1,0.9,0
			c0.4-0.2,9.6-5,18.6,6.9c4.2,5.6,5.2,10.2,6.2,14.8c1.2,5.7,2.3,11.1,9.6,16.9c8.4,6.5,13.9,15.6,14.5,23.2
			c0.3,4.9-1.2,9.1-4.6,12.7c-0.4,0.4-0.3,1.1,0,1.5c0.4,0.4,1.1,0.3,1.5,0c3.8-4,5.6-8.8,5.2-14.4c-0.5-8.4-6.3-17.7-15.2-24.9
			c-6.6-5.3-7.6-10.1-8.8-15.7c-1-4.6-2.1-9.7-6.6-15.7c-5.2-6.9-10.8-8.5-14.4-8.7c-2.5-0.1-4.6,0.4-5.8,0.9
			c-2.6-6.6-9.8-12.7-19-16c-12.5-4.4-25.7-2.9-36.1,4c-15.7,10.3-16.4,25.3-17.2,41c-0.3,6.4-0.7,13.1-2.1,19.5
			c-3.2,14.4-11.9,20.4-16.5,23.6c-2.1,1.4-3.4,2.3-3.5,3.5c0,0.3,0,0.9,0.4,1.4C17.8,97.9,22.4,97.4,25,97z"/>
		<path class="st1" d="M149.1,99.4c0.1,0.1,0.3,0.1,0.4,0.1c0.4,0,0.8-0.2,1-0.5c3.7-7.5-1.9-13.4-2-13.5c-0.4-0.4-1.1-0.4-1.5,0
			c-0.4,0.4-0.4,1.1,0,1.5c0.2,0.2,4.6,4.9,1.5,11.1C148.4,98.5,148.6,99.1,149.1,99.4z"/>
		<path class="st1" d="M138.1,107.4c-0.4,0.3-0.5,1-0.2,1.4c0.2,0.3,0.5,0.4,0.9,0.4c0.2,0,0.4-0.1,0.5-0.2c6.3-4.4,3.5-13.6,3.4-14
			c-0.2-0.5-0.8-0.9-1.3-0.7c-0.5,0.2-0.9,0.8-0.7,1.3C140.7,95.8,143.1,103.8,138.1,107.4z"/>
		<path class="st1" d="M116.4,87.2h0.1c5.7-0.8,10.1-4.8,12-10.8c1.6-5.3,0.8-10.7-2.3-13.4c-1.6-1.4-3.4-2.1-5.3-1.9
			c-4.6,0.4-8.3,5.3-8.5,5.6c-0.3,0.4-0.2,1.1,0.2,1.4c0.4,0.3,1.1,0.2,1.4-0.2c0,0,3.4-4.4,7-4.7c1.3-0.1,2.6,0.3,3.7,1.3
			c2.4,2.2,3,6.7,1.6,11.2c-1.6,5.2-5.4,8.7-10.2,9.3c-0.5,0.1-1,0.5-0.9,1.2C115.4,86.8,115.9,87.2,116.4,87.2z"/>
		<path class="st1" d="M115.6,79.1c-0.4-0.3-1-0.2-1.3,0.1c-0.4,0.4-0.4,1.1-0.1,1.5c0.1,0.1,0.5,0.5,1.3,0.5c1,0,2-0.5,3-1.9
			c1.3-1.4,0.5-3.4-0.1-5c-0.9-2.2-1.4-3.7-0.1-5c0.8-0.9,1.6-1.3,2.5-1.3c1.3,0,2.2,1,2.3,1c0.4,0.4,1.1,0.4,1.5,0
			c0.4-0.4,0.4-1.1,0-1.5c-0.1-0.1-1.5-1.6-3.7-1.6c-1.4,0-2.8,0.7-4,2c-2.3,2.4-1.2,5.1-0.3,7.2c0.7,1.5,1,2.4,0.5,2.8
			C116.3,78.9,115.8,79.1,115.6,79.1z"/>
		<path class="st1" d="M162.7,155.4c-2.2-4-6.3-7-13-8.9c-11.6-3.5-15.9-7.1-16.9-7.9c0.9-4.2,2.1-7.9,3.4-11.3
			c2.8-7.7,0.7-22.6-3-29.8c-4.1-8.1-6.2-9.5-7.4-9.8c-0.7-0.2-1.2-0.1-1.7,0.1c-1,0.5-1.2,1.5-1.2,2.6c-0.9-0.7-2.5-1.9-3.8-0.8
			c-2.1,1.6,0.3,7.2,0.3,7.2c0.3,0.7,1,2.5,1.6,4.9c-0.1,0.1-0.1,0.2-0.2,0.3c0,0.2-0.7,2.6-0.3,6.4c-3.5,1.5-14.2,5.9-25.8,4.8
			c0-0.1,0-0.2-0.1-0.3c9.1-4.6,16.5-12.3,19.8-19.4c0.2-0.5,0-1.2-0.5-1.4c-0.5-0.2-1.2,0-1.4,0.5c-3.2,6.9-10.4,14.4-19.5,18.6
			c0,0,0,0-0.1,0c-0.1,0-0.2,0.1-0.3,0.1c-3.4,1.5-7,2.6-10.7,3c-4.5,0.4-7.8-0.2-10.1-2.2c-3.3-2.7-3.7-7.2-3.9-9.4
			c-0.2-2.8-2.2-7-3.3-9.5c-0.2-0.5-0.5-1.2-0.7-1.5c1.4-2.4,2.5-5.2,3.5-8.6c2-7.4,2.8-20.1,3.6-31.5c0.8-10.7,1.5-21.7,3-24.2
			c2.8-4.8,10.2-2.8,10.3-2.8c0.5,0.1,1.1-0.2,1.3-0.8c0.1-0.5-0.2-1.1-0.8-1.3c-0.3-0.1-9-2.4-12.6,3.8c-1.7,3-2.5,13.3-3.4,25.1
			c-0.8,11.2-1.6,23.8-3.6,31c-4.5,16.5-13.9,15-14.3,14.9c-0.5-0.1-1.1,0.2-1.2,0.9c-0.1,0.5,0.2,1.1,0.9,1.2c0,0,0.5,0.1,1.3,0.1
			c1.2,0,3.2-0.2,5.3-1.3c2-1,3.7-2.5,5.2-4.6c0,0.1,0.1,0.2,0.1,0.3c1,2.2,2.9,6.3,3.2,8.8c0.2,2.3,0.7,7.5,4.7,10.8
			c2.3,1.8,5.2,2.7,8.9,2.7c0.9,0,1.7,0,2.7-0.1c3.6-0.4,7.1-1.4,10.3-2.7c0.3,1.5,0.5,4.1-0.5,6.1c-2,3.2-7.4,6.2-13.1,6
			c-2.1-0.1-4.5-1.1-6.9-2.2c-4.5-2-9.6-4.1-15.1-1.4c-0.3,0.2-0.8,0.3-1.1,0.5c-7.6,3.8-12.6,6.3-25.5,45.4
			c-13,39.7-13.1,45.4-13.1,45.9c0,0.5,0.5,1,1.1,1c0,0,0,0,0.1,0c0.5,0,1-0.5,1-1.1c0,0,0-5.7,13-45.1
			c12.5-38.3,17.2-40.7,24.4-44.2c0.3-0.2,0.8-0.3,1.1-0.5c4.6-2.3,9-0.4,13.3,1.4c1.1,0.4,2.1,0.9,3.2,1.3
			c-0.9,3.9-5.1,21.4-12.4,36.8c-8.3,17.3-28.2,44.4-15.6,61.2c2.3,3,58.6,11.6,62.5,9.4c0.2,0.4,0.5,0.9,0.9,1.3
			c2.5,3.2,6.4,5,11.9,5.4c0.5,0,1,0.1,1.5,0.1c3.7,0,6.6-1.3,8.9-3.8c2.2-2.5,3.6-5.9,4.2-9.6c0.1-0.1,0.2-0.1,0.2-0.2
			c10.2-14.6,22.4-44.2,25.9-55.3C164.8,164.9,164.8,159.6,162.7,155.4z M139.9,145.2l-8.5,19.3c-0.1-4.5-0.2-8.3-0.1-11.2
			c0-4.7,0.4-8.7,1.1-12.3C133.7,141.9,136.1,143.5,139.9,145.2z M98.9,205.8c-0.1-3,1.1-6.5,1.1-6.5c0.2-0.5-0.1-1.1-0.7-1.3
			c-0.5-0.2-1.1,0.1-1.3,0.7c-0.1,0.2-2.1,6-0.8,10c-4.8,8.4-7.4,14.9-7.4,14.9c0.5-4.4,0.4-8.6-0.1-12.7c7.4-6.1,7.5-24.2,7.5-24.4
			c0-0.5-0.4-1.1-1.1-1.1c-0.5,0-1.1,0.4-1.1,1.1c0,0.2-0.2,15.7-5.8,21.9c-2.1-12.8-7.6-25.5-10.1-40.1
			c-3.2-17.6-0.4-35.8,0.2-40.3c6.4,0,12.1-3.5,14.3-7c0.8-1.2,1.1-2.6,1.2-4c2.8,0.7,13.3,2.5,26.1-3.8c0.2,1.2,0.7,2.5,1.1,3.8
			c0,0.1-0.1,0.2-0.1,0.2c-0.1,0.2-0.4,1-0.8,1.7c-1.1,2.4-3,6.9-4.1,10.1c-0.9,2.7-0.9,7.5-0.9,12.5c0,4,0,8.2-0.4,11.4
			c-0.7,5.3-2.8,21.2-4.8,36.1C106.3,194.4,102.1,200.4,98.9,205.8z M130.7,235.8c-2.2,2.4-5.1,3.4-8.7,3c-4.9-0.4-8.4-2-10.4-4.7
			c-3.5-4.4-2.9-11.3-2.1-17.6c1.6-11.3,7.3-53.9,8.6-63.1c0.4-3.5,0.4-7.7,0.4-11.8c0-4.9,0-9.5,0.8-12c0.8-2.4,2.1-5.3,3-7.7
			c-0.1,0.5-0.2,1-0.4,1.5c-0.2,0.5,0.1,1.1,0.7,1.3c0.1,0,0.2,0,0.3,0c0.4,0,0.9-0.3,1-0.8c3.4-11.2-1.3-25.3-2.6-28.2
			c-0.8-1.6-1.2-3.9-1-4.6c0.2,0.1,0.7,0.2,1.5,1c3.6,2.9,8.2,15.1,9.6,19.6c0.2,0.5,0.8,0.9,1.3,0.7c0.5-0.2,0.9-0.8,0.7-1.3
			c-0.2-0.5-3.9-12-7.9-18c0-0.1,0-0.3,0-0.4c-0.4-1.4-0.5-2.9-0.3-3.2h0.1c0.5,0.2,2.4,1.4,6.2,8.8c3.8,7.5,5.3,21.7,2.9,28.2
			c-2.4,6.5-4.9,14.7-5,26.7c-0.1,10.1,0.3,29.9,4.2,49.9C136.5,218.2,135.5,230.4,130.7,235.8z M160.6,171.6
			c-3.3,10.7-14.2,36.8-23.5,51.5c0.7-7.7-0.7-16-1.5-20.5c-1.3-6.7-2.3-13.4-2.8-19.7l13.4-35.3c1,0.3,2,0.7,2.9,1
			c6,1.9,9.8,4.5,11.6,7.9C162.7,160,162.7,164.8,160.6,171.6z"/>
		<path class="st1" d="M69.1,92.7c0,0-0.7-0.9-1.5-1c-1-0.1-1.2,3-1.2,3s1.5,6,8.4,5.1c5.7-0.8,6.1-3.7,6.1-3.7s-5.8-5-8.5-5.3
			C70.4,90.7,69.1,92.7,69.1,92.7z"/>
	</g>
</g>
</svg>
