<svg width="149" height="241" viewBox="0 0 149 241" fill="none" xmlns="http://www.w3.org/2000/svg">
<g clip-path="url(#clip0_1252_867)">
<path d="M37.4454 108.744C36.9011 108.635 36.3569 108.853 36.1392 109.397C33.4178 118.541 26.4513 118.541 26.1247 118.541C25.4716 118.541 25.0362 118.976 25.0362 119.52C25.0362 120.064 25.4716 120.609 26.0158 120.609C26.0158 120.609 26.0158 120.609 26.1247 120.609C26.5601 120.609 28.6283 120.5 30.9142 119.303C33.309 118.105 36.4657 115.493 38.0985 109.941C38.3162 109.506 37.9897 108.853 37.4454 108.744Z" fill="#93795B"/>
<path d="M36.7923 119.738C36.9011 120.173 37.3365 120.391 37.7719 120.391C37.8808 120.391 37.9896 120.391 38.2073 120.282C38.3162 120.173 42.126 118.649 43.8677 113.316C44.0854 112.771 43.7588 112.227 43.2146 112.009C42.6703 111.792 42.126 112.118 41.9083 112.663C40.4933 117.017 37.6631 118.214 37.4454 118.323C36.7923 118.649 36.5746 119.194 36.7923 119.738Z" fill="#93795B"/>
<path d="M9.47022 96.9877C8.70825 99.1648 7.94629 102.975 9.79678 106.131C12.0827 110.05 15.8925 110.485 17.3076 110.485C17.6342 110.485 17.743 110.485 17.8519 110.485C18.3962 110.377 18.8316 109.941 18.8316 109.397C18.8316 108.853 18.2873 108.417 17.743 108.417C17.6342 108.417 13.8243 108.744 11.7561 105.152C9.68793 101.451 12.1915 96.1169 12.1915 96.008C12.4092 95.6815 12.3004 95.2461 12.0827 94.9195C11.865 94.5929 11.4296 94.4841 10.9942 94.5929C8.27284 95.2461 3.59218 95.7903 2.17709 94.2664C2.50365 93.831 3.70103 93.069 4.78956 92.307C9.68793 88.9326 18.9404 82.6191 22.206 67.4886C23.6211 60.9574 23.9476 54.2086 24.2742 47.6774C25.0362 32.438 25.6893 18.0695 40.4933 8.27271C50.3989 1.74155 62.9169 0.32646 74.673 4.57172C83.7078 7.8373 90.8921 13.9331 92.8514 20.3554C92.9603 20.6819 93.178 20.8996 93.5046 21.0085C93.8311 21.1173 94.1577 21.1173 94.3754 21.0085C94.8108 20.7908 103.954 16.0013 112.989 27.8662C117.234 33.4177 118.214 38.0984 119.194 42.6702C120.391 48.3305 121.48 53.7732 128.773 59.5424C137.155 66.0735 142.706 75.1083 143.25 82.728C143.577 87.6264 142.053 91.8716 138.678 95.4638C138.243 95.8992 138.352 96.5523 138.678 96.9877C139.114 97.4231 139.767 97.3143 140.202 96.9877C144.012 92.9602 145.754 88.1706 145.427 82.6191C144.883 74.2375 139.114 64.8761 130.188 57.6919C123.548 52.3581 122.568 47.5686 121.371 42.0171C120.391 37.4452 119.303 32.3292 114.731 26.3423C109.506 19.4845 103.954 17.8518 100.362 17.634C97.8587 17.5252 95.7905 18.0695 94.5931 18.5049C91.9806 11.8649 84.7963 5.7691 75.5439 2.50352C63.0258 -1.85059 49.8546 -0.435509 39.4047 6.53107C23.7299 16.8721 22.968 31.7849 22.206 47.5686C21.8794 53.9909 21.5529 60.6309 20.1378 67.0532C16.9811 81.4218 8.27284 87.4087 3.59218 90.6742C1.52397 92.0893 0.217739 92.9602 0.108887 94.1575C0.108887 94.4841 0.108887 95.0284 0.544298 95.5726C2.28594 97.8585 6.85776 97.4231 9.47022 96.9877Z" fill="#93795B"/>
<path d="M133.562 99.3825C133.671 99.4913 133.889 99.4913 133.998 99.4913C134.433 99.4913 134.76 99.2736 134.977 98.9471C138.678 91.4362 133.127 85.5582 133.018 85.4493C132.583 85.0139 131.93 85.0139 131.494 85.4493C131.059 85.8847 131.059 86.5378 131.494 86.9733C131.712 87.191 136.066 91.8716 133.018 98.0762C132.909 98.5116 133.127 99.0559 133.562 99.3825Z" fill="#93795B"/>
<path d="M122.568 107.438C122.133 107.764 122.024 108.417 122.351 108.853C122.568 109.179 122.895 109.288 123.221 109.288C123.439 109.288 123.657 109.179 123.766 109.07C130.079 104.716 127.249 95.4638 127.14 95.0284C126.922 94.4841 126.378 94.1575 125.834 94.3752C125.29 94.5929 124.963 95.1372 125.181 95.6815C125.181 95.7903 127.575 103.845 122.568 107.438Z" fill="#93795B"/>
<path d="M100.907 87.191H101.015C106.676 86.429 111.139 82.4014 112.989 76.4145C114.622 71.0807 113.751 65.747 110.703 63.0257C109.07 61.6106 107.329 60.9574 105.37 61.1752C100.798 61.6106 97.0967 66.5089 96.879 66.7266C96.5524 67.162 96.6613 67.8152 97.0967 68.1417C97.5321 68.4683 98.1852 68.3594 98.5118 67.924C98.5118 67.924 101.886 63.5699 105.478 63.2434C106.785 63.1345 108.091 63.5699 109.179 64.5496C111.574 66.7266 112.227 71.2985 110.812 75.7614C109.179 80.9864 105.37 84.4696 100.58 85.0139C100.036 85.1228 99.6003 85.5582 99.7092 86.2113C99.9269 86.7555 100.362 87.191 100.907 87.191Z" fill="#93795B"/>
<path d="M100.145 79.1358C99.7092 78.8093 99.1649 78.9182 98.8383 79.2447C98.4029 79.6801 98.4029 80.3332 98.7295 80.7686C98.8383 80.8775 99.2737 81.3129 100.036 81.3129C101.015 81.3129 101.995 80.7686 103.084 79.4624C104.39 78.0473 103.628 76.088 102.975 74.4552C102.104 72.2781 101.56 70.7542 102.866 69.448C103.628 68.5771 104.499 68.1417 105.369 68.1417C106.676 68.1417 107.547 69.1214 107.655 69.1214C108.091 69.5568 108.744 69.5568 109.179 69.1214C109.615 68.686 109.615 68.0329 109.179 67.5975C109.07 67.4886 107.655 65.9647 105.478 65.9647C104.063 65.9647 102.648 66.6178 101.451 67.924C99.1649 70.3188 100.253 73.0401 101.124 75.1083C101.777 76.6322 102.104 77.5031 101.669 77.9385C100.798 78.9181 100.253 79.1358 100.145 79.1358Z" fill="#93795B"/>
<path d="M147.169 155.442C144.992 151.414 140.855 148.475 134.215 146.516C122.568 143.032 118.323 139.44 117.343 138.569C118.214 134.324 119.412 130.623 120.718 127.249C123.548 119.52 121.371 104.607 117.67 97.4231C113.533 89.368 111.465 87.9529 110.268 87.6264C109.615 87.4087 109.07 87.5175 108.526 87.7352C107.547 88.2795 107.329 89.2592 107.329 90.3477C106.458 89.6946 104.825 88.4972 103.519 89.5857C101.451 91.2185 103.846 96.77 103.846 96.77C104.172 97.4231 104.825 99.2736 105.478 101.668C105.37 101.777 105.369 101.886 105.261 101.995C105.261 102.213 104.608 104.607 104.934 108.417C101.451 109.941 90.7832 114.295 79.136 113.207C79.136 113.098 79.136 112.989 79.0271 112.88C88.1708 108.308 95.5728 100.58 98.8383 93.5044C99.056 92.9602 98.8383 92.307 98.2941 92.0893C97.7498 91.8716 97.0967 92.0893 96.879 92.6336C93.7223 99.4913 86.4291 107.002 77.3943 111.247C77.3943 111.247 77.3943 111.247 77.2855 111.247C77.1766 111.247 77.0678 111.356 76.9589 111.356C73.5845 112.88 69.9924 113.969 66.2914 114.404C61.8284 114.84 58.454 114.186 56.1681 112.227C52.9025 109.506 52.4671 105.043 52.2494 102.866C52.0317 100.036 50.0723 95.8992 48.9838 93.3956C48.7661 92.8513 48.4395 92.1982 48.3307 91.8716C49.7457 89.4769 50.8343 86.6467 51.8139 83.2723C53.7733 75.8703 54.6441 63.1345 55.4061 51.8138C56.1681 41.1462 56.93 30.1521 58.454 27.6485C61.2841 22.859 68.6861 24.8183 68.795 24.8183C69.3392 24.9272 69.8835 24.6006 70.1012 24.0564C70.2101 23.5121 69.8835 22.9678 69.3392 22.7501C69.0127 22.6413 60.3045 20.3554 56.7123 26.56C54.9707 29.6079 54.2087 39.84 53.3379 51.705C52.5759 62.9168 51.7051 75.5437 49.7457 82.728C45.2828 99.2736 35.8126 97.7497 35.486 97.6408C34.9418 97.532 34.3975 97.8585 34.2887 98.5116C34.1798 99.0559 34.5064 99.6002 35.1595 99.709C35.1595 99.709 35.7037 99.8179 36.4657 99.8179C37.6631 99.8179 39.6224 99.6002 41.7995 98.5116C43.7588 97.532 45.5005 96.008 47.0244 93.9398C47.0244 94.0487 47.1333 94.1575 47.1333 94.2664C48.113 96.4434 50.0723 100.58 50.29 103.083C50.5077 105.369 50.9431 110.594 54.9707 113.86C57.2566 115.71 60.1956 116.581 63.8966 116.581C64.7674 116.581 65.6382 116.581 66.6179 116.472C70.2101 116.037 73.6934 115.057 76.9589 113.751C77.2855 115.275 77.5032 117.887 76.4147 119.847C74.4553 123.004 69.0127 126.051 63.3523 125.834C61.2841 125.725 58.8894 124.745 56.4946 123.657C52.0317 121.697 46.9156 119.52 41.3641 122.242C41.0375 122.459 40.6021 122.568 40.2756 122.786C32.6559 126.596 27.6486 129.099 14.804 168.177C1.85053 207.909 1.74168 213.569 1.74168 214.113C1.74168 214.658 2.28594 215.093 2.83021 215.093C2.83021 215.093 2.83021 215.093 2.93906 215.093C3.48332 215.093 3.91873 214.549 3.91873 214.004C3.91873 214.004 3.91873 208.344 16.8722 168.939C29.3903 130.623 34.0709 128.228 41.2552 124.745C41.5818 124.527 42.0172 124.419 42.3438 124.201C46.9156 121.915 51.3785 123.765 55.6238 125.616C56.7123 126.051 57.692 126.487 58.7805 126.922C57.9097 130.841 53.6644 148.366 46.3713 163.714C38.0985 181.022 18.1784 208.126 30.8054 224.89C33.0913 227.938 89.3681 236.537 93.2868 234.251C93.5045 234.686 93.8311 235.122 94.1577 235.557C96.6613 238.714 100.58 240.564 106.023 241C106.567 241 107.002 241.109 107.547 241.109C111.248 241.109 114.187 239.803 116.472 237.299C118.65 234.795 120.065 231.421 120.718 227.72C120.827 227.611 120.935 227.611 120.935 227.502C131.168 212.916 143.359 183.308 146.842 172.205C149.346 164.912 149.346 159.578 147.169 155.442ZM124.419 145.209L115.928 164.476C115.819 160.013 115.711 156.204 115.819 153.265C115.819 148.584 116.255 144.556 116.908 140.964C118.214 141.944 120.609 143.468 124.419 145.209ZM83.3812 205.84C83.2724 202.793 84.4698 199.309 84.4698 199.309C84.6875 198.765 84.3609 198.221 83.8167 198.003C83.2724 197.785 82.7281 198.112 82.5104 198.656C82.4016 198.874 80.4422 204.643 81.7485 208.671C76.9589 217.052 74.3465 223.583 74.3465 223.583C74.8907 219.229 74.7819 214.984 74.2376 210.848C81.6396 204.752 81.7485 186.682 81.7485 186.465C81.7485 185.92 81.313 185.376 80.6599 185.376C80.1157 185.376 79.5714 185.812 79.5714 186.465C79.5714 186.682 79.3537 202.139 73.8022 208.344C71.734 195.499 66.1825 182.873 63.6789 168.286C60.5222 150.652 63.2435 132.474 63.8966 128.011C70.3189 128.011 75.9793 124.527 78.1563 121.044C78.9183 119.847 79.2448 118.432 79.3537 117.017C82.1839 117.67 92.6337 119.52 105.478 113.207C105.696 114.404 106.131 115.71 106.567 117.017C106.567 117.125 106.458 117.234 106.458 117.234C106.349 117.452 106.023 118.214 105.696 118.976C104.608 121.371 102.648 125.834 101.56 129.099C100.689 131.821 100.689 136.61 100.689 141.617C100.689 145.645 100.689 149.781 100.253 153.047C99.6003 158.381 97.4232 174.273 95.4639 189.186C90.7832 194.411 86.6468 200.398 83.3812 205.84ZM115.166 235.775C112.989 238.17 110.05 239.149 106.458 238.823C101.56 238.387 98.0764 236.863 96.0082 234.142C92.5249 229.788 93.0691 222.821 93.94 216.508C95.5728 205.187 101.233 162.626 102.539 153.373C102.975 149.89 102.975 145.645 102.975 141.617C102.975 136.719 102.975 132.147 103.737 129.644C104.499 127.249 105.805 124.31 106.785 121.915C106.676 122.459 106.567 122.895 106.349 123.439C106.131 123.983 106.458 124.527 107.002 124.745C107.111 124.745 107.22 124.745 107.329 124.745C107.764 124.745 108.2 124.419 108.309 123.983C111.683 112.771 107.002 98.7294 105.696 95.7903C104.934 94.1575 104.499 91.8716 104.716 91.2185C104.934 91.3274 105.369 91.4362 106.24 92.1982C109.832 95.1372 114.404 107.329 115.819 111.792C116.037 112.336 116.581 112.663 117.126 112.445C117.67 112.227 117.996 111.683 117.779 111.139C117.561 110.594 113.86 99.1648 109.832 93.1779C109.832 93.069 109.832 92.8513 109.832 92.7424C109.397 91.3274 109.288 89.8034 109.506 89.5857H109.615C110.159 89.8034 112.01 91.0008 115.819 98.4028C119.629 105.914 121.153 120.064 118.758 126.596C116.364 133.127 113.86 141.291 113.751 153.265C113.642 163.388 114.078 183.199 117.996 203.119C121.044 218.25 119.956 230.441 115.166 235.775ZM145.101 171.552C141.835 182.219 130.95 208.344 121.589 223.039C122.242 215.311 120.935 207.038 120.065 202.575C118.758 195.826 117.779 189.186 117.234 182.873L130.623 147.604C131.603 147.931 132.583 148.257 133.562 148.584C139.549 150.434 143.359 153.047 145.21 156.53C147.169 160.013 147.169 164.803 145.101 171.552Z" fill="#93795B"/>
<path d="M53.5556 92.7424C53.5556 92.7424 52.9025 91.8716 52.0317 91.7628C51.052 91.6539 50.8343 94.8107 50.8343 94.8107C50.8343 94.8107 52.3582 100.798 59.2159 99.9267C64.8763 99.1648 65.3117 96.2257 65.3117 96.2257C65.3117 96.2257 59.5425 91.2185 56.8212 90.892C54.8618 90.6742 53.5556 92.7424 53.5556 92.7424Z" fill="#93795B"/>
</g>
<defs>
<clipPath id="clip0_1252_867">
<rect width="148.802" height="241" fill="white"/>
</clipPath>
</defs>
</svg>
