<svg width="12" height="108" viewBox="0 0 12 108" fill="none" xmlns="http://www.w3.org/2000/svg">
<path d="M6 0.666667C3.05448 0.666667 0.666666 3.05448 0.666667 6C0.666667 8.94552 3.05448 11.3333 6 11.3333C8.94552 11.3333 11.3333 8.94552 11.3333 6C11.3333 3.05448 8.94552 0.666666 6 0.666667ZM6 96.6667C3.05449 96.6667 0.666671 99.0545 0.666671 102C0.666671 104.946 3.05449 107.333 6 107.333C8.94552 107.333 11.3333 104.946 11.3333 102C11.3333 99.0545 8.94552 96.6667 6 96.6667ZM5 6L5 102L7 102L7 6L5 6Z" fill="white"/>
</svg>
