<?xml version="1.0" encoding="utf-8"?>
<!-- Generator: Adobe Illustrator 24.0.2, SVG Export Plug-In . SVG Version: 6.00 Build 0)  -->
<svg version="1.1" id="圖層_1" xmlns="http://www.w3.org/2000/svg" xmlns:xlink="http://www.w3.org/1999/xlink" x="0px" y="0px"
	 viewBox="0 0 180 241" style="enable-background:new 0 0 180 241;" xml:space="preserve">
<style type="text/css">
	.st0{clip-path:url(#SVGID_2_);}
	.st1{fill:#93795B;}
</style>
<g>
	<defs>
		<rect id="SVGID_1_" x="16" y="10.5" width="147.8" height="220"/>
	</defs>
	<clipPath id="SVGID_2_">
		<use xlink:href="#SVGID_1_"  style="overflow:visible;"/>
	</clipPath>
	<g class="st0">
		<path class="st1" d="M151.7,151.5c-0.2-0.6-0.9-0.8-1.5-0.6c-0.6,0.2-0.8,0.9-0.6,1.5c0.1,0.2,8.5,20.2,11.3,53.6
			c-52.4,15.6-88.9,3.1-95.3,0.7c2.2-9.3,4.4-19.4,6-26.9c0.1-0.6,0.2-1,0.2-1c0.1-0.6-0.2-1.2-0.8-1.4c-0.6-0.1-1.2,0.2-1.4,0.8
			c0,0-0.1,0.5-0.2,1.2c-1.5,7.1-2.9,13.5-4.3,19.2c-23.5-0.6-39.1-8.8-42.8-11.1c2.6-11.5,6-25.8,10.2-38.2
			c4-11.6,9.8-18.1,16.4-21.5c0,0,0,0,0.1,0s0.2,0,0.3-0.1c0.2-0.1,0.3-0.2,0.5-0.5c8.4-4,17.9-2.9,26.5-1.2
			c13.6,2.9,22.6-1.7,26.5-4.5c0.1,2.1,0.3,4.4,0.5,6.7c1.5,19.1,3.5,45.3,2.9,51c-0.5,4.2,1.6,5.1,2.4,5.4c0.2,0,0.3,0.1,0.6,0.1
			c2.6,0,5.9-2.9,8.3-8.4c1.2,0.6,3.3,1.5,5.9,1.5c0.9,0,2-0.1,3-0.5c4.3-1.2,7.9-5,10.6-11.3c0.2-0.6,0-1.3-0.6-1.5
			c-0.6-0.2-1.2,0-1.5,0.6c-2.4,5.6-5.5,9-9.1,10c-3.4,0.9-6.4-0.3-7.6-1c0.1-0.3,0.2-0.8,0.3-1.2c3.3-11.1,3.4-42,1.9-47.9
			c-0.1-0.6-0.8-0.9-1.4-0.8c-0.6,0.1-0.9,0.8-0.8,1.4c1.5,5.8,1.4,35.8-1.7,46.8c-2.1,7.1-5.9,10.4-7.4,10
			c-0.6-0.1-0.9-1.3-0.7-2.9c0.6-5.8-1.3-31.1-2.9-51.4c-0.2-2.9-0.5-5.7-0.6-8.3c0.1-0.1,0.1-0.1,0.1-0.1c0.5-0.5,0.5-1.2,0-1.6
			c-0.1-0.1-0.1-0.1-0.2-0.1c-0.1-2.2-0.3-4.2-0.5-5.9c-0.1-1.4-0.2-3.1-0.5-5.1c0-0.1,0-0.2,0-0.2c-2.7-24.4-13.8-86.8-25.4-93.7
			c-3.3-2-6.5-2.4-9.8-1.4C61.5,14,57.2,23.3,57,23.8c-0.2,0.6,0,1.2,0.6,1.5c0.6,0.2,1.3,0,1.5-0.6c0-0.1,4.1-8.8,10.5-10.8
			c1.2-0.3,2.4-0.5,3.7-0.3c-4.8,2.8-7.9,10.7-8.4,11.8c-0.2,0.6,0.1,1.2,0.7,1.4c0.1,0,0.2,0.1,0.3,0.1c0.5,0,0.8-0.2,1-0.7
			c1.3-3.3,5.5-11.6,10-11.3c0.1,0.1,0.3,0.2,0.5,0.2c10.4,6,21.5,65.3,24.3,91.3c-3.5,2-20.8,11.8-33.6,12.2
			c-5.8,0.2-9.8-0.8-12-3.1c-1.5-1.6-2.1-3.8-1.9-6.6c0.3-2.9-0.1-5.5-0.3-6.6c2,0.5,4.7,0.1,6.7-1.2c4.7-2.8,6.7-6.6,6.7-6.6
			c0.2,0-6.2-2.1-10.1-4.1c-2.2-1-4.1-1.2-5.4-0.7c0.3-2.7-0.1-4.8-0.6-5.9c0.3-0.1,0.7-0.2,1-0.3c0.9-0.3,2.3-0.8,2.7-0.5
			c0.5,0.3,1.2,0.2,1.5-0.2c0.3-0.5,0.2-1.2-0.2-1.5c-1.3-0.9-3-0.3-4.7,0.2c-2.2,0.7-3.6,1-4.5,0c-1-1.3-0.8-2,1-4.8
			c0.8-1.2,1.7-2.7,2.7-4.5c2.3-4.8,2.6-12.9,2.7-16.1c0-0.5,0-0.8,0-0.9c0.1-0.6-0.2-1-0.7-1.3c-0.6-0.2-1.2,0.1-1.4,0.7
			c-0.1,0.2-0.1,0.3-0.1,1.4C51.3,58.5,51,66.7,48.9,71c-0.8,1.7-1.7,3-2.4,4.3c-1.6,2.6-3.1,4.8-0.9,7.4c0.9,1.2,2.1,1.5,3.3,1.5
			c0.1,0,0.3,0,0.5,0c0.3,0.9,0.8,3,0.5,5.6c-0.1,0.5,0.2,0.9,0.6,1.2c-0.1,0.1-0.1,0.2-0.2,0.5c-0.5,1.6,0.5,4.8,1.3,4.7
			c-0.9,2.4-0.5,4.1,0.6,5.1c-0.2,0.2-0.3,0.7-0.2,1c0,0,0.8,2.9,0.5,6.4c-0.3,3.5,0.5,6.4,2.4,8.5c2.4,2.6,6.5,4,12.2,4
			c0.5,0,0.9,0,1.5,0c4-0.1,8.3-1,12.4-2.4c0.5,1.5,1.2,4.4,1.4,6.4c-1.6-0.1-3.4-0.3-5.1-0.7c-8.3-2.2-18.3-3.3-27.3,0.7
			c-1.2-3.6-4.7-14.9-7-33.3c-2.8-21.9,2.7-43.4,3.4-45.1c0.2-0.3,0.2-0.8,0-1.2c-0.3-0.5-1-0.7-1.5-0.3c-1.4,0.9-6.7,25.1-4,46.9
			c2.4,19.2,6,30.6,7.2,34c-6.9,3.6-13,10.5-17.1,22.6c-9,25.8-14.7,59.7-14.8,60c-0.1,0.6,0.3,1.2,0.9,1.3c0.1,0,0.1,0,0.2,0
			c0.6,0,1-0.3,1-0.9c0,0,0.1-0.5,0.2-1.3c5.1,2.4,34.9,10.2,42,10.4c-1.4,5-2.4,8.5-3.3,10.1c-0.2,0.6,0,1.3,0.5,1.5
			c0.1,0.1,0.3,0.1,0.5,0.1c0.5,0,0.8-0.2,1-0.6c0.5-1,1.2-2.8,1.7-4.9c38.6,14.4,99.7-0.7,101.3-4.3c0.2-0.5,0.3-1,0.5-1.6
			c0.6,0,1-0.6,1-1.2C162.2,176.6,151.8,151.7,151.7,151.5z M82.8,117.6c8.4-2.9,16.1-7.1,19.3-8.8c0.1,1.3,0.2,2.4,0.3,3.5
			c0.1,2,0.3,4.3,0.5,6.7c-2.2,1.7-8.5,6-18.5,5.9C84.1,122.7,83.2,119.3,82.8,117.6z"/>
		<path class="st1" d="M155.3,55.2c6.6,25.2,6.4,72.2,6.3,89.9c0,6.3,0,6.5,0.1,6.9c0.1,0.5,0.6,0.7,1,0.7c0.1,0,0.2,0,0.5-0.1
			c0.5-0.2,0.8-0.8,0.7-1.3c0-0.5,0-3,0-6.2c0.1-17.8,0.5-65-6.3-90.5c-8.1-31.1-22-43.4-22.6-43.9c-0.5-0.3-1.2-0.3-1.6,0.1
			c-0.3,0.5-0.3,1.2,0.1,1.6C133.5,12.6,147.2,24.8,155.3,55.2z"/>
	</g>
</g>
</svg>
