<?xml version="1.0" encoding="utf-8"?>
<!-- Generator: Adobe Illustrator 24.0.2, SVG Export Plug-In . SVG Version: 6.00 Build 0)  -->
<svg version="1.1" xmlns="http://www.w3.org/2000/svg" xmlns:xlink="http://www.w3.org/1999/xlink" x="0px" y="0px"
	 viewBox="0 0 200 200" style="enable-background:new 0 0 200 200;" xml:space="preserve">
<style type="text/css">
	.st0{display:none;}
	.st1{display:inline;}
	.st2{fill:#231815;}
	.st3{display:inline;fill:none;stroke:#231815;stroke-miterlimit:10;}
	.st4{fill:none;stroke:#231815;stroke-miterlimit:10;}
</style>
<g id="圖層_2" class="st0">
	<path class="st1" d="M102.1,102.8c-0.7,3.2-1.3,6.3-2,9.3c0,0-0.1,0-0.1,0c-0.7-3.1-1.3-6.1-2-9.3c-2.7,2.2-5.3,4.4-7.9,6.5
		c0,0-0.1-0.1-0.1-0.1c2.2-2.6,4.3-5.2,6.5-8c-3.2-0.7-6.3-1.4-9.4-2c0,0,0-0.1,0-0.1c3.1-0.7,6.2-1.3,9.4-2c-2.2-2.7-4.4-5.4-6.6-8
		c0,0,0.1-0.1,0.1-0.1c2.6,2.2,5.3,4.4,8,6.6c0.7-3.2,1.3-6.3,2-9.3c0,0,0.1,0,0.1,0c0.7,3.1,1.3,6.1,2,9.3c2.7-2.2,5.3-4.4,8-6.6
		c0,0,0.1,0.1,0.1,0.1c-2.2,2.6-4.3,5.3-6.6,8c3.2,0.7,6.3,1.4,9.4,2c0,0,0,0.1,0,0.1c-3.1,0.7-6.2,1.3-9.3,2
		c2.3,2.8,4.5,5.4,6.7,8.1c0,0-0.1,0-0.1,0.1C107.5,107.3,104.8,105.1,102.1,102.8z"/>
	<g class="st1">
		<path class="st2" d="M8.6,93.5c0.7,0.1,1.5-0.1,2.1-0.5c0.7-0.4,1.3-0.9,2-1.6c0.7-0.7,1.3-1.4,2-2.1c0.7-0.8,1.4-1.5,2.1-2.1
			c0.7-0.6,1.5-1.2,2.4-1.6c0.9-0.4,1.8-0.5,2.8-0.5c1,0.1,1.8,0.4,2.5,0.9c0.7,0.5,1.2,1.1,1.6,1.8s0.7,1.5,0.8,2.3
			c0.1,0.8,0.2,1.7,0.1,2.5s-0.3,1.6-0.6,2.3c-0.3,0.7-0.6,1.3-1,1.9c-0.4,0.5-0.8,1-1.2,1.4c-0.4,0.4-0.8,0.6-1.1,0.8
			c-0.2-0.1-0.5-0.2-0.9-0.4c-0.4-0.2-0.9-0.4-1.3-0.6s-0.9-0.4-1.3-0.6C19.2,97.2,19,97,18.8,97c0.8,0.2,1.7,0.1,2.5-0.1
			c0.8-0.2,1.6-0.5,2.2-1c0.7-0.4,1.2-1,1.6-1.6c0.4-0.6,0.7-1.3,0.7-2c0-0.5,0-1-0.2-1.5c-0.2-0.5-0.4-0.9-0.8-1.3
			c-0.3-0.4-0.7-0.7-1.2-1c-0.4-0.3-0.9-0.4-1.4-0.4c-0.9-0.1-1.6,0.1-2.4,0.5s-1.4,0.9-2.1,1.6c-0.7,0.6-1.3,1.4-2,2.1
			c-0.7,0.8-1.3,1.5-2.1,2.1s-1.5,1.2-2.3,1.6c-0.8,0.4-1.7,0.6-2.6,0.5c-0.9-0.1-1.6-0.3-2.2-0.8c-0.6-0.5-1.1-1-1.5-1.7
			c-0.4-0.7-0.7-1.4-0.8-2.2s-0.2-1.6-0.1-2.4c0.1-1.1,0.4-2.1,0.9-3s1.2-1.6,2.2-2.1c0.2,0.1,0.5,0.2,0.9,0.4
			c0.4,0.2,0.8,0.4,1.3,0.6c0.5,0.2,0.9,0.4,1.3,0.6s0.8,0.3,1.1,0.4c-1.1-0.2-2-0.2-2.8-0.1c-0.8,0.1-1.5,0.3-2,0.6
			c-0.5,0.3-0.9,0.7-1.2,1.1c-0.3,0.5-0.5,0.9-0.5,1.4c0,0.4,0,0.9,0.1,1.3c0.1,0.5,0.3,0.9,0.6,1.3c0.3,0.4,0.6,0.7,1,1
			S8,93.4,8.6,93.5z"/>
		<path class="st2" d="M30.4,69.2c0,0,0.1-0.1,0.1-0.1c0.1,0,0.1,0,0.2,0c0,0,0.1,0,0.1,0.1c0,0,0.1,0.1,0.1,0.1
			c0,0.4,0.1,0.7,0.1,1c0,0.3,0,0.6,0.1,0.9c0,0.3,0.1,0.6,0.1,0.9c0,0.3,0.1,0.6,0.1,1c0,0.1,0,0.3,0,0.4c0,0.1,0,0.3,0,0.4
			c-0.1,0.2-0.2,0.4-0.3,0.4c-0.1,0-0.3,0-0.5-0.1l-1.3-0.4c0.6,0.7,0.9,1.4,1,2.2c0.1,0.8,0,1.5-0.2,2.2c-0.3,0.9-0.7,1.6-1.2,2.1
			c-0.5,0.5-1.1,0.8-1.9,0.9c-0.7,0.1-1.5,0.2-2.4,0s-1.8-0.4-2.8-0.7l-3.9-1.2c-0.3-0.1-0.6,0-0.8,0.2c-0.2,0.3-0.4,0.6-0.6,1
			c0,0.1-0.1,0.1-0.3,0.1c-0.1,0-0.2-0.1-0.2-0.2c0-0.4-0.1-0.7-0.1-1c0-0.3,0-0.6-0.1-0.9c0-0.3-0.1-0.6-0.1-0.9
			c0-0.3-0.1-0.6-0.1-1c0-0.1,0-0.3,0-0.4c0-0.1,0-0.2,0.1-0.4c0.1-0.3,0.2-0.4,0.3-0.4c0.1,0,0.3,0,0.5,0.1l6.2,2
			c1.9,0.6,3.3,0.8,4.3,0.6c1-0.2,1.6-0.8,2-1.8c0.2-0.5,0-1-0.3-1.7c-0.4-0.6-1-1.2-1.9-1.8l-6.3-2c-0.3-0.1-0.6,0-0.8,0.2
			c-0.2,0.3-0.4,0.6-0.6,1c0,0.1-0.1,0.1-0.3,0.1c-0.1,0-0.2-0.1-0.2-0.2c0-0.4-0.1-0.7-0.1-1s-0.1-0.6-0.1-0.9
			c0-0.3-0.1-0.6-0.1-0.9c0-0.3-0.1-0.6-0.1-1c0-0.1,0-0.3,0-0.4c0-0.1,0-0.2,0.1-0.4c0.1-0.2,0.2-0.4,0.3-0.4c0.1,0,0.3,0,0.5,0.1
			L29,70.5c0.3,0.1,0.6,0,0.8-0.2S30.2,69.7,30.4,69.2z"/>
		<path class="st2" d="M31.9,67.5l0.2-0.3c0.2-0.2,0.2-0.5,0.2-0.7c-0.1-0.2-0.2-0.4-0.3-0.6c-0.2-0.2-0.4-0.4-0.6-0.6
			c-0.2-0.2-0.4-0.3-0.6-0.4l-6.3-4.3c-0.3-0.2-0.6-0.3-0.9-0.2c-0.3,0.1-0.6,0.3-0.9,0.7c0,0-0.1,0.1-0.1,0c-0.1,0-0.1,0-0.2-0.1
			c-0.1-0.1-0.1-0.1-0.1-0.2c0.1-0.4,0.1-0.7,0.2-1s0.1-0.6,0.1-0.8c0-0.3,0.1-0.5,0.1-0.8c0-0.3,0.1-0.6,0.2-0.9
			c0-0.1,0-0.3,0.1-0.4s0.1-0.2,0.2-0.3c0.1-0.2,0.3-0.3,0.4-0.3c0.1,0,0.3,0.1,0.5,0.3l1.1,0.7c-0.4-0.8-0.6-1.7-0.5-2.5
			s0.4-1.5,0.8-2.2c0.7-1,1.4-1.6,2.3-1.9c0.8-0.2,1.7-0.2,2.7,0.1c-0.4-0.5-0.6-0.9-0.8-1.4s-0.2-1-0.2-1.4c0-0.5,0.1-0.9,0.2-1.3
			c0.2-0.4,0.3-0.8,0.6-1.2c0.5-0.8,1.1-1.4,1.8-1.7c0.6-0.3,1.3-0.4,2-0.4c0.7,0.1,1.5,0.3,2.3,0.7c0.8,0.4,1.6,0.9,2.5,1.5
			l3.4,2.3c0.2,0.1,0.4,0.2,0.6,0.4s0.5,0.2,0.7,0.3c0.2,0.1,0.5,0.1,0.7,0.1c0.2,0,0.4-0.2,0.6-0.4l0.2-0.3l0.5,0.4l-3.5,5.1
			L41.6,53l0.2-0.3c0.2-0.2,0.2-0.5,0.2-0.7c-0.1-0.2-0.2-0.4-0.3-0.6c-0.2-0.2-0.4-0.4-0.6-0.6c-0.2-0.2-0.4-0.3-0.6-0.4L37.1,48
			c-1.6-1.1-3-1.7-4-1.8c-1-0.1-1.8,0.3-2.4,1.2c-0.3,0.5-0.4,1.1-0.1,1.9c0.2,0.8,0.8,1.6,1.6,2.4c0.3,0.2,0.6,0.3,0.9,0.5
			c0.3,0.2,0.6,0.4,0.9,0.6l3.4,2.3c0.2,0.1,0.4,0.2,0.6,0.4c0.2,0.1,0.5,0.2,0.7,0.3c0.2,0.1,0.5,0.1,0.7,0.1
			c0.2,0,0.4-0.2,0.6-0.4l0.2-0.3l0.5,0.4l-3.5,5.1l-0.5-0.4l0.2-0.3c0.2-0.2,0.2-0.5,0.2-0.7c-0.1-0.2-0.2-0.4-0.3-0.6
			c-0.2-0.2-0.4-0.4-0.6-0.6c-0.2-0.2-0.4-0.3-0.6-0.4l-3.4-2.3c-1.6-1.1-3-1.7-4-1.8c-1-0.1-1.8,0.3-2.4,1.2
			c-0.3,0.5-0.4,1.1-0.1,2c0.3,0.8,0.9,1.6,1.8,2.5l4.9,3.3c0.2,0.1,0.4,0.2,0.6,0.4c0.2,0.1,0.5,0.2,0.7,0.3
			c0.2,0.1,0.5,0.1,0.7,0.1c0.2,0,0.4-0.2,0.6-0.4l0.2-0.3l0.5,0.4l-3.5,5.1L31.9,67.5z"/>
		<path class="st2" d="M46.4,46.6l0.3-0.2c0.2-0.2,0.3-0.4,0.4-0.6c0-0.2,0-0.5-0.1-0.7c-0.1-0.2-0.2-0.5-0.4-0.7s-0.3-0.4-0.4-0.6
			l-4.6-6.1c-0.2-0.3-0.5-0.4-0.8-0.5c-0.3,0-0.7,0.1-1.1,0.3c0,0-0.1,0-0.1,0c-0.1,0-0.1-0.1-0.1-0.1c-0.1-0.1-0.1-0.2-0.1-0.2
			c0.2-0.3,0.4-0.6,0.5-0.9s0.3-0.5,0.4-0.7c0.1-0.2,0.3-0.5,0.4-0.7c0.1-0.2,0.3-0.5,0.5-0.8c0.1-0.1,0.1-0.2,0.2-0.3
			c0.1-0.1,0.2-0.2,0.3-0.3c0.2-0.2,0.4-0.2,0.5-0.1c0.1,0.1,0.2,0.2,0.4,0.4l0.8,1c-0.1-0.9,0-1.8,0.4-2.5c0.4-0.7,0.9-1.3,1.5-1.8
			c1-0.7,1.9-1.1,2.8-1c0.9,0,1.7,0.4,2.5,1c-0.2-0.6-0.3-1.1-0.2-1.6c0-0.5,0.1-1,0.3-1.4c0.2-0.4,0.4-0.8,0.7-1.2
			c0.3-0.4,0.6-0.7,1-0.9c0.8-0.6,1.5-0.9,2.2-1c0.7-0.1,1.4,0,2.1,0.3c0.7,0.3,1.3,0.8,1.9,1.4c0.6,0.6,1.3,1.4,1.9,2.2l2.5,3.3
			c0.1,0.2,0.3,0.3,0.4,0.6c0.2,0.2,0.4,0.4,0.6,0.5s0.4,0.3,0.7,0.3s0.5,0,0.7-0.2l0.3-0.2l0.4,0.5l-5,3.7l-0.4-0.5l0.3-0.2
			c0.2-0.2,0.3-0.4,0.4-0.6c0-0.2,0-0.5-0.1-0.7c-0.1-0.2-0.2-0.5-0.4-0.7c-0.1-0.2-0.3-0.4-0.4-0.6L57.8,30c-1.2-1.6-2.2-2.6-3.1-3
			c-0.9-0.4-1.8-0.3-2.7,0.3c-0.5,0.3-0.7,0.9-0.7,1.7c0,0.8,0.2,1.7,0.7,2.7c0.2,0.2,0.4,0.5,0.7,0.8c0.2,0.3,0.4,0.5,0.6,0.8
			l2.5,3.3c0.1,0.2,0.3,0.3,0.4,0.6c0.2,0.2,0.4,0.4,0.6,0.5c0.2,0.2,0.4,0.3,0.7,0.3c0.2,0,0.5,0,0.7-0.2l0.3-0.2l0.4,0.5l-5,3.7
			l-0.4-0.5l0.3-0.2c0.2-0.2,0.3-0.4,0.4-0.6c0-0.2,0-0.5-0.1-0.7c-0.1-0.2-0.2-0.5-0.4-0.7c-0.1-0.2-0.3-0.4-0.4-0.6l-2.5-3.3
			c-1.2-1.6-2.2-2.6-3.1-3c-0.9-0.4-1.8-0.3-2.7,0.3c-0.5,0.4-0.7,1-0.7,1.8c0,0.9,0.3,1.8,0.9,2.9l3.5,4.7c0.1,0.2,0.3,0.3,0.4,0.6
			c0.2,0.2,0.4,0.4,0.6,0.5c0.2,0.2,0.4,0.3,0.7,0.3s0.5,0,0.7-0.2l0.3-0.2l0.4,0.5l-5,3.7L46.4,46.6z"/>
		<path class="st2" d="M67.8,24.5c0.3,0.7,0.6,1.3,1,1.9s0.9,1.2,1.5,1.6c0.6,0.4,1.2,0.7,1.9,0.9c0.7,0.1,1.4,0.1,2.2-0.2
			c0.4-0.1,0.7-0.3,1-0.6s0.6-0.5,0.8-0.8c0.2-0.3,0.4-0.7,0.5-1c0.1-0.4,0.2-0.8,0.1-1.2l0.4-0.2c0.1,0.7,0.1,1.3,0,1.9
			c-0.1,0.6-0.3,1.1-0.6,1.6c-0.3,0.5-0.7,0.9-1.1,1.3s-1,0.7-1.5,0.9c-1,0.4-2,0.5-2.9,0.4s-1.8-0.4-2.5-0.8c-0.8-0.4-1.5-1-2-1.8
			c-0.6-0.7-1-1.5-1.4-2.4c-0.3-0.9-0.5-1.7-0.6-2.6c-0.1-0.9,0.1-1.8,0.3-2.6c0.3-0.8,0.7-1.6,1.4-2.3c0.6-0.7,1.5-1.3,2.6-1.7
			c0.8-0.3,1.5-0.4,2.2-0.2c0.7,0.1,1.4,0.4,2,0.8c0.6,0.4,1.2,1,1.7,1.6s0.9,1.4,1.2,2.2L67.8,24.5z M69.1,17.6
			c-0.6,0.2-1,0.6-1.3,1.1c-0.3,0.5-0.5,1.1-0.6,1.7c-0.1,0.6-0.1,1.2,0,1.9c0.1,0.6,0.2,1.2,0.4,1.7l4.1-1.6
			c0.3-0.1,0.5-0.3,0.6-0.5c0.1-0.2,0.2-0.4,0.2-0.7c0-0.2,0-0.5-0.1-0.7c0-0.2-0.1-0.4-0.1-0.5c-0.3-0.7-0.5-1.2-0.8-1.5
			c-0.3-0.4-0.6-0.6-0.9-0.8c-0.3-0.1-0.6-0.2-0.8-0.2C69.5,17.5,69.3,17.5,69.1,17.6z"/>
		<path class="st2" d="M86.8,26.2l0.1,0.6L80.9,28l-0.1-0.6l0.4-0.1c0.3-0.1,0.5-0.2,0.6-0.4s0.2-0.4,0.2-0.7c0-0.3,0-0.5,0-0.8
			c0-0.3-0.1-0.5-0.1-0.7l-1.5-7.5c-0.1-0.4-0.2-0.6-0.5-0.8s-0.6-0.2-1.1-0.1c-0.1,0-0.2,0-0.2-0.2c0-0.1,0-0.2,0.1-0.3
			c0.3-0.2,0.6-0.4,0.8-0.6c0.2-0.2,0.5-0.3,0.7-0.5s0.4-0.3,0.7-0.5c0.2-0.2,0.5-0.4,0.8-0.6c0.1-0.1,0.2-0.2,0.3-0.2
			c0.1-0.1,0.2-0.1,0.3-0.1c0.2,0,0.4,0,0.5,0.1c0.1,0.1,0.1,0.3,0.2,0.5l0.4,1.9c0.3-1,0.8-1.8,1.5-2.5c0.7-0.7,1.6-1.1,2.6-1.3
			l0.5,2.7c-0.6,0.1-1.1,0.2-1.6,0.4c-0.5,0.1-0.9,0.3-1.3,0.5c-0.4,0.2-0.7,0.4-0.9,0.7c-0.2,0.3-0.4,0.6-0.5,1l1.4,6.8
			c0,0.2,0.1,0.4,0.2,0.7s0.2,0.5,0.3,0.7c0.1,0.2,0.3,0.4,0.5,0.5c0.2,0.1,0.4,0.2,0.7,0.1L86.8,26.2z"/>
		<path class="st2" d="M112.4,8.4c-0.1,0.7,0,1.5,0.4,2.2s0.8,1.4,1.5,2.1c0.6,0.7,1.3,1.4,2,2.1c0.7,0.7,1.4,1.5,2,2.3
			c0.6,0.8,1.1,1.6,1.4,2.5s0.4,1.8,0.2,2.8c-0.2,1-0.5,1.8-1,2.4c-0.5,0.6-1.2,1.1-1.9,1.5c-0.7,0.4-1.5,0.6-2.4,0.7
			c-0.9,0.1-1.7,0.1-2.5-0.1c-0.8-0.1-1.6-0.4-2.3-0.7s-1.3-0.7-1.8-1.2c-0.5-0.4-0.9-0.9-1.3-1.3c-0.3-0.4-0.6-0.8-0.7-1.2
			c0.1-0.2,0.2-0.5,0.4-0.9c0.2-0.4,0.4-0.8,0.7-1.3c0.2-0.4,0.5-0.9,0.7-1.2c0.2-0.4,0.3-0.6,0.4-0.8c-0.2,0.8-0.3,1.6-0.1,2.5
			c0.1,0.8,0.4,1.6,0.8,2.3c0.4,0.7,0.9,1.3,1.5,1.8c0.6,0.5,1.2,0.8,1.9,0.9c0.5,0.1,1,0.1,1.5-0.1c0.5-0.1,0.9-0.4,1.4-0.7
			c0.4-0.3,0.8-0.7,1-1.1c0.3-0.4,0.5-0.9,0.6-1.4c0.1-0.8,0-1.6-0.3-2.4s-0.8-1.5-1.4-2.2s-1.3-1.4-2-2.2c-0.7-0.7-1.4-1.4-2-2.2
			s-1.1-1.6-1.4-2.4c-0.3-0.8-0.4-1.7-0.3-2.6c0.1-0.8,0.5-1.6,1-2.1c0.5-0.6,1.1-1,1.8-1.4c0.7-0.3,1.5-0.6,2.3-0.7
			c0.8-0.1,1.6-0.1,2.4,0c1.1,0.2,2,0.6,2.9,1.1c0.9,0.6,1.5,1.3,2,2.3c-0.1,0.2-0.2,0.5-0.4,0.8s-0.4,0.8-0.6,1.2
			c-0.2,0.4-0.4,0.9-0.7,1.3c-0.2,0.4-0.4,0.8-0.5,1c0.2-1.1,0.3-2,0.3-2.8c-0.1-0.8-0.2-1.5-0.5-2c-0.3-0.6-0.6-1-1-1.3
			c-0.4-0.3-0.9-0.5-1.4-0.6c-0.4-0.1-0.9-0.1-1.3,0c-0.5,0.1-0.9,0.2-1.3,0.5S113.3,6.6,113,7C112.7,7.4,112.5,7.9,112.4,8.4z"/>
		<path class="st2" d="M126.7,22.4c-0.3,0.7-0.4,1.4-0.6,2.1c-0.1,0.8-0.1,1.5,0,2.2c0.1,0.7,0.4,1.3,0.8,1.9c0.4,0.6,1,1,1.8,1.3
			c0.4,0.1,0.8,0.2,1.2,0.3c0.4,0,0.8,0,1.2-0.1s0.8-0.2,1.1-0.4c0.3-0.2,0.6-0.4,0.9-0.8l0.4,0.2c-0.4,0.6-0.8,1.1-1.3,1.4
			s-1,0.6-1.6,0.8c-0.6,0.2-1.1,0.2-1.7,0.2c-0.6,0-1.2-0.2-1.7-0.4c-1-0.4-1.8-0.9-2.4-1.6c-0.6-0.7-1.1-1.5-1.3-2.3
			c-0.3-0.9-0.4-1.7-0.3-2.7s0.3-1.8,0.6-2.7c0.3-0.9,0.8-1.6,1.4-2.3c0.6-0.7,1.2-1.3,2-1.7c0.8-0.4,1.6-0.7,2.6-0.8
			c0.9-0.1,2,0.1,3,0.5c0.8,0.3,1.3,0.7,1.8,1.3c0.4,0.6,0.7,1.2,0.9,2c0.2,0.7,0.2,1.5,0.1,2.3c-0.1,0.8-0.3,1.6-0.6,2.4
			L126.7,22.4z M132.3,18.2c-0.6-0.2-1.1-0.2-1.7-0.1c-0.6,0.2-1.1,0.5-1.5,0.9c-0.5,0.4-0.9,0.8-1.3,1.4c-0.4,0.5-0.7,1-0.9,1.5
			l4.1,1.6c0.3,0.1,0.5,0.1,0.8,0c0.2-0.1,0.4-0.2,0.6-0.4c0.2-0.2,0.3-0.3,0.4-0.5c0.1-0.2,0.2-0.3,0.2-0.4
			c0.3-0.7,0.4-1.2,0.4-1.7c0-0.5,0-0.9-0.2-1.2c-0.1-0.3-0.3-0.6-0.5-0.7C132.6,18.3,132.5,18.2,132.3,18.2z"/>
		<path class="st2" d="M139.6,36.4l-0.3,0.6l-5.3-3.2l0.3-0.6l0.4,0.2c0.2,0.1,0.5,0.2,0.7,0.1s0.4-0.2,0.6-0.4s0.4-0.4,0.5-0.6
			c0.2-0.2,0.3-0.4,0.4-0.6l4-6.5c0.2-0.3,0.2-0.6,0.1-0.9c-0.1-0.3-0.3-0.6-0.7-0.8c-0.1,0-0.1-0.1,0-0.3c0.1-0.1,0.1-0.2,0.2-0.1
			c0.4,0.1,0.7,0.1,1,0.1c0.3,0,0.6,0.1,0.8,0.1c0.3,0,0.5,0.1,0.8,0.1c0.3,0,0.6,0.1,0.9,0.1c0.1,0,0.3,0,0.4,0.1
			c0.1,0,0.2,0.1,0.3,0.1c0.2,0.1,0.3,0.3,0.3,0.4c0,0.1-0.1,0.3-0.2,0.5l-1,1.6c0.8-0.5,1.8-0.8,2.8-0.8c1,0,1.9,0.2,2.8,0.8
			l-1.4,2.4c-0.5-0.3-1-0.6-1.4-0.8c-0.5-0.2-0.9-0.4-1.3-0.5c-0.4-0.1-0.8-0.2-1.1-0.1c-0.4,0-0.7,0.2-1,0.4l-3.6,6
			c-0.1,0.2-0.2,0.4-0.3,0.6c-0.1,0.2-0.2,0.5-0.3,0.7c-0.1,0.3-0.1,0.5,0,0.7c0,0.2,0.2,0.4,0.4,0.6L139.6,36.4z"/>
		<path class="st2" d="M151.2,36.1c-0.5,0.5-0.9,1.1-1.2,1.8c-0.4,0.7-0.6,1.4-0.7,2.1c-0.1,0.7-0.1,1.4,0.1,2.1
			c0.2,0.7,0.6,1.3,1.2,1.8c0.3,0.3,0.6,0.5,1,0.7s0.7,0.3,1.1,0.4s0.8,0.1,1.2,0c0.4-0.1,0.7-0.2,1.1-0.4l0.3,0.3
			c-0.6,0.4-1.1,0.7-1.7,0.9s-1.2,0.2-1.8,0.2s-1.1-0.2-1.7-0.4s-1-0.6-1.5-0.9c-0.8-0.7-1.4-1.5-1.7-2.4c-0.3-0.9-0.5-1.7-0.5-2.6
			c0-0.9,0.2-1.8,0.6-2.6c0.4-0.9,0.9-1.6,1.5-2.3c0.6-0.7,1.3-1.3,2.1-1.7c0.8-0.5,1.6-0.8,2.5-0.9s1.8-0.1,2.7,0.2
			c0.9,0.3,1.8,0.8,2.7,1.5c0.6,0.5,1,1.1,1.2,1.8s0.3,1.4,0.2,2.2s-0.3,1.5-0.7,2.2c-0.4,0.7-0.8,1.4-1.4,2.1L151.2,36.1z M158,34
			c-0.5-0.4-1-0.6-1.6-0.6c-0.6,0-1.2,0.1-1.7,0.3c-0.6,0.2-1.1,0.5-1.7,0.9s-1,0.7-1.3,1.1l3.3,2.9c0.2,0.2,0.5,0.3,0.7,0.3
			c0.2,0,0.5-0.1,0.7-0.2c0.2-0.1,0.4-0.2,0.6-0.4c0.2-0.1,0.3-0.2,0.3-0.3c0.5-0.5,0.8-1,1-1.4c0.2-0.4,0.3-0.8,0.3-1.2
			c0-0.3-0.1-0.6-0.2-0.8C158.2,34.3,158.1,34.1,158,34z"/>
		<path class="st2" d="M154.8,48.7l0.2,0.3c0.2,0.2,0.4,0.3,0.6,0.4c0.2,0,0.5,0,0.7-0.1s0.5-0.2,0.7-0.4c0.2-0.2,0.4-0.3,0.6-0.4
			l6.1-4.6c0.3-0.2,0.4-0.5,0.5-0.8c0-0.3-0.1-0.7-0.4-1c0,0,0-0.1,0-0.1c0-0.1,0.1-0.1,0.1-0.1c0.1-0.1,0.2-0.1,0.2-0.1
			c0.3,0.2,0.6,0.4,0.9,0.5s0.5,0.3,0.7,0.4c0.2,0.1,0.5,0.3,0.7,0.4c0.2,0.1,0.5,0.3,0.8,0.5c0.1,0.1,0.2,0.1,0.3,0.2
			c0.1,0.1,0.2,0.2,0.3,0.3c0.2,0.2,0.2,0.4,0.1,0.5c-0.1,0.1-0.2,0.2-0.4,0.4l-1,0.8c0.9-0.1,1.8,0,2.5,0.3
			c0.7,0.4,1.3,0.9,1.8,1.5c0.6,0.8,0.9,1.5,1,2.2c0.1,0.7,0,1.4-0.3,2.1c-0.3,0.7-0.7,1.3-1.4,1.9s-1.4,1.3-2.2,1.9l-3.3,2.5
			c-0.2,0.1-0.3,0.3-0.6,0.4s-0.4,0.4-0.5,0.6c-0.2,0.2-0.2,0.4-0.3,0.7c0,0.2,0,0.5,0.2,0.7l0.2,0.3l-0.5,0.4l-3.7-4.9l0.5-0.4
			l0.3,0.3c0.2,0.2,0.4,0.3,0.6,0.4c0.2,0,0.5,0,0.7-0.1c0.2-0.1,0.5-0.2,0.7-0.4c0.2-0.2,0.4-0.3,0.6-0.4l3.3-2.5
			c1.6-1.2,2.6-2.2,3-3.2c0.4-0.9,0.3-1.8-0.3-2.7c-0.4-0.5-1-0.7-1.8-0.7c-0.9,0-1.8,0.3-2.9,0.9l-4.7,3.5
			c-0.2,0.1-0.3,0.3-0.6,0.4c-0.2,0.2-0.4,0.4-0.5,0.6c-0.2,0.2-0.2,0.4-0.3,0.7s0,0.5,0.2,0.7l0.3,0.3L158,54l-3.7-4.9L154.8,48.7z
			"/>
		<path class="st2" d="M164.7,62.7l0.2,0.4c0.1,0.2,0.3,0.4,0.5,0.5c0.2,0.1,0.5,0.1,0.7,0c0.3,0,0.5-0.1,0.8-0.2
			c0.2-0.1,0.5-0.2,0.6-0.3l6.8-3.5c0.3-0.2,0.5-0.4,0.6-0.7c0.1-0.3,0-0.7-0.2-1.1c0-0.1,0-0.1,0.2-0.2c0.1-0.1,0.2-0.1,0.2,0
			c0.3,0.2,0.5,0.5,0.8,0.6c0.2,0.2,0.4,0.4,0.6,0.5c0.2,0.2,0.4,0.3,0.6,0.5s0.5,0.4,0.8,0.6c0.1,0.1,0.2,0.2,0.3,0.3
			s0.2,0.2,0.2,0.3c0.1,0.2,0.1,0.4,0,0.5c-0.1,0.1-0.2,0.2-0.5,0.3l-9.1,4.7c-0.2,0.1-0.4,0.2-0.6,0.3c-0.2,0.1-0.4,0.3-0.6,0.5
			c-0.2,0.2-0.3,0.4-0.4,0.6s-0.1,0.4,0.1,0.7l0.2,0.4l-0.6,0.3l-2.8-5.5L164.7,62.7z M182.3,56c-0.1-0.1-0.1-0.2-0.1-0.3
			c0-0.1,0.1-0.2,0.3-0.3l1.5-0.8c0.2-0.1,0.3-0.1,0.4-0.1c0.1,0,0.2,0.1,0.3,0.3l0.8,1.6c0.1,0.2,0,0.4-0.2,0.6l-1.5,0.8
			c-0.2,0.1-0.3,0.1-0.4,0.1c-0.1,0-0.2-0.1-0.3-0.2L182.3,56z"/>
		<path class="st2" d="M173.1,78.3c-0.7,0.3-1.4,0.2-2.1-0.1c-0.6-0.4-1.1-1-1.4-1.8c-0.3-0.9-0.4-1.7-0.3-2.3
			c0.1-0.7,0.4-1.2,0.9-1.7c0.5-0.5,1-0.9,1.7-1.2c0.7-0.3,1.4-0.6,2.1-0.9l7-2.5l-0.6-1.7l0.6-0.2c0.1,0.4,0.3,0.7,0.7,1
			c0.3,0.3,0.7,0.5,1.1,0.7c0.4,0.2,0.9,0.3,1.3,0.5s1,0.2,1.5,0.2c0.1,0,0.2,0,0.2,0.1c0.1,0.1,0.1,0.2,0.2,0.4
			c0.1,0.2,0,0.3-0.1,0.3l-3.2,1.1l1.1,3l-0.7,0.3l-1.1-3l-6.8,2.4c-0.9,0.3-1.7,0.7-2.3,1s-1,0.7-1.3,1.1c-0.3,0.4-0.5,0.7-0.5,1
			c-0.1,0.3-0.1,0.6,0,0.9c0.1,0.2,0.2,0.4,0.3,0.6c0.1,0.2,0.3,0.3,0.5,0.4c0.2,0.1,0.4,0.2,0.6,0.2c0.2,0,0.4,0,0.6-0.1
			L173.1,78.3z"/>
		<path class="st2" d="M187.8,94.4l-0.7,0.1c0-0.2-0.1-0.4-0.1-0.5s-0.1-0.3-0.1-0.4c0-0.1-0.1-0.2-0.2-0.3s-0.3-0.1-0.5-0.2
			c-0.8-0.2-1.8-0.4-2.8-0.6c-1-0.2-2.1-0.4-3.1-0.6c-1.1-0.2-2.2-0.4-3.3-0.7c-1.1-0.2-2.2-0.5-3.3-0.7c-1.5-0.4-2.9-0.7-4.3-1.1
			c-1.3-0.4-2.5-0.9-3.5-1.4c-1.1-0.6-2.1-1.2-2.9-2.1c-0.8-0.8-1.3-1.8-1.5-3l3-0.4c0.2,1.1,0.5,2,1,2.7c0.5,0.7,1.2,1.4,2,1.9
			c0.8,0.5,1.6,0.9,2.5,1.3s1.8,0.6,2.8,0.8l-0.2-1.6c1.2-0.7,2.4-1.4,3.3-1.9c1-0.6,1.9-1.1,2.8-1.7c0.9-0.5,1.8-1.1,2.7-1.6
			c0.9-0.5,1.8-1.1,2.9-1.7c0.3-0.2,0.5-0.4,0.6-0.6c0.1-0.2,0.1-0.4,0-0.6l-0.1-0.7l0.7-0.1l0.9,6l-0.7,0.1l-0.1-0.8
			c0-0.1,0-0.2-0.1-0.3c0-0.1-0.1-0.1-0.2-0.1c0,0-0.1,0-0.2,0.1c-0.1,0-0.1,0.1-0.2,0.1c-1.7,0.9-3.3,1.9-4.9,2.9
			c-1.6,1-3.2,1.9-4.9,2.9l11.1,2.2c0.1,0,0.1,0,0.2,0c0.1,0,0.2-0.1,0.2-0.2c0-0.1,0-0.3,0-0.4l-0.1-0.5l0.7-0.1L187.8,94.4z"/>
	</g>
	<path class="st3" d="M23.6,107.2c4.5,38.2,37,67.8,76.4,67.8s71.9-29.6,76.4-67.8"/>
</g>
<g id="圖層_3">
	<path d="M102.3,102.1c-0.7,3.2-1.4,6.3-2,9.5c0,0-0.1,0-0.1,0c-0.7-3.1-1.3-6.2-2-9.5c-2.7,2.3-5.4,4.4-8.1,6.6
		c0,0-0.1-0.1-0.1-0.1c2.2-2.7,4.4-5.3,6.6-8.1c-3.2-0.7-6.4-1.4-9.5-2c0,0,0-0.1,0-0.1c3.1-0.7,6.3-1.4,9.5-2.1
		c-2.3-2.8-4.5-5.5-6.7-8.1c0,0,0.1-0.1,0.1-0.1c2.7,2.2,5.4,4.4,8.2,6.7c0.7-3.2,1.4-6.3,2-9.5c0,0,0.1,0,0.1,0
		c0.7,3.1,1.3,6.2,2,9.5c2.7-2.3,5.4-4.5,8.1-6.7c0,0,0.1,0.1,0.1,0.1c-2.2,2.7-4.4,5.3-6.7,8.1c3.2,0.7,6.4,1.4,9.5,2
		c0,0,0,0.1,0,0.1c-3.1,0.7-6.2,1.3-9.5,2c2.3,2.8,4.5,5.5,6.8,8.2c0,0-0.1,0-0.1,0.1C107.8,106.6,105.1,104.4,102.3,102.1z"/>
	<g>
		<path class="st2" d="M4.2,88c0.2-1.6,0.6-3.1,1.3-4.3c0.7-1.2,1.5-2.3,2.6-3s2.3-1.3,3.7-1.6s2.9-0.4,4.6-0.2
			c1.7,0.2,3.2,0.6,4.4,1.3c1.3,0.6,2.3,1.5,3.2,2.5c0.8,1,1.4,2.2,1.8,3.6c0.4,1.4,0.4,2.9,0.2,4.5l-1,8l-0.6-0.1l0.1-0.5
			c0-0.3,0-0.5-0.2-0.7c-0.2-0.2-0.4-0.3-0.6-0.4c-0.2-0.1-0.5-0.2-0.8-0.2c-0.3,0-0.5-0.1-0.7-0.1L6.4,94.7c-0.2,0-0.4,0-0.7-0.1
			s-0.5,0-0.8,0c-0.3,0-0.5,0.1-0.7,0.3c-0.2,0.1-0.3,0.3-0.3,0.6l-0.1,0.5L3.2,96L4.2,88z M24.8,90.5c0.1-1.3,0-2.4-0.5-3.4
			c-0.4-1-1.1-1.9-1.9-2.6c-0.8-0.7-1.8-1.3-2.9-1.8c-1.1-0.5-2.3-0.8-3.5-0.9c-1.2-0.1-2.4-0.1-3.6,0c-1.2,0.2-2.3,0.5-3.3,1
			s-1.8,1.2-2.5,2.1c-0.7,0.9-1.1,1.9-1.3,3.2L5,91.5l19.4,2.4L24.8,90.5z"/>
		<path class="st2" d="M29.4,72.9l0.6,0.2l-1.9,5.8l-0.6-0.2l0.1-0.4c0.1-0.3,0.1-0.5,0-0.7s-0.3-0.4-0.5-0.5
			c-0.2-0.2-0.4-0.3-0.7-0.4c-0.2-0.1-0.5-0.2-0.7-0.2l-7.1-2.4c-0.3-0.1-0.6-0.1-0.9,0.1c-0.3,0.2-0.5,0.5-0.7,0.9
			c0,0.1-0.1,0.1-0.3,0.1c-0.1,0-0.2-0.1-0.2-0.2c0-0.4,0-0.7-0.1-1c0-0.3-0.1-0.6-0.1-0.8c0-0.3-0.1-0.5-0.1-0.8
			c0-0.3-0.1-0.6-0.1-0.9c0-0.1,0-0.3,0-0.4c0-0.1,0-0.2,0.1-0.4c0.1-0.2,0.2-0.4,0.3-0.4s0.3,0,0.5,0.1l1.8,0.6
			c-0.7-0.7-1.1-1.5-1.4-2.5c-0.2-1-0.2-1.9,0.1-2.9l2.6,0.9c-0.2,0.6-0.3,1.1-0.5,1.6c-0.1,0.5-0.2,0.9-0.2,1.4
			c0,0.4,0,0.8,0.1,1.1s0.3,0.6,0.6,0.9l6.5,2.2c0.2,0.1,0.4,0.1,0.7,0.2c0.3,0.1,0.5,0.1,0.8,0.1c0.3,0,0.5,0,0.7-0.1
			s0.4-0.3,0.4-0.5L29.4,72.9z"/>
		<path class="st2" d="M26.2,62.5c0.6,0.3,1.3,0.6,2,0.8s1.4,0.3,2.2,0.2s1.4-0.2,2-0.6c0.6-0.3,1.1-0.9,1.5-1.6
			c0.2-0.4,0.3-0.7,0.4-1.1c0.1-0.4,0.1-0.8,0.1-1.2c0-0.4-0.1-0.8-0.3-1.1c-0.1-0.4-0.4-0.7-0.6-1l0.2-0.4c0.5,0.4,0.9,0.9,1.2,1.4
			c0.3,0.5,0.5,1.1,0.6,1.6s0.1,1.1,0,1.7c-0.1,0.6-0.3,1.1-0.6,1.6c-0.5,0.9-1.1,1.7-1.9,2.2c-0.8,0.5-1.6,0.9-2.4,1
			c-0.9,0.2-1.8,0.2-2.7,0c-0.9-0.2-1.8-0.5-2.6-0.9c-0.8-0.4-1.5-1-2.1-1.6s-1.1-1.4-1.4-2.2c-0.3-0.8-0.5-1.7-0.4-2.6
			c0-0.9,0.3-1.9,0.9-2.9c0.4-0.7,0.9-1.2,1.5-1.6c0.6-0.4,1.3-0.6,2-0.7c0.7-0.1,1.5,0,2.3,0.2c0.8,0.2,1.5,0.5,2.3,0.9L26.2,62.5z
			 M22.7,56.5c-0.3,0.5-0.4,1.1-0.3,1.7c0.1,0.6,0.3,1.1,0.7,1.6c0.3,0.5,0.7,1,1.2,1.4c0.5,0.4,0.9,0.8,1.4,1l2-3.9
			c0.1-0.3,0.2-0.5,0.1-0.7s-0.2-0.4-0.3-0.6c-0.1-0.2-0.3-0.3-0.5-0.5c-0.2-0.1-0.3-0.2-0.4-0.3C26,56,25.5,55.8,25,55.7
			s-0.8-0.1-1.2,0c-0.3,0.1-0.6,0.2-0.8,0.4C22.9,56.2,22.8,56.4,22.7,56.5z"/>
		<path class="st2" d="M44.2,45.4c0.7,0.5,1.1,1.1,1.2,1.7c0.1,0.6,0,1.1-0.5,1.6c-0.2,0.3-0.4,0.5-0.7,0.7
			c-0.2,0.2-0.5,0.4-0.8,0.5C43.2,50,42.9,50,42.6,50c-0.3,0-0.7-0.2-1.1-0.5c0.3,0.9,0.3,1.7,0.2,2.4c-0.2,0.8-0.5,1.4-0.9,2
			c-0.4,0.5-0.9,0.9-1.4,1.2c-0.5,0.3-1,0.4-1.5,0.5c-0.5,0.1-1,0-1.5-0.1c-0.5-0.1-0.9-0.4-1.3-0.7c-0.4-0.3-0.8-0.8-1.1-1.3
			c-0.3-0.5-0.4-1.1-0.5-1.8c0-0.7,0-1.4,0.3-2.2c0.2-0.8,0.7-1.6,1.3-2.5c0.4-0.6,0.8-1.1,1.2-1.7l-1.3-1c-1.8-1.4-3.2-1.5-4.1-0.3
			c-0.3,0.4-0.4,0.7-0.4,1.1c0,0.4,0.1,0.8,0.3,1.1s0.4,0.7,0.7,1c0.3,0.3,0.6,0.6,0.9,0.8c-0.1,0.2-0.3,0.4-0.4,0.6
			c-0.1,0.2-0.3,0.5-0.4,0.8c-0.1,0.3-0.2,0.5-0.3,0.8c-0.1,0.3-0.2,0.5-0.2,0.6c-0.7-0.6-1.3-1.2-1.5-1.9s-0.4-1.4-0.4-2.1
			c0-0.7,0.2-1.4,0.5-2.1c0.3-0.7,0.7-1.3,1.1-1.9c0.4-0.5,0.9-1,1.3-1.4c0.4-0.4,0.9-0.6,1.4-0.7c0.5-0.1,1-0.1,1.6,0.1
			s1.2,0.5,1.9,1.1l5.8,4.6c0.4,0.3,0.7,0.5,1,0.6c0.3,0.1,0.5,0.1,0.7-0.2c0.1-0.1,0.1-0.2,0.1-0.4s-0.1-0.3-0.1-0.4
			c-0.1-0.1-0.2-0.3-0.3-0.4c-0.1-0.1-0.2-0.2-0.4-0.3L44.2,45.4z M36.8,45.8c-0.2,0.3-0.4,0.5-0.6,0.8c-0.2,0.3-0.4,0.6-0.5,0.8
			c-0.3,0.5-0.5,1-0.6,1.5s-0.1,0.9,0,1.3c0.1,0.4,0.2,0.8,0.4,1.1c0.2,0.3,0.5,0.6,0.8,0.8s0.6,0.4,1,0.6c0.4,0.1,0.7,0.2,1.1,0.2
			c0.4,0,0.7-0.1,1.1-0.2c0.3-0.1,0.6-0.4,0.9-0.7c0.3-0.4,0.5-0.9,0.6-1.5c0.1-0.6-0.1-1.2-0.4-1.9L36.8,45.8z"/>
		<path class="st2" d="M45.8,45.2l0.3-0.2c0.2-0.2,0.3-0.4,0.4-0.6c0-0.2,0-0.5-0.1-0.7S46.2,43.2,46,43c-0.1-0.2-0.3-0.4-0.4-0.6
			l-4.5-6c-0.2-0.3-0.5-0.4-0.8-0.5c-0.3,0-0.7,0.1-1,0.3c0,0-0.1,0-0.1,0c-0.1,0-0.1-0.1-0.1-0.1c-0.1-0.1-0.1-0.2-0.1-0.2
			c0.2-0.3,0.4-0.6,0.5-0.8c0.1-0.2,0.3-0.5,0.4-0.7c0.1-0.2,0.2-0.5,0.4-0.7c0.1-0.2,0.3-0.5,0.4-0.8c0.1-0.1,0.1-0.2,0.2-0.3
			c0.1-0.1,0.2-0.2,0.3-0.3c0.2-0.2,0.4-0.2,0.5-0.1c0.1,0.1,0.2,0.2,0.4,0.4l0.8,1c-0.1-0.9,0-1.8,0.3-2.5c0.4-0.7,0.9-1.3,1.5-1.8
			c1-0.7,1.9-1.1,2.7-1s1.7,0.4,2.5,0.9c-0.2-0.6-0.3-1.1-0.3-1.6s0.1-1,0.3-1.4c0.2-0.4,0.4-0.8,0.7-1.2c0.3-0.4,0.6-0.7,0.9-0.9
			c0.8-0.6,1.5-0.9,2.2-1c0.7-0.1,1.4,0,2,0.3c0.7,0.3,1.3,0.7,1.9,1.3c0.6,0.6,1.2,1.3,1.9,2.2l2.5,3.3c0.1,0.2,0.3,0.3,0.4,0.5
			s0.4,0.4,0.6,0.5c0.2,0.2,0.4,0.2,0.6,0.3c0.2,0,0.4,0,0.7-0.2l0.3-0.2l0.4,0.5L60,35.4l-0.4-0.5l0.3-0.2c0.2-0.2,0.3-0.4,0.4-0.6
			c0-0.2,0-0.5-0.1-0.7c-0.1-0.2-0.2-0.5-0.4-0.7s-0.3-0.4-0.4-0.6l-2.5-3.3c-1.2-1.6-2.2-2.6-3.1-3c-0.9-0.4-1.8-0.3-2.6,0.3
			c-0.5,0.3-0.7,0.9-0.7,1.7c0,0.8,0.2,1.7,0.7,2.7c0.2,0.2,0.4,0.5,0.6,0.7c0.2,0.3,0.4,0.5,0.6,0.8l2.5,3.3
			c0.1,0.2,0.3,0.3,0.4,0.5c0.2,0.2,0.4,0.4,0.6,0.5c0.2,0.2,0.4,0.2,0.6,0.3c0.2,0,0.4,0,0.7-0.2l0.3-0.2l0.4,0.5l-4.9,3.7L52.7,40
			l0.3-0.2c0.2-0.2,0.3-0.4,0.4-0.6c0-0.2,0-0.5-0.1-0.7S53.1,38,53,37.8c-0.1-0.2-0.3-0.4-0.4-0.6l-2.5-3.3c-1.2-1.6-2.2-2.6-3.1-3
			c-0.9-0.4-1.8-0.3-2.6,0.3c-0.5,0.4-0.7,0.9-0.7,1.8c0,0.8,0.3,1.8,0.9,2.9l3.5,4.7c0.1,0.2,0.3,0.3,0.4,0.5
			c0.2,0.2,0.4,0.4,0.6,0.5c0.2,0.2,0.4,0.2,0.6,0.3c0.2,0,0.4,0,0.7-0.2l0.3-0.2l0.4,0.5l-4.9,3.7L45.8,45.2z"/>
		<path class="st2" d="M65.5,19.9c0.2,0.5,0.6,0.8,1,1s1,0.4,1.5,0.5c0.6,0.1,1.2,0.2,1.8,0.3c0.6,0.1,1.3,0.2,1.9,0.4
			c0.6,0.2,1.2,0.5,1.7,0.9c0.5,0.4,0.9,0.9,1.2,1.7c0.3,0.6,0.3,1.2,0.2,1.7s-0.3,1-0.6,1.5s-0.7,0.9-1.2,1.2
			c-0.5,0.4-1,0.7-1.6,0.9c-0.5,0.2-0.9,0.3-1.4,0.5c-0.5,0.1-1,0.2-1.5,0.2c-0.5,0-1,0-1.5-0.1c-0.5-0.1-0.9-0.2-1.4-0.3l0.1-4.1
			c0.3,0.7,0.7,1.3,1.1,1.8c0.4,0.5,0.9,0.8,1.4,1c0.5,0.2,1,0.3,1.4,0.3s0.9-0.1,1.3-0.2l0,0c0.5-0.2,0.9-0.6,1.2-1
			c0.2-0.5,0.2-1,0-1.6c-0.2-0.5-0.6-0.9-1-1.1c-0.4-0.2-1-0.4-1.5-0.5c-0.6-0.1-1.2-0.2-1.8-0.3c-0.6-0.1-1.3-0.2-1.9-0.4
			c-0.6-0.2-1.2-0.5-1.7-0.8c-0.5-0.4-0.9-0.9-1.2-1.7c-0.3-0.6-0.3-1.2-0.2-1.7c0.1-0.5,0.3-1,0.7-1.5c0.3-0.4,0.7-0.8,1.2-1.2
			c0.5-0.3,1-0.6,1.5-0.8c0.8-0.4,1.7-0.6,2.6-0.6c0.9,0,1.8,0.1,2.7,0.5l-0.1,4.1c-0.2-0.8-0.6-1.4-1-1.9c-0.4-0.5-0.8-0.9-1.3-1.1
			c-0.4-0.3-0.9-0.4-1.4-0.4c-0.5,0-0.9,0-1.2,0.2l0,0c-0.2,0.1-0.5,0.2-0.6,0.4c-0.2,0.2-0.3,0.4-0.4,0.6c-0.1,0.2-0.1,0.5-0.1,0.8
			C65.3,19.4,65.4,19.6,65.5,19.9z"/>
		<path class="st2" d="M84.4,24.1c0.4-0.1,0.8-0.2,1.2-0.4c0.4-0.2,0.7-0.4,1-0.7s0.6-0.6,0.8-0.9c0.2-0.4,0.3-0.8,0.3-1.2l0.4-0.1
			c0,0.7-0.1,1.3-0.3,1.9c-0.2,0.6-0.5,1.1-0.9,1.5c-0.4,0.4-0.8,0.8-1.3,1.1c-0.5,0.3-1,0.5-1.6,0.6c-1,0.2-2,0.2-2.9,0
			c-0.9-0.2-1.7-0.6-2.4-1.2c-0.7-0.5-1.3-1.2-1.8-2c-0.5-0.8-0.8-1.6-1-2.5c-0.2-0.9-0.3-1.8-0.2-2.7c0.1-0.9,0.3-1.7,0.7-2.5
			c0.4-0.8,1-1.5,1.7-2c0.7-0.6,1.7-1,2.8-1.3c0.8-0.2,1.7-0.2,2.6-0.1s1.7,0.4,2.6,0.9l-0.8,4c-0.1-0.6-0.3-1.1-0.6-1.7
			c-0.3-0.5-0.6-1-1-1.4c-0.4-0.4-0.8-0.7-1.3-0.9c-0.5-0.2-0.9-0.3-1.4-0.1c-0.6,0.2-1.1,0.4-1.5,0.9c-0.4,0.4-0.7,1-0.9,1.6
			c-0.2,0.6-0.3,1.3-0.3,2c0,0.7,0.1,1.4,0.3,2.2c0.2,0.7,0.4,1.4,0.8,2.1c0.3,0.7,0.7,1.2,1.2,1.7c0.5,0.5,1,0.8,1.6,1.1
			S83.7,24.2,84.4,24.1z"/>
		<path class="st2" d="M103.6,21.3c0,0.9-0.1,1.5-0.5,2c-0.3,0.5-0.9,0.7-1.5,0.7c-0.3,0-0.7,0-1,0s-0.6-0.1-0.9-0.2
			c-0.3-0.1-0.5-0.3-0.7-0.6s-0.3-0.7-0.4-1.2c-0.5,0.8-1,1.4-1.7,1.7c-0.7,0.4-1.4,0.6-2.1,0.6c-0.7,0-1.3-0.1-1.8-0.3
			c-0.5-0.2-1-0.5-1.4-0.8c-0.4-0.3-0.7-0.7-0.9-1.2c-0.2-0.5-0.3-1-0.4-1.5c0-0.6,0.1-1.1,0.3-1.7c0.2-0.6,0.6-1.1,1-1.5
			c0.5-0.5,1.1-0.9,1.8-1.2c0.8-0.3,1.7-0.5,2.7-0.6c0.7-0.1,1.4-0.1,2.1-0.2l-0.1-1.6c-0.1-2.3-0.9-3.4-2.4-3.3
			c-0.5,0-0.8,0.2-1.1,0.4c-0.3,0.3-0.5,0.6-0.6,1c-0.2,0.4-0.2,0.8-0.3,1.2c0,0.4-0.1,0.8,0,1.2c-0.2,0-0.4,0-0.7,0.1
			c-0.3,0.1-0.6,0.1-0.8,0.2s-0.5,0.2-0.8,0.3c-0.3,0.1-0.5,0.2-0.6,0.2c0-0.9,0.1-1.8,0.4-2.4c0.3-0.7,0.8-1.2,1.3-1.6
			c0.5-0.4,1.2-0.8,1.9-1c0.7-0.2,1.4-0.3,2.1-0.4c0.7,0,1.3,0,1.9,0.1c0.6,0.1,1.1,0.3,1.5,0.6c0.4,0.3,0.7,0.7,1,1.3
			c0.2,0.5,0.4,1.2,0.4,2.1l0.3,7.4c0,0.5,0.1,0.9,0.2,1.2s0.3,0.4,0.6,0.4c0.1,0,0.3-0.1,0.4-0.2c0.1-0.1,0.2-0.2,0.2-0.4
			c0.1-0.2,0.1-0.3,0.1-0.5c0-0.2,0-0.3,0-0.5L103.6,21.3z M98.4,16c-0.3,0-0.7,0.1-1,0.1c-0.3,0-0.7,0.1-1,0.1
			c-0.6,0.1-1.1,0.3-1.5,0.5c-0.4,0.2-0.7,0.5-1,0.8s-0.4,0.7-0.5,1c-0.1,0.4-0.2,0.8-0.1,1.1c0,0.4,0.1,0.8,0.2,1.1
			c0.1,0.4,0.3,0.7,0.6,1c0.2,0.3,0.5,0.5,0.9,0.7c0.3,0.2,0.7,0.2,1.1,0.2c0.5,0,1-0.2,1.5-0.5c0.5-0.3,0.8-0.9,1.1-1.6L98.4,16z"
			/>
		<path class="st2" d="M115.1,10.8c0.9,0.1,1.7,0.4,2.3,0.9c0.6,0.5,1.1,1,1.5,1.7s0.6,1.4,0.7,2.3c0.1,0.8,0.1,1.7,0,2.5
			c-0.1,1-0.4,1.9-0.8,2.8s-1,1.7-1.6,2.3c-0.7,0.7-1.5,1.2-2.4,1.5c-0.9,0.3-1.9,0.4-3.1,0.2c-0.5-0.1-1-0.3-1.5-0.6
			s-0.9-0.7-1.2-1.1l-1.2,8c0,0.2-0.1,0.4-0.1,0.7s0,0.5,0,0.8c0,0.3,0.1,0.5,0.2,0.7s0.3,0.3,0.6,0.3l0.4,0.1l-0.1,0.6l-6-0.9
			l0.1-0.6l0.4,0.1c0.3,0,0.5,0,0.7-0.2c0.2-0.1,0.3-0.3,0.4-0.6c0.1-0.2,0.2-0.5,0.2-0.7s0.1-0.5,0.1-0.7l2.6-17.3
			c0.1-0.3,0-0.7-0.2-1c-0.2-0.3-0.5-0.5-1-0.6c0,0-0.1,0-0.1-0.1c0-0.1,0-0.1,0-0.2c0,0,0-0.1,0-0.1c0,0,0-0.1,0.1-0.1
			c0.4-0.1,0.7-0.2,0.9-0.2s0.5-0.1,0.8-0.2c0.3-0.1,0.5-0.1,0.8-0.2s0.6-0.2,0.9-0.3c0.1,0,0.3-0.1,0.4-0.1c0.1,0,0.2,0,0.4,0
			c0.2,0,0.4,0.1,0.4,0.2c0,0.1,0,0.3,0,0.6l-0.2,1.4c0.3-0.4,0.6-0.7,0.9-1c0.4-0.3,0.8-0.5,1.2-0.6c0.4-0.1,0.9-0.2,1.3-0.3
			S114.7,10.8,115.1,10.8z M111.9,24.2c0.6,0.1,1.1,0,1.6-0.3s0.9-0.7,1.3-1.2c0.4-0.5,0.7-1.1,0.9-1.8c0.2-0.7,0.4-1.4,0.5-2.1
			c0.1-0.8,0.1-1.5,0.1-2.3c0-0.8-0.2-1.4-0.4-2.1c-0.2-0.6-0.5-1.1-0.9-1.6c-0.4-0.4-0.9-0.7-1.5-0.8c-0.4-0.1-0.8,0-1.1,0.1
			c-0.4,0.1-0.7,0.3-1,0.5c-0.3,0.2-0.6,0.5-0.8,0.8c-0.2,0.3-0.4,0.6-0.6,1c-0.1,1-0.3,2-0.5,3c-0.2,1-0.3,2-0.4,3.1
			c0,0.4,0.1,0.9,0.2,1.3s0.3,0.7,0.6,1.1s0.5,0.6,0.8,0.8C111.2,24,111.5,24.2,111.9,24.2z"/>
		<path class="st2" d="M125.2,20.1c-0.2,0.7-0.4,1.4-0.5,2.1s-0.1,1.5,0.1,2.2c0.1,0.7,0.4,1.3,0.8,1.9c0.4,0.6,1,1,1.8,1.3
			c0.4,0.1,0.8,0.2,1.2,0.2c0.4,0,0.8,0,1.2-0.1s0.7-0.2,1.1-0.4c0.3-0.2,0.6-0.4,0.9-0.8l0.4,0.1c-0.4,0.6-0.8,1.1-1.3,1.4
			c-0.5,0.4-1,0.6-1.5,0.8c-0.5,0.2-1.1,0.2-1.7,0.2c-0.6,0-1.1-0.1-1.7-0.3c-1-0.4-1.8-0.9-2.5-1.5c-0.6-0.7-1.1-1.4-1.4-2.3
			c-0.3-0.8-0.4-1.7-0.4-2.6s0.2-1.8,0.5-2.7c0.3-0.9,0.7-1.6,1.3-2.3c0.5-0.7,1.2-1.3,2-1.7c0.8-0.4,1.6-0.7,2.5-0.8s1.9,0,3,0.4
			c0.8,0.3,1.3,0.7,1.8,1.2c0.4,0.6,0.8,1.2,0.9,1.9s0.2,1.5,0.2,2.3s-0.2,1.6-0.5,2.4L125.2,20.1z M130.7,15.7
			c-0.6-0.2-1.1-0.2-1.7,0s-1,0.5-1.5,0.9c-0.5,0.4-0.9,0.9-1.2,1.4c-0.4,0.5-0.6,1-0.8,1.5l4.1,1.5c0.3,0.1,0.5,0.1,0.7,0
			c0.2-0.1,0.4-0.2,0.6-0.4c0.2-0.2,0.3-0.3,0.4-0.5s0.2-0.3,0.2-0.4c0.2-0.6,0.3-1.2,0.4-1.7c0-0.5-0.1-0.8-0.2-1.2
			c-0.1-0.3-0.3-0.5-0.5-0.7C131,15.9,130.8,15.8,130.7,15.7z"/>
		<path class="st2" d="M152.6,29.6c0.5,0.5,1,1.1,1.4,1.8c0.4,0.6,0.6,1.3,0.7,2c0.1,0.7,0.1,1.4-0.1,2.1s-0.5,1.4-1,2.1
			c-0.7,1-1.6,1.7-2.4,2.1c-0.9,0.4-1.8,0.5-2.7,0.4c-0.9-0.1-1.8-0.4-2.8-0.9c-0.9-0.5-1.8-1-2.6-1.6l-5.8-4.2l0.4-0.5l0.4,0.3
			c0.2,0.2,0.5,0.2,0.7,0.2c0.2,0,0.5-0.2,0.6-0.3s0.4-0.3,0.6-0.6s0.3-0.4,0.4-0.5l9.4-13c0.1-0.1,0.2-0.3,0.4-0.6
			c0.1-0.2,0.3-0.5,0.3-0.7c0.1-0.2,0.1-0.5,0.1-0.7s-0.2-0.4-0.4-0.6l-0.4-0.3l0.4-0.5l5.8,4.2c0.7,0.5,1.4,1,2.1,1.6
			c0.7,0.6,1.2,1.2,1.6,1.8s0.6,1.4,0.6,2.2c0,0.8-0.3,1.6-0.9,2.5c-0.4,0.5-0.8,0.9-1.3,1.2c-0.5,0.3-1.1,0.6-1.7,0.7
			c-0.6,0.2-1.3,0.2-1.9,0.2C153.8,29.9,153.2,29.8,152.6,29.6z M143.6,36.1c0.6,0.4,1.2,0.8,1.9,1.1c0.7,0.3,1.3,0.5,2,0.5
			c0.6,0,1.3-0.1,1.9-0.3c0.6-0.3,1.1-0.7,1.6-1.3c1-1.4,1.4-2.8,1.1-4.2c-0.3-1.4-1.1-2.6-2.6-3.6l-1.8-1.3l-5.7,7.9L143.6,36.1z
			 M153.4,19l-5.1,7.1l1.8,1.3c0.6,0.5,1.3,0.8,1.9,0.9s1.2,0.2,1.8,0.1s1.1-0.3,1.5-0.6c0.5-0.3,0.9-0.7,1.2-1.1
			c0.3-0.5,0.6-1,0.7-1.5c0.1-0.5,0.2-1.1,0.1-1.7c-0.1-0.6-0.3-1.1-0.7-1.7c-0.4-0.6-0.9-1.1-1.6-1.6L153.4,19z"/>
		<path class="st2" d="M151.5,43.2l0.3,0.3c0.2,0.2,0.4,0.3,0.6,0.3c0.2,0,0.5-0.1,0.7-0.2c0.2-0.1,0.4-0.3,0.6-0.4s0.4-0.3,0.5-0.5
			l10.9-10.9c0.3-0.2,0.4-0.6,0.4-1s-0.1-0.7-0.4-1.1c0-0.1,0-0.2,0.1-0.3c0.1-0.1,0.2-0.1,0.2-0.1c0.3,0.1,0.6,0.3,0.9,0.4
			c0.3,0.1,0.5,0.2,0.8,0.3c0.2,0.1,0.5,0.2,0.8,0.3c0.3,0.1,0.6,0.2,0.9,0.3c0.1,0.1,0.2,0.1,0.3,0.2c0.1,0,0.2,0.1,0.3,0.2
			c0.2,0.2,0.2,0.3,0.2,0.4c0,0.1-0.2,0.3-0.3,0.4l-13,12.9c-0.1,0.1-0.3,0.3-0.5,0.5c-0.2,0.2-0.3,0.4-0.4,0.6
			c-0.1,0.2-0.2,0.5-0.2,0.7c0,0.2,0.1,0.4,0.3,0.6l0.3,0.3l-0.5,0.5l-4.3-4.3L151.5,43.2z"/>
		<path class="st2" d="M172,46.2c0.7,1,1.2,1.9,1.4,2.8c0.2,0.9,0.3,1.8,0.1,2.6s-0.6,1.7-1.1,2.4c-0.6,0.8-1.3,1.5-2.2,2.2
			c-0.7,0.5-1.6,0.9-2.4,1.2s-1.8,0.3-2.7,0.2s-1.7-0.4-2.5-0.8c-0.8-0.4-1.5-1.1-2.1-1.9c-0.7-1-1.2-2-1.4-2.9
			c-0.2-0.9-0.2-1.8,0-2.7c0.2-0.8,0.6-1.6,1.2-2.4c0.6-0.7,1.3-1.4,2.2-2.1c0.8-0.6,1.6-1,2.5-1.2c0.9-0.2,1.8-0.3,2.6-0.2
			c0.9,0.1,1.7,0.4,2.5,0.8C170.7,44.7,171.4,45.4,172,46.2z M161.3,54.3c0.4,0.5,0.8,0.9,1.3,1.1c0.5,0.2,1.1,0.3,1.7,0.2
			s1.2-0.2,1.9-0.5c0.6-0.3,1.3-0.6,1.9-1.1c0.5-0.4,1.1-0.8,1.6-1.4s1-1.1,1.4-1.7s0.6-1.3,0.6-1.9c0.1-0.7-0.1-1.3-0.6-2
			c-0.3-0.5-0.8-0.9-1.3-1.1c-0.5-0.2-1.1-0.3-1.7-0.3c-0.6,0-1.3,0.2-1.9,0.4s-1.3,0.6-1.9,1c-0.6,0.5-1.2,1-1.8,1.6
			c-0.5,0.6-1,1.2-1.3,1.8s-0.5,1.3-0.5,1.9C160.7,53.1,160.9,53.7,161.3,54.3z"/>
		<path class="st2" d="M181.1,61.8c0.5,1.1,0.8,2.1,0.8,3c0,0.9-0.1,1.8-0.5,2.6c-0.3,0.8-0.9,1.5-1.6,2.1c-0.7,0.6-1.6,1.2-2.6,1.7
			c-0.8,0.4-1.7,0.6-2.6,0.6c-0.9,0.1-1.8-0.1-2.7-0.3c-0.9-0.3-1.6-0.7-2.3-1.3s-1.3-1.4-1.7-2.3c-0.5-1.1-0.8-2.2-0.8-3.2
			s0.1-1.8,0.5-2.6c0.4-0.8,0.9-1.5,1.6-2.1c0.7-0.6,1.6-1.1,2.6-1.6c0.9-0.4,1.8-0.6,2.7-0.7s1.8,0.1,2.6,0.3
			c0.8,0.3,1.6,0.7,2.3,1.3C180.1,60.1,180.7,60.9,181.1,61.8z M169,67.6c0.2,0.6,0.6,1,1.1,1.3c0.5,0.3,1,0.5,1.6,0.5
			c0.6,0.1,1.3,0,2-0.1c0.7-0.1,1.4-0.4,2-0.7c0.6-0.3,1.2-0.6,1.8-1s1.2-0.9,1.7-1.4c0.5-0.5,0.8-1.1,1-1.8
			c0.2-0.6,0.1-1.3-0.2-2.1c-0.2-0.6-0.6-1-1.1-1.3c-0.5-0.3-1-0.5-1.7-0.6c-0.6-0.1-1.3-0.1-2,0.1s-1.4,0.3-2,0.6
			c-0.7,0.3-1.4,0.7-2.1,1.2c-0.6,0.5-1.2,1-1.6,1.5c-0.4,0.6-0.7,1.2-0.9,1.8C168.7,66.2,168.7,66.9,169,67.6z"/>
		<path class="st2" d="M172.7,74.9l0.1,0.4c0,0.3,0.2,0.5,0.4,0.6c0.2,0.1,0.4,0.2,0.7,0.2c0.3,0,0.5,0,0.8,0c0.3,0,0.5-0.1,0.7-0.1
			l7.4-1.2c0.3-0.1,0.6-0.2,0.8-0.5s0.2-0.6,0.2-1.1c0,0,0-0.1,0.1-0.1c0,0,0.1-0.1,0.2-0.1c0.1,0,0.2,0,0.2,0.1
			c0.2,0.3,0.4,0.6,0.5,0.8c0.2,0.2,0.3,0.5,0.4,0.7s0.3,0.4,0.5,0.7c0.2,0.2,0.3,0.5,0.5,0.8c0.1,0.1,0.1,0.2,0.2,0.3
			c0.1,0.1,0.1,0.2,0.1,0.3c0,0.3,0,0.4-0.1,0.5c-0.1,0.1-0.3,0.1-0.5,0.1l-1.2,0.2c0.9,0.3,1.6,0.8,2,1.5c0.5,0.7,0.8,1.4,0.9,2.1
			c0.2,1.2,0.1,2.1-0.4,2.9c-0.4,0.7-1.1,1.3-2,1.8c0.6,0.1,1.1,0.3,1.5,0.5c0.4,0.2,0.8,0.5,1.1,0.9c0.3,0.3,0.5,0.7,0.7,1.1
			s0.3,0.8,0.4,1.3c0.2,0.9,0.1,1.7-0.2,2.4c-0.3,0.7-0.7,1.2-1.2,1.7c-0.6,0.4-1.3,0.8-2.1,1.1s-1.8,0.5-2.8,0.6l-4,0.6
			c-0.2,0-0.4,0.1-0.7,0.1s-0.5,0.1-0.7,0.3c-0.2,0.1-0.4,0.3-0.6,0.4s-0.2,0.4-0.1,0.7l0.1,0.4l-0.6,0.1l-1-6l0.6-0.1l0.1,0.4
			c0,0.3,0.2,0.5,0.4,0.6c0.2,0.1,0.4,0.2,0.7,0.2c0.3,0,0.5,0,0.8,0c0.3,0,0.5-0.1,0.7-0.1l4-0.6c1.9-0.3,3.3-0.8,4.1-1.4
			c0.8-0.6,1.1-1.4,0.9-2.5c-0.1-0.6-0.5-1-1.2-1.4c-0.7-0.4-1.6-0.6-2.7-0.6c-0.3,0.1-0.6,0.2-1,0.2c-0.3,0.1-0.7,0.1-1,0.2l-4,0.7
			c-0.2,0-0.4,0.1-0.7,0.1c-0.3,0.1-0.5,0.1-0.7,0.3c-0.2,0.1-0.4,0.3-0.6,0.4c-0.1,0.2-0.2,0.4-0.1,0.7l0.1,0.4l-0.6,0.1l-1-6
			l0.6-0.1l0.1,0.4c0,0.3,0.2,0.5,0.4,0.6c0.2,0.1,0.4,0.2,0.7,0.2c0.3,0,0.5,0,0.8,0c0.3,0,0.5-0.1,0.7-0.1l4-0.6
			c1.9-0.3,3.3-0.8,4.1-1.4c0.8-0.6,1.1-1.4,0.9-2.5c-0.1-0.6-0.5-1.1-1.2-1.5c-0.7-0.4-1.7-0.6-2.9-0.6l-5.7,0.9
			c-0.2,0-0.4,0.1-0.7,0.1s-0.5,0.1-0.7,0.3c-0.2,0.1-0.4,0.3-0.6,0.4c-0.1,0.2-0.2,0.4-0.1,0.7l0.1,0.4L173,81l-1-6L172.7,74.9z"/>
	</g>
	<path class="st4" d="M22.8,106.5c4.6,38.7,37.5,68.7,77.5,68.7s72.9-30,77.5-68.7"/>
</g>
</svg>
