<svg width="479" height="590" viewBox="0 0 479 590" fill="none" xmlns="http://www.w3.org/2000/svg">
<path d="M272 11H1V578H272" stroke="black" stroke-miterlimit="10"/>
<path d="M362 578H478V11H362" stroke="black" stroke-miterlimit="10"/>
<path d="M315.102 569C315.152 569.158 315.305 569.263 315.355 569.421C315.508 570.263 315.609 571.105 315.761 571.946C315.964 573.42 316.168 574.84 316.371 576.314C316.523 577.261 316.98 577.734 317.944 577.892C319.772 578.208 321.599 578.471 323.426 578.734C323.832 578.787 324.239 578.839 324.594 578.944C324.746 578.997 324.848 579.155 325 579.313C324.848 579.471 324.746 579.681 324.594 579.734C323.122 579.997 321.599 580.207 320.127 580.47C319.365 580.575 318.655 580.681 317.893 580.786C317.03 580.944 316.523 581.47 316.371 582.417C316.117 583.89 315.964 585.311 315.761 586.784C315.66 587.573 315.558 588.415 315.406 589.204C315.355 589.415 315.152 589.573 315.051 589.731C314.898 589.573 314.695 589.415 314.645 589.204C314.391 587.784 314.239 586.363 314.036 584.943C313.883 584.048 313.782 583.154 313.629 582.259C313.477 581.417 312.919 580.944 312.107 580.786C310.025 580.47 307.944 580.155 305.863 579.839C305.66 579.786 305.508 579.786 305.406 579.734C305.254 579.628 305.152 579.471 305 579.365C305.152 579.207 305.254 578.997 305.406 578.944C306.066 578.787 306.777 578.734 307.437 578.629C309.01 578.366 310.584 578.155 312.208 577.892C312.919 577.787 313.426 577.313 313.528 576.577C313.782 574.998 313.985 573.42 314.239 571.841C314.34 571.052 314.442 570.263 314.594 569.474C314.645 569.263 314.797 569.158 314.898 569C314.949 569 315 569 315.102 569Z" fill="black"/>
<path d="M315.102 0C315.152 0.157847 315.305 0.263078 315.355 0.420925C315.508 1.26277 315.609 2.10462 315.761 2.94647C315.964 4.41971 316.168 5.84033 316.371 7.31357C316.523 8.26065 316.98 8.73419 317.944 8.89204C319.772 9.20773 321.599 9.47081 323.426 9.73389C323.832 9.7865 324.239 9.83912 324.594 9.94435C324.746 9.99697 324.848 10.1548 325 10.3127C324.848 10.4705 324.746 10.681 324.594 10.7336C323.122 10.9967 321.599 11.2071 320.127 11.4702C319.365 11.5754 318.655 11.6807 317.893 11.7859C317.03 11.9437 316.523 12.4699 316.371 13.417C316.117 14.8902 315.964 16.3108 315.761 17.7841C315.66 18.5733 315.558 19.4152 315.406 20.2044C315.355 20.4149 315.152 20.5727 315.051 20.7306C314.898 20.5727 314.695 20.4149 314.645 20.2044C314.391 18.7838 314.239 17.3631 314.036 15.9425C313.883 15.0481 313.782 14.1536 313.629 13.2591C313.477 12.4173 312.919 11.9437 312.107 11.7859C310.025 11.4702 307.944 11.1545 305.863 10.8388C305.66 10.7862 305.508 10.7862 305.406 10.7336C305.254 10.6284 305.152 10.4705 305 10.3653C305.152 10.2074 305.254 9.99697 305.406 9.94435C306.066 9.7865 306.777 9.73389 307.437 9.62866C309.01 9.36558 310.584 9.15512 312.208 8.89204C312.919 8.78681 313.426 8.31327 313.528 7.57665C313.782 5.99818 313.985 4.41971 314.239 2.84124C314.34 2.05201 314.442 1.26277 314.594 0.47354C314.645 0.263078 314.797 0.157847 314.898 0C314.949 0 315 0 315.102 0Z" fill="black"/>
</svg>
