<?xml version="1.0" encoding="utf-8"?>
<!-- Generator: Adobe Illustrator 24.0.2, SVG Export Plug-In . SVG Version: 6.00 Build 0)  -->
<svg version="1.1" id="圖層_1" xmlns="http://www.w3.org/2000/svg" xmlns:xlink="http://www.w3.org/1999/xlink" x="0px" y="0px"
	 viewBox="0 0 180 241" style="enable-background:new 0 0 180 241;" xml:space="preserve">
<style type="text/css">
	.st0{fill:#93795B;}
</style>
<path class="st0" d="M114.7,112.1c7.8-2.3,6-7.9,6-7.9c0.4-0.2-0.6-3.4-3-5.3c-2.4-1.8-3.5,1.1-3.5,1.1s-1.2-0.8-2.6-0.7
	c-1.9,0.2-4.5,2.4-5.5,5c-1.1,2.7-2.8,4.2-3.6,4.9c-0.3,0.2-0.5,0.3-0.5,0.3S106.9,114.5,114.7,112.1z M115.2,103.3
	c0.6,0,1.3,0,1.9,0.1c-0.1,0-0.2,0.1-0.2,0.1c-1.3,4.5-8.6,3.8-8.6,3.8c-0.1,0-0.3,0-0.4,0C111,105.7,113.8,103.4,115.2,103.3z"/>
<path class="st0" d="M148.5,148.7c-1.8-0.6-3.5-1.2-5.3-1.7c1.5-2.8,4.4-11.3-5.8-25.2c-8.3-11.4-8.2-15-8-24.4
	c0.1-4.1,0.2-9.2-0.3-16.6c-1.6-21.9-14.6-31.8-17.7-33.9C109.2,25.1,103.7,15,94.1,15c-11.1,0-15.7,1.3-24.4,10
	c-3.9,3.9-7.9,4-12.5,4.2c-4.9,0.2-10.3,0.4-16.6,5.1c-11.2,8.5-15.2,18.8-13.7,35.8c0.1,1.3,0.2,2.6,0.4,3.9
	c1.2,13.3,2.2,23.7-9.8,36.6c-6.3,6.7-16.6,20-15.4,33.8c0.6,7,4.2,13,10.6,17.9c-6.1,11-11.1,23.9-12.6,28.8
	c-0.2,0.5,0.1,1,0.6,1.2c0.1,0,0.2,0,0.3,0c0.4,0,0.8-0.3,0.9-0.7c0.7-2.2,2.1-6.2,4.1-10.9c10.7,11.2,27.9,10,32.1,9.5
	c-1.2,5.2-2.9,12-4.2,17.4c-0.1,0.5,0.2,1,0.7,1.1v0.1c1.1,1.6,40.1,13.3,40.1,13.3v-0.1c0.4-0.1,0.8-0.4,0.8-0.9
	c0.5-6.7,2.3-12.2,4.6-18.7c0.8-2.2,1.5-4.7,2.3-7.2c2.5-8.1,2.5-17.9,2.5-23.2c0-1.1,0-2.1,0-2.7c0.1-3.1-5.1-8.8-12.4-16.6
	c-1.6-1.7-3.2-3.3-4.4-4.7c-5-5.6-11.9-17.6-13.4-20.4c-0.9-1.9,1.8-6.6,5.6-9.5c3-2.4,7.1-6.6,8.7-8.3c0.7,1,0.3,2.2,0.2,2.6
	c-0.8,0.5-1.6,1-2.4,1.7l-0.3,0.2c-5.6,4.9-10.1,9.1-9.9,11.7c0.2,2.6,2.8,7.1,3.1,7.6c0.2,0.3,0.5,0.5,0.8,0.5c0.2,0,0.3,0,0.5-0.1
	c0.5-0.3,0.6-0.9,0.3-1.3c-0.7-1.2-2.7-4.9-2.8-6.8c-0.2-1.9,6.5-7.7,9.2-10.1l0.3-0.2c2.5-2.2,5.2-2.8,6.2-3
	c0.2,0.5,0.3,0.9,0.1,1.4c-0.5,1.6-2.7,3-3.2,3.2c-0.3,0.1-1.1,0.4-5,6.7c0,0.1,0,0.1-0.1,0.2c-0.9,0.9-1.3,1.7-1.4,2.3
	c-0.2,1.9,2,8.8,2.5,10.2c0.2,0.5,0.7,0.8,1.2,0.6c0.5-0.2,0.8-0.7,0.6-1.2c-1.1-3.2-2.5-8.2-2.4-9.3c0.1-0.4,0.9-1.7,6.9-6.2
	c0.3-0.2,0.5-0.4,0.6-0.5c1-0.2,6.2-0.3,7.6,0.9c0.2,0.1,0.2,0.2,0.2,0.2c0,0.1-0.1,0.3-0.3,0.4c-1,0.7-3.6,0.6-5.1,0.3
	c-0.5-0.1-1,0.2-1.1,0.7c-0.6,2.7-3,5.4-3.1,5.4c-0.2,0.2-0.3,0.4-0.3,0.7c0,1,7.6,11,8.9,12.5c1,1.1,2.6,2.2,4.4,3.4
	c2.4,1.7,5.3,3.7,6.8,6.1c1.2,1.7,2.9,3.9,4.7,6.1c2.1,2.6,4.2,5.4,4.9,6.7c1.4,3.1-0.4,27.7-1.9,43.4c0,0.2,0,0.3,0.1,0.4
	c-0.9,4.9-2.5,17.4-2.5,17.4c0.8,1.2,5.3,0.5,6.2,0.7c3.1,0.5,9.1-15.9,9.1-15.9h-0.1c1.5-4.5,8.9-25.6,7.5-30.1
	c-1.4-4.7-14.5-15.3-16.6-17c-0.8-1.5-2.8-4-5-6.8c-1.7-2.1-3.4-4.2-4.6-6c-1.7-2.5-4.7-4.7-7.3-6.5c-1.6-1.1-3.1-2.2-4-3.2
	c-0.3-0.3-0.5-0.6-0.9-1c2.2,0,6.3,0.2,8.9,1.8c3.8,2.2,7.3,6.5,7.3,6.5c0.2,0.2,0.5,0.4,0.7,0.4c0.2,0,0.4-0.1,0.6-0.2
	c0.4-0.3,0.5-0.9,0.1-1.3c-0.1-0.2-3.7-4.6-7.9-7c-3.9-2.3-10.2-2.1-11.4-2c-0.7-0.9-1.4-1.9-2.1-2.9c2.6-0.1,9.8,0.1,12.1,0.5
	c1.3,0.2,6.4,4.2,9.6,7c0.2,0.2,0.4,0.2,0.6,0.2c0.3,0,0.5-0.1,0.7-0.3c0.3-0.4,0.3-1-0.1-1.4c-1.3-1.2-8.2-7.1-10.5-7.5
	c-1.2-0.2-3.6-0.4-5.9-0.5c2.5-0.7,4.7-1.2,5.1-1.3c0.6,0.1,4.1,1.7,7.1,3.2c0.1,0.1,0.3,0.1,0.4,0.1c0.4,0,0.7-0.2,0.9-0.5
	c0-0.1,0.1-0.2,0.1-0.3c1.1,0.8,2.2,1.8,3.4,2.9c4,3.8,9.3,9.5,14.4,15.1c5,5.4,9.5,10.4,13,13.6c6.6,6.2,7,13.7,6.7,22.9
	c-0.2,9.3-2.7,35.8-2.8,36.1c-0.1,0.5,0.3,1,0.9,1h0.1c0.5,0,0.9-0.4,1-0.9c0-0.2,1-11,1.8-21.3c18.8,5.1,33.8-0.2,37.6-1.8
	c-2,9.3-3.9,16.8-3.9,17c-0.1,0.5,0.2,1,0.7,1.2c0.1,0,0.2,0,0.2,0c0.4,0,0.8-0.3,0.9-0.7c0.1-0.3,7.1-27.7,8.3-42.5
	C181.5,160.7,168.9,155.6,148.5,148.7z M117.8,180.4c1,3.1-4,19.3-7.5,29.1l-8.9-1.8c0-0.1,0.1-0.1,0.1-0.2c0.3-3.5,3-31.9,2.2-41.7
	C108.5,169.9,116.8,177.3,117.8,180.4z M71,154.4c4.8,5.1,12,12.6,11.9,15.2c0,0.7,0,1.6,0,2.8c0,5.2,0,14.8-2.4,22.6
	c-0.8,2.5-1.5,4.9-2.3,7.1c-0.2,0.5-0.3,1-0.5,1.5c-20.2-1.3-35.1-6.9-38.7-8.3c1.5-6.4,2.7-11.4,2.7-11.8c0-0.5-0.4-1-1-1
	c-0.6,0-1,0.4-1,0.9c0,0.2-0.1,0.7-0.3,1.4c-19.7-2.1-27.7-9.3-29.9-11.8c5.2-11.1,12.1-23.3,18.3-26.4c9.9-5.1,21.7-1.7,27.9,0.1
	c0.5,0.1,0.9,0.3,1.4,0.4c2.7,0.7,4.7,0.6,6-0.3c0.2-0.2,0.4-0.4,0.6-0.6c0.9,1.3,1.9,2.4,2.8,3.4C67.8,151.1,69.3,152.7,71,154.4z
	 M71.3,111.6c0-1.2-0.3-2.6-1.7-3.7c-0.4-0.3-1-0.3-1.3,0.1c-0.1,0.1-5.6,5.9-9.1,8.8c-3.4,2.7-7.7,8.4-6.1,11.9
	c0.8,1.8,5.2,9.5,9.6,15.7c0,0.2-0.2,0.5-0.5,0.8c-0.8,0.5-2.3,0.5-4.2,0c-0.4-0.1-0.9-0.2-1.4-0.4c-6.6-1.9-18.7-5.4-29.3,0.1
	c-4.5,2.3-9.1,8.6-13.4,15.9c-5.9-4.6-9.1-10-9.7-16.4C3.2,134.9,8.7,123.2,19,112c12.5-13.6,11.4-25,10.2-38.1
	c-0.1-1.3-0.2-2.6-0.4-3.9c-1.4-16.2,2.3-26.1,13-34.1c5.8-4.4,10.7-4.6,15.5-4.8c4.9-0.2,9.4-0.4,13.9-4.9
	c8.3-8.3,12.3-9.4,23.1-9.4c8.3,0,13.3,9.7,15.3,29.7c-0.2,0.4-0.1,0.8,0.2,1.1c0.2,1.9,0.3,3.8,0.4,6c1,17.9-6.8,20.3-15.9,23.3
	c-1.8,0.6-3.7,1.2-5.5,1.9c-8.1,3.3-7.5,10.5-6.9,17.5c0.2,2.7,0.4,5.5,0.2,8c-0.7,6.6-4.2,7.9-5.7,8.2c-0.1-0.5-0.4-1-0.7-1.4
	c-0.2-0.2-0.5-0.4-0.8-0.4C74.5,110.9,73.1,110.9,71.3,111.6z M74,129.1c0.7-0.9,2.1-2.7,2.8-4.9c0.5,0.1,1.2,0.1,1.9,0.1
	c-0.3,0.2-0.8,0.5-1,1.3c-0.2,1,0.2,2.1,1.4,3.5c0.3,0.3,1.1,1.3,2,2.1c-1.2,0.4-2.4,0.7-3.2,0.9c-0.1,0-0.1,0.1-0.2,0.1
	c-0.6,0-1,0.1-1.3,0.1C75.3,131.1,74.4,129.8,74,129.1z M89.4,129.3c-0.5,0-3.2,0.7-6,1.4c-1.1-0.8-3.8-3.5-3.7-4.7
	c0.5,0,1.7,0.5,2.5,0.9c0.8,0.4,1.7,0.8,2.6,1c0.4,0.1,0.8,0.2,1.3,0.3c0.9,0.2,2.1,0.5,3.5,1C89.5,129.3,89.5,129.3,89.4,129.3z
	 M178.2,176.1c-0.4,4.7-1.3,10.5-2.4,16.4c-20.9,7.5-35.3,2.2-38.8,0.7c0.1-1.9,0.2-3.6,0.2-5c0.2-9.3-0.1-17.6-7.4-24.3
	c-3.3-3-7.9-8.1-12.8-13.5c-5.1-5.6-10.3-11.3-14.5-15.2c-7.1-6.7-13-8-16.1-8.8c-0.5-0.1-0.9-0.2-1.2-0.3c-0.7-0.2-1.5-0.6-2.3-0.9
	c-0.9-0.4-1.8-0.8-2.6-1c0.8-0.1,1.6-0.4,2.2-0.8c0.6-0.4,0.9-1.1,1-1.8c0.1-0.6,0-1.6-1.5-2.3c-2.2-1.2-8.3-1.4-9.3-0.6
	c-0.1,0.1-0.3,0.2-0.7,0.5c-0.4,0.3-0.8,0.6-1.1,0.8c0.3-0.4,0.5-0.6,0.6-0.8c0.9-0.4,3.6-2,4.4-4.5c0-0.1,0-0.1,0-0.2
	c1.7-0.3,6.7-1.7,7.6-9.9c0.3-2.7,0.1-5.6-0.2-8.4c-0.6-6.9-1-12.7,5.8-15.6c1.7-0.7,3.5-1.3,5.4-1.8c9-2.8,18.3-5.9,17.2-25.2
	c-0.1-1.5-0.2-2.9-0.3-4.4c4.2,3.3,14.2,13,15.6,31.5c0.5,7.2,0.4,12.2,0.3,16.4c-0.2,9.6-0.3,13.6,8.4,25.5
	c9.9,13.7,6.6,21.5,5.5,23.5c-2-0.7-3.8-1.3-5.7-1.8c-11.3-3.7-18.2-6-19.9-8.5c-1.9-2.8-1.6-8-1.4-9.6c1.8-0.8,3.2-1.8,4.2-2.7
	c3.8-3.3,5.9-8.4,5.1-12.6c-0.6-3.3-0.3-7.4,0-11.3c0.4-5,0.8-9.6-0.6-13.2c-1.4-3.5-2.3-7-2.7-10V76c-0.1-0.5-0.6-0.9-1.1-0.8
	c-0.5,0.1-0.9,0.6-0.8,1.1v0.2c0.4,3.2,1.4,6.8,2.8,10.5c1.2,3,0.8,7.6,0.5,12.2c-0.3,4-0.7,8.2,0,11.8c0.5,2.9-0.6,7.5-4.5,10.8
	c-2.8,2.5-9.5,6.2-21.5,2.3c-0.5-0.2-1,0.1-1.2,0.6c-0.2,0.5,0.1,1,0.6,1.2c3.9,1.3,7.4,1.8,10.4,1.8c2.6,0,4.9-0.4,6.7-1
	c-0.2,2.4-0.2,7,1.8,9.9c2.1,3.1,8.4,5.2,20.9,9.3c3.7,1.2,8,2.6,12.7,4.2C168,157.4,179.4,161.9,178.2,176.1z"/>
</svg>
