<svg width="41" height="41" viewBox="0 0 41 41" fill="none" xmlns="http://www.w3.org/2000/svg">
<path d="M28.1 12.4C26.5 14.3 24.9 16.2 23.3 18.2C23.3 18.3 23.4 18.4 23.4 18.5C29 19 34.7 19.5 40.3 20.1C40.3 20.2 40.3 20.2 40.4 20.3C40.1 20.4 39.9 20.5 39.6 20.6C37.7 20.7 35.9 20.8 34 21C30.5 21.3 26.9 21.7 23.4 22.1C23.3 22.2 23.3 22.3 23.2 22.4C24.8 24.3 26.4 26.3 28 28.2C28.1 28 28 28.1 28 28.1C26.1 26.5 24.1 24.9 22 23.2C21.1 29 20.7 34.7 20.4 40.4C20.3 40.4 20.2 40.4 20.2 40.5C20.1 40.3 19.9 40.1 19.9 39.9C19.6 36 19.3 32.2 19 28.3C18.9 26.7 18.6 25.2 18.4 23.3C16.3 25 14.4 26.6 12.4 28.2C12.3 28.2 12.3 28.1 12.2 28.1C13.8 26.2 15.4 24.3 17.1 22.2C11.3 21.3 5.6 21 0 20.3C5.7 19.7 11.3 19.3 17.2 18.4C15.4 16.3 13.9 14.4 12.3 12.5C12.4 12.4 12.4 12.4 12.5 12.3C14.4 13.9 16.3 15.5 18.4 17.2C19.3 11.4 19.7 5.7 20.1 0C20.2 0 20.3 0 20.4 0C20.9 5.6 21.4 11.3 22 16.9C22.1 16.9 22.2 17 22.3 17C24.2 15.4 26.2 13.8 28.1 12.2C28 12.3 28 12.3 28.1 12.4Z" fill="#93C74F"/>
</svg>
