<svg width="65" height="75" viewBox="0 0 65 75" fill="none" xmlns="http://www.w3.org/2000/svg">
<mask id="path-1-outside-1_612_2115" maskUnits="userSpaceOnUse" x="-1" y="-1" width="67" height="77" fill="black">
<rect fill="white" x="-1" y="-1" width="67" height="77"/>
<path d="M1.0345 73V70.216L13.5145 68.392H25.5145L36.9385 70.408V73.288L1.0345 73ZM12.5545 73C12.7465 65.512 12.8425 57.832 12.8425 50.536V8.10399L0.7465 9.832V6.568L24.8425 0.903996L26.2825 1.86399L25.8985 17.32V50.536C25.8985 57.832 26.0905 65.512 26.2825 73H12.5545ZM56.3133 74.632C51.8973 74.632 48.5373 71.08 48.5373 66.856C48.5373 62.536 51.8973 58.984 56.3133 58.984C60.7293 58.984 64.1853 62.536 64.1853 66.856C64.1853 71.08 60.7293 74.632 56.3133 74.632Z"/>
</mask>
<path d="M1.0345 73H0.0345004L1.02648 74L1.0345 73ZM1.0345 70.216L0.889883 69.2265L0.0345004 70.216H1.0345ZM13.5145 68.392V67.392L13.3699 67.4025L13.5145 68.392ZM25.5145 68.392L25.6883 67.4072L25.5145 67.392V68.392ZM36.9385 70.408H37.9385L37.1123 69.4232L36.9385 70.408ZM36.9385 73.288L36.9305 74.288L37.9385 73.288H36.9385ZM12.5545 73L11.5548 72.9744L12.5545 74V73ZM12.8425 8.10399H13.8425L12.7011 7.11404L12.8425 8.10399ZM0.7465 9.832H-0.2535L0.887922 10.8219L0.7465 9.832ZM0.7465 6.568L0.517677 5.59453L-0.2535 6.568H0.7465ZM24.8425 0.903996L25.3972 0.0719447L24.6137 -0.0694725L24.8425 0.903996ZM26.2825 1.86399L27.2822 1.88883L26.8372 1.03194L26.2825 1.86399ZM25.8985 17.32L24.8988 17.2952L24.8985 17.32H25.8985ZM26.2825 73V74L27.2822 72.9744L26.2825 73ZM2.0345 73V70.216H0.0345004V73H2.0345ZM1.17912 71.2055L13.6591 69.3815L13.3699 67.4025L0.889883 69.2265L1.17912 71.2055ZM13.5145 69.392H25.5145V67.392H13.5145V69.392ZM25.3407 69.3768L36.7647 71.3928L37.1123 69.4232L25.6883 67.4072L25.3407 69.3768ZM35.9385 70.408V73.288H37.9385V70.408H35.9385ZM36.9465 72.288L1.04252 72L1.02648 74L36.9305 74.288L36.9465 72.288ZM13.5542 73.0256C13.7464 65.529 13.8425 57.8404 13.8425 50.536H11.8425C11.8425 57.8236 11.7466 65.495 11.5548 72.9744L13.5542 73.0256ZM13.8425 50.536V8.10399H11.8425V50.536H13.8425ZM12.7011 7.11404L0.605079 8.84205L0.887922 10.8219L12.9839 9.09394L12.7011 7.11404ZM1.7465 9.832V6.568H-0.2535V9.832H1.7465ZM0.975323 7.54146L25.0713 1.87746L24.6137 -0.0694725L0.517677 5.59453L0.975323 7.54146ZM24.2878 1.73605L25.7278 2.69605L26.8372 1.03194L25.3972 0.0719447L24.2878 1.73605ZM25.2828 1.83916L24.8988 17.2952L26.8982 17.3448L27.2822 1.88883L25.2828 1.83916ZM24.8985 17.32V50.536H26.8985V17.32H24.8985ZM24.8985 50.536C24.8985 57.8469 25.0909 65.5395 25.2828 73.0256L27.2822 72.9744C27.0901 65.4845 26.8985 57.8171 26.8985 50.536H24.8985ZM26.2825 72H12.5545V74H26.2825V72ZM56.3133 73.632C52.4656 73.632 49.5373 70.5439 49.5373 66.856H47.5373C47.5373 71.6161 51.3289 75.632 56.3133 75.632V73.632ZM49.5373 66.856C49.5373 63.0641 52.4735 59.984 56.3133 59.984V57.984C51.321 57.984 47.5373 62.0079 47.5373 66.856H49.5373ZM56.3133 59.984C60.169 59.984 63.1853 63.0803 63.1853 66.856H65.1853C65.1853 61.9917 61.2895 57.984 56.3133 57.984V59.984ZM63.1853 66.856C63.1853 70.5277 60.177 73.632 56.3133 73.632V75.632C61.2815 75.632 65.1853 71.6323 65.1853 66.856H63.1853Z" fill="black" mask="url(#path-1-outside-1_612_2115)"/>
<path d="M1.0345 73H0.0345004L1.02648 74L1.0345 73ZM1.0345 70.216L0.889883 69.2265L0.0345004 70.216H1.0345ZM13.5145 68.392V67.392L13.3699 67.4025L13.5145 68.392ZM25.5145 68.392L25.6883 67.4072L25.5145 67.392V68.392ZM36.9385 70.408H37.9385L37.1123 69.4232L36.9385 70.408ZM36.9385 73.288L36.9305 74.288L37.9385 73.288H36.9385ZM12.5545 73L11.5548 72.9744L12.5545 74V73ZM12.8425 8.10399H13.8425L12.7011 7.11404L12.8425 8.10399ZM0.7465 9.832H-0.2535L0.887922 10.8219L0.7465 9.832ZM0.7465 6.568L0.517677 5.59453L-0.2535 6.568H0.7465ZM24.8425 0.903996L25.3972 0.0719447L24.6137 -0.0694725L24.8425 0.903996ZM26.2825 1.86399L27.2822 1.88883L26.8372 1.03194L26.2825 1.86399ZM25.8985 17.32L24.8988 17.2952L24.8985 17.32H25.8985ZM26.2825 73V74L27.2822 72.9744L26.2825 73ZM2.0345 73V70.216H0.0345004V73H2.0345ZM1.17912 71.2055L13.6591 69.3815L13.3699 67.4025L0.889883 69.2265L1.17912 71.2055ZM13.5145 69.392H25.5145V67.392H13.5145V69.392ZM25.3407 69.3768L36.7647 71.3928L37.1123 69.4232L25.6883 67.4072L25.3407 69.3768ZM35.9385 70.408V73.288H37.9385V70.408H35.9385ZM36.9465 72.288L1.04252 72L1.02648 74L36.9305 74.288L36.9465 72.288ZM13.5542 73.0256C13.7464 65.529 13.8425 57.8404 13.8425 50.536H11.8425C11.8425 57.8236 11.7466 65.495 11.5548 72.9744L13.5542 73.0256ZM13.8425 50.536V8.10399H11.8425V50.536H13.8425ZM12.7011 7.11404L0.605079 8.84205L0.887922 10.8219L12.9839 9.09394L12.7011 7.11404ZM1.7465 9.832V6.568H-0.2535V9.832H1.7465ZM0.975323 7.54146L25.0713 1.87746L24.6137 -0.0694725L0.517677 5.59453L0.975323 7.54146ZM24.2878 1.73605L25.7278 2.69605L26.8372 1.03194L25.3972 0.0719447L24.2878 1.73605ZM25.2828 1.83916L24.8988 17.2952L26.8982 17.3448L27.2822 1.88883L25.2828 1.83916ZM24.8985 17.32V50.536H26.8985V17.32H24.8985ZM24.8985 50.536C24.8985 57.8469 25.0909 65.5395 25.2828 73.0256L27.2822 72.9744C27.0901 65.4845 26.8985 57.8171 26.8985 50.536H24.8985ZM26.2825 72H12.5545V74H26.2825V72ZM56.3133 73.632C52.4656 73.632 49.5373 70.5439 49.5373 66.856H47.5373C47.5373 71.6161 51.3289 75.632 56.3133 75.632V73.632ZM49.5373 66.856C49.5373 63.0641 52.4735 59.984 56.3133 59.984V57.984C51.321 57.984 47.5373 62.0079 47.5373 66.856H49.5373ZM56.3133 59.984C60.169 59.984 63.1853 63.0803 63.1853 66.856H65.1853C65.1853 61.9917 61.2895 57.984 56.3133 57.984V59.984ZM63.1853 66.856C63.1853 70.5277 60.177 73.632 56.3133 73.632V75.632C61.2815 75.632 65.1853 71.6323 65.1853 66.856H63.1853Z" fill="black" fill-opacity="0.2" mask="url(#path-1-outside-1_612_2115)"/>
</svg>
