<?xml version="1.0" encoding="utf-8"?>
<!-- Generator: Adobe Illustrator 24.0.2, SVG Export Plug-In . SVG Version: 6.00 Build 0)  -->
<svg version="1.1" id="圖層_1" xmlns="http://www.w3.org/2000/svg" xmlns:xlink="http://www.w3.org/1999/xlink" x="0px" y="0px"
	 viewBox="0 0 136 128" style="enable-background:new 0 0 136 128;" xml:space="preserve">
<style type="text/css">
	.st0{fill:#FFFFFF;filter:url(#Adobe_OpacityMaskFilter);}
	.st1{mask:url(#path-1-outside-1_612_2115_1_);}
	.st2{fill:#FFFFFF;filter:url(#Adobe_OpacityMaskFilter_1_);}
	.st3{mask:url(#path-1-outside-1_612_2115_2_);fill-opacity:0.2;}
</style>
<defs>
	<filter id="Adobe_OpacityMaskFilter" filterUnits="userSpaceOnUse" x="35.2" y="26.4" width="65.4" height="75.7">
		<feColorMatrix  type="matrix" values="1 0 0 0 0  0 1 0 0 0  0 0 1 0 0  0 0 0 1 0"/>
	</filter>
</defs>
<mask maskUnits="userSpaceOnUse" x="35.2" y="26.4" width="65.4" height="75.7" id="path-1-outside-1_612_2115_1_">
	<rect x="34.5" y="25.5" class="st0" width="67" height="77"/>
	<path d="M36.5,99.5v-2.8L49,94.9h12l11.4,2v2.9L36.5,99.5z M48.1,99.5c0.2-7.5,0.3-15.2,0.3-22.5V34.6l-12.1,1.7v-3.3l24.1-5.7
		l1.4,1l-0.4,15.5V77c0,7.3,0.2,15,0.4,22.5H48.1z M91.8,101.1c-4.4,0-7.8-3.6-7.8-7.8c0-4.3,3.4-7.9,7.8-7.9s7.9,3.6,7.9,7.9
		C99.7,97.6,96.2,101.1,91.8,101.1z"/>
</mask>
<path class="st1" d="M36.5,99.5h-1l1,1L36.5,99.5z M36.5,96.7l-0.1-1l-0.9,1H36.5z M49,94.9v-1l-0.1,0L49,94.9z M61,94.9l0.2-1
	l-0.2,0V94.9z M72.4,96.9h1l-0.8-1L72.4,96.9z M72.4,99.8l0,1l1-1H72.4z M48.1,99.5l-1,0l1,1V99.5z M48.3,34.6h1l-1.1-1L48.3,34.6z
	 M36.2,36.3h-1l1.1,1L36.2,36.3z M36.2,33.1l-0.2-1l-0.8,1H36.2z M60.3,27.4l0.6-0.8l-0.8-0.1L60.3,27.4z M61.8,28.4l1,0l-0.4-0.9
	L61.8,28.4z M61.4,43.8l-1,0l0,0H61.4z M61.8,99.5v1l1-1L61.8,99.5z M37.5,99.5v-2.8h-2v2.8H37.5z M36.7,97.7l12.5-1.8l-0.3-2
	l-12.5,1.8L36.7,97.7z M49,95.9h12v-2H49V95.9z M60.8,95.9l11.4,2l0.3-2l-11.4-2L60.8,95.9z M71.4,96.9v2.9h2v-2.9H71.4z M72.4,98.8
	l-35.9-0.3l0,2l35.9,0.3L72.4,98.8z M49.1,99.5c0.2-7.5,0.3-15.2,0.3-22.5h-2c0,7.3-0.1,15-0.3,22.4L49.1,99.5z M49.3,77V34.6h-2V77
	H49.3z M48.2,33.6l-12.1,1.7l0.3,2l12.1-1.7L48.2,33.6z M37.2,36.3v-3.3h-2v3.3H37.2z M36.5,34l24.1-5.7l-0.5-1.9L36,32.1L36.5,34z
	 M59.8,28.2l1.4,1l1.1-1.7l-1.4-1L59.8,28.2z M60.8,28.3l-0.4,15.5l2,0l0.4-15.5L60.8,28.3z M60.4,43.8V77h2V43.8H60.4z M60.4,77
	c0,7.3,0.2,15,0.4,22.5l2-0.1C62.6,92,62.4,84.3,62.4,77H60.4z M61.8,98.5H48.1v2h13.7V98.5z M91.8,100.1c-3.8,0-6.8-3.1-6.8-6.8h-2
	c0,4.8,3.8,8.8,8.8,8.8V100.1z M85,93.4c0-3.8,2.9-6.9,6.8-6.9v-2c-5,0-8.8,4-8.8,8.9H85z M91.8,86.5c3.9,0,6.9,3.1,6.9,6.9h2
	c0-4.9-3.9-8.9-8.9-8.9V86.5z M98.7,93.4c0,3.7-3,6.8-6.9,6.8v2c5,0,8.9-4,8.9-8.8H98.7z"/>
<defs>
	<filter id="Adobe_OpacityMaskFilter_1_" filterUnits="userSpaceOnUse" x="35.2" y="26.4" width="65.4" height="75.7">
		<feColorMatrix  type="matrix" values="1 0 0 0 0  0 1 0 0 0  0 0 1 0 0  0 0 0 1 0"/>
	</filter>
</defs>
<mask maskUnits="userSpaceOnUse" x="35.2" y="26.4" width="65.4" height="75.7" id="path-1-outside-1_612_2115_2_">
	<rect x="34.5" y="25.5" class="st2" width="67" height="77"/>
	<path d="M36.5,99.5v-2.8L49,94.9h12l11.4,2v2.9L36.5,99.5z M48.1,99.5c0.2-7.5,0.3-15.2,0.3-22.5V34.6l-12.1,1.7v-3.3l24.1-5.7
		l1.4,1l-0.4,15.5V77c0,7.3,0.2,15,0.4,22.5H48.1z M91.8,101.1c-4.4,0-7.8-3.6-7.8-7.8c0-4.3,3.4-7.9,7.8-7.9s7.9,3.6,7.9,7.9
		C99.7,97.6,96.2,101.1,91.8,101.1z"/>
</mask>
<path class="st3" d="M36.5,99.5h-1l1,1L36.5,99.5z M36.5,96.7l-0.1-1l-0.9,1H36.5z M49,94.9v-1l-0.1,0L49,94.9z M61,94.9l0.2-1
	l-0.2,0V94.9z M72.4,96.9h1l-0.8-1L72.4,96.9z M72.4,99.8l0,1l1-1H72.4z M48.1,99.5l-1,0l1,1V99.5z M48.3,34.6h1l-1.1-1L48.3,34.6z
	 M36.2,36.3h-1l1.1,1L36.2,36.3z M36.2,33.1l-0.2-1l-0.8,1H36.2z M60.3,27.4l0.6-0.8l-0.8-0.1L60.3,27.4z M61.8,28.4l1,0l-0.4-0.9
	L61.8,28.4z M61.4,43.8l-1,0l0,0H61.4z M61.8,99.5v1l1-1L61.8,99.5z M37.5,99.5v-2.8h-2v2.8H37.5z M36.7,97.7l12.5-1.8l-0.3-2
	l-12.5,1.8L36.7,97.7z M49,95.9h12v-2H49V95.9z M60.8,95.9l11.4,2l0.3-2l-11.4-2L60.8,95.9z M71.4,96.9v2.9h2v-2.9H71.4z M72.4,98.8
	l-35.9-0.3l0,2l35.9,0.3L72.4,98.8z M49.1,99.5c0.2-7.5,0.3-15.2,0.3-22.5h-2c0,7.3-0.1,15-0.3,22.4L49.1,99.5z M49.3,77V34.6h-2V77
	H49.3z M48.2,33.6l-12.1,1.7l0.3,2l12.1-1.7L48.2,33.6z M37.2,36.3v-3.3h-2v3.3H37.2z M36.5,34l24.1-5.7l-0.5-1.9L36,32.1L36.5,34z
	 M59.8,28.2l1.4,1l1.1-1.7l-1.4-1L59.8,28.2z M60.8,28.3l-0.4,15.5l2,0l0.4-15.5L60.8,28.3z M60.4,43.8V77h2V43.8H60.4z M60.4,77
	c0,7.3,0.2,15,0.4,22.5l2-0.1C62.6,92,62.4,84.3,62.4,77H60.4z M61.8,98.5H48.1v2h13.7V98.5z M91.8,100.1c-3.8,0-6.8-3.1-6.8-6.8h-2
	c0,4.8,3.8,8.8,8.8,8.8V100.1z M85,93.4c0-3.8,2.9-6.9,6.8-6.9v-2c-5,0-8.8,4-8.8,8.9H85z M91.8,86.5c3.9,0,6.9,3.1,6.9,6.9h2
	c0-4.9-3.9-8.9-8.9-8.9V86.5z M98.7,93.4c0,3.7-3,6.8-6.9,6.8v2c5,0,8.9-4,8.9-8.8H98.7z"/>
</svg>
