<svg width="136" height="128" viewBox="0 0 136 128" fill="none" xmlns="http://www.w3.org/2000/svg">
<mask id="path-1-outside-1_1357_2093" maskUnits="userSpaceOnUse" x="28" y="37" width="78" height="77" fill="black">
<rect fill="white" x="28" y="37" width="78" height="77"/>
<path d="M29.1819 111V103.608C35.0379 97.08 40.7979 90.456 45.5019 85.08C55.8699 73.08 60.3819 66.648 60.3819 56.856C60.3819 47.064 55.6779 41.592 47.9019 41.592C44.9259 41.592 41.8539 42.264 38.5899 43.992L43.1019 41.592L40.8939 51.672C39.8379 57.24 37.2459 58.68 34.5579 58.68C32.0619 58.68 29.9499 57.24 29.0859 54.936C29.9499 44.088 40.4139 38.424 52.2219 38.424C66.6219 38.424 73.4379 46.104 73.4379 57.528C73.4379 67.416 65.6619 74.712 48.9579 89.016C45.5979 91.992 39.9339 97.272 34.2699 102.648L35.3259 99.192V101.016H75.5499V111H29.1819ZM96.4539 112.632C92.0379 112.632 88.6779 109.08 88.6779 104.856C88.6779 100.536 92.0379 96.984 96.4539 96.984C100.87 96.984 104.326 100.536 104.326 104.856C104.326 109.08 100.87 112.632 96.4539 112.632Z"/>
</mask>
<path d="M29.1819 111H28.1819L29.1819 112V111ZM29.1819 103.608L28.4375 102.94L28.1819 103.608H29.1819ZM45.5019 85.08L46.2545 85.7385L46.2586 85.7338L45.5019 85.08ZM38.5899 43.992L38.1203 43.1091L39.0578 44.8758L38.5899 43.992ZM43.1019 41.592L44.0787 41.806L42.6323 40.7091L43.1019 41.592ZM40.8939 51.672L39.917 51.458L39.9114 51.4857L40.8939 51.672ZM29.0859 54.936L28.089 54.8566L28.1495 55.2871L29.0859 54.936ZM48.9579 89.016L48.3074 88.2564L48.2948 88.2674L48.9579 89.016ZM34.2699 102.648L33.3135 102.356L34.9583 103.373L34.2699 102.648ZM35.3259 99.192H36.3259L34.3695 98.8998L35.3259 99.192ZM35.3259 101.016H34.3259L35.3259 102.016V101.016ZM75.5499 101.016H76.5499L75.5499 100.016V101.016ZM75.5499 111V112L76.5499 111H75.5499ZM30.1819 111V103.608H28.1819V111H30.1819ZM29.9263 104.276C35.7876 97.7418 41.5532 91.1113 46.2545 85.7385L44.7493 84.4215C40.0425 89.8007 34.2882 96.4182 28.4375 102.94L29.9263 104.276ZM46.2586 85.7338C56.6114 73.7513 61.3819 67.0609 61.3819 56.856H59.3819C59.3819 66.2351 55.1283 72.4087 44.7452 84.4262L46.2586 85.7338ZM61.3819 56.856C61.3819 51.8137 60.1718 47.7423 57.8279 44.9139C55.4626 42.0598 52.0421 40.592 47.9019 40.592V42.592C51.5376 42.592 54.3571 43.8602 56.2879 46.1901C58.24 48.5457 59.3819 52.1063 59.3819 56.856H61.3819ZM47.9019 40.592C44.7632 40.592 41.5305 41.3037 38.122 43.1082L39.0578 44.8758C42.1773 43.2243 45.0886 42.592 47.9019 42.592V40.592ZM39.0595 44.8749L43.5715 42.4749L42.6323 40.7091L38.1203 43.1091L39.0595 44.8749ZM42.125 41.378L39.917 51.458L41.8707 51.886L44.0787 41.806L42.125 41.378ZM39.9114 51.4857C39.4058 54.1518 38.5593 55.6778 37.6506 56.5376C36.7634 57.3771 35.7125 57.68 34.5579 57.68V59.68C36.0913 59.68 37.6804 59.2629 39.0252 57.9904C40.3485 56.7382 41.326 54.7602 41.8764 51.8583L39.9114 51.4857ZM34.5579 57.68C32.4683 57.68 30.7362 56.4889 30.0222 54.5849L28.1495 55.2871C29.1635 57.9911 31.6555 59.68 34.5579 59.68V57.68ZM30.0827 55.0154C30.4873 49.9354 33.125 46.0706 37.1007 43.4466C41.1003 40.8069 46.4641 39.424 52.2219 39.424V37.424C46.1716 37.424 40.3995 38.8731 35.999 41.7774C31.5747 44.6974 28.5484 49.0886 28.089 54.8566L30.0827 55.0154ZM52.2219 39.424C59.2506 39.424 64.2752 41.2965 67.539 44.415C70.7976 47.5285 72.4379 52.0148 72.4379 57.528H74.4379C74.4379 51.6172 72.6701 46.5515 68.9207 42.969C65.1766 39.3915 59.5932 37.424 52.2219 37.424V39.424ZM72.4379 57.528C72.4379 62.1606 70.6344 66.2375 66.693 70.9766C62.7256 75.747 56.6755 81.0907 48.3074 88.2564L49.6083 89.7756C57.9442 82.6373 64.1342 77.181 68.2307 72.2554C72.3533 67.2985 74.4379 62.7834 74.4379 57.528H72.4379ZM48.2948 88.2674C44.9209 91.2558 39.2461 96.5461 33.5814 101.923L34.9583 103.373C40.6216 97.9979 46.2749 92.7282 49.6209 89.7646L48.2948 88.2674ZM35.2262 102.94L36.2822 99.4842L34.3695 98.8998L33.3135 102.356L35.2262 102.94ZM34.3259 99.192V101.016H36.3259V99.192H34.3259ZM35.3259 102.016H75.5499V100.016H35.3259V102.016ZM74.5499 101.016V111H76.5499V101.016H74.5499ZM75.5499 110H29.1819V112H75.5499V110ZM96.4539 111.632C92.6062 111.632 89.6779 108.544 89.6779 104.856H87.6779C87.6779 109.616 91.4695 113.632 96.4539 113.632V111.632ZM89.6779 104.856C89.6779 101.064 92.6141 97.984 96.4539 97.984V95.984C91.4617 95.984 87.6779 100.008 87.6779 104.856H89.6779ZM96.4539 97.984C100.31 97.984 103.326 101.08 103.326 104.856H105.326C105.326 99.9917 101.43 95.984 96.4539 95.984V97.984ZM103.326 104.856C103.326 108.528 100.318 111.632 96.4539 111.632V113.632C101.422 113.632 105.326 109.632 105.326 104.856H103.326Z" fill="black" mask="url(#path-1-outside-1_1357_2093)"/>
<path d="M29.1819 111H28.1819L29.1819 112V111ZM29.1819 103.608L28.4375 102.94L28.1819 103.608H29.1819ZM45.5019 85.08L46.2545 85.7385L46.2586 85.7338L45.5019 85.08ZM38.5899 43.992L38.1203 43.1091L39.0578 44.8758L38.5899 43.992ZM43.1019 41.592L44.0787 41.806L42.6323 40.7091L43.1019 41.592ZM40.8939 51.672L39.917 51.458L39.9114 51.4857L40.8939 51.672ZM29.0859 54.936L28.089 54.8566L28.1495 55.2871L29.0859 54.936ZM48.9579 89.016L48.3074 88.2564L48.2948 88.2674L48.9579 89.016ZM34.2699 102.648L33.3135 102.356L34.9583 103.373L34.2699 102.648ZM35.3259 99.192H36.3259L34.3695 98.8998L35.3259 99.192ZM35.3259 101.016H34.3259L35.3259 102.016V101.016ZM75.5499 101.016H76.5499L75.5499 100.016V101.016ZM75.5499 111V112L76.5499 111H75.5499ZM30.1819 111V103.608H28.1819V111H30.1819ZM29.9263 104.276C35.7876 97.7418 41.5532 91.1113 46.2545 85.7385L44.7493 84.4215C40.0425 89.8007 34.2882 96.4182 28.4375 102.94L29.9263 104.276ZM46.2586 85.7338C56.6114 73.7513 61.3819 67.0609 61.3819 56.856H59.3819C59.3819 66.2351 55.1283 72.4087 44.7452 84.4262L46.2586 85.7338ZM61.3819 56.856C61.3819 51.8137 60.1718 47.7423 57.8279 44.9139C55.4626 42.0598 52.0421 40.592 47.9019 40.592V42.592C51.5376 42.592 54.3571 43.8602 56.2879 46.1901C58.24 48.5457 59.3819 52.1063 59.3819 56.856H61.3819ZM47.9019 40.592C44.7632 40.592 41.5305 41.3037 38.122 43.1082L39.0578 44.8758C42.1773 43.2243 45.0886 42.592 47.9019 42.592V40.592ZM39.0595 44.8749L43.5715 42.4749L42.6323 40.7091L38.1203 43.1091L39.0595 44.8749ZM42.125 41.378L39.917 51.458L41.8707 51.886L44.0787 41.806L42.125 41.378ZM39.9114 51.4857C39.4058 54.1518 38.5593 55.6778 37.6506 56.5376C36.7634 57.3771 35.7125 57.68 34.5579 57.68V59.68C36.0913 59.68 37.6804 59.2629 39.0252 57.9904C40.3485 56.7382 41.326 54.7602 41.8764 51.8583L39.9114 51.4857ZM34.5579 57.68C32.4683 57.68 30.7362 56.4889 30.0222 54.5849L28.1495 55.2871C29.1635 57.9911 31.6555 59.68 34.5579 59.68V57.68ZM30.0827 55.0154C30.4873 49.9354 33.125 46.0706 37.1007 43.4466C41.1003 40.8069 46.4641 39.424 52.2219 39.424V37.424C46.1716 37.424 40.3995 38.8731 35.999 41.7774C31.5747 44.6974 28.5484 49.0886 28.089 54.8566L30.0827 55.0154ZM52.2219 39.424C59.2506 39.424 64.2752 41.2965 67.539 44.415C70.7976 47.5285 72.4379 52.0148 72.4379 57.528H74.4379C74.4379 51.6172 72.6701 46.5515 68.9207 42.969C65.1766 39.3915 59.5932 37.424 52.2219 37.424V39.424ZM72.4379 57.528C72.4379 62.1606 70.6344 66.2375 66.693 70.9766C62.7256 75.747 56.6755 81.0907 48.3074 88.2564L49.6083 89.7756C57.9442 82.6373 64.1342 77.181 68.2307 72.2554C72.3533 67.2985 74.4379 62.7834 74.4379 57.528H72.4379ZM48.2948 88.2674C44.9209 91.2558 39.2461 96.5461 33.5814 101.923L34.9583 103.373C40.6216 97.9979 46.2749 92.7282 49.6209 89.7646L48.2948 88.2674ZM35.2262 102.94L36.2822 99.4842L34.3695 98.8998L33.3135 102.356L35.2262 102.94ZM34.3259 99.192V101.016H36.3259V99.192H34.3259ZM35.3259 102.016H75.5499V100.016H35.3259V102.016ZM74.5499 101.016V111H76.5499V101.016H74.5499ZM75.5499 110H29.1819V112H75.5499V110ZM96.4539 111.632C92.6062 111.632 89.6779 108.544 89.6779 104.856H87.6779C87.6779 109.616 91.4695 113.632 96.4539 113.632V111.632ZM89.6779 104.856C89.6779 101.064 92.6141 97.984 96.4539 97.984V95.984C91.4617 95.984 87.6779 100.008 87.6779 104.856H89.6779ZM96.4539 97.984C100.31 97.984 103.326 101.08 103.326 104.856H105.326C105.326 99.9917 101.43 95.984 96.4539 95.984V97.984ZM103.326 104.856C103.326 108.528 100.318 111.632 96.4539 111.632V113.632C101.422 113.632 105.326 109.632 105.326 104.856H103.326Z" fill="black" fill-opacity="0.2" mask="url(#path-1-outside-1_1357_2093)"/>
</svg>
