<svg width="21" height="24" viewBox="0 0 21 24" fill="none" xmlns="http://www.w3.org/2000/svg">
<g clip-path="url(#clip0_326_2076)">
<path d="M1.55929 10.1958C1.61926 9.47606 1.67924 8.81633 1.67924 8.09663C1.73921 7.07706 2.45891 6.41733 3.41851 6.41733H5.15779V6.11746C5.03784 4.43816 5.57761 3.11871 6.83709 2.03916C7.79669 1.13953 8.99619 0.719707 10.1957 0.779682C11.6351 0.779682 12.8946 1.31946 13.8542 2.33903C14.8138 3.35861 15.2936 4.61808 15.2336 6.05748V6.35736H16.9129C17.8725 6.35736 18.5322 6.95711 18.7121 7.91671C18.8921 7.91671 19.132 7.91671 19.3119 7.91671C19.1919 6.59726 18.2323 5.75761 16.9129 5.75761H15.8333C15.8333 4.25823 15.2936 2.93878 14.274 1.91921C13.1944 0.779682 11.815 0.179932 10.1957 0.179932C8.81626 0.179932 7.55679 0.659732 6.47724 1.55936C5.15779 2.63891 4.49806 4.07831 4.55804 5.75761H3.41851C2.09906 5.75761 1.13946 6.65723 1.07949 8.03666C1.01951 8.75636 1.01951 9.41608 0.959536 10.1358L0.479736 16.913H1.07949L1.55929 10.1958Z" fill="black"/>
<path d="M1.07948 17.0929H0.47973C0.419755 17.0929 0.419755 17.0929 0.35978 17.0329C0.35978 16.9729 0.299805 16.9729 0.299805 16.913L0.779605 10.1358C0.83958 9.41607 0.899555 8.75635 0.899555 8.03665C0.95953 6.65722 1.9791 5.63765 3.4185 5.63765H4.3781C4.3781 3.95835 5.03783 2.51895 6.35728 1.4394C7.43683 0.4798 8.75628 0 10.1957 0C11.875 0 13.3144 0.59975 14.4539 1.79925C15.4735 2.8788 16.0133 4.13827 16.0133 5.63765H16.9129C18.2923 5.63765 19.3119 6.53727 19.4318 7.9167C19.4318 7.97667 19.4318 7.97667 19.3719 8.03665C19.3719 8.09662 19.3119 8.09662 19.2519 8.09662C19.072 8.09662 18.8321 8.09662 18.6522 8.09662C18.5922 8.09662 18.5322 8.03665 18.5322 7.97668C18.4123 7.07705 17.8125 6.59725 16.9129 6.59725H15.2336C15.1736 6.59725 15.1736 6.59725 15.1136 6.53727C15.1136 6.53727 15.0537 6.4773 15.0537 6.41732V6.11745C15.1136 4.67805 14.6338 3.47855 13.7342 2.45897C12.7746 1.4394 11.5751 0.9596 10.1957 0.899625C8.99618 0.899625 7.85665 1.31945 6.95703 2.09912C5.75753 3.1187 5.21775 4.43815 5.3377 6.05748V6.35735C5.3377 6.41733 5.3377 6.41733 5.27773 6.4773C5.27773 6.53727 5.21775 6.53727 5.15778 6.53727H3.4185C2.51888 6.53727 1.85915 7.13702 1.79918 8.09662C1.79918 8.75635 1.7392 9.47605 1.67923 10.1957L1.19943 16.913C1.19943 17.0329 1.13945 17.0929 1.07948 17.0929ZM0.59968 16.793H0.899555L1.37935 10.1957C1.43933 9.47605 1.4993 8.81633 1.4993 8.09662C1.55928 7.01707 2.33895 6.29737 3.4185 6.29737H5.03783V6.11745C4.91788 4.43815 5.51763 2.99875 6.7771 1.9192C7.7367 1.01957 8.9362 0.59975 10.1957 0.59975C11.6951 0.59975 12.9545 1.13953 13.9741 2.21907C14.9937 3.29862 15.4735 4.5581 15.4135 6.05748V6.2374H16.9129C17.9325 6.2374 18.6522 6.83715 18.8321 7.79675C18.952 7.79675 19.012 7.79675 19.132 7.79675C18.952 6.65722 18.1124 5.93752 16.9129 5.93752H15.8333C15.7734 5.93752 15.7134 5.87755 15.7134 5.81757C15.7134 4.37817 15.1736 3.05872 14.214 2.03915C13.1345 0.899625 11.815 0.299875 10.1957 0.299875C8.81625 0.299875 7.55678 0.779675 6.5372 1.61932C5.27773 2.75885 4.67798 4.13828 4.73795 5.7576C4.73795 5.81757 4.73795 5.81757 4.67798 5.87755C4.618 5.93752 4.618 5.93752 4.55803 5.93752H3.4185C2.15903 5.93752 1.2594 6.83715 1.19943 8.03665C1.13945 8.75635 1.13945 9.41607 1.07948 10.1358L0.59968 16.793Z" fill="black"/>
<path d="M19.4918 10.1956C19.4918 10.4355 19.5518 10.6754 19.5518 10.9153L20.0316 17.6325C20.0916 18.5322 20.1515 19.4318 20.2115 20.3314C20.2115 20.4514 20.2115 20.5713 20.2115 20.6313C20.2715 21.0511 20.2715 21.411 20.2115 21.8308C20.0316 22.9703 19.132 23.75 17.9325 23.75C17.7525 23.75 17.6326 23.75 17.4527 23.75C17.3327 23.75 17.2128 23.75 17.0928 23.75H2.57887C1.37937 23.75 0.539722 23.1502 0.239847 22.1307C0.179872 21.8308 0.119897 21.4709 0.179872 21.0511C0.179872 20.6313 0.239847 20.2115 0.239847 19.8516C0.419772 19.8516 0.659672 19.8516 0.839597 19.8516C0.839597 20.2714 0.779622 20.6913 0.779622 21.1111C0.779622 21.4709 0.779622 21.7708 0.839597 21.9507C1.01952 22.7304 1.67925 23.1502 2.57887 23.1502H16.733H17.0928C17.3927 23.1502 17.6326 23.1502 17.9325 23.1502C18.8321 23.1502 19.4918 22.5505 19.6118 21.7108C19.6717 21.351 19.6118 20.9911 19.6118 20.6313C19.6118 20.5113 19.6118 20.3914 19.6118 20.2714C19.5518 19.3718 19.4918 18.4722 19.4318 17.5726L18.952 10.8554C18.952 10.6155 18.8921 10.1357 18.8921 9.89575L19.4918 10.1956Z" fill="black"/>
<path d="M17.5127 23.9899H17.1528H2.57893C1.31945 23.9899 0.419825 23.3302 0.11995 22.2506C0 21.9508 0 21.5909 0 21.1711C0 20.9312 0.059975 20.6313 0.059975 20.3914L0.11995 19.9116C0.11995 19.8516 0.179925 19.7917 0.2399 19.7917C0.35985 19.7917 0.4798 19.7917 0.59975 19.7917C0.659725 19.7917 0.779675 19.7917 0.83965 19.7917C0.899625 19.7917 0.899625 19.7917 0.9596 19.8516C0.9596 19.9116 1.01957 19.9116 1.01957 19.9716L0.9596 20.4514C0.9596 20.6913 0.899625 20.9312 0.899625 21.2311C0.899625 21.5309 0.899625 21.8308 0.9596 22.0707C1.13952 22.7304 1.73928 23.1503 2.57893 23.1503H17.0929C17.3927 23.1503 17.6326 23.1503 17.9325 23.1503C18.7722 23.1503 19.3719 22.6105 19.4919 21.8308C19.5518 21.5309 19.4919 21.1711 19.4919 20.8112C19.4919 20.6913 19.4919 20.5713 19.4919 20.4514C19.4319 19.5518 19.3719 18.6521 19.312 17.7525L18.8321 10.9753C18.8321 10.8554 18.8321 10.6755 18.8321 10.4955C18.8321 10.3156 18.8321 10.1357 18.8321 10.0157C18.8321 9.95577 18.8321 9.8958 18.8921 9.8958C18.9521 9.8958 19.0121 9.83582 19.0121 9.8958L19.6118 10.1357C19.6718 10.1357 19.7318 10.1957 19.7318 10.2556L19.7917 10.9753L20.2715 17.9324C20.3315 18.7721 20.3915 19.6117 20.4515 20.3914C20.4515 20.5114 20.4515 20.6313 20.4515 20.6913C20.5114 21.1111 20.5114 21.5309 20.4515 21.9508C20.2715 23.1503 19.3119 23.9899 18.0525 24.0499C17.8126 23.9899 17.6926 23.9899 17.5127 23.9899ZM0.35985 20.0915V20.3914C0.35985 20.6313 0.299875 20.8712 0.299875 21.1711C0.299875 21.5909 0.299875 21.8908 0.35985 22.1907C0.59975 23.1503 1.4394 23.69 2.57893 23.69H17.5127C17.6926 23.69 17.8126 23.69 17.9925 23.69C19.132 23.69 19.9717 22.9104 20.0916 21.8908C20.1516 21.5309 20.0916 21.1111 20.0916 20.6913C20.0916 20.5713 20.0916 20.4514 20.0916 20.3314C20.0316 19.4918 19.9717 18.6521 19.9117 17.8725L19.3719 10.3156L19.072 10.1957C19.072 10.2556 19.072 10.3756 19.072 10.4356C19.072 10.6155 19.072 10.7954 19.072 10.9154L19.5518 17.6326C19.6118 18.5322 19.6718 19.4318 19.7318 20.3314C19.7318 20.4514 19.7318 20.5713 19.7318 20.6913C19.7917 21.0511 19.7917 21.411 19.7318 21.7708C19.6718 22.7904 18.9521 23.3902 17.9925 23.3902C17.6926 23.3902 17.3927 23.3902 17.1528 23.3902H16.793H2.57893C1.61933 23.3902 0.899625 22.9104 0.659725 22.0707C0.59975 21.8308 0.59975 21.5309 0.59975 21.1711C0.59975 20.9312 0.659725 20.6313 0.659725 20.3914V20.0915C0.59975 20.0915 0.59975 20.0915 0.539775 20.0915C0.539775 20.0915 0.4798 20.0915 0.35985 20.0915Z" fill="black"/>
<path d="M13.0744 3.05855C12.3547 2.27887 11.2751 1.79907 10.1956 1.79907C9.11604 1.79907 8.03649 2.27887 7.31679 3.11852C6.59709 3.8982 6.23724 4.97775 6.29722 6.0573V6.17725C6.47714 5.99732 6.65707 5.87737 6.89697 5.69745C6.89697 4.8578 7.19684 4.07812 7.79659 3.47837C8.39634 2.81865 9.29597 2.4588 10.1956 2.4588C11.0952 2.4588 11.9948 2.81865 12.5946 3.53835C13.1943 4.1381 13.4942 4.97775 13.4942 5.8174H9.47589C9.29597 5.99732 9.05607 6.23722 8.87614 6.41715H14.094V6.11727C14.2139 4.97775 13.8541 3.8982 13.0744 3.05855Z" fill="black"/>
<path d="M14.154 6.53717H8.93617C8.8762 6.53717 8.81622 6.4772 8.81622 6.41722C8.81622 6.35725 8.81622 6.29727 8.8762 6.2373C9.05612 6.05737 9.29602 5.81747 9.47595 5.63755C9.47595 5.63755 9.53592 5.57757 9.5959 5.57757H13.4343C13.3743 4.7979 13.0744 4.13817 12.5946 3.53842C11.9949 2.8787 11.1552 2.51885 10.2556 2.51885C9.356 2.51885 8.45637 2.8787 7.85662 3.5984C7.31685 4.19815 7.01697 4.91785 7.01697 5.69752C7.01697 5.7575 7.01697 5.7575 6.957 5.81747C6.77707 5.9974 6.59715 6.11735 6.35725 6.29727C6.29727 6.35725 6.2373 6.35725 6.17732 6.29727C6.11735 6.29727 6.11735 6.2373 6.05737 6.17732V6.05737C6.05737 4.97782 6.41722 3.8383 7.1969 2.99865C7.97657 2.159 9.05612 1.6792 10.1956 1.6792C11.3352 1.6792 12.4147 2.159 13.1944 2.99865C13.9741 3.8383 14.3939 4.97782 14.2739 6.11735V6.41722C14.2739 6.4772 14.214 6.53717 14.154 6.53717ZM9.29602 6.2373H13.9741V6.11735C14.034 5.0378 13.6742 4.01822 12.9545 3.23855C12.2348 2.45887 11.2152 2.03905 10.1956 2.03905C9.1161 2.03905 8.09652 2.51885 7.37682 3.29852C6.7171 4.01822 6.35725 5.0378 6.35725 5.9974C6.4772 5.93742 6.53717 5.81747 6.65712 5.7575C6.65712 4.91785 7.01697 4.13817 7.55675 3.47845C8.21647 2.75875 9.17607 2.33892 10.1357 2.33892C11.1552 2.33892 12.0549 2.75875 12.7146 3.41847C13.3143 4.0782 13.6742 4.91785 13.6742 5.81747C13.6742 5.87745 13.6742 5.87745 13.6142 5.93742C13.5542 5.9974 13.5542 5.9974 13.4943 5.9974H9.5959C9.53592 5.9974 9.41597 6.11735 9.29602 6.2373Z" fill="black"/>
<path d="M19.3119 7.91675H18.7122L19.3119 8.15665V7.91675Z" fill="black"/>
<path d="M19.3119 8.27659L18.6522 8.03669C18.5922 8.03669 18.5322 7.91674 18.5322 7.85677C18.5322 7.79679 18.5922 7.73682 18.6522 7.73682H19.2519C19.3119 7.73682 19.3719 7.79679 19.3719 7.85677V8.09667C19.3719 8.15664 19.3719 8.21662 19.3119 8.21662C19.4319 8.27659 19.3719 8.27659 19.3119 8.27659Z" fill="black"/>
<path d="M1.07973 16.9128H0.47998L1.01976 17.1527L1.07973 16.9128Z" fill="black"/>
<path d="M1.01969 17.3327L0.359964 17.0928C0.299989 17.0928 0.240014 16.9729 0.299989 16.9129C0.359964 16.8529 0.359964 16.793 0.479914 16.793H1.07966C1.13964 16.793 1.13964 16.793 1.19961 16.8529V16.9129V17.1528C1.19961 17.2128 1.13964 17.2128 1.13964 17.2728C1.07966 17.3327 1.07966 17.3327 1.01969 17.3327Z" fill="black"/>
<path d="M0.23999 19.9716H0.83974L0.23999 19.7317V19.9716Z" fill="black"/>
<path d="M0.839734 20.0915H0.239984C0.180009 20.0915 0.180009 20.0915 0.120034 20.0316C0.120034 19.9716 0.0600586 19.9716 0.0600586 19.9116V19.6717C0.0600586 19.6117 0.120034 19.6117 0.120034 19.5518C0.180009 19.5518 0.239984 19.5518 0.239984 19.5518L0.839734 19.7917C0.899709 19.7917 0.959684 19.9116 0.899709 19.9716C0.839734 20.0316 0.899709 20.0915 0.839734 20.0915Z" fill="black"/>
</g>
<defs>
<clipPath id="clip0_326_2076">
<rect width="20.4515" height="23.99" fill="white"/>
</clipPath>
</defs>
</svg>
