<?xml version="1.0" encoding="utf-8"?>
<!-- Generator: Adobe Illustrator 24.0.2, SVG Export Plug-In . SVG Version: 6.00 Build 0)  -->
<svg version="1.1" id="圖層_1" xmlns="http://www.w3.org/2000/svg" xmlns:xlink="http://www.w3.org/1999/xlink" x="0px" y="0px"
	 viewBox="0 0 522 633" style="enable-background:new 0 0 522 633;" xml:space="preserve">
<style type="text/css">
	.st0{clip-path:url(#SVGID_2_);}
	.st1{fill:url(#SVGID_3_);}
	.st2{fill:url(#SVGID_4_);}
</style>
<g>
	<defs>
		
			<rect id="SVGID_1_" x="13.1" y="130" transform="matrix(0.5741 -0.8188 0.8188 0.5741 -167.6481 358.4562)" width="495.3" height="420.8"/>
	</defs>
	<clipPath id="SVGID_2_">
		<use xlink:href="#SVGID_1_"  style="overflow:visible;"/>
	</clipPath>
	<g class="st0">
		
			<radialGradient id="SVGID_3_" cx="-159.052" cy="614.5693" r="1.1465" gradientTransform="matrix(220.1393 154.3655 154.5624 -220.4201 -59733.2461 160088.125)" gradientUnits="userSpaceOnUse">
			<stop  offset="0.2967" style="stop-color:#CDB585"/>
			<stop  offset="1" style="stop-color:#91755D"/>
		</radialGradient>
		<path class="st1" d="M275.6,153.4c2.5,5.5,3.8,11.5,6.6,16.8c0.9,1.7,1.4,3.6,2.6,5.1c1.2,1.4,1.8,3.1,2.1,4.7
			c1.1,3.6,1.8,7.3,3,10.7c2.1,6.6,0.5,12.9-1.3,19c-2.7,8.6-8,16.2-12.5,23.9c-2.2,3.7-4.1,7.5-4.4,12.1c-0.3,4.1,1.1,8.1,1.1,12.1
			c0.1,1.8-0.1,3.7,0.9,5.4c-0.1,0.9,0.1,1.8,0.5,2.4c0.1,0.6,0.2,1.3,0.3,1.9c0.9,4.6,2.3,9.1,2.6,13.9l0.2,0l0.1,0.1
			c-0.6,1.1,0.1,2,0.3,3c0.5,1.7,0.9,3.5,1.5,5c3.2,8,7.3,15.8,8.6,24.6c-0.2,1,0.1,2,0.6,2.9c0.1,0.4,0.1,0.9,0.2,1.3
			c0.1,2.5,1.1,4.9,1.6,7.3c-0.1,0.9-0.1,1.8,0.4,2.6c0.1,1,0.3,1.9,0.4,2.9c0,1.3-0.1,2.8,0.3,4.1c-0.2,1-0.1,2,0.2,2.9
			c-0.2,0.8-0.3,1.7-0.1,2.6c0.1,0.4,0.2,0.9,0.1,1.4c0,0.6,0,1.1,0,1.5c0,0.6,0,1.1,0,1.7c-0.3,2.3-0.4,4.4-0.4,6.7
			c-0.5,2.1-0.4,4.3-0.5,6.4c-0.4,1.1-0.6,2.2-0.6,3.3c-0.3,0.7-0.4,1.4-0.3,2c-0.4,0.6-0.5,1.3-0.3,2c-0.1,0.9-0.1,1.8-0.2,2.7
			c-0.2,1.1-0.3,2.3-0.1,3.3c-0.2,0.6-0.3,1.3-0.2,1.9c0,0.6-0.2,1-0.3,1.7c-1,2.5-1.9,5.1-2.8,7.4c-0.2,0.3-0.4,0.6-0.9,0.5
			c0-0.8,0.4-1.6-0.1-2.3c0.3-0.9,0.6-2,0.5-3.1c0.1-0.3,0.1-0.7,0.2-1c0.5-1.5,0.7-3.1,0.4-4.6c0.2-2.7,0.4-5.4,0.7-8.2
			c0.3-2,0.1-3.9-0.4-5.9c0.1-0.5,0.1-0.9-0.2-1.3c-0.2-1.1-0.4-2.1-0.4-3.1c-0.1-2.3-0.4-4.6-0.9-6.8c-0.1-2-0.4-3.7-1.3-5.4
			c0-1.9-0.5-3.6-1.6-4.9c-0.7-1.2-0.4-2.9-1.7-3.7c0.3-0.9-0.1-1.8-0.7-2.5c-0.4-1-0.7-2.2-1.1-3.2c0.1-2-1.1-3.6-1.9-5.3
			c0-0.6-0.1-1.2-0.6-1.5c-0.8-1.5-0.5-3.6-1.5-5c-0.9-4.4-2.1-8.5-3.5-12.6c-1.1-7.5-2.2-15.1-3.3-22.6c0.4-1.1-0.3-1.9-0.3-2.8
			c0.1-0.9,0.1-1.8-0.8-2.8c-0.3,1.3-0.1,2.2,0,3.2c0.2,0.9,0.2,1.6,0.3,2.5c-0.4,7.8,0.3,15.6,1.7,23.2c0.8,3.9,1.9,7.7,3.1,11.6
			c0.3,1.7,0.6,3.4,1.3,5.1c0,0.8,0.2,1.6,0.7,2.2c0.6,1.8,1.3,3.5,1.9,5.3c-0.1,0.7,0.1,1.2,0.4,1.8c0.2,0.7,0.5,1.5,0.7,2.2
			c-0.1,0.7,0.1,1.2,0.6,1.5c0,1.3,0.8,2.3,1.5,3.5c0,0.2,0.2,0.3,0.2,0.5c1.2,2.5,1.4,5.3,2.4,7.9c0.2,0.9,0.3,1.7,0.5,2.6
			c0.1,0.6,0.2,1.3,0.3,1.9c0.2,1.3,0.4,2.6,0.6,4c-0.4,1.1,0.2,1.8,0.3,2.8c0.1,0.6,0.2,1.3,0.3,1.9c0.1,2,0.2,3.9,0.4,5.9
			c-1,4.9-0.1,10.1-1,15.1c-0.2,1-0.3,2-0.4,2.9c-0.9,2-2.6,3.8-2.7,6.2c-0.3,2-2.3,3.6-2.1,5.9c-0.6,1.4-1.3,2.9-2,4.2
			c-0.2,0.3-0.4,0.5-0.4,0.8c-1.5,2.1-2.6,4.5-3.7,6.8c-0.4,0.6-0.9,1.3-0.9,2.2c-0.1,0.1-0.2,0.3-0.3,0.4c-1.8,2.5-3.5,5-5.3,7.6
			c-2.1,1.9-5.1,2.8-6.9,5.1c-0.6,0.1-1,0.6-1.3,1.1c-0.2,0.3-0.2,0.6,0.2,0.7c0.3,0.2,0.6,0,0.7-0.2c1.4-1.2,2.9-2.5,4.6-3.6
			c3.1-1.8,6.6-3.3,9-6.1c0.3-0.2,0.5-0.4,0.4-0.6c1.1-1.3,1.7-2.7,2.4-4.3c0.6-1.1,1.2-2.2,1.7-3.2c1.9-2.6,3.5-5.3,5.7-7.6
			c1.9-1.9,3.5-4.1,4.3-6.7c1.1-2.1,3.2-3.6,3.1-6.1c0.1-0.3,0.1-0.7,0.2-1c1.5-2.7,2.4-5.6,2.8-8.8c0.9-1,1.5-2.1,1.4-3.6
			c0.1-0.7,0.2-1.4,0.2-1.9c1.3-1.9,0.8-4.3,1.2-6.5c0.8-1.9,0.6-3.9,0.7-5.7c0.5-1.5,0.5-3.2,0.4-4.8c0.4-2.7,0.9-5.4,1.4-8.2
			c0.1-0.1,0.2-0.3,0.2-0.3c1.1-2.1,2.1-4.1,3.2-6.2c0.5-0.8,1.2-1.4,1.2-2.5l-0.2,0c0,0,0.1,0.1,0.2,0c2-3.1,4.1-6.1,6.8-8.9
			c1.8-1.8,4.4-2.5,5.9-4.7c1.9-1.7,3.9-3.1,5.4-5.3c1.3-1,2.4-1.9,3.3-3.1c0.8-0.4,1.4-1.2,2-2c1.3-0.8,2.6-1.6,3.6-2.7
			c1.2-0.9,2.3-1.7,3.5-2.6c2.5-1.2,4.7-2.9,6.8-4.8c0.9-0.2,1.4-0.9,2.1-1.4l0-0.2c0,0,0,0,0,0.2c0.6-0.3,1.3-0.8,1.9-1.1
			c3.3-2,6.4-4.3,10-6c3.9-1.8,7.7-3.8,11.2-6.4c3.1-0.7,6.1-2,8.4-4.2c0.6-0.3,1.2-0.7,1.8-1c1,0.2,1.7-0.5,2.6-1
			c7.8-2.6,12.9-7.9,15.9-15.5c0.4-0.6,1-1.2,0.9-2c0.1-0.3,0.1-0.7,0.2-1.1c0.2-0.8,0.4-1.6,0.6-2.4c0.4-0.8,0.7-1.8,0.2-2.7
			c0-1.1,0.6-2.2,0.1-3.3c0.5-3.4,1.2-6.8,0.6-10.3c-0.3-2.8-0.5-5.6-0.9-8.6c0-1.1,0.1-2.2,0.1-3.3c0,0,0,0-0.1-0.1l0.1,0.1
			c0.7-2.7,1.2-5.4,1.2-8.2c0.1-0.3,0.1-0.7,0.1-0.9c0.1-1.4-0.1-2.7-0.4-4.2c0.4-2.9-0.8-5.5-1.7-8c0-1.3-0.2-2.6-0.7-3.9
			c-0.2-0.7-0.5-1.5-0.7-2.2c0-1.5-0.6-2.9-1.6-4.1c-0.5-2.4-2.1-4.3-3.8-5.8c-1-1.5-1.8-3-3.4-4c-1.5-1.6-1.6-3.9-2.9-5.4
			c-0.5-0.9-1-1.8-1.5-2.7c-0.1-1-0.1-2-0.2-2.9c0.1-0.5,0.2-1,0.3-1.5c0.4-0.6,0.5-1.3,0.4-2c0-0.2-0.1-0.4-0.1-0.6
			c0.8-2.8,0.6-6,2.1-8.7c1.6-2.1,1.4-4.4,1.4-6.9c0-0.2,0.1-0.3,0-0.6c0.2-1,0.1-2-0.3-3c0-0.2-0.1-0.4-0.1-0.6
			c0.6-1.9-0.4-3.7-0.6-5.5c-0.1-2.5,0.3-5-1-7.4c-0.6-2.3-1.6-4.3-2.7-6.4c-0.4-1.2-0.8-2.4-1.6-3.4c-0.7-1.6-1.5-3.1-2.3-4.8
			c-0.2-0.3-0.3-0.6-0.4-1c0.1-1.2-0.6-2.1-1.1-3.2c-0.2-1.1-0.6-2.1-1.2-3.1c-0.2-0.9-0.6-1.5-1.2-2c-1.4-1.7-2.7-3.6-4.6-4.9
			c-0.1-0.6-0.7-0.9-1.1-1.1c-2.4-1.9-5-3.9-7.4-5.8c-2.8-2.4-5.9-4.9-9.7-5.9c-0.3-0.2-0.4-0.3-0.6-0.4l-0.1,0.1c0,0,0,0-0.1-0.1
			l0.1-0.1c-0.6-1.3-2-0.9-3-1.3c-1.6-0.7-3.1-1.4-4.7-2.2c-1.4-1.2-3.2-1.7-4.9-1.8c0,0-0.1,0.1,0,0.2l0-0.2
			c-0.7-0.3-1.5-0.8-2.4-0.6c-0.9,0.3-1.4-1-2.5-0.8c-0.4-0.3-0.8-0.4-1.4-0.4c-2-0.4-3.5-1.7-5.6-1.7c-0.3-0.1-0.7-0.1-1-0.2
			c-0.5-0.4-1.1-0.2-1.7,0c-0.3-0.1-0.6,0.1-1,0.1c-0.7-0.1-1.3,0-2,0.1c-1.3-0.3-2.6-0.3-4,0c-1.8,0.4-3.6-0.8-5.5-0.3
			c-0.9-0.1-1.8-0.1-2.7-0.2c-0.8-0.4-1.6-0.2-2.4,0c-0.2,0-0.4,0.1-0.6,0.1c-1.1-0.4-1.9-0.8-3.1-0.5c-1.1-0.4-2.1,0-2.9,0.2
			c-0.3-0.1-0.7-0.1-1-0.2c-2.5-0.4-4.9-1.3-7.1-2.5c-1.3-0.8-2.7-1.2-4.3-1.3c-1.8-0.9-3.8-1.5-5.6-2.8c-4.3-3-9.3-4.9-14.2-6.8
			c-5.8-2.2-11.9-3.3-17.8-5.1c-1.6-1.1-3.3-1.4-5-0.1c-0.7-0.1-1.3,0-1.9,0.3c-1.4-0.1-3,0-4.1,1.1c-0.5,0.2-1,0.4-1.5,0.6
			c-2.6,0.8-5.5,1.2-7.7,3c-0.5,0.2-1,0.4-1.5,0.6c-0.3,0.2-0.6,0.3-0.9,0.5c-0.8,0-1.2,0.4-1.8,1c-2.1,1.9-4.6,3.1-6.2,5.6
			c-1.4,2.2-3,4.5-5.1,6.2c-0.6,0-0.8,0.6-1,1c-0.9,0.3-1.9,0.6-2.9,1c-3,0-5.9-1.2-9-0.1c-0.9-0.1-1.5,0.3-2.2,0.5
			c-5.3,2.3-10.2,5.7-15.4,8.6c-1.5,0.8-3.1,1.4-4.2,2.7c-0.2,0-0.3,0.2-0.4,0.3c-1.8,1.2-3.4,2.5-5.2,3.7c-0.2,0-0.3,0.2-0.3,0.2
			c-0.2,1.1-1.1,1.6-2,2.6c-1.9,0.8-3.1,2.3-4.5,3.8c-5.4,5-9.1,11.1-10.7,18.4c-0.8,3.6,0.2,6.9,0.4,10.2c-0.2,5.7,2,10.6,5,15.3
			c0.5,2.4,2.6,1.9,4.3,2.2c1.1,0.2,2.2-0.2,2.8-1c0.6-0.9,0.1-2-0.5-2.8c-1.3-1.6-2.8-3.3-4.1-4.9c0.1-2.6-0.4-5.3,0.7-8
			c0.3-0.4,0.5-0.8,0.7-1.2c1.9-2.6,3.2-5.4,5.3-7.9c2.9-3.3,5.9-6.2,10.3-7.2c3.5-0.9,6.9-2.3,10.4-3.6c4.8,1.7,9.4,1.3,13.7-1.9
			c1-0.6,2.2-1.1,3.2-1.5c1.4,0.1,2.9-0.2,4.2-1c2.3,0.1,4.6,0.2,6.9,0.3c1.8,1.1,3.7,2.2,5.5,3.3c4.2,2.4,8.2,4.8,12.9,6.2
			c2.5,0.8,4.9,1.9,7.1,3.3c3.4,2.2,6.9,3.5,10.6,4.6c1.2,1,2.5,1.6,4,1.8c3.6,0.8,6.8,2.1,10.1,3.5
			C270.7,145.2,273.5,148.7,275.6,153.4z M294.3,189.9c-0.8-3.4-1.5-6.9-1.9-10.4c-0.2-1.8-0.5-3.8-1.2-5.5
			c-0.8-2.1-1.1-4.3-1.2-6.5c-0.1-2.7-0.4-5.6-1.6-8.1l0.1,0.1c0.2,0.3,0.3,0.6,0.5,0.9c2.6,5.1,6.3,9.7,8.1,15.2
			c0.1,0.4,0.5,0.6,0.9,0.6c0.1,2.9,0.2,5.6,0.3,8.5c0,0,0,0,0.1,0.1c0,0-0.1-0.1-0.2,0c-0.9,0.7-0.7,1.8-1,2.7
			c-0.7,4.5-1,9.2-1.8,13.8C295.2,197.5,295.3,193.6,294.3,189.9z M295.1,202.4c0,0,0.1-0.1,0-0.2C295,202.3,295,202.3,295.1,202.4z
			 M285.7,281.1c0.1-0.7,0.2-1.4-0.6-1.9l0.2,0c0.7-1,2.5-12.1,2.2-13.9c-0.1-0.1,0-0.2-0.2-0.3c1.1-4.5,2.4-8.8,3.6-13.2
			c2.6-8.7,6-17.1,11.5-24.4c1.1-1.5,2-3.1,3-4.5c2.6-3.7,5.2-7.2,7.2-11.3c1.2-2.7,2.5-5.4,3.9-8.2c1.1,0.8,1.2,1.8,1.2,2.9
			c0,3-0.1,6-0.1,9c-0.1,0.1-0.2,0.3-0.1,0.5c-0.2,1-0.2,1.9,0.1,2.9c-0.3,0.9-0.5,1.7-0.1,2.8c-0.8,4.7-1.7,9.3-2.4,13.9
			c-0.4,1.4-1,2.8-1.5,4.2c-0.2,0.3-0.3,0.4-0.3,0.7c-0.4,0.6-1.1,1.3-1,2.3c-1,1.4-1.3,2.9-1.6,4.4c-2.4,5.1-4.5,10.2-6.1,15.4
			c-1.9,5.1-4.7,9.7-5.5,15.1c-0.5,1-1.1,2.1-1.2,3.3c-1,1.4-0.9,3.1-1.3,4.7c-0.5,1.2-0.7,2.3-0.6,3.5c-0.2,0.3-0.4,0.6-0.5,1
			c-1,4.9-1.1,9.9-1.6,14.9c-0.4,1.4-0.3,2.8-0.4,4.3c-0.5,1.2,0.1,2.7-0.7,4c-0.6-0.8-1-1.5-1.5-2.2c0,0,0.1-0.1,0.2,0
			c0.3-0.4,0.2-0.8,0-1.1c-1.6-3.6-2.4-7.5-3.4-11.4C286.4,292.4,284.8,287,285.7,281.1z M295.6,313c-0.1-0.1-0.2-0.3-0.3-0.4
			c0.2-1.4,0.4-2.7,0.3-4.1c0-1.1,0.1-2.2,0.2-3.2c0.8-6.2,1.6-12.4,2.4-18.6c0.1-0.1,0.2-0.3,0.3-0.4c0.5-0.8,0.8-1.5,0.6-2.4
			c-0.2-0.5,0.3-0.9,0.4-1.4c0.6-0.9,0.9-1.8,0.8-2.8c0.8-0.9,0.9-2.2,1.3-3.4c1.4-5.8,4.6-10.9,6-16.6c1.7-4.1,3.5-8.2,4.8-12.4
			c1-1.4,1.3-2.9,1.5-4.6c1.2-2.3,2.3-4.6,2.7-7.1c0.3-0.7,0.5-1.3,0.7-2.1c0.2-0.6,0.6-1.1,0.5-1.7c0,0.6,0,1.1,0.3,1.7
			c0.2,7.5,1,15-1.1,22.4c-0.5,0.8-0.7,1.6-0.6,2.4c-2.2,8.8-4.9,17.4-5.5,26.4c0,0.2,0.1,0.4,0.1,0.6c-0.7,3.7-0.5,7.4-2,10.8
			c-0.6,1.6-1.2,3.3-2,5c-0.8,1.5-1.7,2.9-2.2,4.7l0.2,0c0,0,0,0-0.1-0.1c-0.9,2.2-1.9,4.3-2.8,6.5c-0.1,0.1-0.2,0.3-0.1,0.5
			c-0.3,0.7-1.1,1.3-1.2,2.2c0,0,0,0-0.1,0.1c-2.7,2.5-2.2,6.1-3.4,8.9C296.1,320.3,296.1,316.7,295.6,313z M351.9,189.4
			c0-0.8,0.3-1.5-0.2-2.2c-0.1-0.1-0.1-0.1-0.3-0.2c0.1-2,0.1-3.9,0.3-5.8c0-0.8,0-1.5-0.1-2.3c0.1-0.5,0.1-0.9-0.2-1.3
			c-0.2-2.1,0.5-4.2-0.1-6.3c0.1-1.2,0-2.6-0.5-3.8c-0.2-1.3-0.2-2.6-0.9-3.8c0-0.6-0.2-1.1-0.2-1.6l0.1-0.1
			c0.6-1.1,0.6-2.2,0.4-3.5c0-0.2-0.2-0.3-0.2-0.5c0.2-1.1,0.5-2.3,0.2-3.5c0.1-0.1,0.2-0.3,0.2-0.3c0.3-0.9,0.7-1.8,0.8-2.8
			c0.2-1.4,0.8-2.8-0.3-4.1c0.4-1.1,0.3-2-0.2-2.9c1-0.6,1.2-1.4,0.5-2.3c0.2-0.8,0.4-1.6-0.5-2.2c0.1-0.3,0.2-0.8,0.2-1
			c-0.1-0.1-0.1-0.1-0.3-0.2c0.1-0.3,0.2-0.8,0.1-1.2c0.1-0.1,0.2-0.3,0.3-0.2c0.2-0.6,0.2-1.4-0.1-2c-0.1-0.1-0.3-0.4-0.3-0.6
			c-0.1-0.6,0-1.3-0.1-2c0.1-0.1,0.2-0.3,0.4-0.5c0.2-2.7,1.1-5.3,0.5-7.9c0.1-0.3,0-0.6,0.1-0.9c0.3-0.7,0.5-1.3,0.3-2
			c0.1-0.3,0.1-0.7,0.2-1c0.5-1,0.3-1.8-0.4-2.6c0.1-0.5,0.2-0.8-0.1-1.2c1-0.6,1.2-1.4,0.3-2.3c0.7,0.1,1.1,0.8,1.5,1.3
			c0.9,1.2,1.5,2.7,2.8,3.5c0.1,0.1,0.3,0.2,0.3,0.1c0.1,0.1,0,0.2,0,0.2c0.1,0.1,0.2,0.3,0.3,0.4c0.7,1.2,1.4,2.3,2.1,3.4
			c0,0.2-0.1,0.3,0.1,0.4c0.2,0.9,0.2,1.6,1.2,1.8c0,0,0,0-0.2,0c-0.4,0.8,0.1,1.4,0.4,2.1c0.9,2.5,2.1,4.8,2.7,7.4
			c0.1,0.6,0.1,1.4,1.1,1.7c-0.1,0.7,0,1.3,0.2,1.8c-0.7,3.1,0.2,6.1,0.7,9.1l0.1,0.1c-0.8,1.5-0.9,2.9,0.1,4.4l-0.2,0
			c-0.7,2.5-0.5,5.1-0.1,7.6c0,0,0.1,0.1,0.2,0c-1.2,1.2-1.1,2.6-0.8,4.1l0.1,0.1c-0.9,0.7-0.6,1.6-0.3,2.6c0,0,0,0,0.1,0.1
			c-0.1,0.1-0.1,0.1-0.2,0.3c-0.2,0-0.2,0-0.4,0.3c-0.2,0.3-0.4,0.5-0.4,0.8c-0.8,6.2-1.2,12.5-2.1,18.8c-0.1,0.3,0,0.8,0.2,1.1
			c0.1,0.1,0.2,0,0.3,0.1l-0.1,0.1c-0.6,0.3-0.5,0.8-0.5,1.2c-0.6,0.5-0.7,1,0,1.7c-0.1,0.1-0.1,0.1-0.2,0.3c0,0.2-0.1,0.3,0,0.6
			c-0.1,0.3-0.1,0.7-0.2,1c-0.1,0.1-0.4,0.3-0.5,0.4c-1.4,5-2.2,10.3-3.4,15.3c-0.3,0.9-0.8,1.9,0.1,2.9c-0.9,0.2-1.3,0.8-1.5,1.6
			c-1,3.3-2.5,6.2-3.7,9.3c-0.3,0.7-0.8,1.5-0.1,2.2c-0.2,0-0.5,0.2-0.6,0.3c-1.9,4.1-3.7,8.3-5.5,12.5c-0.3,0.7-0.6,1.6-1.2,2.2
			c0.5-1.2,0.4-2.5,0.1-3.7c0.1-0.1,0.2,0,0.3-0.2c0.5-0.4,0.5-1,0.5-1.5c0-6.4,2.1-12.6,3.1-18.9
			C349.6,206.6,351.2,198.1,351.9,189.4z M344.6,200.9c0.8-0.6,0.2-1.4,0.1-2c-1.1-5.4-3.6-10.4-5.7-15.4c-0.8-1.9-1.4-4-3.2-5.1
			c0,0-0.1-0.1-0.2,0c0-0.6-0.1-1-0.8-1c0.8-1.1-0.1-2-0.6-2.9c-2-3.6-3.4-7.5-6.8-10.1c0.1-0.1,0.2,0,0.3-0.2
			c0.1-0.7-0.1-1.2-0.3-1.7c-2.9-5.2-5.5-10.6-9.8-14.9c-0.3-0.2-0.3-0.4-0.5-0.6c0,0,0,0,0.1-0.1c0.2,0.3,0.4,0.5,0.7,0.9
			c3,2.9,5.6,6.4,9.3,8.6c0.1-0.1,0.2-0.3,0.3-0.4c-0.1,0.1,0,0.2-0.1,0.3c3.5,4.1,7.2,7.9,10.1,12.3c3.6,5.3,7.5,10.5,10,16.6
			c0.1,0.4,0.1,0.9,0.3,1.2c-0.1,1.4-0.2,2.7-0.3,4.1c-0.1,0.1-0.1,0.1-0.3,0.2c-0.8,0.9-0.6,2-0.8,3c-0.2,3.2-0.5,6.4-1.2,9.5
			c-0.1,0.1,0.2,0.5,0,0.6C345.2,202.7,345.2,201.6,344.6,200.9z M309.1,136.8c-0.2,0-0.2,0-0.4,0.1c0.2-1.9-1.3-2.6-2.5-3.4
			c-1.5-1.3-3.2-2.6-4.7-4c-3.1-3.1-6-6.1-9.1-9c-0.1-0.1-0.3-0.2-0.4-0.3c-0.1-1.2-1.2-1.8-1.8-2.8c-0.9-0.8-2.1-1.5-3.4-2.6
			c8,3.9,16,6.1,23.4,10c0.4,0.3,1,0.5,1.5-0.1l0.1-0.1c2.1,1.3,4.2,2.6,6.4,3.5c1.8,0.9,3.3,2.5,5.4,3c5.2,3.8,10.4,7.7,15.6,11.5
			c0,0.2,0.1,0.4,0.1,0.6c0.3,0.2,0.4,0.3,0.6,0.4c0,0,0,0-0.1,0.1c0.1,0.6,0.2,1.1,1,1.3c-0.6,1.1,0.3,1.9,0.8,2.6
			c1.3,1.9,2.3,3.9,2.7,6.2c0.7,3.3,1.9,6.4,2.4,9.7c0.1,0.6,0.1,1.2,0.9,1.4c0.4,2.7,0.7,5.4,1.1,8.1c-0.3,1.7-0.2,3.5,0.1,5.2
			c0,0.6,0,1.1,0,1.7c-0.2,0.3-0.4,0.6-0.9,0.5c-1.6-3.4-4.3-5.9-6.3-8.9c-3.6-5.9-8.3-10.7-12.8-15.7c-0.1-0.1-0.1-0.1-0.3-0.2
			c0.2,0,0.3-0.2,0.5-0.2c-0.1-1-0.9-1.6-1.5-2.2c-4.3-3.8-8.2-7.8-12.2-12C313.4,139.1,311.4,137.7,309.1,136.8z M286.1,111.7
			c-0.6-0.2-1.3-0.5-2-0.3c0,0.2-0.1,0.3-0.1,0.5c-0.1-0.1-0.1-0.1-0.3-0.2c-0.2-0.7-0.8-1-1.5-1.3c-5.7-2.5-11.8-4.3-17.6-6.5
			c-0.7-0.3-1.6-0.7-2.3,0.1c0.1-0.1,0-0.2-0.1-0.4c-0.8-0.7-1.9-0.8-3-1c-5.7-1.5-11.5-2.6-17.2-3.8c-5.6-1.1-11.3-2.1-17-2
			c0,0,0,0-0.2,0c0.1,0.1,0.2,0,0.2,0c6.4-0.8,12.7-1.2,19.2-1.2c2.4,0,4.9,0.5,7.3-0.3c0.1-0.1,0.1-0.1,0.2-0.3
			c0.1,0.1,0.1,0.1,0.3,0.2c0.1,0.1,0.3,0.1,0.5,0.1c0.1,0.1,0.2,0,0.3,0.1c0.2,0,0.3,0.1,0.6,0c0.1-0.1,0.2,0,0.3-0.2
			c0,0.2,0,0.2,0.1,0.4c1,0.9,2.5,0.8,3.7,0.9c5.9,0.4,11.8,1.1,17.7,2.6c0.7,0.1,1.4,0.4,1.9-0.3c0.5,0.7,1.2,1,1.8,1.1
			c5.2,1.2,10.1,3,15.1,4.7c0.6,0.2,1.4,0.6,2,0.3c0.1,0.1,0.1,0.1,0.3,0.2c8.8,3.7,18.2,6.7,26.2,12.2c0.4,0.3,1,0.5,1.6,0.2
			c0.1-0.1,0-0.2-0.1-0.4c0.1,0.1,0.1,0.1,0.3,0.2c0.3,0.2,0.4,0.3,0.6,0.4c0.4,0.8,0.9,1.6,1.6,2.3c0.2,0.3,0.3,0.4,0.5,0.7
			c0.4,0.8,0.8,1.9,1.5,2.4c2.3,5.2,5.6,9.7,9.4,13.9c0.3,0.6,0.7,1.1,0.9,1.7c0.4,1-0.4,0.6-0.8,0.6c-0.1-0.1-0.3-0.2-0.4-0.3
			c-1.8-1.2-3.6-2.7-5.4-3.8c-2.6-1.4-4.5-3.7-7.3-4.6c-0.3-0.2-0.5-0.4-0.8-0.5c-4.1-2.5-8-5.2-12.5-6.7c-0.1-0.1-0.3-0.2-0.5-0.1
			c0-0.2-0.2-0.3-0.3-0.4c-0.6-0.8-1.4-1.2-2.3-1.6C301.8,117.6,293.8,114.9,286.1,111.7z M349,125.9c-0.4,0.6-0.9,0.5-1.3,0.2
			c0-0.2-0.2-0.3-0.2-0.5c-0.3-1.4-0.8-2.6-1.7-3.7c-0.5-0.4-1-0.9-1.2-1.6c0-0.2-0.2-0.5-0.4-0.8c-0.1-0.1-0.1-0.1-0.3-0.2
			c0-0.6-0.3-0.9-0.6-1.3c0-0.2,0.1-0.3-0.1-0.4c-0.2-0.5-0.3-1.2-0.8-1.5c0.4-0.6,0.4-1.1-0.2-1.3c-0.1-0.9-0.4-1.8-1.4-2.1
			c0-0.2,0.1-0.3,0.1-0.3c-0.1-1.2-0.5-2.2-1-3.4c-0.6-1-1-2.4-2.4-2.4c0.2-0.8,0.2-1.6-0.6-1.8c-0.1-0.4-0.1-0.6-0.5-0.9
			c0.3-0.4,0.8-0.4,1.3,0c1.3,0.8,2.6,1.4,3.9,2.2c2.1,1.3,4.2,2.8,6.4,3.9c0,0.6,0,1.1,0.5,1.5c-0.7,1.2-0.1,2.3,0.4,3.5
			c0.1,0.1,0,0.2,0.2,0.3c0,0.6,0.1,1.2,0.3,1.7c0.1,0.4,0.2,0.9,0.2,1.3C349.2,121,349.5,123.5,349,125.9z M348.7,138.6
			c-0.2,1.4-0.3,2.8,0.2,4.1c0.1,0.6,0.1,1.4,0.1,2c-0.2,1.1-0.1,2.3,0.2,3.5c-0.3,1.5-0.5,3.1-0.7,4.4c-0.3-0.2-0.5-0.4-0.9-0.6
			c-0.8-1-1.1-2.2-1.6-3.4c-0.3-1.9-0.8-3.7-1.9-5.3c-0.1-0.6-0.3-1.4-1-1.8c-0.2-0.3-0.3-0.6-0.5-0.9c-0.5-1.5-1-2.8-2.3-3.9
			c-2.2-3-4.4-6.3-6.6-9.3c-1.9-4.7-6.5-12.6-7.2-13.3c-5.6-5.6-11.3-11.1-18.1-15.7c-0.4-0.3-0.9-0.3-0.8-1c3.1-0.1,6,0.1,8.9,0.2
			c0.9,0.1,1.9,0.2,2.5-0.7c0.9,0.1,1.8,0.3,2.5-0.1l0.1-0.1c4.8,1.1,8.5,3.9,12,7.3c0.6,1,1.1,2.1,1.8,3.1
			c-0.1,0.5,0.3,0.6,0.6,0.8c1.7,2.1,2.3,5,3.9,7.3c0.1,0.1,0,0.2,0.2,0.3c0,0.6,0.3,1.2,0.7,1.6c-0.2,0.8,0.3,1.5,0.7,2.2
			c-0.1,0.3,0.1,0.6,0.5,0.9c0.1,0.6,0.6,1.3,1,1.8c0.3,0.9,0.9,1.9,1.6,2.6c0.3,1.5,1.5,2.7,2.2,4c0.4,1.6,0.8,3.2,1,4.7
			C348.5,135.1,348.6,136.9,348.7,138.6z M308,95.8c0,0,0.1,0.1,0,0.2C308,96,308,96,308,95.8C307.9,95.9,307.9,95.9,308,95.8z
			 M355.4,109.7c-0.1,0.5-0.1,0.9,0,1.3c-0.3-0.4-0.7-0.7-0.8-1C354.7,110,355,109.8,355.4,109.7z M333,102.1
			c-0.1,0.1-0.2,0-0.4,0.1C332.8,102.1,332.8,102.1,333,102.1z M377.1,183.9c-0.1,0.5-0.2,1-0.3,1.5c-0.2,0.3-0.4,0.5-0.6,0.9
			c-0.4,0.5-0.5,1,0,1.5c-0.4,0.8-0.7,1.8-0.7,2.7c-1.5,4.6-3,9.1-4.5,13.6c-2.5,6.5-6,12.5-9.7,18.6c-3.4,4.8-6.7,9.6-10.1,14.4
			c-1.1,1.5-2.5,3-2.9,4.9c-0.8,1.1-1.6,2.3-2.3,3.3c-0.4,0.5-0.7,1-1,1.4c-0.2-0.3-0.3-0.6-0.5-0.9c2.3-4,4.8-8.1,6.1-12.7
			c0.5-1,1.5-1.6,1.5-2.9c0.5-1.3,1.1-2.6,1.6-3.9l-0.1-0.1c0,0,0,0,0.1,0.1c1.1-2.6,2.2-5.2,3.3-7.9c1.7-3.2,3.2-6.4,4.6-9.7
			c2.5-3.3,4.4-7.1,6.4-10.7c0.1-0.1,0.1-0.1,0.2-0.3c0.8-0.6,1.1-1.5,1.6-2.3c0.2-0.3,0.1-0.5,0.3-0.7c0.3-0.9,0.9-1.6,1.6-2.5
			c1.2-2,2.5-4.1,3.3-6.3c0-0.6,0.2-1,0.3-1.5c0.5-1,0.9-1.8,1.4-2.8c0.2,0,0.4-0.3,0.6-0.3l0,0.2c-0.2,0.3-0.3,0.7-0.4,1.1
			C377.1,183.2,377.2,183.6,377.1,183.9z M380,233.1l0,0.2c-0.1-0.1-0.3-0.2-0.4-0.3c-0.2,0-0.4,0.3-0.5,0.4
			c-1.8,5.5-3.3,11.1-5,16.6c-1.2,3.6-3.6,6.7-6.1,9.5c-0.7,0.7-1.4,1.5-1.6,2.5c-0.2,0.3-0.4,0.5-0.4,0.6c-0.5,0.2-0.7,0.8-1.1,1.1
			c-0.7,0.8-1.2,1.8-2,2.6c-0.2,0.3-0.4,0.3-0.6,0.5c-0.9,1.3-1.9,2.6-3.4,3.2c-0.8,0.4-1.5,0.8-2.1,1.4c-0.3,0.4-0.6,0.5-0.8,0.9
			c-0.1,0.1-0.3,0.2-0.4,0.3c-0.1,0.1-0.3,0.2-0.6,0.3c-0.2,0-0.3,0.2-0.5,0.4c-0.1,0.1-0.3,0.2-0.3,0.2c-0.3,0.2-0.5,0.2-0.7,0.5
			c-0.3,0.2-0.4,0.3-0.7,0.5c-0.2,0-0.3,0.2-0.5,0.4c-0.1,0.1-0.3,0.2-0.4,0.3c-0.9,0.5-1.7,1.1-2.5,1.6c-0.1-0.1-0.3-0.1-0.6,0
			c-1.2,0.4-2.7,0.4-3.2,1.9c-0.3-0.2-0.6-0.2-0.9-0.1c-0.3,0.2-0.5,0.4-0.7,0.5c-0.5,0.2-1.2,0.3-1.5,0.6c-0.2,0-0.3,0.2-0.4,0.1
			c-0.2,0-0.4,0.1-0.5,0.2c-0.2,0-0.3,0.2-0.6,0.3c-0.9,0.3-2,0.7-3,1.3c-0.5,0.2-0.9,0.3-1.5,0.3c-2.6,0.8-4.8,2.5-7.2,3.6
			c-6.6,3-12.3,7.1-16.1,13.5c-1.5,2.1-2.8,4.2-4.5,6.2c-0.2,0.3-0.4,0.5-0.3,0.7c0-0.2-0.3-0.4-0.5-0.6c0.4-0.8,0.7-1.6,1.1-2.4
			c0.2,0,0.3,0.1,0.4-0.1c0.9-1,1.8-2.1,1.4-3.6c0.1-0.1,0.1-0.5,0.1-0.7c0.2,0,0.3,0.1,0.6-0.1c1.4-1.2,2.4-2.8,3.3-4.4
			c6-10.1,13.1-19.2,22.5-26.3c0.9-0.7,1.8-1.2,2.1-2.3c0.1-0.3,0-0.6,0-0.8c0,0,0,0,0.1,0.1l0.2,0c0.1-0.1,0.2,0,0.3-0.2
			c0.3-0.2,0.6-0.3,0.8-0.6c0.3-0.2,0.4-0.3,0.8-0.4c0.2,0,0.3-0.2,0.6-0.3c0.3-0.2,0.5-0.4,0.7-0.5c1.1-0.5,2.1-1.4,3-2.2
			c0.3-0.2,0.6-0.3,0.9-0.5c0.2,0,0.3-0.2,0.5-0.4c0.1-0.1,0.4-0.3,0.5-0.4c0.3-0.2,0.5-0.4,0.8-0.6c0.3-0.2,0.4-0.3,0.7-0.5
			c0.2,0,0.3-0.2,0.5-0.4c0.1-0.1,0.2-0.3,0.4-0.3c0.3-0.2,0.6-0.3,0.8-0.6c0.3-0.2,0.6-0.3,1-0.4c0.7-0.2,1.3-0.8,1.8-1.2
			c0.2-0.3,0.5-0.4,0.7-0.7c1.4-0.7,2.7-1.7,3.7-2.9l0.1-0.1l0,0.2c1.4,0.2,1.9-0.9,2.8-1.6c6.2-6,11.4-12.8,16.6-19.7
			c0.8-1.1,1.6-2.3,2.8-3.1C380.3,229.2,379,231,380,233.1z M296.9,340C297,340.2,296.9,340.1,296.9,340z M304,309.3
			C303.9,309.4,303.9,309.4,304,309.3z M274.6,406.4c-0.1,0.1-0.2,0.3-0.3,0.2c-0.1-0.1-0.3-0.2-0.3-0.2
			C274.1,406.5,274.4,406.5,274.6,406.4z M391.4,264.8C391.5,264.6,391.5,264.6,391.4,264.8z M380,276.9c0.1,0.1,0.1,0.1,0.3,0.2
			c-0.2,0-0.2,0-0.3-0.1C380,276.9,380,276.9,380,276.9z M395.4,214.4c-0.1-0.1-0.4-0.3-0.5-0.4
			C395.2,214.1,395.2,214.3,395.4,214.4z M389,214.4c0,1.1,0.1,2.3,0.8,3.2c0.1,0.1,0.3,0.1,0.3,0.1s-0.1,0.1-0.2,0
			c-0.1-0.1-0.3-0.1-0.2,0c-0.6,0.5-0.5,1.3-0.3,2c0.3,0.4,0.4,0.8,0.5,1.1c0,0.6,0.1,1,0,1.5c-0.1,0.1-0.1,0.3-0.1,0.5
			c-0.1,0.1,0,0.2,0.1,0.4c-1.1,0.7-1.1,1.9-0.6,3c0,0,0.1,0.1,0.2,0c-0.6,1.1-0.8,2.2-0.7,3.4c-0.1,0.3-0.1,0.7,0,1.1
			c-0.3,0.4-0.1,0.9,0.1,1.2c-0.2,0.8-0.5,1.7-0.2,2.7c0,0,0,0,0.1,0.1c0,0-0.1-0.1-0.2,0c-1,1.7-0.4,3.5,0.3,5.3
			c0.1,0.1,0.1,0.1,0.3,0.2c-0.1,0.7,0.1,1.2,0.4,1.8c-0.2,0.8,0.3,1.5,0.7,2.2c-0.1,0.1-0.1,0.3,0.1,0.4c0.4,0.8,0.3,1.5,0.1,2.3
			c0.1,1.8-0.2,3.5,0.8,5.1c0.1,0.1,0.1,0.1,0.3,0.2c0,0.8,0.3,1.5,0.4,2.4c0,0-0.1,0.1,0,0.2c-0.1,0.1-0.3,0.2-0.4,0.5
			c-0.3,2.6-0.9,5.2-0.7,7.7l0.1,0.1c-1.3,2.1-1.4,4.7-3.5,6.4c-1.3,1-2.2,2.4-3.5,3.6c-0.6,0.3-1.3,0.6-1.9,0.9
			c-0.6,0.1-0.8,0.6-1,1c-0.2,0-0.2,0-0.2,0.3c-2,0.1-3.7,0.4-4.5,2.5l-0.1,0.1c-0.1-0.1,0-0.2-0.2-0.3c-0.3-0.1-0.9,0.2-1,0.4
			c-1.9,2.8-4.9,4.1-7.6,6c-0.6,0.5-0.9,1-1.7,1.3c-0.2,0-0.3,0.2-0.6,0.3l-0.1,0.1c-0.4,0.1-0.9,0.2-1.2,0.3
			c-0.1-0.1-0.3-0.1-0.6,0c-1.4,0.1-2.8,0.5-4,1.1c-3.1,1.8-6.6,2.9-9.9,3.7c-3.4,0.8-6.5,2.6-9.2,4.6c-1.2-0.7-1.9-0.2-2.4,1
			l-0.2,0c-0.6,0-1.1,0.2-1.6,0.4c-0.1-0.1-0.3-0.1-0.5-0.1c-0.9-0.1-1.7,0.3-2.4,1c-0.1,0.1-0.2,0.3-0.2,0.3
			c-0.8,0.4-1.6,0.9-2.4,1.5c-2.9,2.1-5.4,4.7-7.8,7.3c-0.6,0.3-1,0.8-1.4,1.5c-0.5,0.4-1,1-1.4,1.5c-1.6,1.2-2.9,2.5-3.8,4.1
			c-1.7,1.8-3.5,3.6-4.6,5.8c0,0,0,0-0.1,0.1c-0.3-0.1-0.5-0.1-0.7-0.3c-2.2,1.8-4.4,3.7-6.5,5.8c-1.5,1.6-2.9,3-3.5,5.3
			c0.2,0.3,0.2,0.5,0.4,0.5c-0.4,0.6-0.9,1.3-1.2,1.8l-0.2,0c-1.1,0.7-1.3,1.9-1.8,2.9c0.1-0.9,0-1.7-0.1-2.5c0-0.2-0.1-0.4-0.2-0.5
			c0.2-1,0.3-2,0.5-3.1c0,0,0.1,0.1,0.2,0c0.2,0,0.4-0.3,0.5-0.4c2.3-4,3.6-8.6,5.6-12.8c0.1-0.5,0.2-0.8,0.3-1.3
			c3.4-5.3,7.7-10.2,11.3-15.4c1.5-1.8,2.9-3.6,4.4-5.4c1.2-0.9,2.3-2,3.6-2.7c5.8-3.7,12-6.6,17.9-9.8c1.2-0.1,2.2-0.5,3.1-1.2
			c0.4-0.3,0.8-0.6,1.2-0.7c1.9,0.6,2.8-1.4,4.3-1.6c0.9,0.1,1.6-0.6,2-1.2c1.9-0.8,3.4-1.9,5.1-3.2c1.8-0.6,3.1-1.8,4.4-3.1
			c0.6-0.1,0.9-0.5,1.3-1c2.7-3.4,5.5-6.8,8.1-10.3c1.2-1.8,2.9-3.3,3.4-5.3c4-6.6,5.4-14.1,7.3-21.4c0.9-3.7,2.1-7.3,2.6-10.9
			c0.8-1.9,1.2-3.9,1.1-5.8c-0.2-0.9,0.9-1.6,0.6-2.4c0.4-0.6,0.3-1.3,0.1-2c0.1-0.1,0.2-0.3,0.3-0.4c0.1-0.3,0-0.6,0.1-0.9
			c0.1-0.5,0.3-0.9,0.2-1.4c0.1-0.1,0.1-0.5,0.2-0.6c0-0.2,0.3-0.4,0.3-0.2l0.1,0.1c0,0,0,0,0,0.2
			C388.4,209.9,388.9,212.1,389,214.4z M384.5,205.3c-0.5,2.6-1.1,5.1-1.1,7.7c-0.4,1.6-0.8,3.2-1.1,4.8c-0.5,1.2-1.4,2.2-1.4,3.6
			c-0.4,0.6-1,1.2-0.9,2.2c-0.9,1-1.8,2.1-2.6,3.2c-4,5.2-8.1,10.5-12.1,15.7c-2.5,2.2-4.5,4.8-6.7,7.1c-1.6,1.2-3.1,2.3-4.7,3.5
			c-0.9,0.2-1.6,0.6-2.1,1.4c-1.3,0.6-2.6,1.3-3.5,2.6c-1.1,0.2-1.7,1.1-2.5,1.6c-0.6,0-0.8,0.6-1,1c-0.9,0.2-1.6,0.6-2.1,1.4
			c-4.4,2-7.6,5.8-11.7,8.1c4.6-6.3,8.8-13,13.4-19.4c0.9-0.5,1.4-1.2,2-2c4.9-6.9,9.8-13.8,14.6-20.8c1.8-2.5,3.5-5.3,4.7-8
			c2.8-4.6,5.3-9.2,6.7-14.4c1.7-4.1,3.1-8.4,4.3-12.6c0.5-0.8,0.7-1.6,0.6-2.4c0.4-0.5,0.7-1.2,1.3-0.6l0.1,0.1l-0.2,0
			c-0.4,2,1.3,2.8,2.2,4.1c0.2,0.3,0.4,0.5,0.6,0.8c0.2,0.7,0.7,1.4,1.1,2.1c-0.3,0.9,0.3,1.7,0.5,2.4c0.9,1.7,1.4,3.6,1.6,5.5
			C384.6,204.4,384.4,204.8,384.5,205.3z M379.1,158.3c-0.2,1.4-0.8,2.8,0.3,4.1c-0.1-0.1-0.2,0-0.3,0.2c-0.4,0.3-0.5,0.8-0.7,1.2
			c-1,6.2-3.5,12-5.8,17.7c-0.2,0.6-0.5,1.2-0.1,1.8l0.1,0.1c-0.2,0.3-0.4,0.6-0.6,0.9c-0.1,0.1-0.2,0.3-0.3,0.4
			c-0.4,0.8-1.4,1.5-1.2,2.5c-0.4,0.6-1,1.2-0.9,2.2c-0.5,1-1.5,1.6-1.5,2.9c-2.2,2.9-3.2,6.8-5.6,9.6c-1,0.8-1.1,2.4-2.5,2.8
			c1-4,1.9-7.8,2.2-12c0.1-0.3,0.1-0.7,0.2-1c0.4-0.6,0.5-1.3,0.4-2.2c0.1-0.7,0.2-1.4,0.2-1.9c0.2-0.6,0.2-1.1,0.5-1.7
			c0.8-6,1.6-12.2,2.4-18.2c0.2-0.6,0.5-1.3,0.1-2c0.1-0.3,0.1-0.7,0.2-1c0.5-1,0.6-2,0.5-3.1c0.1-0.3,0.1-0.7,0.2-1
			c0.4-2.4,0.6-4.8,0.2-7.2c0.3-0.9,0.3-1.7,0.1-2.6c-0.1-0.4-0.2-0.9-0.2-1.3c0-1.1,0.1-2.2,0.1-3.3c0.5-1.3,0-2.4-0.3-3.6
			c0-1.7-0.1-3.3-0.5-4.9c-0.1-0.6-0.2-1.3-0.3-1.9c-0.4-3.1-1.5-5.9-2.9-8.8c-0.2-0.5-0.4-1-0.6-1.5c-0.3-1.2-0.8-2.4-1.6-3.4
			c-0.5-1.5-2.1-2.4-2.5-4c0-1.1-1.4-1.7-1.5-2.9c0.6,0,0.9,0.1,1.2,0.1c0.9,0.8,1.7,1.6,2.6,2.4c2,2,3.9,4.1,5.9,6
			c-0.1,0.1-0.1,0.3-0.1,0.5c1.7,2.1,2.7,4.7,4.7,6.7c0,0,0,0,0.2,0c-0.1,0.5,0,0.8,0.3,1.2c1.2,3.7,2.6,6.9,4.7,10.1
			c0.2,2.9,0.8,5.8,2.6,8.4c-0.3,2.6-0.1,5.2-0.1,7.8C378.9,158.1,379,158.2,379.1,158.3z M245.4,79c3.4-1,6.8-0.9,9.9,0
			c3.4,1.1,6.7,1.9,10.2,2.6c1.8,0.3,3.5,0.9,5.2,1.7c3.4,1.8,7.1,2.7,10.8,3.8c0.2,0.3,0.5,0.6,0.8,0.7c3.6,1.8,7.1,3.8,11,5.1
			c3.4,1.1,6.8,2.1,9.4,4.7c1.7,1.6,3.6,3.1,6,3.8l0.2,0c1.7,1.9,3.8,2.9,5.6,4.5c0.6,1.5,2.6,2,3.4,3.5c-0.1,0.3,0.9,0.8-0.2,1
			c-7-3.2-14.1-5.8-21.5-7.9c-6-2.5-12-4.5-18.5-5.7c-7.7-2.2-15.5-2.8-23.5-3.5c-0.6-0.4-1.4-0.2-2-0.1c-7.1-0.6-14.2-0.6-21.4,0.2
			c-4.9,0.5-9.6,1.7-14.6,1.8c0.1-0.3,0.2-0.6,0.4-0.8c1-0.8,1.9-1.9,2.7-2.8c1.6-1.5,3.1-3.1,4.7-4.6c0.5-0.2,0.9-0.5,1.1-1.1
			c0.2-0.3,0.5-0.4,0.7-0.7c0.1,0.1,0.3,0.1,0.3,0.1c4.8-1.7,9.3-3.8,14.1-5.4c0.2,0,0.4-0.3,0.5-0.4c0,0,0.2,0,0.3,0.1
			C242.6,80.1,244,79.5,245.4,79z M242,72.1C242.1,72.2,242.1,72.2,242,72.1c-0.1,0.1-0.2,0.3-0.3,0.4
			C241.7,72.5,241.8,72.4,242,72.1z M221.9,113.4c-0.6-0.4-1.4-1-2.4-0.4c0,0,0.1,0.1,0,0.2l-0.1-0.1c-0.3-0.9-1.1-1.1-1.8-1.2
			c-4.6-0.6-9.2-0.3-13.2,2.8c-2,1.4-3.7,3.1-5.5,4.6c-1.7,1.4-3.5,1.8-5.8,1c-2.2-0.8-4.5-0.7-6.5,1c-0.4-0.5-1-0.5-1.4-0.4
			c-6.5,0.1-12.5,2.1-18,5.4c-3.2,1.9-6.2,4.1-7.8,7.9c-0.5,1.3-1.2,2.5-2.3,3.6c0.4-2.9,1.5-5.7,3.1-8.4c0.8-1.3,1.8-2.5,2.4-4
			c1.9-4.6,5.6-7.9,9.1-11.3c0.3-0.4,0.5-0.8,0.9-1c1.1-0.5,2.2-1.1,3.4-1.6c0.4,0.5,0.9,0.3,1.4,0.1c1.8-1,3.7-1.8,5.5-2.5
			c4.4-2,8.4-4.8,13.4-5.5c1.2-0.1,2.4-0.5,3.2-1.7c0.3,0.4,0.7,0.3,1.3,0.3c4.8-0.4,9.2-2.2,13.9-3.2c0,0,0,0,0.1-0.1
			c2.1,0,4.2,0.1,6.2,0c8.4-0.5,16.7,0.8,25,2.7c5.5,1.2,11.1,2.9,16.8,3.7c3.2,1.1,6.3,2.3,9.5,3.3c1.9,0.6,2.8,2.5,4.8,2.6
			c4.7,3.3,9.5,6.3,13.6,10.3c0.6,1.3,1.7,2.3,2.7,3.4c5.3,5.6,11.6,10.2,17,15.9c5.8,7.8,11.9,15.5,16.1,24.4
			c2.2,3.8,4.4,7.6,6.6,11.4c0.5,0.9,0.8,1.9,1.6,2.6c1.1,3,2.7,5.8,4,8.8c1.8,4.6,3.5,9.2,5,13.8c0,0.2,0.1,0.4,0.1,0.6
			c0,0.8,0.2,1.6,0.7,2.2c0.2,0.9,0.3,1.7,0.3,2.5c0.2,1.8,1.2,3.7,0.8,5.6c-0.6,2.2-0.8,4.3-1.1,6.4c-1.7,5.4-2.1,10.7-2.4,16.3
			c-0.8,1.3-0.7,2.7-0.5,4c-0.5,2.1-0.3,4.1-0.1,6.3c-0.6,1.7-1.1,3.4-1.6,4.9c-0.6,1.1-1.8,2-1.7,3.3c-0.1,0.1-0.2,0.3-0.3,0.4
			c-0.9,1-1.7,2.2-2,3.7c-1.6,1.2-2.1,3-2.8,4.8c-0.1,0.1-0.2,0.3-0.3,0.4c-0.4,0.8-1.3,1.5-1.2,2.5c-0.8,1.3-2,2.3-2.3,4
			c-1.1,1.5-2.1,3-3.2,4.5c-0.9,0.2-1.1,0.7-1.5,1.4c-2.5,3.5-5.1,7-7.5,10.7c-1,1.4-2.2,2.6-2.6,4.2c-0.8,0.9-0.7-0.3-1.2-0.5
			c1.1-1.5-0.4-3.1,0.3-4.7c1-4.6,0.9-9.3,2.1-13.9c0.4-2,1.3-3.8,1.1-5.8c0.7-1.6,1.1-3.2,1.1-4.8c0.5-1.5,0.1-3.1,0.9-4.5
			c0.5-0.8,0.9-1.8,0.8-2.8c0.1-0.3,0.1-0.7,0.2-1c0.2-0.6,0.5-1.2,0.5-1.7c1.1-10.3-0.7-20.6,0.2-31c0.2-0.6,0.4-1.4,0.1-2
			c0-0.2-0.1-0.4,0-0.8c0.3-0.7,0.5-1.3,0.3-2c0-0.2-0.2-0.3-0.3-0.4c0.1-0.1,0.2-0.3,0.2-0.3c1-3.3,0.4-6.7,0.9-10.1
			c0.7-4.8,1.4-9.5,0.3-14.3c-0.2-0.7-0.3-1.5-0.1-2.3c1.2-6.8-0.4-13.1-3.4-19.3c0-0.2,0-0.2-0.2-0.3c-2.3-5.3-5-10.3-9.1-14.6
			c-4.2-4.2-8.2-8.4-12.4-12.5c-2.8-2.7-5.2-5.9-9.3-6.7c-1.8-0.3-3.8-0.8-5.6-1.1c-0.5-0.4-1.1-0.8-1.8-0.7
			c-0.1,0.1-0.1,0.1-0.3,0.2c0-0.2,0.1-0.3,0-0.6c-0.8-0.7-1.8-1.1-2.9-1.3c-5-0.9-9.4-3.2-13.9-5.4c-4.5-2.2-8.9-3.6-13.7-4.3
			C239.7,119.5,230.2,118.3,221.9,113.4z M242.3,126.3c3.2,0.5,6.3,0.4,9.3,0.3c2.3-0.1,4.7-0.1,6.8,1c4,2.1,8.3,3.7,12.4,5.3
			c3.3,1.4,6.8,2.5,10.5,2.7c0.1-0.1,0.1-0.1,0.1-0.3c1.5,0.8,3.1,0.9,4.8,1.1c2.5,0.8,4.4,2.3,6,4.2c2.6,2.7,5.4,5.1,8,7.9
			c3.1,3.3,6.6,6.3,9.1,10.5c1.7,2.9,2.6,6.2,4.7,8.8c0.4,1.2,0.9,2.5,1.4,3.8c1.8,5,2.9,9.8,2.1,15.2c-0.6,3.5-2,6.9-2.3,10.4
			c-0.2,0.3-0.4,0.6-0.5,1c-2.7,8.4-6.6,16.1-11.7,23.1c-2.2,3.1-4.4,6.3-6.4,9.6c-3.2,5.6-5.7,11.6-7.3,18c-1,3.8-2.2,7.5-3.2,11.3
			c-0.2,0-0.4,0.3-0.6,0.5c-1.3,3.2-1.1,6.9-2.6,10.2c-0.4-1.4-0.4-2.7-1-3.9c-0.1-0.1-0.1-0.1-0.2-0.3c0.3-1.5,0.4-2.9-0.1-4.4
			c0.2-0.3,0-0.6,0-0.8c0.7-1.6,0.5-2.8-0.8-3.9c0.1-0.7,0.2-1.4,0.3-2c0.1,0.1,0.2,0,0.4-0.1c1.5-4.8,3.8-9.4,4.8-14.3
			c0.7-4,1.5-8,4-11.3c1.5-2.1,2.8-4.6,3.4-7.2c0.9-3.9,1.9-7.8,2-11.9c0.1-0.9,0-1.7,0.4-2.5c2.7-5.4,3.1-11.4,3.6-17.2
			c0.2-1.9,1-3.8,0.4-5.9c-0.1-0.1-0.3-0.2-0.4-0.3c0-1.1,0.3-2,0.5-3.1c0.3-6.6-1.6-12.4-5.7-17.5c-0.1-0.1-0.3-0.2-0.4-0.3
			c0.2,0,0.4-0.1,0.7-0.2c0-0.6-0.2-1.1-0.5-1.5c-3.8-6.4-8.8-11.6-14.1-16.6c-3.5-3.4-7.5-5.3-11.7-7.4c-1.8-0.9-3.3-2.5-5.4-2.7
			c-0.1,0.1-0.3,0.4-0.4,0.5c0,0-0.1-0.1,0-0.2c-0.3-1.2-1.2-1.6-2.1-1.8c-4-0.9-7.6-3.3-11.6-4.4
			C246.5,129.4,244.6,127.8,242.3,126.3z"/>
		
			<radialGradient id="SVGID_4_" cx="-159.052" cy="614.5693" r="1.1465" gradientTransform="matrix(220.1393 154.3655 154.5624 -220.4201 -59733.2461 160088.125)" gradientUnits="userSpaceOnUse">
			<stop  offset="0.2967" style="stop-color:#CDB585"/>
			<stop  offset="1" style="stop-color:#91755D"/>
		</radialGradient>
		<path class="st2" d="M413.7,477.5c3.1-1.8,6.1-3.8,8.8-6.2c0.4-0.3,0.8-0.6,1.1-0.7c1.6-0.7,3.2-1.7,4.4-3.1
			c0.4-0.3,0.7-0.8,1-1.2c2.2-2.4,4.1-4.8,5.3-7.9c0.9-1.3,1.9-2.6,1.9-4.3c0.7-1,1-2.3,1.2-3.6c1.1-3.2,3.3-6,4.7-9.1
			c1.2-1.8,2.5-3.5,3.7-5.3c0.1-0.1,0.3-0.2,0.2-0.3c2.4-2.3,4.4-5,5.7-8.1c0.1-0.1,0.2-0.3,0.1-0.5c1.5-2.4,2-5,2.6-7.7
			c0.4-0.8,0.8-1.7,0.8-2.8c0.5-2.1,1.1-4.3,1.2-6.5c0.1-0.3,0.1-0.7,0.2-1c0.6-1.9,1.5-3.7,1.7-5.6c0.6-0.9,0.9-1.8,0.9-2.9
			c0.2-0.3,0.1-0.5,0.3-0.7c0.6-1.6,1.2-3.3,1.9-4.9c0.9-1,1.2-2.3,1.4-3.6c0.5-0.8,0.8-1.7,1-2.7c0.3-0.9,0.6-1.9,0.8-2.8l-0.2,0
			c0,0,0.1,0.1,0.2,0c0.9-2,0.7-4,0.2-5.9c0.4-0.5,0.2-1.1,0-1.7c0.2-3-0.4-5.9-1.8-8.6c0-0.6-0.2-1.1-0.6-1.6
			c-0.1-0.9-0.8-1.5-1.4-2.1c-0.2-0.3-0.3-0.6-0.5-0.9c-0.3-0.9-0.8-1.5-1.4-2.1c-1.6-1.7-2.6-4.1-4.6-5.5c-1.9-2.4-3.7-4.9-5.6-7.3
			c-0.2-0.5-0.4-1-0.6-1.5c-0.4-1.4-0.8-2.8-1.7-4c-0.4-1-0.8-2.1-1-3.1c0-0.6-0.1-1.2-0.1-1.8c0.1-1.4-0.1-2.9-1.1-4.1
			c0-0.2-0.1-0.4-0.1-0.6c0.1-2.6-0.9-4.9-1.6-7.3c-2.4-7-7.3-11.7-14.2-14.3c-2.1-0.7-4.3-2.1-6.9-1.7c-1-0.5-2-0.9-3.1-0.5
			c-1.6-0.7-3.3-0.8-5-0.7c-1.9-0.6-3.7-0.3-5.6,0c-0.9-0.1-1.7-0.3-2.7-0.4c-2.7-0.4-5.5-1.2-8.3-0.5c-0.6,0-1.1,0-1.7,0
			c-0.4,0.1-0.9,0.2-1.2,0.1c-0.6,0.1-1.3,0.2-1.9,0.3c-0.2,0-0.4,0.1-0.6,0.1c-1.9,0.3-3.9,0.7-5.8,1c-0.2,0-0.4,0.1-0.6,0
			c-0.8-0.2-1.6-0.2-2.4,0.2c-1.7-0.3-3.4-0.5-5.1-0.8c-2.7-0.4-5.5-0.5-8.3-0.2c-0.6,0.1-1.3,0.2-1.9,0.3c-1.8,0.1-3.3,1.2-5.1,0.9
			c-0.2,0-0.4,0.1-0.6,0.1c-0.9,0.2-1.7,0.3-2.6,0.5c-1.4-0.2-2.6,0.2-4,0.6c-0.9-0.3-1.5,0.6-2.6,0.5c-1-0.2-2,0.7-3,0.7
			c-2.4,0-4.7,0.8-6.9,2.1c-0.8,0.4-1.6,0.7-2.4,1c-2.1,0.8-4.6,0.4-6.1,2.5c-0.5,0.2-0.9,0.3-1.2,0.9c-5.1,1.7-8.4,5.8-12.4,8.8
			c-4.8,3.6-8.7,8.2-12.7,12.5c-0.2,0.3-0.4,0.5-0.5,0.8c-1.4,2.8-4.4,4.4-5.4,7.5c-0.1,0.1-0.2,0.3-0.3,0.4c0,0.2,0,0.6-0.1,0.7
			c0-0.2,0.1-0.5,0.1-0.7c-2.2,2.9-3.6,6.1-3.6,9.9c-0.4,1.6-0.6,3.3-0.8,5.1c-0.2,1.9,0.7,4.1-0.3,6c-0.8,1.7-1,3.6-1,5.5
			c-0.2,0.3-0.4,0.6-0.2,1c-0.1,2.6-0.9,5-1.3,7.5c0.1,0.1,0.2,0,0.3-0.2c0,0-0.1,0.1-0.2,0l-0.2,0c-1.9,4.3-3.9,8.7-7,12.4
			c-2.6,1.6-4.5,3.8-5.7,6.7c-0.6,1.6-1.8,3.1-3,4.3c-2.8,2.4-4.4,5.5-6.5,8.4c-0.2,0-0.2,0-0.2,0.3c-1.2,0.7-2,1.6-2.9,2.5
			c-0.9,0.2-1.5,0.8-2.2,1.3c-0.3-0.1-0.6,0.1-0.8,0.4c-1.8,1-4.1,1.3-5.5,3.1c-2.1,1.1-4.2,2.3-6.2,3.5c-1.5,1-2.7,2-4.5,3.2
			c0.2-1.6,1.5-2.4,1.5-3.7c1-1.4,1.8-2.9,2.2-4.7c0.7-1,1.2-2,1.1-3.2c0.4-1.1,0.8-1.9,0.5-3.1c-0.1-0.4,0.1-0.9,0-1.3
			c0.8-1.7,0.5-3.6,0.2-5.3c0.5-0.4,0.4-0.8,0.4-1.4c1-2.5,1-5.1,1.1-7.7c1-4,0.7-8.2,0.8-12.4c0.2-1,0.1-1.8-0.4-2.7
			c-0.2-2.1-1-3.9-2.3-5.6c-1.6-2-3.7-3.8-4.4-6.5c-0.4-1.4-1.2-2.3-2.2-3.3c-0.4-0.3-0.9-0.6-1-1.3c-0.5-3-2.8-4.8-4.4-7.1
			c-0.2-0.5-0.4-1-0.6-1.6c-0.7-1.6-1.7-3.2-3.1-4.4c-1.1-1.3-2.2-2.7-3.4-4c-0.7-0.9-1.4-1.7-2.1-2.6c-1-2-2.9-3.1-4.6-4.4
			c0,0,0,0-0.1,0.1l0.1-0.1c-2.4-2.2-4.9-4.2-7.9-5.6c-1.1-0.6-1.9-1.5-3.3-1.7c-0.8-0.5-1.4-1.2-2.5-1.2c-5-2.8-10.2-5.3-16-6.1
			c-2.7-1.2-5.7-1.2-8.7-1c-4.3-1.1-8.1,0.9-11.9,1.8c-0.7,0.2-1.5,0.5-2.2,0.7c-1.2,0.1-2.5,0.3-3.5,0.9c-1.2,0.1-2.3,0.6-3.4,1
			c-5.1,0.4-10.2,0.1-15.3-1.5c-1.4-0.4-2.9-1.3-4.4-1.2c-2.6-0.3-5-1.2-7.5-1.3c-1.3,0-2.6-0.3-3.8,0.1c-1.9,0.3-3.7,1-5.4,1.8
			c-0.3-0.1-0.7,0.2-0.8,0.6c-1.5,1-2.8,2.4-3.8,3.9c-0.7,1-0.6,2.2-0.1,3.3c0.8,1.3,1.7,0,2.4,0c0.4-0.1,0.9-0.2,1.3-0.2
			c0.8,0.2,1.6,0.7,2.4,0.6c0.7,0.1,1.4,0.2,2,0.3c6.4,2.1,11.6,5.9,15.5,11.6c0,0.2,0.1,0.4,0.2,0.5c0.6,1.8,0.2,3.7,0.6,5.5
			c-0.2,0.8-0.3,1.5,0.1,2.3c0,0.2,0.1,0.4,0.1,0.6c0.2,2.2,0.3,4.4,0.5,6.5c-0.8,4.3-0.6,8.6,0.6,12.8c0,0,0.1,0.1,0.2,0l-0.2,0
			c0.4,0.8,0.7,1.6,1.1,2.5c0.3,1.5,1.1,2.7,1.7,4c0,1.1,0.5,2.2,1,3.1c0.4,1.6,1.3,3,2.1,4.3c0.3,1.5,1.2,2.5,2,3.5
			c0.3,0.4,0.6,0.8,0.7,1.1c1,2.6,3.3,3.8,5.2,5.4l0.1,0.1l0.1,0.1c2,2.2,4.6,3.4,7.1,4.6c0.4,0.3,0.8,0.5,1.2,0.7
			c1,0.5,1.7,1.4,2.9,1.5c2.3,0.7,4.6,1.9,6.8,3.1c4,2.6,8.4,4,12.6,6c2.3,1,4.6,2.1,6.8,3.1c4.2,2.9,8.5,5.6,13,8l0.1,0.1l0.1,0.1
			c1.9,2.1,5.3,2.9,5.7,6.3c-0.4,1.1-0.8,2.2-0.7,3.4c-0.8,1.5-1.7,2.9-2.2,4.7c-0.1,0.1-0.2,0.3-0.1,0.3c-0.7,1-1.4,2-1.7,3.3
			c-0.5,0.8-1.3,1.5-1.2,2.5c-0.8,1.1-1.8,2.3-2,3.7c-0.4,0.6-0.8,1.1-1.2,1.8c-0.9,0.5-1.3,1.3-1.8,2.1c-1.6,2.5-3.3,5-4.7,7.6
			c-2.2,3.9-5.2,7.4-6.7,11.7c-1.1,1.9-2.2,3.7-3.1,5.7c-0.1,0.1-0.2,0.3-0.1,0.5c-0.1,0.1-0.2,0.3-0.2,0.3c-1.6,2.5-2.9,5.1-4,7.9
			c-0.2,0.3-0.4,0.6-0.5,1c-0.1,0.1-0.2,0.3-0.2,0.3c-1.4,2-3,3.9-4.4,6c-0.4,0.5-0.6,1.1-0.9,1.6c-2.8,2.7-5.1,5.6-7.3,8.8
			c-0.8,0.4-1.2,1.2-1.7,1.8c-3.5,4.5-7.1,9.1-10.8,13.5c-2.7,3.4-4.5,7.2-6.6,11c-0.8,1.1-1.7,2.2-1.9,3.5
			c-0.7,0.8-1.3,1.9-1.5,2.9c-0.5,0.8-1,1.4-1.5,2.1c-2,2-3.9,4-5.9,6c-0.6,0.1-1.1,0.5-1.3,1.1c-3.3,2.2-3.1,5.5-2.6,8.7
			c0.6,3.2,3.5,3.8,6,5.1c0.2,0,0.4-0.1,0.6-0.1c0.9-0.2,1.4-0.9,1.7-1.6c2.1-4,5.2-7.2,7.8-10.9c2.3-2,4-4.3,5.7-6.7
			c2.7-2.6,4.4-6,6.7-8.8c0.1-0.1,0.2,0,0.3-0.2c1.4-0.7,2.3-1.7,3.2-3c2.1-1.9,3.4-4.4,5.1-6.5c1.6-1.7,3.6-3.3,3.9-5.9
			c0-0.2,0.1-0.3,0-0.6c0.6-0.5,1.4-0.7,1.5-1.6c2.2-4.5,5.4-8.2,8.5-12.1c0.2-0.3,0.4-0.5,0.5-0.8c1.3-1.5,2.5-3.1,3.8-4.6
			c2.4-2.4,4.3-5.3,6.2-8c0.2,0,0.3-0.2,0.3-0.4c2.4-2.8,4.8-5.5,6.9-8.5c1.1-1.5,2.5-2.8,2.8-4.6c2-2.6,3.5-5.5,4.7-8.3
			c1.7-3.3,3.5-6.6,5.2-9.9c1.7-1.4,3.4-2.9,4.5-4.8c1.1-0.5,1.5-1.6,2.2-2.4c0.3-0.4,0.5-0.8,0.7-1c0.8-0.4,1.1-1.1,1.6-1.7
			c3.6-4.4,6-9.9,10.4-13.8c0.6,0,1-0.4,1.2-0.9c0.1-0.1,0.2,0,0.2-0.3c0.1,0.1,0.3,0.2,0.3,0.1c1.1-0.2,2-0.5,2.8-1.3
			c0.1,0.1,0.1,0.1,0.3,0.1c0.6,0.2,1.1-0.2,1.6-0.4c0.2,0,0.4-0.1,0.6-0.1c4.1-0.5,8.1-1.9,12.2-2.2l0-0.2l-0.1,0.1
			c2.4,0.6,4.8,0.4,7.3,0c0.5,0.4,1.1,0.2,1.7,0c1.6,0.6,3.3,1.2,4.9,1.8c1.6,1.1,3.2,2.1,5,3c1.1,0.6,2.3,1.2,2.8,2.5
			c-0.1,0.5-0.2,1.1,0,1.7c-0.2,0.8-0.2,1.6,0.1,2.3c0.1,0.4,0.2,0.9,0.2,1.3c0,1.5,0.3,3,0.8,4.5c-0.3,1.5,0.1,2.9,0.5,4.3
			c0,0.2,0.1,0.4,0.1,0.6c-0.1,0.7,0,1.3,0.3,1.9c-0.1,0.9,0.1,1.8,0.4,2.6c0,0.6,0.1,1.2,0.6,1.5c0.2,1.3,0.8,2.3,1.8,3
			c1.5,1.8,1.6,4.3,2.4,6.5c0.1,0.6,0.2,1.3,0.3,1.9c-0.2,2.5-0.7,5,0.5,7.3c0,0.2,0.1,0.4,0.1,0.6c0,0.8,0,1.5,0.1,2.3
			c-0.8,2.8-1.7,5.6-2.5,8.4c-0.3,0.4-0.5,0.8-0.4,1.4c-0.4,0.6-1.1,1.3-0.9,2.2c-0.2,0.3-0.4,0.6-0.2,1c-0.2,0.3-0.2,0.6-0.3,0.7
			c-1.4,3-2.7,6-4.2,8.9c-1,0.8-0.9,2-1.1,3.2c-0.5,1-1.2,2-1.1,3.2c-0.2,0.6-0.2,1.1,0,1.7c0.1,2-0.8,3.8,0,5.6
			c-0.2,0.8-0.2,1.6,0.1,2.3c-0.1,0.9-0.3,1.8,0.4,2.6c0.1,0.6,0.8,1,1.2,1.4c1.1,2.1,3.2,3.5,4.6,5.5c0.6,1,1.2,2,1.8,3
			c1.3,2.4,2.2,4.9,3.2,7.5c0,0.2,0.2,0.3,0.1,0.4c0.1,0.6,0.4,1.4,0.5,2c-1,2.7,1.3,4.6,1.8,7.1c0.1,0.4,0.1,0.9,0.3,1.2
			c0.2,2.1,1.3,3.7,2.1,5.6c0.5,2,1.3,3.7,2.3,5.6c-0.2,0.8,0.6,1.3,0.8,2.1c0.4,1,0.8,2.1,1.2,3.1c-0.1,0.5,0.1,0.6,0.5,0.9
			c3.2,5.8,7.7,10.5,14.1,12.7c1.6,0.9,3.3,2,5.1,2.4c1.8,1.2,3.8,1.5,5.8,1.8c1.3,0.3,2.4,0.6,3.7,0.3c0.9,0.3,2,0.3,2.9-0.4
			c0.8,0,1.5,0,2.3-0.1c0.2,0,0.3-0.2,0.4-0.3c0.9-0.7,0.9-1.3-0.3-2.3c-1.6-1.5-3.3-2.7-4.9-4.2c0-0.6-0.2-1.1-0.5-1.5
			c-0.4-1-0.8-2.1-1.2-3.1c0.1-2.2,0.9-4.2,1.6-6.2l-0.2,0c0,0,0.1,0.1,0.2,0c0.9-2.2,1.9-4.3,2.8-6.5c1-2.7,2.9-4.7,3.9-7.2
			c3.3-5.2,7.2-9.8,12.1-13.7c0.5-0.4,0.8-0.9,0.8-1.5c0.7-1,1.4-2,1.7-3.2c0.4-0.8,0.3-1.8,0.2-2.7c1.1-3.7,0.1-7.4,0-11.3
			c0.3-1.7,0-3.4-0.6-5c0-0.2-0.1-0.4-0.1-0.6c-0.2-0.9-0.3-1.7-0.4-2.7c-0.3,0.4-0.5,0.4-0.6,0.3c0.2,0,0.5-0.2,0.6-0.3
			c-0.1-1.4-0.4-2.7-0.5-4.1c0.4-2,0.9-4,1.4-6c0.1-0.1,0.2-0.3,0.2-0.3c0.3-0.9,0.6-1.9,1-2.7c0.6-1.4,1.5-2.9,1.5-4.6
			c0.3-0.4,0.4-0.8,0.3-1.3c0.7-1.6,0.7-3.4,0.8-5.1c0.3-1.3,0.4-2.7,0.1-4.1c0.3-2,0.1-3.9-0.4-5.9c0.4-2.2-0.2-3.9-0.9-5.9
			c0-0.6,0-1.1,0-1.7c0.3-0.9-0.3-1.7-0.6-2.7c0.1-0.5,0.1-0.9-0.2-1.3c-0.1-1-0.3-1.9-0.4-2.9c0-0.8-0.3-1.5-0.7-2.2
			c-0.3-0.9-0.6-1.9-0.8-2.8c0.1-1.2-0.6-2.1-1.2-3.1c-0.1-1.4-1-2.6-2-3.6c-0.1-1-1.2-1.2-1.4-2c-0.1-1.2-0.9-2.2-1.6-3
			c-0.7-1.1-1.2-2.3-2.2-3.3c-0.2-0.3-0.3-0.6-0.6-1c-0.6-1.3-1.7-2.1-2.7-3c0-0.2-0.3-0.4-0.4-0.5c-0.8-1-1.8-1.7-2.7-2.3
			c-2-2-4.3-3.6-6.5-4.9c-2.4-1.5-4.4-3.4-7.2-3.6c-0.5-0.4-1-0.7-1.8-0.7c-0.6-0.2-1.2-0.5-1.8-0.7c-4.2-2.6-8.7-5-13.4-6.6
			c-1.1-0.4-2.1-0.7-3-1c-0.3-0.1-0.7-0.1-1-0.2c-1.2-0.5-2.2-0.8-3.3-1.4c-0.1-0.1-0.3-0.2-0.3-0.1c-0.5-0.1-0.8-0.2-1.4-0.2
			c-0.8-0.5-1.5-0.8-2.5-0.8c-0.3-0.2-0.6-0.2-1-0.2c-1.2-0.5-2.5-0.4-3.7-0.3c-0.6-0.2-1.1,0.2-1.6,0.2c-0.7-0.3-1.5-0.5-2.2-0.1
			c-1-0.5-2-0.6-3.1-0.5c-1.1,0-2.2-0.1-3.2,0c-1.1-0.4-2.1-0.2-3.3-0.1c-0.5-0.4-1.1-0.8-1.8-0.7c-0.7-1.1-4.3-0.6-1.5-3.1l0-0.2
			c0,0,0,0,0,0.2c2.5-2,4-4.7,6.1-7c2-1.4,2.9-3.6,4.4-5.4c1.5-0.5,1.5-1.9,2.6-2.9c0.9-0.5,1.8-1,2.8-1.4c1.2-0.1,2.1-0.8,2.8-1.6
			c3.8-3.5,6.6-8.1,11.7-10.2c0.5-0.2,1-0.8,1.2-1.2c0,0-0.1-0.1,0-0.2l0,0.2c0.9-0.3,1.3-1,1.7-1.6c0.5-0.4,0.7-0.8,1.1-1.3
			c3.3-3.9,5.7-8.2,8.2-12.7c0.7-1.2,1.2-2.3,1.9-3.5c1-0.4,0.9-1.6,1.6-2.3c1.4-2,3-3.9,4.6-5.8c2.9-3.3,6.4-5.7,9.4-8.6
			c2.9-1.5,5.2-3.9,7.9-5.6c1.6-0.7,3.3-1.5,4.9-2.2c2-0.5,4-1.1,5.9-2c0.9-0.3,1.9-0.6,2.8-1c0.8,0.2,1.6-0.2,2.2-0.5
			c0.3,0.2,0.6,0.2,0.9,0.1c0.9,0.1,1.9,0.2,2.8-0.3c0.4-0.1,0.9-0.2,1.4-0.1c1.5,0.8,3.1,0.1,4.6,0.6c0.3,0.1,0.8,0,1.1,0
			c2.1,1.3,4.6,1.5,6.6,2.6c0.1,0.1,0.3,0.2,0.4,0.3c0.9,0.6,1.8,1.4,2.9,1.5l0.1,0.1l0.1,0.1c3.4,1.6,6.5,3.6,8.7,6.9
			c0.5,0.7,0.9,1.4,1.4,2.1c0.2,0.3,0.3,0.6,0.5,0.9c0.2,0.5,0.4,1,0.6,1.5c-0.1,0.5,0.1,0.6,0.5,0.9c0,0.8,0.6,1.3,1.1,1.9
			c0.1,1,0.6,1.9,0.8,2.8c0.2,2.2-0.2,4.3,0.4,6.7c-0.3,1.7-0.5,3.4-0.8,5.1c-0.5,2.1-0.7,4-0.9,6.1c-0.2,0.3-0.4,0.6-0.3,0.9
			c-0.7,2.5-0.2,5.1-0.3,7.7c-0.4,1.1-0.1,2,0.2,2.9c-0.2,1.4,0.3,2.8,0.5,4.3c-0.1,0.7,0,1.3,0.2,2.1c0,2.1,0.7,4.1,1.4,6
			c0.1,1.4,0.6,2.7,1.4,3.8c0.5,1.1,1.1,2.2,1.6,3.4c0.6,1.5,1.4,3.1,2.4,4.5c0.7,1.4,1.1,3,2.1,4.3c1.1,3.6,3.6,6.3,5,9.7
			c0,0.6,0,1.1,0.6,1.5c0.3,1.2,0.6,2.3,0.9,3.5c0,0.2-0.1,0.3,0,0.6c-0.2,3.2-0.2,6.4-0.9,9.5c-0.3,0.4-0.5,0.8-0.4,1.4l0.2,0
			l-0.1-0.1c-0.4,0.8-0.8,1.7-0.8,2.8c-1.3,3.4-3.4,6.4-4.3,10.1c-0.7,2.1-1.7,4.3-1.7,6.5c-0.6,1.1-0.8,2.2-0.8,3.6
			c-0.6,0.9-0.7,1.8-0.8,2.8c-0.7,1-1,2.3-1.3,3.4c-0.4,1.1-1.4,2-0.7,3.4c-1.3,1.1-0.7,2.3-0.5,3.6c0,0.8,0.4,1.4,1,1.8
			c0.8,2.3,2.7,2.6,4.8,2.2c0.3,0.1,0.6-0.1,0.9-0.5C409.8,482.5,411.7,480.1,413.7,477.5c0,0-0.1-0.1,0-0.2
			C413.7,477.3,413.7,477.3,413.7,477.5z M417.4,426.2l0,0.2C417.4,426.4,417.3,426.3,417.4,426.2z M423.3,413.2
			c0.2-0.3,0.4-0.5,0.5-0.8c0.4-0.6,1.1-1.3,0.9-2.2c0.1-0.9,0.5-1.5,1-2.3c1.8-2.5,3.3-5.2,4.5-8c0.2-0.3,0.4-0.5,0.4-0.6
			c1.6-3.4,3.6-6.7,4.5-10.4c0.1-0.3,0.1-0.9,0.2-1.1c2-3.5,2.9-7.4,2.9-11.3c1.5-3.5,0.2-6.8-0.1-10.2c0.2-0.3,0.1-0.5,0.3-0.7
			c0.2,0,0.4-0.1,0.9-0.2c0.8,1.9,1.4,3.8,2.1,5.6c0.5,2,0.9,4,1.5,5.9c0.1,2.7,0.3,5.5,0.4,8.2c-1.4,7.1-4.6,13.5-8.5,19.6
			c-2.1,3.2-4.3,6.4-5.5,10c-1.4,2.2-1.7,4.6-1.6,7.1c-0.3,1.3-0.4,2.7-0.1,4.1c0.1,1-0.2,1.9,0.3,2.8c-0.1,2-0.1,4.1-0.1,6.1
			c-0.3,0.4-0.1,0.9,0.1,1.2c-0.2,1-0.3,2-0.5,3.1c-0.7,0.8-0.7,1.8-0.8,2.8c-0.5,1.3-1.2,2.5-1.4,4.1c-0.1,0.7-0.7,1.2-0.8,1.9
			c-0.1,0.1,0,0.2-0.1,0.3c-0.5,1.2-1,2.3-1.5,3.5c-0.1,0.1-0.2,0.3-0.2,0.6c-0.4,0.6-1,1.2-1,1.9c-0.3,0.7-0.7,1.6-1,2.3
			c-0.2,0.3-0.2,0.6-0.4,0.8c-0.1,0.1-0.1,0.1-0.2,0.3c-1.9,2.6-3.5,5.5-4.9,8.4c-0.3,0.4-0.5,0.8-0.7,1.2c-2.7,3.6-4.6,7.7-8,10.6
			c-0.6-0.4-1.2-0.1-1.7,0.3c0,0,0,0-0.1,0.1c-1.2-1-0.4-2.4-0.2-3.5c0.1-0.1,0.1-0.1,0.1-0.3l0-0.2c0.2,0,0.2,0,0.4-0.1
			c2.2-3.4,4-7,5.4-10.7c0.1-0.3,0.1-0.7-0.3-0.9c0.2,0,0.3-0.2,0.6-0.3c0.2-0.3,0.5-0.4,0.5-0.8c1.8-4.7,3-9.7,4.9-14.4
			c0.1-0.5,0.2-0.8,0-1.3c-0.1-0.1-0.1-0.1-0.2-0.3c1.5-1,1.6-2.6,1.9-4.1c0.1-0.3,0-0.8-0.1-1.2c0.4-1.1,0.1-2.3,0.2-3.5
			c0.1-0.1,0.1-0.3,0-0.6c0,0,0,0-0.1-0.1c0.3-1.7-0.4-3.5-0.7-5.2c-0.3-1.4,0.7-2.9,0.2-4.3c0.7-0.8,0.9-2,1.5-2.9
			c1.5-2.4,1.3-5.3,3-7.5C422.7,415.2,422.9,414.3,423.3,413.2z M393.5,312.5c0.3,0.2,0.5,0.1,0.4-0.1c0,0,0,0,0.1,0.1
			c0.6,0,1-0.1,1.5-0.3c0.4,0.5,0.9,0.6,1.4,0.2c1.7,1,3.6,0.5,5.4,0.6c0.2,0,0.4-0.1,0.6-0.3c0.5,0.1,0.8,0.2,1.1,0.2
			c0,0,0.1,0.1,0,0.2c0.4,0.3,0.8,0.2,1.1,0.2c0.9-0.2,1.6,0.4,2.3,0.7c1.5,0.5,3.1,0.7,4.7,0.8c0.2,0,0.3,0.1,0.4-0.1
			c2,1.4,4.4,1,6.7,1.1c0,0,0.1-0.1,0.2,0c0.4,0.5,0.9,0.3,1.4-0.4c1.7,1.4,3.5,1.7,5.5,1c0,0,0,0,0.1-0.1c-0.1,0.1-0.1,0.1-0.2,0.3
			c0.3,0.6,1,1,1.6,1.1c3.2,0.8,5.4,3,7.6,5.2c1.1,1.1,1.8,2.6,2.9,3.6c0.1,0.1,0.1,0.1,0.3,0.1c-0.2,0.3-0.2,0.6-0.2,1
			c1.2,2.9,1.3,6,2,8.9c0.2,0.7,0.2,1.6,1,2c-0.2,0.3-0.1,0.5,0.1,0.6c0.1,0.6,0.2,1.3,0.4,2.1c-0.1,0.1-0.1,0.1-0.2,0.3
			c-0.2,0.6-0.1,1.2,0.3,1.7c0.1,0.1,0.1,0.1,0.1,0.1c0,0.8,0.2,1.3,0.6,1.9c0,0.2,0,0.6-0.2,0.8c0.9,3.8,2.3,7.4,4.8,10.5
			c0.4,0.5,1,1,1.7,1c0.1-0.1,0.1-0.1,0.1-0.1l0.1,0.1l0,0.2c0.1,0.1,0.2,0.3,0.3,0.4c1.4,2.1,3.4,3.7,5.2,5.5
			c-0.1,0.1-0.1,0.1-0.2,0.3c0.6,1.8,1.5,3.1,3.3,3.8c0.1,0.4,0,0.8,0.6,1c-0.3,0.7,0.1,1.2,0.3,1.7c1.6,3,2.3,6.3,2.2,9.8
			c-0.1,1.4-0.2,3,0.1,4.6c0.1,0.1,0.1,0.1,0.3,0.2c-0.2,0.3-0.4,0.5-0.4,0.6c-0.1,0.7-0.2,1.4-0.5,2.1c-0.1,0.1-0.2,0.3-0.2,0.3
			c-0.5,0.4-0.4,0.8-0.4,1.4l0,0.2c-0.1-0.1-0.3-0.1-0.5-0.1c-0.7,0.8-1.4,1.7-0.5,2.6c0.1,0.1,0.2,0.3,0.1,0.4
			c-0.1-0.1-0.4-0.3-0.5-0.4c-2.2,2.8-3.4,5.9-3.8,9.4c0.1,0.1,0.1,0.1,0.3,0.2c-0.8,0.6-1.4,1.2-1,2.3c-0.1,0.1-0.1,0.1-0.2,0.3
			c-1.1,2.6-2.3,5.2-2,8.2c0.2,0,0.3,0.1,0.4-0.1c-0.1,0.1-0.1,0.1-0.3,0.2c-0.1,0.1-0.1,0.1-0.2,0.3c-0.1,0.1-0.1,0.3-0.2,0.6
			l-0.1,0.1c-0.1,0.3-0.1,0.7-0.2,1c-0.8,0.6-1,1.2-0.6,2c-0.1,0.1-0.1,0.1-0.3,0.2c-0.8,1.1-1,2.3-1.2,3.6c-0.1,0.1,0,0.2-0.1,0.3
			c-1.3,1-1.3,2.4-1.5,4c0.1,0.1,0.3,0.2,0.4,0.3c-1.1,1.6-2.3,3.3-3.4,4.9c-2.7,2.8-5.5,5.5-7.1,9.3c-1.1,1.6-2.4,3.2-3.1,5.2
			c-0.2,0.3-0.3,0.4-0.4,0.6c-0.4,0.5-0.8,1.1-0.7,1.8c-0.5,0.4-0.6,1.1-0.6,1.9c-0.7,1.6-1.1,3.2-1.3,4.7c0,0,0,0,0.1,0.1
			c-0.2,0-0.2,0-0.5,0.2c-2.6,4-5.3,7.8-7.9,11.8c-0.1,0.1-0.2,0.3-0.1,0.5c-1.1,0.5-2.2,1.1-2.6,2.3c-0.1,0.1,0,0.2,0,0.2
			s0,0-0.1,0.1c-0.4,0.1-0.8,0.4-1.2,0.7c-0.2,0-0.4,0.1-0.7,0.2c-0.1,0.1-0.3,0.2-0.5,0.4c-0.1,0.1-0.2,0.3-0.3,0.4
			c-0.7,0.5-1.2,0.9-1.7,1.4c0,0,0,0-0.1,0.1c-0.1-0.1,0-0.2-0.2-0.3c-1.7,0-2.4,1.3-3.5,2.3c0-0.2-0.2-0.3-0.2-0.5
			c0.5-1,1-1.9,1.5-2.9c0.8-0.6,1.4-1.2,1.6-2.3c0.7-1.2,1.9-2.2,2.1-3.8c0.2,0,0.2,0,0.2-0.3c0.9-1.3,1.9-2.4,2.3-4
			c0.5-0.4,1.1-0.7,1.1-1.5c0.2-0.3,0.3-0.4,0.3-0.7c1.6-2.6,2.7-5.4,3.6-8.4c0.3-1.7,1-3.3,1.7-4.8c0.8-1.5,1.1-3,1.5-4.6
			c0.4-0.6,0.5-1.3,0.3-2c0-0.8,0-1.7,0.1-2.3c0.8-2.2,0.1-4.4,0.1-6.5c0-0.6,0-1.1,0-1.7c0.2-1.4,0.2-2.7-0.2-4.1
			c0.5-0.8,0.3-1.7,0.4-2.4c0-2.4,1-4.6,1.8-6.8c3.4-5.7,7-11.3,10.1-17.1c2.4-4.5,4.1-9.3,3.8-14.6c0.2-2.1-0.1-4.2-0.7-6.2
			c-0.2-0.9-0.3-1.7-0.5-2.6c0-0.8-0.2-1.6-0.7-2.2c-0.1-0.4-0.2-0.9-0.2-1.3c0.1-2.2-1.4-3.8-2-5.9c-0.3-1.9-1.3-3.5-2.3-5.2
			c-1.1-3.2-3.7-5.8-5.1-8.8c-2.8-6.1-7.2-11.1-12.2-15.5c-0.4-1.2-1.7-1.8-2.8-2.5c-3.5-3.4-7.2-6-11.6-7.8
			c-0.3-0.2-0.6-0.2-0.8-0.4c-3-1.6-6.3-2.7-9.6-3.9c-1.2-0.7-2.6-0.5-3.9-0.9c-0.6-0.4-1.3-0.5-2-0.4c-0.1-0.1-0.3-0.2-0.5-0.1
			c-0.6-0.4-1.3-0.5-2.1-0.5c-4-1.5-8.3-1.9-12.4-2.7C382.2,315.1,391.7,313.5,393.5,312.5z M425.4,352.5c-0.4,1.4-0.7,2.7,0.3,3.8
			c-0.2,3-0.4,5.9-0.5,9c0,0,0,0,0.1,0.1c-0.3,0.2-0.4,0.5-0.3,0.9c0.1,0.1,0.2,0.3,0.3,0.4c-0.2,0.6-0.4,1.1-0.5,1.5
			c-0.2,0.3-0.6,0.5-0.7,0.8c-0.2,0.6-0.8,1.1-0.7,1.8c-0.3,0.4-0.5,0.8-0.7,1.2c-0.3,0.7-0.5,1.3-0.7,2.1c-1,1.7-2,3.3-3.1,5
			c-0.1,0.1-0.2,0.3-0.4,0.5c-0.7,0.8-1.5,1.8-2.2,2.8c-0.4,0.5-0.7,1-0.7,1.6c0,0.2-0.1,0.5-0.1,0.7c-0.3,0.4-0.4,0.8-0.5,1.3
			c-0.4,0.3-0.7,0.7-1,0.8c-1,1.4-1.6,2.8-2.6,4.2c-0.4,0.5-0.7,1.2-0.1,1.8c-1.1,0.5-1.8,1.2-1.7,2.2l-0.1,0.1
			c-1.6,2.6-3,5.4-4.1,8.2c-0.1,0.9-0.5,1.5-0.8,2.2c0,0,0,0-0.1,0.1c-0.3,0.2-0.5,0.2-0.8,0.4c0,0,0,0-0.1-0.1
			c0.5-1,0.1-1.8-0.3-2.5c-0.1-0.1-0.1-0.1-0.3-0.2c-0.5-2.4,0.1-5-0.4-7.4c0.1-0.1,0.2-0.3,0.3-0.4c0.2-2.5,1.1-4.8,1.8-7.2
			c0.3-1.3,1.2-2.5,0.9-3.9c0.3-0.2,0.5-0.4,0.7-0.8c0.1-0.3,0.1-0.5,0.1-0.7c0.4-0.5,0.8-0.9,0.8-1.5c0.1-0.1,0.2-0.3,0.1-0.5
			c0.3-0.4,0.6-0.9,0.9-1.3c0.4-1.4,1.6-2.3,2.3-3.5c0.2-0.6,0.9-1.3,0.2-1.9c0.2,0,0.3-0.2,0.5-0.2c2.3-3.3,4.6-6.5,5.7-10.5
			c0-0.2-0.1-0.4-0.1-0.6c0.3-0.4,0.4-0.8,0.7-1.2c0.2-0.3,0.6-0.5,0.9-0.7c1.1-1.3,1.7-2.7,1-4.4l-0.2,0c0.5-0.4,0.6-0.9,0.5-1.5
			c0.7-0.5,1-1.2,0.8-1.9c0,0,0,0,0.1-0.1c0.5-1.5,1.6-3,0.6-4.6c0.8-1.1,0.4-2.4,0.6-3.5c0-0.2-0.1-0.4,0.1-0.7
			c0.1-0.1,0.2-0.3,0.4-0.3c0.7,2.2,1.8,4.4,2.4,6.5C424.7,351.3,424.7,352,425.4,352.5z M369.4,319.6c1.3,0.3,2.5,0.7,3.7,0.9
			c1.2,1,2.7,1,3.9,1.6c0.4,0.5,1.2,0.7,1.2,1.4c-5.6-1.1-11.1-1.8-16.9-1.1c-0.5-0.6-1.1,0.2-1.6,0.2c-0.6-0.4-1.3,0-2,0.1
			c-0.1-0.1-0.3-0.1-0.3-0.1c-1.4,0.1-2.9,0.1-4.2,0.8c-0.2,0-0.3,0.2-0.5,0.2c-2-0.1-3.6,1.1-5.2,1.8c-0.6,0.3-1.2,0.7-1.9,1.1
			c-3.7,1.2-6.7,3.2-9.5,5.8c-4.6,3.6-8,8.3-11.3,12.9c-0.2,0.3-0.3,0.4-0.4,0.6c-1.8,1.8-3.4,3.8-4.3,6.2c-0.8,1.1-1.5,2.1-2.3,3.3
			c-0.6,0.3-1,1-1.4,1.5c-4.6,7.1-9.2,14.2-13.9,21.2c-0.5,0.8-1.3,1.3-1.3,2.4c-0.1,0.1-0.2,0.3-0.3,0.4c-0.1,0.1-0.2,0.3-0.3,0.4
			l-0.1,0.1c0.1-0.7,0.8-1.3-0.1-2c1.6-0.7,1.2-2.2,1.4-3.6c0.1-0.1,0-0.2-0.1-0.4c0.5-0.2,1.1-0.7,1.4-1.2c3.5-4.7,6.6-9.4,9-14.7
			c0.2-0.3,0.1-0.5,0.2-0.8c0-0.2,0-0.2-0.2-0.3l0.1,0.1c2.5-2.5,3.8-6,6.1-8.7c0.1-0.1,0.1-0.1,0.2-0.3c2.4-2.3,4-5.1,5.9-7.7
			c1.1-0.5,1.5-1.6,2.1-2.5c2.3-3.3,4.9-6.2,7.9-8.6c3.5-2.8,7.5-5.1,11.4-7.4c1-0.1,1.3-1.3,2.5-1.1c0.8,0.2,1.5-0.3,2.2-0.7
			c1.6-0.4,3.3-0.9,4.6-1.8c0.4-0.1,0.9-0.2,1.2-0.1c2.1-0.3,4.1-0.5,6.2-0.8c1.2,0.1,2.5,0.2,3.7,0.3c0.3,0.1,0.7,0.1,1,0.2
			C367.9,319.7,368.6,319.7,369.4,319.6z M353.3,323.6l0.2,0C353.5,323.5,353.4,323.7,353.3,323.6z M296.9,430.8
			C296.8,430.9,296.8,430.9,296.9,430.8z M329.7,465.4c-0.4,0.8,0,1.5,0.3,2.3c0.7,3,2.1,5.6,3,8.5c0.2,0.3,0.4,0.5,0.8,0.7
			c0.1,0.1,0.1,0.1,0.3,0.2c0.1,0.4,0.2,0.9,0.4,1.4c0.3,1.7,0.5,3.3,0.8,5.1c0,0.8,0.2,1.6,0.2,2.4c-0.5,0.4-0.4,1.1-0.2,1.6
			c0,0,0,0-0.1,0.1c-0.9,1.8-1.4,3.9-1.5,5.9c-0.1,0.1-0.2,0.3-0.4,0.3c-1,1.2-1.4,2.8-1.9,4.1c-2.2,4.8-5.4,9-8.6,13.1
			c-1.1,1.3-2.1,2.7-3.2,4c-1.5,1.8-3.2,3.4-3.5,5.8c-1.5,0.3-2.2,1.5-3.1,2.5c-1.8,2.5-3.7,5.1-5.9,7.3c0.1-0.5,0.1-0.9,0.1-1.2
			c0,0,0,0,0-0.2c0,0,0,0,0.1-0.1c1.5-2.9,2.6-6.1,3.5-9.2c0.1-0.3-0.1-0.6-0.4-0.8c-0.2,0-0.2,0-0.3,0.2l0.1-0.1
			c0.4-0.5,0.6-0.9,1-1.4c0.2,0,0.3-0.2,0.5-0.2c0.5-0.4,0.8-1.1,1-1.7c1.8-4.4,2.9-9,4.8-13.5c0.1-0.5,0.2-1.1,0-1.7
			c0.3-0.2,0.4-0.5,0.2-0.8l0.1-0.1c1.7-2.4,1.9-5.1,1.9-7.8c0.1-4.6-0.8-9.2-0.6-13.9c0.1-1.8,0-3.8-1-5.6l-0.1-0.1
			c1-1,0.6-2.2,0.4-3.3c-0.9-5.7-3.4-11-5.5-16.3c-0.2-0.5-0.6-1-1.2-1.2c0.6-0.5,0.2-1.1,0-1.7c-1.2-3.1-2.2-6.2-3.9-8.9
			c-0.1-0.1-0.3-0.2-0.3-0.4c0.1-0.1,0.4-0.3,0.6-0.3c0.1,0.1,0,0.2,0.2,0.3c0,0.2,0.3,0.4,0.4,0.5c1.6,1.1,3.3,2.3,4.8,3.6
			c0.4,0.3,0.9,0.6,1.3,0.8c0.3,0.2,0.5,0.4,0.8,0.5c0,0.2-0.1,0.3,0.1,0.4c0.7,0.9,1.7,1.4,2.4,2.2c0.2,0.3,0.4,0.5,0.7,0.7
			c0.6,0.4,1.1,0.8,1.8,1.2c0.1,0.1,0.1,0.1,0.3,0.2c0,0,0,0,0.1,0.1c-0.1,0.1-0.2,0-0.2,0c0.2,2.4,2.3,3.5,3.5,5.1
			c0.1,0.1,0.1,0.1,0.3,0.2c0,0.6,0.4,0.8,0.8,1c0,0,0.1-0.1,0.2,0c-0.1,2.8,1.4,4.7,3.3,6.3c0,0,0,0-0.1,0.1
			C328.4,464.1,328.7,464.9,329.7,465.4z M300.3,537.6c-0.1-3.1-1.3-5.6-2.7-8.1l-0.1-0.1c-0.1-2-0.2-3.9,0.5-5.8
			c1-2.5,1.8-5,2.7-7.5c0,0-0.1-0.1-0.2,0l0.2,0c0.7-1,1.5-1.9,1.7-3.3c0.8-1.7,2.4-2.8,2.8-4.8c1.7-2.4,3.2-4.9,4.3-7.7
			c0.1-0.1,0.2-0.3,0.2-0.3c1-1.7,2-3.4,2.7-5.4c0.1-0.1,0.2-0.3,0.3-0.4c0.4-0.6,1.1-1.3,0.9-2.2c0.3-0.4,0.5-0.8,0.4-1.4
			c1.3-2.7,1.5-5.6,2.5-8.4c0.7,0.3,0.7,0.3,0.8,1c1,5.6,0.7,11-0.9,16.5c-0.1,0.3-0.1,0.7-0.2,1c-1.3,1.9-1.9,4.3-2.8,6.5
			c-1.8,4.4-3.5,8.8-5.2,13.1c-1.6,3-2.6,6.1-3.4,9.4c-0.1,0.1-0.2,0.3-0.1,0.5c-0.9,1.8-1.1,3.7-1.7,5.6c-0.7,1-0.7,2.1-0.8,3.4
			l-0.1-0.1C301,539.2,301.2,537.8,300.3,537.6z M291.9,504c0.1-0.1,0-0.2,0.1-0.3c0,0.2,0,0.2,0.1,0.4
			C292.1,504,292,504.1,291.9,504z M316,481.1C316.1,481.2,316.1,481.2,316,481.1z M318.6,517.9c0.1-0.1,0.3-0.4,0.4-0.5l0.1-0.1
			l0,0.2C318.7,517.6,318.7,517.8,318.6,517.9z M309.4,448.5C309.3,448.7,309.3,448.7,309.4,448.5z M280,413.2
			C280,413.4,279.9,413.3,280,413.2z M298.5,385.4c-0.1,0.1-0.2,0.3-0.3,0.4c0-0.2,0.1-0.3,0-0.6
			C298.5,385.4,298.5,385.4,298.5,385.4z M280.3,425.1c-0.4,0.1-0.9,0.2-1.2-0.1C279.5,425.1,279.8,425.2,280.3,425.1z M305,438.5
			c0-0.2-0.1-0.4-0.1-0.6C304.9,438.1,305.1,438.1,305,438.5z M313.2,439.4C313.3,439.6,313.1,439.5,313.2,439.4z M296.3,393.3
			C296.2,393.2,296.2,393.2,296.3,393.3z M349.7,317.5c0.1-0.1,0.2,0,0.3-0.2c0.5,0.1,0.8,0,1.1-0.2c0.1,0.1,0.3,0.1,0.5,0.1
			c1.4-0.1,2.8-0.8,4.2-1.4c0.3,0.4,0.8,0.2,1.2,0.1c0.2,0,0.4-0.1,0.5-0.2c0.3,0.1,0.7,0.1,1-0.1c0.8,0,1.4,0.1,2.2,0.1
			c0.1,0.1,0.1,0.1,0.3,0.2c0.1,0.1,0.3,0.1,0.7,0.1c0.4,0.3,0.8,0.4,0.7,1.1c-2.4,0-4.9,0.5-7.3,1.1c-1.8,0.4-3.7,1-5.4,1.8
			c-0.6,0-1.1,0-1.3,0.6c-0.5,0.2-1.1,0.5-1.8,0.6c-0.7,0.5-1.7,0.3-2.3,1.2c-3.5,1.8-7.2,3.8-10.1,6.6c-0.1,0.1-0.2,0.3-0.4,0.3
			c-1.7,0.9-3.1,2.3-4.3,3.7c-3.9,4.2-7.3,8.8-10.6,13.5c-3.3,3.7-6.2,7.7-8.5,12.1c-0.2,0-0.3,0.4-0.4,0.5
			c-2.9,3.6-4.6,7.9-7.7,11.7c0.1-0.5,0.2-1,0.3-1.5c0.4-0.5,0.6-1.1,0.9-1.6c0.8-1.3,1.2-2.7,1.3-4.2l0-0.2
			c0.4-0.3,0.7-0.7,0.8-1.3c-0.1-0.4,0-0.8-0.1-1.2c0.1-0.5,0.4-1.1,0.4-1.6l0.1-0.1c0.1-0.1,0-0.2,0.1-0.3c0.1,0.1,0.2,0,0.3-0.2
			c1.4-2.2,2.4-4.5,2.2-7.1c0.1-0.1,0.2-0.3,0.3-0.4c2.1-1.4,2.8-3.5,3.3-5.8c0-0.2-0.1-0.4-0.2-0.5c0.2,0,0.4-0.1,0.5-0.2
			c0.1-0.1,0.2-0.3,0.3-0.4c0.8-0.6,1.3-1.5,1.9-2.4c0,0,0,0,0.1-0.1c0.1,0.1,0.4,0.3,0.7,0.1c2.8-2.9,5.4-6.1,8.2-9.1
			c0-0.2-0.2-0.3-0.2-0.5c0.1,0.1,0.1,0.1,0.3,0.1c0.6,0.4,1.3,0.3,2-0.1c1.8-1.5,4-2.8,5.4-4.8c0.1-0.1,0.1-0.3,0-0.6
			c1.6-1.2,3.3-2.2,5-3.1c1.4-0.7,2.8-1.4,3.8-2.8c0.2,0,0.3-0.2,0.6-0.3c1,0.2,1.8-0.2,2.7-0.6c0.2-0.3,0.4-0.3,0.5-0.4
			c0.6-0.1,1.2-0.4,1.9-0.8c0.2,0,0.6,0,0.9,0.1C347.6,318.6,348.6,318,349.7,317.5z M157.2,378.4c0.1,0.1,0.2,0,0.2,0
			C157.4,378.5,157.2,378.4,157.2,378.4z M173.1,394.9c0.5,0.4,1,0.9,1.7,0.8c0.1,0.1,0.3,0.2,0.5,0.1c0.8,0.5,1.5,1.3,2.5,1.2
			c1.3,0.5,2.1,2.1,3.7,2l0-0.2c0,0-0.1,0.1,0,0.2c2.8,0.8,5.6,1.7,8.4,2.5c0.6,0.4,1.3,1.1,2.2,0.9c1.1,0.8,2.2,1.4,3.5,1.4
			c1.1,0.4,2.1,0.7,3.2,1.1c1.3,0.9,2.7,1.3,4.2,1.2c2.5,0.2,4.4,1.4,6.6,2.4c1.1,0.8,2.1,1.5,3.2,2.4c0.4,0.8,1,1.3,1.6,1.7
			c1.8,2.2,3.8,4.2,6.1,6c1.3,1.6,2.6,3.3,3.8,5c0.2,0.3,0.3,0.6,0.4,0.8c-0.1,0.1-0.1,0.1-0.2,0.3c-0.2,0.6,0.3,1.2,0.2,1.6
			c-4.4-2-8-5.2-12-7.5c-2.9-1.7-5.6-3.8-9-4.3c-0.2,0-0.3,0.2-0.3,0.4l-0.1-0.1c-0.3-0.4-0.8-0.4-1.3-0.5c-0.1-0.1-0.2,0-0.2,0
			c-0.7-0.7-1.3-1.1-2.3-1c0.1-0.1,0-0.2,0.1-0.3c-0.7-1.1-1.5-1.6-2.9-1.3c-0.1,0.1-0.2,0.3-0.4,0.3c-0.3-0.2-0.4-0.3-0.7-0.3
			c-2-0.9-3.8-2.1-5.8-2.7c-0.1-0.1-0.5-0.1-0.6-0.2c-1.1-0.8-2.4-1.5-3.9-1.6c-3.4-0.7-6.5-2.5-9.9-3.6c-1.7-1-3.5-1.7-5-3
			c-2.2-1.9-4-4.1-5.7-6.3c-0.2-0.9-0.4-1.8-1.1-2.5c-0.6-1.5-1.6-2.8-1.9-4.7c0.2,0,0.4-0.1,0.8,0c0.4,0.3,0.8,0.5,1.1,0.8
			c2.1,2.4,4.4,4.8,7.4,5.8c0.1,0.1,0.1,0.1,0.3,0.2C171.8,394.3,172.4,394.9,173.1,394.9z M224.4,403.6
			c-6.2-4.9-12.4-9.6-18.5-14.5c-0.8-0.5-1.4-1.2-2.4-1.1c-5.5-3.9-11.6-6.5-17.7-9.2c-5.5-3.3-10.1-7.8-15.5-11.4
			c0,0-0.1,0.1-0.2,0c-0.5-1.5-1.7-2.3-3-3.2c-1.3-1.3-2.5-2.9-3.8-4.2c-0.2-0.5-0.6-0.8-1-1.3c-0.3-0.4-0.7-0.7-0.9-0.8
			c-0.1-0.1-0.1-0.1-0.3-0.2c-0.4-1.6-1.5-2.7-2.5-4c-0.3-0.6-0.7-1.2-1-1.8c-0.1-1.4-0.6-2.9-1.6-3.9c-0.1-0.1-0.1-0.1-0.3-0.1
			c0.2,0,0.3-0.2,0.5-0.2c-0.3-1.5-1.4-2.5-2.4-3.6c0.5,0.1,0.8,0.5,1.1,0.8c1.9,1.3,3.9,2.7,5.8,4.1c2.4,1.7,4.8,3.4,7.2,5
			c0.5,0.4,1,0.7,1.7,0.8c1,0.5,2.2,0.9,3.2,1.1c4.8,2.2,10.1,3,14.7,5.2c3,1.9,6.2,3.4,9.1,5.8c3.4,2.6,6.7,5.1,10.2,7.7
			c0.9,0.6,1.8,1.2,2.6,2c0.9,1.4,2.3,2,3.6,2.9c1.5,1.1,2.5,2.9,4.3,3.6c0.2,0.3,0.2,0.5,0.4,0.8c0.8,1.3,1.8,2.2,2.8,3.3
			c0.7,0.9,1.2,1.8,2.2,2.5c0.5,0.7,0.8,1.5,1.3,2.2c0.8,1.9,2.1,3.4,3.4,4.8l0.1,0.1l0.1,0.1c1.8,2.2,2.6,5.1,4.3,7.5
			c0.9,1.9,1.8,3.9,2.5,5.9c0.3,1.5,0.5,3,0.8,4.5c0,0.6,0,1.1,0,1.7c-0.6,1.1-1.2,0.3-1.6-0.2c-0.1-1-1.4-1-1.4-2
			c0.1-0.5,0.1-0.7-0.2-1.1c-2.4-2.8-4.8-5.8-7.1-8.6C225.2,404.3,224.8,403.8,224.4,403.6z M178.8,375.5
			C178.7,375.7,178.7,375.7,178.8,375.5z M165.4,343.2c0.7,0.3,1.6,0.4,2.5,0.2c0.1-0.1,0.3-0.2,0.3-0.2c1.6,0.6,3.2,1.3,4.9,1.9
			c0.8,0.5,1.5,1.3,2.5,1.2c1.4,1,3,1.6,4.7,2.2c1,0.5,1.9,1,3.2,1.1c2,0.9,4.2,1.8,6.1,2.8c0.1,0.1,0.4,0.3,0.7,0.3
			c1,0.5,1.7,1.6,2.9,1.5c2.1,1.1,4.1,2.1,6.2,3.2c1.5,1.1,3,2.1,4.8,2.8c0.1,0.1,0.3,0.2,0.4,0.3c0.8,0.5,1.5,1.3,2.3,1.8
			c0.1,0.1,0.3,0.2,0.5,0.4c2.5,2.1,5.1,4.2,7.6,6.3c0.4,0.5,0.8,1,1.2,1.4c0.8,1,1.7,1.9,2.5,2.9c0.2,0.7,0.7,1.1,1.2,1.4
			c0.2,1.1,0.9,1.7,1.6,2.5c1.1,1.7,2.1,3.4,3.3,4.9c0.5,1.7,1.4,3.1,2.3,4.4c0,0.2,0.2,0.5,0.2,0.7c2.2,4.1,4.7,8,5.4,12.6
			c-0.4,0.3-0.8,0-1-0.2c-0.9-1.2-1.3-2.6-2.6-3.5c-0.1-0.1-0.3-0.2-0.4-0.3c-0.3-0.4-0.9-0.6-0.9-1.2c-0.1-1-0.6-1.5-1.4-2.1
			c-0.2-0.3-0.3-0.6-0.5-0.9c-0.2-0.9-0.8-1.5-1.4-2.1c-0.7-0.9-1.3-1.6-2-2.5c-0.8-1-1.7-1.9-2.6-3c-0.2-0.9-1-1.3-1.6-1.7
			c-2.1-3.4-5.5-5.5-8.6-7.7c-0.5-0.4-1-0.7-1.5-1.1c-5.7-4.7-11.4-9.5-18.1-12.7c-4.9-2.9-10.2-4.7-15.7-6.5
			c-4.1-1.2-7.3-3.8-10.6-6.3c-0.4-0.8-1.3-1.1-1.7-1.8c-2.1-2.6-5.1-4.2-7.5-6.4c-0.9-0.8-2-2-3.4-2c-0.1-0.1-0.3-0.1-0.4-0.3
			c-0.2-0.3-0.6-0.4-0.9-0.6C155,339.3,160.2,341.3,165.4,343.2z M175.7,346.5l0-0.2C175.8,346.4,175.7,346.5,175.7,346.5z
			 M178.4,345.6c0,0,0.1-0.1,0.2,0C178.5,345.7,178.4,345.6,178.4,345.6z M223.5,368.8c-0.1-0.6-0.4-1.2-1-1.8c0-0.6-0.4-1-0.7-1.4
			c-0.7-1.2-1.2-2.5-1.7-3.7c0.5-1.2-0.3-1.9-0.9-2.7c-2.4-3.8-4.9-7.4-7.5-10.9c-1-1.3-1.4-3.1-3.1-3.9c-0.4-0.5-1.2-0.7-1.2-1.4
			c-0.6-1.3-2-2-3.1-2.8c-0.5-0.4-1-0.7-1.5-1.1c0-0.8-0.7-1.2-1-1.8c4.5,1.9,9.4,3,13.7,5.3c0.8,0.5,1.5,1.3,2.7,1.3l0.1,0.1
			l0.1,0.1c2.4,1.9,5.5,2.9,7.2,5.8c0.3,0.9,0.6,1.9,0.8,2.8c0.7,2.7,1.1,5.4,1.3,8.3c0.3,4.1,0.8,8.3,1.1,12.4
			c-0.3,1.8,0.3,3.6,0.3,5.3c-0.4,0.3-0.8,0-1-0.2c-0.6-1.6-1.3-3.2-2.4-4.5C225,372,224.8,370.2,223.5,368.8z M200.4,344.2
			c-1.7-1.4-3.4-2.9-5.6-3.5c-1.8-1.4-3.9-2.5-5.8-3.5c-0.3-0.2-0.6-0.4-0.9-0.6c-0.4-0.3-0.6-0.4-1-0.7c-0.1-0.1-0.1-0.1-0.2-0.3
			c0.8,0.2,1.6,0.7,2.3,0.1l0.1,0.1c1.3,0.3,2.6,0.3,3.9,0.1c0.1-0.1,0.2,0,0.3-0.2c0.7,0.3,1.5,0.5,2.3,0.5l0.1,0.1
			c0.1,0.1,0.3,0.1,0.5,0.1c2.1,2.8,4.9,5.1,8.2,6.5c0.1,0.1,0.3,0.1,0.4-0.1c4.3,4.5,7.3,10,10.9,15c-0.6,0.3-1-0.2-1.4-0.4
			c-2.3-2.4-4.5-4.6-6.7-7C205.7,347.8,202.9,346.2,200.4,344.2z M219.5,344c0.1-0.1,0.1-0.1,0.2-0.3
			C219.8,343.8,219.7,343.9,219.5,344C219.6,344,219.6,344,219.5,344z M230.2,386c0.1-0.1,0.3-0.2,0.3,0.1
			C230.5,386.1,230.4,386,230.2,386z M142.2,333.5c0.1-0.1,0.1-0.1,0.2-0.3C142.3,333.4,142.2,333.5,142.2,333.5z M222.7,427.9
			l0,0.2C222.5,428.2,222.6,428.1,222.7,427.9z M240.5,444.6c0.1-0.1,0.1-0.1,0.2-0.3l0,0.2C240.7,444.5,240.6,444.4,240.5,444.6z
			 M228.3,455.9c-0.1,0.1,0,0.2-0.1,0.3c0,0-0.1-0.1,0-0.2L228.3,455.9z M232.2,436.6C232.1,436.8,232.1,436.8,232.2,436.6
			C232.1,436.8,232,436.7,232.2,436.6C232.1,436.6,232.1,436.6,232.2,436.6z M181.1,518.3C181.2,518.5,181.3,518.4,181.1,518.3
			c-0.1,0.1-0.2,0.3-0.2,0.3C181.1,518.4,181.1,518.4,181.1,518.3z M181.1,515.6C181.2,515.7,181.2,515.7,181.1,515.6z M179.7,532.7
			c-0.3,0.2-0.5,0.2-0.7,0.5c-0.1,0.1-0.3,0.2-0.5,0.4c-1,0.8-1.5,1.9-2.4,2.8c-0.6,0.1-1,0.6-1.3,1.1c-0.6,0.1-0.9,0.5-1.3,1
			c-2.3,3.5-4.6,6.9-7.5,9.9c-1,0.4-1.4,1.2-2,2c-0.2,0-0.2,0-0.2,0.3c-1,0.6-1.7,1.4-2.3,2.5c-0.3,0.4-0.5,0.8-0.7,1
			c-1.3,0.8-2,2-2.9,3.3c-0.7,0.5-1.2,0.9-1.9,1.3c-0.8,0.6-1.4,1.5-2.6,0.5c-1-0.7-2.5-1.2-2.1-2.8l0.1-0.1c0.4-0.3,0.6-0.9,1-1.2
			c0.4-0.3,0.7-0.7,1-1c2.5-2.2,4.8-4.4,6.7-6.9c0.5-0.4,1-0.8,1.4-1.2c0.5-0.2,1.1-0.5,1.5-1c0.7-0.8,1.1-1.6,1.9-2.4
			c0,0,0,0,0.1-0.1c0.5-0.4,0.8-0.9,1.2-1.4c2.7-3,4.7-6.7,7-9.9c0.5-0.4,0.8-0.9,1.2-1.4l0.1-0.1c5.7-6.5,10.9-13.4,15.6-20.6
			c0.2,0,0.5-0.2,0.7-0.2c2.3-1.6,3.3-4.1,4.3-6.6l0-0.2c1.1-1.5,2.2-2.8,3.1-4.4c0.2-0.3,0.4-0.5,0.4-0.8c0.2-0.6,0.6-1.1,0.7-1.8
			c1.3-1.9,2.4-4,3.2-6.2c0.4-0.6,1-1.4,1.3-2.1l0.1-0.1c0.1-0.3,0.2-0.8,0.5-1.2c0.8-1.3,1.5-2.7,1.9-4.1c0.6-0.9,1.2-1.8,1.5-2.9
			c0.9-1.8,2.5-3.1,3.1-5.2c0.3-0.7,0.8-1.3,1.1-2.1c0.1-0.1,0.1-0.1,0.2-0.3c0.3-0.4,0.5-1,0.8-1.3c0.1,0.1,0.2,0,0.4-0.1
			c2.1-2.5,3.3-5.6,4.5-8.5c0-0.2-0.1-0.4-0.2-0.5c0.2-0.3,0.3-0.4,0.4-0.6c0.4-0.3,0.7-0.8,0.9-1.3c0.2-0.3,0.2-0.6,0.3-0.7
			c0.8-1.3,1.6-2.8,2.1-4.3c0.2-0.3,0.4-0.5,0.4-0.6c0.2,0,0.3,0.1,0.5-0.2c1.3-1.3,2-2.9,2.3-4.6c-0.1-0.1-0.3-0.2-0.5-0.1
			c0.1-0.7,0.4-1.4,0.5-2.1l0-0.2c0.1,0.1,0.1,0.1,0.3,0.2c1.4-1.2,2.2-2.8,1.5-4.6c0.1-0.1,0.3-0.2,0.4-0.3c0.5-1,0.7-2.3,2.3-1.7
			c0,0,0,0,0.1-0.1l-0.1,0.1c0.5,2,0.5,4.1,1.4,6c-0.4,1.6-0.9,3.1-1.2,4.6c-0.5,2.1-1,4.2-1.6,6.2c-0.2,0-0.3,0.2-0.6,0.3
			c-0.9,1.8-2,3.7-1.8,5.8c-0.1,0.1-0.3,0.2-0.5,0.4c-0.6,0.9-1.4,1.7-1.4,2.8c0,0.2,0.4,0.3,0.6,0.4l-0.2,0c-0.2,0-0.4,0.1-0.7,0.2
			c-0.6,0.5-1,1.4-1.3,2.1c-2.1,4.1-3.9,8.5-6.7,12.4c-1,1.4-2.3,2.7-2.8,4.5c-0.1,0.3-0.2,0.6-0.2,1c-1.5,1.4-2.5,3.1-3.8,4.9
			c-3.1,2.7-4.7,6.5-7.3,9.6c-1.2,1.2-2.2,2.6-3.2,4c-0.3,0.2-0.6,0.5-0.7,0.8c-1.6,2.3-3.1,4.4-4.7,6.7c-0.2,0.3-0.4,0.6-0.6,1.1
			c-1.1,1.6-2.1,3.2-3,5.1l0.2,0c0,0,0,0-0.1,0.1L189,518c-0.2,0.6-0.6,1.1-0.9,1.6c-1.4,0.9-1.7,2.7-2.8,4
			c-0.2,0.3-0.1,0.5-0.1,0.7c0,0,0.1,0.1,0,0.2c-1,1.2-2,2.3-2.9,3.6c-0.7,1-1.9,1.9-1.4,3.3l-0.1,0.1
			C180.1,531.3,179.5,531.8,179.7,532.7z M212.7,486.1C212.8,486,212.8,486,212.7,486.1z M250.9,421.2
			C251,421.1,251,421.1,250.9,421.2z M229.3,422.2l0,0.2C229.2,422.4,229.3,422.2,229.3,422.2z M200.8,414.8
			C200.9,414.7,200.7,414.7,200.8,414.8z M168.5,399.3C168.4,399.2,168.4,399.2,168.5,399.3z M198.9,492.2l-0.1,0.1
			C198.7,492.1,198.7,492.1,198.9,492.2C198.7,492.1,198.7,492.1,198.9,492.2z M157.2,562.6C157.1,562.7,157.1,562.7,157.2,562.6z
			 M250.9,381.4c0.2,0.7,0.5,1.5,1.3,1.9c-0.4,0.5-0.1,0.9,0.3,1.2c-0.4,1.4-0.2,2.7,0.7,3.9c-0.1,0.1-0.1,0.1-0.2,0.3
			c0.4,3.5,0.4,6.9,0,10.4c-0.1,0.7-0.2,1.6,0.6,2.1c-0.3,0.4-0.4,0.6-0.2,1c-0.1,0.5-0.3,0.9-0.2,1.4c-0.2,1.6-0.3,3.1-0.6,4.6
			c0,0,0.1,0.1,0,0.2c-0.2,0-0.3-0.1-0.6,0c-1,1.9-1.5,4.2-2.6,6.1c-0.4,0.5-0.5,1.2-0.1,1.8l-0.1,0.1c-0.8,0.4-1,1.2-1.3,2.1
			c-0.9,2.9-1.5,5.9-2.9,8.7c-0.2,0.6-0.7,1.2,0.1,2l0.1,0.1c-0.1-0.1-0.1-0.1-0.3-0.2c-0.2,0-0.5,0.2-0.6,0.3
			c-1.8,1.8-2.6,4.2-3.9,6.3c-0.3,0.4-0.4,1.1,0.1,1.4c0,0,0,0-0.1,0.1c-0.2,0-0.2,0-0.4,0.1c-1.3,1-0.9-0.1-0.9-0.6
			c0-2.1,0.7-4.2-0.5-6.2c0.1-0.7,0.3-1.3,0-1.9c0.1-0.3,0.1-0.7,0.2-1c0.4-0.8,0.7-1.6,0.7-2.5c0.4-0.6,0.6-1.4,0.6-2.4
			c2.3-4.4,4.3-8.8,5.3-13.7c0.5-1.3,0.5-2.6,0.6-4.1c1-4.6,1.7-9.1,1.1-13.9c0.4-0.5,0.4-1.1,0-1.7c-0.6-2.7,0.3-5.6-0.4-8.2
			c0.4-2.7-0.5-5.2-1.2-7.6c0,0,0,0,0.1-0.1c0.7-1-0.1-2-0.4-2.9c0.7,0.1,1,0.7,1.3,1.3c0.1,0.1,0,0.2,0.2,0.3
			c0.1,0.1,0.1,0.1,0.2,0.3l0.1,0.1c0.1,0.4,0.4,0.8,0.7,1.1c0,0.2-0.1,0.3,0,0.6C248.4,376.6,249.8,378.9,250.9,381.4z
			 M241.6,366.2c0.3,0.2,0.5,0.4,0.8,0.5c0,0.2,0.1,0.4,0.2,0.5c-0.1,0.1-0.1,0.3-0.1,0.5c0,0.6,0.1,1,0.4,1.2
			c-0.5,1.7,0.3,3.4,1.2,4.8c0,0,0.1,0.1,0.2,0c0.5,2.2,0.9,4.4,1.3,6.7c0.2,3.5,0,7,0.5,10.5c-0.5,4.7-0.9,9.3-1.4,14
			c-0.1,0.9-0.2,1.9-0.3,2.8c-1.3,4.3-2.6,8.7-4.7,12.6c-0.4,0.3-0.8,0.6-1.2,0.9c0-0.2-0.2-0.3-0.2-0.5c0.5-0.8,0.2-1.6-0.1-2.3
			c0.3-0.9-0.5-1.7-0.4-2.6c0.1-1.8-0.2-3.5-0.7-5.2c-0.3-2.5-0.7-4.8-1.6-7.1c0.3-1.3-0.1-2.5-0.5-3.8c-1-3.4-2.1-6.6-2.4-10
			c0.1-0.7,0-1.3-0.3-1.9c-0.6-5-1.3-9.9-1.8-14.8c-0.1-6.5-1.4-12.8-1.7-19.2c0.1-1.2-0.5-2.2-1.2-3.1c0.9-1,1.4,0.1,2.1,0.5
			c2,1.8,3.8,3.4,5.6,5.1c0.2,0.9,0.7,1.4,1.4,2.1c0.3,1.2,0.9,1.9,1.7,2.7c0,0,0,0-0.1,0.1C238.7,363.2,240.3,364.6,241.6,366.2z
			 M179.5,332.3c-0.1-0.1-0.4-0.3-0.4-0.5C179.3,331.9,179.4,332.2,179.5,332.3z M174,336.6l0.1-0.1c0.3,0.1,0.8,0,1.1-0.2
			c0.1,0.1,0.1,0.1,0.3,0.2c3.3,0.4,6.7-0.2,9.7,1.4c0.7,0.1,1.2,0.5,1.6,0.6c0.3,0.1,0.5,0.1,0.7,0.3c1.6,0.9,3.3,2,5,2.8
			c3.5,2.5,7,4.9,10.6,7.4c4.7,4,8.7,8.9,13,13.3c0.6,1,1.3,1.9,2.2,2.5c1.6,1.7,2.9,3.7,4,5.6c0.4,1.2,0.9,2.5,1.3,3.7
			c-0.6,0.3-1-0.2-1.4-0.4c-0.3-0.2-0.5-0.4-0.8-0.5c-0.3-0.9-1-1.8-1.7-2.3c-0.6-1.3-1.6-2.3-2.7-3.2c-0.5-1.1-1.5-1.6-2.5-2.1
			c-1.3-1.9-3.3-2.8-5-4.1c-1.8-2-4-3.4-6.4-4.5c-0.1-0.1-0.3-0.2-0.4-0.3c-1.2-0.7-2.2-1.9-3.7-2c-2.8-1.6-5.6-3.2-8.7-4.4
			c-4.7-2.7-9.9-4.1-14.7-6.4c-0.8-0.4-1.6-1.1-2.5-1.2c-0.6-0.2-1.2-0.5-1.9-0.6c-1-0.9-2.3-1.2-3.7-1.5c-0.3-0.2-0.4-0.5-0.5-0.6
			c-2.6-1.4-5.5-2-8.2-3.3c-0.3-0.1-0.7-0.3-1.1-0.4c3.7,0.7,7.4,1.2,11.2,0.6l0.1-0.1C170.7,337.8,172.3,337.2,174,336.6z
			 M158.9,360.6c0,0-0.1-0.1-0.2-0.3c0.2-0.3,0.5-0.2,0.9,0.1c0.3,0.4,0.6,0.8,0.9,1.2c1.1,1.7,2.8,2.4,4.3,3.6l0.1,0.1l0.1,0.1
			c4.9,4,9.9,7.9,15.2,11.6c0.4,0.3,0.8,0.5,1.1,0.8c2.8,2.4,6.3,3.3,9.5,5c4,2.1,8,4.1,12,6.2c6.7,4.7,13,9.9,19.3,14.7
			c3.2,4.3,6.4,8.6,9.5,12.9c0.6,1.3,1.3,2.8,2.2,4c0,0.2,0.1,0.4,0.2,0.5c0,0.8,0.6,1.3,0.9,1.9c0,0.2,0.1,0.4,0.1,0.4
			c-0.1,1.4,0.2,2.9,0.5,4.3c0,0.2-0.1,0.3,0,0.6c-0.1,0.9-0.1,1.8,0.1,2.7c-0.6,1.1-0.1,2.2-0.2,3.2c0,0.2,0.1,0.4-0.1,0.5
			c-0.2,0-0.4-0.3-0.5-0.4c-0.1-0.1-0.3-0.2-0.5-0.4c-0.3-1.9-1.1-3.8-2.2-5.5c0.1-0.1,0.2-0.3,0.1-0.3c0-1.1-0.8-2.1-1.2-3.1
			c-0.3-1.2-0.8-2.3-1.8-3.1c-0.4-1.2-1-2.4-2.2-3.3c-0.5-1.1-0.9-2.2-2-3.1c-2.3-2.9-5.1-5.3-7.8-7.9c-1.3-1.3-2.4-3.2-4.6-3.6
			c-0.6-0.4-1.3-0.9-2-0.9c-2-1.2-4.3-1.7-6.6-1.3c-2.2,0.5-4.5,0.8-6.8,0.3c-0.6-0.4-1.4-0.4-2-0.3c-0.6-0.4-1.3-0.9-2.2-0.9
			c0,0,0,0-0.1-0.1s-0.1-0.1-0.3-0.2c-0.9-0.6-1.8-1.4-3-1.6c-2.4-0.9-4.7-2.2-7.2-2.3c-1.7-1-3.4-2.4-5.4-2.7
			c-0.8-0.5-1.5-0.8-2.2-1.4c-1.1,0.2-1.7-1-2.7-1c-0.9-0.6-1.8-1.4-3-1.6c-0.1-0.1-0.1-0.1-0.3-0.2c-0.2-0.7-1.1-1.1-1.6-1.7
			c-0.3-0.9-1.1-1.1-1.6-1.7c-0.3-0.6-0.9-1.2-1.4-1.5c0-0.2-0.2-0.3-0.2-0.5c-1.3-1.6-3-3-2.9-5.2c-0.1-0.1,0-0.2,0-0.2
			c0.1-0.1,0.3-0.4,0.1-0.7c-0.1-0.6-0.4-1.2-0.6-1.9c0.1-0.1,0.2-0.3,0.3-0.4c0.3-0.9,0.1-2-0.6-2.7c-0.1-0.1-0.1-0.1-0.3-0.2
			c0-0.8-0.2-1.6-0.4-2.4c0.1-0.3,0.1-0.7,0.2-1c0-0.2-0.1-0.4-0.2-0.5C159.5,366.9,159.3,363.7,158.9,360.6z M199,509.2l0.2,0
			C199.1,509.3,199.1,509.3,199,509.2z M259.8,432.9c-0.1,0.1-0.1,0.1-0.1,0.3c-0.7,0.2-1.3,0.6-2.1,0.8l-0.1-0.1
			c-0.3-0.1-0.6,0.1-0.8,0.4c-0.9-0.6-1.6-0.2-2.4,0.4c-0.3,0.4-0.6,0.5-1,0.6c-0.1-0.1-0.2,0-0.3-0.2c0,0,0-0.2,0.1-0.5
			c0.1-0.1,0.4-0.3,0.6-0.3c0.5-0.4,0.7-0.8,1.1-1.3c0.1,0.1,0,0.2,0.2,0.3c2.9-1.5,6.1-2.5,8.8-4.2c0.1-0.1,0.2-0.3,0.3-0.4
			c0.3-0.2,0.7-0.2,1-0.6l0.2,0c0.1-0.1,0.3-0.2,0.4-0.3c0.8-0.4,1.6-0.7,2.5-1.1c0.5,0.1,0.9,0.1,1.2-0.1c1.8-0.6,3.5-1.5,5.1-2.4
			c4.5,1.1,8.1,3.8,11.7,6.5c0,0.8,0.6,1,1.1,1.3c-0.1,0.9,1.9,1.3,0.8,2.4c0.1-0.1,0.1-0.1,0.1-0.3c-1.8-2.6-4.3-3.6-7.3-4
			c0,0.2-0.1,0.3,0,0.6c-0.1-0.1-0.1-0.1-0.3-0.2c-0.6-0.2-1-0.5-1.6-0.2c-0.1-0.1-0.3-0.1-0.5-0.1c-0.8-0.2-1.7-0.5-2.5,0.3
			c-1.1-0.6-2,0.1-3,0.3c-1,0.1-2.2,0.2-3.2,0.2c-0.1-0.1-0.3-0.2-0.3-0.4c-1.7-0.5-3.5-0.6-5.1,0.8c-0.7-0.1-1.3,0-1.8,0.4
			C261.5,431.5,260.6,432.2,259.8,432.9z M294.5,452.7c-0.1-0.1-0.3-0.2-0.3-0.2c-0.1-0.1,0.1-0.1,0.1-0.1c0.5-1,0.4-2,0-3
			c0-0.2-0.1-0.4-0.2-0.7c0.3-1.3,0.7-2.5,0.3-3.9c0.1-0.5,0.3-0.9,0.1-1.4c0.2-0.3,0.1-0.7,0.1-0.9c0-0.2,0-0.2-0.2-0.3
			c0.4-1.1,0.4-2.2,0.2-3.2c0-0.2-0.1-0.4,0-0.6c0.4-1.1,0.3-2-0.2-2.9c0.1-0.9-0.4-1.8-1.1-2.5c0.5-1.5-0.8-2.3-1.5-3.3
			c0,0,0,0-0.1-0.1c0.2,0,0.6,0,0.9,0.1c4.4,2.5,8.7,5.3,12.4,8.9c1.4,4,2.8,8,2.7,12.2c0,0.8,0,1.5,0.1,2.3c-0.6,2.4,0.1,5-0.7,7.4
			c-0.8,0.9-0.9,2-1.1,3.2c-0.3,0.7-0.8,1.5-1,2.3c-0.4,1.1-1,0.8-1.4,0.4c0.1-0.1,0-0.2,0.1-0.3c-0.2-1.1-0.9-1.6-1.8-2
			c-3.2-1.9-5-4.6-6-8C295.4,454.9,295.1,453.7,294.5,452.7z M301.2,479.6c-0.1-0.1-0.1-0.1-0.1-0.1c0.4-2.5,1.4-4.9,2.8-7.2
			c1.5-1.8,2.2-3.9,2.6-6.1c0.4-0.6,1.1-1.3,0.9-2c-0.2-0.5,0.3-0.9,0.4-1.4c0.7-1,1.3-1.9,1.1-3.2c0.1-0.9,0.1-1.8,0.2-2.7
			c0.4-1.1,0.4-2.2,0.1-3.3c0.1-0.3,0.1-0.7,0.2-1c0.4-0.5-0.4-1.4,0.7-1.8c0.3,0.4,0.7,0.9,1,1.3c0.6,3.4,2.7,6.4,3.6,9.6
			c1,3.1,3.1,6,2,9.5c-0.6,1.4-1,2.8-0.2,4.3c-0.1,2.3,0,4.5-0.9,6.9c-1.5,2.9-2,6.1-2.9,9c-0.6,0.9-1.5,1.8-1.5,2.9
			c-0.1,0.1-0.2,0.3-0.3,0.4c-0.6,0.9-1.4,1.7-1.5,2.9c-0.6,0.9-1.5,1.8-1.5,2.9c-1,1.7-2.3,3.5-3.2,5.3c-1.8,3.4-4.3,6.4-5.4,10.1
			c0,0,0.1-0.1,0.2,0l-0.1-0.1c-0.4,0.6-0.9,1.3-0.9,2.2l0.1,0.1c0,0,0,0-0.1-0.1c-0.8,1.5-1.7,3.2-1.8,4.9c-1.2,0.9,0,3-1.9,3.5
			c-0.3-0.6-0.7-1.2-1-1.8c-0.4-1.2-1.1-2.5-1.5-3.7l0.1-0.1c0.5-1,0.2-1.9-0.5-2.8l-0.1-0.1c1.1-2.1,1.3-4.2,0.5-6.4
			c0.2-0.8,0.4-1.6,0.2-2.5c0.1-0.1,0.2-0.3,0.1-0.5c0,0,0,0,0-0.2c0.4-0.8,0.5-1.7,0.4-2.5c0.1-0.1,0.1-0.1,0.2-0.3
			c0.1-0.1,0.1-0.3,0.1-0.3c1.3-1,1.3-2.4,1.3-3.8c0-0.2-0.2-0.3-0.3-0.4c0.2-0.3,0.3-0.4,0.4-0.6c0.4-0.3,0.6-0.5,0.8-0.9
			c0.3-0.4,0.4-0.8,0.4-1.4l0.1-0.1l0-0.2c0.6-0.3,0.9-0.7,1.1-1.3c0.1-0.3,0.1-0.5,0.1-0.7c0.5-0.8,1.1-1.3,1.5-2.1
			c0.4-0.3,0.7-0.7,0.9-1c1.6-2.3,3.1-4.4,2.6-7.4c-0.2,0-0.3-0.1-0.6,0l0.1-0.1C302.3,483.3,301.7,481.5,301.2,479.6z M302.9,547.1
			c-0.1-0.6-0.2-1.3-0.2-1.8c1-4.2,2.1-8.3,4.8-11.7l-0.1-0.1l0,0.2c2.9-3,4.9-6.5,7.4-9.8c4.3-5.1,8.1-10.5,12.1-15.7
			c3.6-4.6,6.3-9.8,8-15.4c0.3-0.9,0.5-1.7,0.7-2.7c0.4-0.6,0.7-0.2,1,0.2c0.4,2.4,0.8,4.7,1,7.1c-0.1,1.4-0.2,2.9-0.1,4.2
			c-0.2,0.3-0.4,0.5-0.4,0.8c-0.9,5.6-1.4,11.1-4.8,16c-1.9,2.8-3.3,6-5.2,8.8c-2.7,3.9-4.8,8.2-7.2,12.4c-3.7,7-7.4,13.8-11.3,20.6
			c-0.2,0.3-0.4,0.8-0.7,0.8c-0.6,0.1-0.6-0.4-0.8-1c-0.8-1.3-0.8-2.8-1.7-4c-0.2-0.3-0.2-0.5-0.3-0.9c-0.5-1.1-0.7-2.5-1.2-3.7
			C303.9,549.8,304.3,548.1,302.9,547.1z M340.5,501.5c0.1,2.7,1.2,5.3,1.7,8c0.6,2.9,1.2,5.7,2.1,8.6c0.2,2.4,0.5,4.7,1.1,7
			c-0.2,0.8,0,1.5,0.2,2.4c-0.1,0.5-0.1,0.9,0.2,1.3c0.2,0.7,0.4,1.6,0.6,2.3c0.2,1.1,0.2,2.2,0.7,3.1c0.4,1.6,0.8,3.2,1,4.8
			c0.3,1.5,0.5,3-0.1,4.4c-0.2,0-0.4,0.1-0.8,0.4c-1.3,0.8-2.1,1.7-3.1,2.9c-0.2,0.3-0.2,0.6-0.4,0.8c-0.4,0.3-0.7,0.7-0.9,1
			l-0.1,0.1c-0.1,0.1-0.1,0.1-0.2,0.3c0,0,0,0-0.1,0.1c-0.9-0.3-0.4-1.8-1.5-1.8c-0.2-2.4-0.4-4.8-0.7-7.1c0.3-0.7,0.3-1.5-0.3-2.3
			c-0.1-0.4,0.1-0.9,0-1.3c0.3-0.9,0.1-1.8-0.4-2.6c0-0.6,0-1.1,0-1.5c0.4-0.8,0.3-1.5-0.1-2.3c-0.4-2.9,0.5-5.8-0.2-8.6
			c0.7-0.8,0.7-1.8,0.2-2.7c0-0.2-0.1-0.4-0.1-0.6c0.5-1,0.2-1.9-0.2-2.9c0-1.1,0.1-2.2,0.1-3.3c0.1-0.5,0.2-1.1,0-1.7
			c0.2-0.8-0.6-1.6-0.1-2.3c0.4-0.8,0.7-1.8,0.2-2.7c-0.1-0.4-0.2-0.9-0.2-1.3c0.1-0.7,0.2-1.4,0.3-2c0.2-0.3,0.6-0.5,0.9-0.5
			C340.4,501.2,340.4,501.5,340.5,501.5z M337.9,518.9c0,0.2,0.1,0.4,0.1,0.6c-0.4,2.7-0.7,5.5-0.3,8.2c-0.2,0.8-0.2,1.6,0.2,2.4
			c-0.3,0.7-0.2,1.6,0.1,2.3c-0.2,0.8-0.3,1.5,0.3,2.3c-0.2,1-0.2,1.9,0.2,2.9c-0.2,1-0.3,2,0.2,2.9c-0.1,2.6,0.4,5,1.1,7.3
			c-0.1,0.1-0.3,0.4-0.4,0.5c-0.1,1.2,0.5,2.4-0.6,3.5c-2.4,2.4-4.1,5.6-5.6,8.5c-1.2,2.5-3,4.8-3,7.8c0.1,0.1,0.3,0.2,0.4,0.3
			c-0.2,0-0.3,0.4-0.4,0.5c0,0,0,0,0.1,0.1c-0.4,1.1,0.2,2.2-0.5,3.2c-0.4-0.8-0.7-1.6-1.2-2.3c0,0-0.1-0.1,0-0.2
			c-0.5-1.1-1.1-2.2-1.2-3.3c-1.2-6.1-2.7-12.2-2-18.5c0.7-7.2,1.8-14.1,6.3-20.2c2.4-3.2,4.2-7,5.6-10.9c0.3-0.4,0.4-0.6,0.9-0.5
			c0.1,0.1,0,0.2,0.3,0.2C337.6,517.3,337.7,518.2,337.9,518.9z M325.7,534.7C325.6,534.9,325.6,534.9,325.7,534.7z M334.1,567.3
			C334,567,334,566.8,334.1,567.3z M348.4,543.3c0.1-0.1,0.3-0.2,0.4-0.1c0,0,0,0.2-0.1,0.3C348.7,543.5,348.5,543.4,348.4,543.3z
			 M310.4,568.1c0.7-1,0.3-2.3,0.2-3.2c0-0.8,0.1-1.4,0.2-2.1c1-2.7,2.4-5.3,3.7-7.7c2-3.7,4.4-7.3,5.5-11.6
			c0.9-1.3,1.8-2.5,2.9-4.2c0,1.1,0,1.7-0.1,2.2c-0.5,0.8-0.7,1.6-0.7,2.5c-0.8,1.7-0.2,3.5-0.4,5.2c-0.1,0.9-0.3,1.8-0.1,2.8
			c0.2,2.2-0.7,4.4,0.4,6.7c0.1,0.4,0.2,0.7,0.3,1.2c0.1,1.2,0.2,2.4,0.5,3.6c-0.1,0.9,0.1,1.8,0.4,2.6c-0.1,1.2,0.4,2.1,1.2,3.1
			c0.6,1.9,1,3.9,2.1,5.6c0.1,0.4,0.2,0.7,0.2,1.1c0.7,2.2,1.8,3.9,3.5,5.5c1.3,1.3,2.8,2.5,3.6,4.2c0,0,0,0,0,0.2
			c-2.5-2.1-5.5-2.9-8.3-4.2c-0.1,0.1-0.1,0.3-0.2,0.6c-0.1-0.1-0.1-0.1-0.3-0.2c-1.7-1.4-3.8-2.1-5.8-2.9c-2.9-1.5-4.5-4.3-6.6-6.3
			c-0.4-1-0.9-1.9-1.6-2.8C311.3,568.9,311.1,568.4,310.4,568.1z M338,583.8c0.2,0,0.1,0.1,0.3,0.2
			C338.2,583.9,338.2,583.9,338,583.8z M354.3,535.4c-0.1,0.1-0.1,0.1-0.2,0.3c-1,0.8-1,2.3-1.7,3.3c-0.3,0.2-0.7,0.5-0.9,0.7
			c-0.5,0.4-0.8,1.3-1.6,1.2c-0.9-0.3-0.6-1.3-0.7-2c-0.5-2.4-0.6-5-1.8-7.3c-1.1-4.5-1-9.3-2.1-13.9c-0.1-3.1-1.5-5.9-2.1-9
			c-0.9-2.7-0.8-5.6-2.1-8.2c0.2-1.4-0.4-2.4-0.9-3.5c-0.5-3.3-1-6.6-1.5-9.9c0.2-1.1,0.2-2.1-0.8-2.8c0.4-0.3,0.8,0,1.1,0.2
			c0.5,0.9,1.1,1.7,1.6,2.6c2.6,5.1,4.2,10.6,6.1,15.9c0.9,3.3,1.9,6.4,2.8,9.7c0.2,0.7,0.5,1.5,0.7,2.2c0.3,1.5,0.5,3,0.8,4.5
			c0.6,2.3,1.4,4.7,1.9,7.2c0.1,0.6,0.3,0.9,0.8,1c-0.7,1.6,0.1,2.9,0.6,4.2c-0.1,0.1-0.1,0.1-0.2,0.3
			C354,533.2,353.8,534.3,354.3,535.4z M359.2,474.1c-0.4,0.6-0.5,1.3,0.2,1.6c-0.1,0.7-0.3,1.5,0.2,2.1c-0.3,1.7-0.6,3.3,0.2,5
			c-0.8,1.3-0.6,2.8-0.7,4.2c0,0.2,0.1,0.4,0.1,0.6c-0.1,0.3-0.1,0.7-0.2,1c-0.2,0.3-0.3,0.4-0.4,0.6c-0.2,2.9-1.1,5.8-0.9,8.8
			c0.1,0.1,0.1,0.1,0.2,0c0,0,0,0-0.1,0.1c-0.6,0.3-1,0.6-0.3,1.3c-0.1-0.1-0.2,0-0.4,0.1c-1.3,1.9-2.3,4-2.4,6.4
			c0.1,0.1,0.3,0.2,0.6,0.2l-0.2,0c-0.7,0.2-0.9,0.7-0.8,1.3c0.1,0.1,0,0.2,0.2,0.3c-0.2,0.6-0.5,1.2-0.5,1.7
			c-0.1,0.1-0.2,0.3-0.4,0.5c-0.7,1.6-0.5,3.2-0.2,4.8c0.1,0.1,0.2,0.3,0.2,0.3c-0.8,1.9-0.1,3.7,0.9,5.4c-0.6,1.1-0.4,2.2,0.3,3
			c-0.6,0.5-0.5,1.3-0.4,2c-0.4-0.3-0.3-1.2-0.8-1.3c-0.9-1.6-0.8-3.7-1.8-5.2c0-1.7-0.1-3.1-0.8-4.5c0.2-1,0-2.1-0.8-2.8
			c-0.4-2.9-1.4-5.7-2.5-8.5c-1.8-7.3-4.5-14.2-8.5-20.6c-0.3-1.5-1-2.8-1.7-4c-0.9-2.5-2.1-4.7-3.8-6.6c-0.9-2.2-1.9-4.3-2.9-6.3
			c-0.5-1.1-1.1-2.2-1.6-3.4c-1-1.8-1.8-3.5-2.7-5.5c0.1-0.1,0.1-0.3-0.1-0.4c0.8-0.4,1.3,0.3,1.8,0.7c0.4,0.3,0.8,0.5,1,0.7
			c0.4,1,1.2,1.4,2.1,2.1c0.9,1.6,2.5,2.3,3.9,3.3c1.2,1.6,2.5,2.9,4,3.9c1.2,1.6,2.8,2.5,4.1,3.5c2.1,2.4,4.8,3.9,7.3,5.7
			c1.5,1.3,3.1,2.5,4.7,3.7c0.5,0.4,1,1.3,1.6,0.4c0.4-0.6-0.2-1.3-0.9-1.7c-1.4-1.2-2.9-2.2-4.4-3.3c-0.4-0.3-0.8-0.5-1.1-0.8
			c-1.7-2.1-4.1-3.3-6.1-4.9c-0.3-0.2-0.4-0.3-0.6-0.4c-2.1-1.8-4.2-3.7-6.3-5.5c-0.7-1.2-1.8-1.7-2.9-2.6c-1.4-2-3.5-3-5.1-4.7
			c-0.4-0.5-0.7-1.1-1.2-1.8c1.9,0,2.9,1.7,4.6,1.9c3.4,2,6.4,4.8,9.9,6.4c2.3,2,4.9,3.7,7.5,5.3c1.5,1.1,2.9,2,4.3,3.2
			c-0.3,1.3,0.7,1.4,1.4,2.1C357.5,474.2,358.5,473.8,359.2,474.1z M353,461.3c0.1,0.1,0.4,0.3,0.6,0.2c0.4,1.2,1.1,2.5,1.8,3.5
			c-0.2,0.3-0.1,0.5-0.1,0.7c0.3,0.9,0.7,1.6,1.5,2.2c-0.2,1,0.1,1.8,1.1,2.1c0,0,0,0-0.1,0.1c-0.1,0.9-0.8,0.4-1.2,0.4
			c-1.9-1.3-3.2-3.4-5.7-4c-2.4-2.8-5.5-4.4-8.6-6.2c-0.4-0.3-0.9-0.6-1.2-1c-0.4-0.3-0.7-0.7-1.3-0.9c-4.2-3.1-8.8-5.6-13.6-7.6
			c-0.1-0.1-0.1-0.1-0.3-0.2c-2.4-1.7-4.9-3.4-7.3-5.1c-1.3-0.9-1.9-2.3-3.6-2.6c-1-0.7-2-1.4-3.1-2c-1.3-1.7,0.6-1.1,1.1-1.5
			c0.9,0.3,1.8,0.7,2.6,0.1c0.5-0.2,0.9,0.3,1.4,0.4c2.3,0.7,4.7,1.4,7,2.1c4.4,1.2,8.4,3.6,12.4,5.5c4.7,3.1,10.4,5,14,9.7
			c0.2,0.3,0.2,0.5,0.2,0.9C351.3,459.5,352.1,460.4,353,461.3z M313.1,425.4l0-0.2C313.1,425.4,313.1,425.4,313.1,425.4z
			 M290.5,423.4c0.3-0.2,0.6-0.3,0.9-0.3c0,0,0.1,0.1,0.2,0c0.2,0,0.6-0.1,1-0.1c0.4-0.1,0.9-0.2,1.2-0.4c0.5,0.9,1.3,1.1,2.4,0.6
			c0.1,0.1,0.1,0.1,0.3,0.1c1.1,0.6,2.2,0.9,3.5,0.9c0.8,1.3,1.8,1.7,3.2,1.5c0.1-0.1,0.3-0.4,0.4-0.5c0,0,0,0,0,0.2
			c0.8,0.4,1.7,1,2.8,0.8c2.7,1.2,5.3,2.4,8,3.6c0.1,0.1,0.4,0.3,0.6,0.2c0,0.2,0.1,0.4,0.1,0.6c0.5,0.7,1.1,1.1,1.8,1.4
			c3.5,1.4,6.8,3.7,10.3,5.1c0.2,0,0.3-0.2,0.5-0.4c1.1,2.2,3.5,2.8,5.2,4c0.5,0.4,0.8,0.2,1.1-0.2c0.3,0.2,0.6,0.4,1,0.5
			c0.1,0.1,0.3,0.2,0.4,0.3c0.4,0.3,0.8,0.5,1.1,0.8c2.3,1.8,4.6,3.6,6.9,5.4c-0.1,0.5,0.8,0.7,0.3,1.4c-0.3-0.1-0.6-0.2-0.9-0.3
			c-0.9-0.8-2-1.4-3.1-2c-1-0.2-1.9-0.8-3-1.3c-6.1-3.3-12.4-6.1-19.4-7.2c-0.3-0.1-0.7-0.1-0.9-0.1c-0.8-0.4-1.8-0.7-2.7-0.2
			c-0.2,0-0.2,0-0.3,0.2c-0.3-0.2-0.6-0.2-0.7-0.3c-1.1-0.2-2.1,0.4-3.2,0.6c-1.3-0.9-2.6-1.9-3.9-2.7c-2.9-2-5.6-4.1-8.8-5.6
			c-2.7-1.5-5.1-3.7-7.9-5c-0.4-0.3-0.8-0.5-1-0.7c-0.6-0.2-1-0.7-0.6-1.3C288.3,424.3,289.5,423.5,290.5,423.4z M318.4,371.6
			C318.3,371.7,318.3,371.7,318.4,371.6z M324.2,368C324.1,367.9,324.2,367.8,324.2,368C324.2,367.8,324.2,367.8,324.2,368z
			 M369.3,336.9c-1.6-0.7-3.1-0.7-4.5,0c-0.1,0.1-0.1,0.1-0.2,0.3c-0.7-0.1-1.1,0-1.6,0.2l-0.1-0.1c-1-0.2-2.2-0.6-2.5,0.9
			c-0.6-0.2-1.3-0.3-1.6,0.4c-0.5-0.1-0.8,0-1.2,0.1c-0.7,0.5-1.6,0.6-2.3,0.6c-1.9,0.6-4,0.6-5.3,2.3c-1.8-0.3-3,0.5-4,1.9
			l-0.1-0.1c-3.2,0.8-5.3,3.2-7.8,5c-0.2,0.3-0.4,0.5-0.5,0.8c-0.9,0.5-1.8,1.2-2.4,2.1c0,0-0.1,0.1-0.2,0c-0.2,0-0.3,0.2-0.6,0.3
			c-0.1,0.1-0.4,0.3-0.5,0.4c-0.2,0-0.3,0.2-0.5,0.4c-0.3,0.2-0.7,0.5-1,0.6c-0.1,0.1-0.4,0.3-0.5,0.4c-0.3,0.4-0.7,0.7-0.8,0.9
			c-0.5,0.4-1,1-1.5,1.6l-0.2,0c-0.1,0.1-0.3,0.2-0.3,0.2c-0.3,0.2-0.5,0.4-0.7,0.7c-0.2,0.3-0.4,0.3-0.7,0.5
			c-0.1,0.1-0.4,0.3-0.5,0.4c-0.2,0.3-0.5,0.4-0.6,0.9c-0.2,0.3-0.4,0.5-0.4,0.6c-2.5,2.5-4.6,5.4-6.1,8.7c-2.3,3.6-4.7,7.2-7,10.8
			c-0.7,0.7-1.3,1.3-2,2c-0.4,0.3-0.9,0.7-1.7,1.3c-0.1,0.1-0.3,0.4-0.2,0.6c0,0,0,0-0.1,0.1c-1.7-0.3-2.5,1.1-3.2,2.1
			c-2,3.1-4.6,5.8-6.9,8.7c-0.4,0.5-0.5,1.5-1.6,0.9c0-0.2-0.2-0.3-0.3-0.4c0.3-0.7,0.6-1.4,0.7-2.3c0.9-2,1.7-4.1,2.6-6.1
			c0.1-0.1,0.2-0.3,0.2-0.3c0.2,0,0.6,0,0.7-0.2c0.4-0.3,0.7-0.7,0.9-1c1.4-2.8,2.9-5.3,4.8-7.7c0.8-0.9,1.3-2.1,1.4-3.3
			c0-0.2,0-0.2-0.2-0.3c1.9-2.8,3.9-5.3,5.6-8.3c1.5-2.4,3.7-4.2,4.5-7c0-0.2-0.1-0.4-0.1-0.6c0.1-0.1,0.2,0,0.3-0.2
			c1.6-0.7,2-2.6,3.1-3.6c0.2-0.3,0.4-0.5,0.5-0.8c4.9-6.7,9.9-13.6,16.2-19.1c2.5-2,5.6-3.2,8.4-4.8c0.6-0.1,1.4-0.4,1.8-1
			c0.6,0,1.1-0.2,1.4-0.7c1-0.4,2.2-0.7,3.2-1.1c0.4-0.1,0.9-0.2,1.3-0.2c0.6,0.2,1.1,0.2,1.6-0.2c0.7,0.1,1.4,0.2,1.9-0.3
			c0.5-0.2,1.2-0.3,1.6-0.4c0.3,0.2,0.6,0.4,1,0.2c6.3-0.1,12.4,0.2,18.6,1.6c2.1,0.5,4.2,1,6.2,1.6c2.1,0.7,3.9,2,5.5,3.3
			c0.1,0.6,0.6,1,1.2,1.4c0.4,0.8,0.7,1.4,1.4,2.1c0.2,0.7,0.6,1.3,1,1.8c0.3,1.2,0.5,2.4,1.6,3.4c0.7,1.6,1.5,3.3,2.2,4.9
			c0.1,0.4,0.2,0.7,0.4,1.2c-0.4,0.3,0.4,1.2-0.5,1.2c-0.1-0.1-0.1-0.1-0.2-0.3c-0.1-0.1-0.3-0.4-0.4-0.5c-0.1-0.1-0.3-0.2-0.3-0.2
			c-0.5-0.7-1.1-1.1-1.7-1.6c-3.8-2.6-7.9-4.2-12.3-5.4c-0.9-0.3-1.9-0.6-2.9-0.2c-0.6,0-1.1-0.4-1.7,0c0,0,0,0,0.1-0.1
			c-0.3-0.2-0.6-0.4-0.9-0.3c0,0,0,0-0.1,0.1c-0.3-0.4-0.8-0.4-1.3-0.5c-0.3-0.1-0.8-0.2-1.1-0.2c-0.1-0.1-0.3-0.1-0.5-0.1
			c-0.3-0.1-0.6-0.2-0.9-0.3c-0.1-0.1-0.2,0-0.4,0.1C372.3,335.8,370.8,336.4,369.3,336.9z M385.2,341.8c-0.1,0.1-0.3,0.2-0.4,0.3
			C384.8,341.9,384.9,341.7,385.2,341.8z M399.8,395.4c-0.1-0.1-0.1-0.1-0.3-0.1c0.1-0.3,0.1-0.7,0.1-0.9l0.2,0
			c0.6-1.9,0.3-3.6-0.7-5.2c0.7-2.7,0.5-5.3,0.2-8c-0.1-0.1-0.3-0.2-0.4-0.3c0.6-0.3,0.8-0.9,1-1.4c0.3-2,0.6-4.3,0.9-6.3
			c0-0.2,0.1-0.3-0.1-0.4c0.9-1.8,1.5-3.8,1.5-5.7c0.2-2.1,1.1-4.3-0.2-6.4c0.6-0.9,0.3-1.8,0.2-2.9c0.1-0.1,0.3-0.4,0.2-0.6
			c0.1-0.3-0.1-0.6-0.3-0.9c0,0,0,0-0.1-0.1c0.1-0.3,0.1-0.7-0.1-1c0.2-0.6,0.3-0.9-0.3-1.4c0.9-1,0.6-2-0.2-2.9
			c-0.1-0.1-0.1-0.1-0.3-0.1c0-0.2-0.1-0.4-0.1-0.6c-0.5-2-0.3-4.1-1.4-6c-0.1-1.8-0.8-3.2-1.9-4.3c0.1-0.5-0.3-0.6-0.5-0.9
			c0.1-0.1,0.1-0.3,0.1-0.3c0-0.8-0.4-1.4-0.9-1.7c0-0.2-0.1-0.4-0.1-0.6c-0.2-1.1-0.8-1.9-1.3-2.8c-0.2-1.1-0.9-1.6-1.4-2.5
			c-1.1-1.7-3-2.5-4-4.1c0-0.2-0.2-0.5-0.5-0.6c-1.8-2-3.8-3.4-6.6-4c-0.1-0.1-0.1-0.1-0.3-0.1c-2.9-0.9-5.8-1.8-8.8-2.8
			c-1.7-0.3-3.2-1.5-5.1-1.3c0-0.2,0.1-0.7,0.2-1c0.5,0.1,0.9,0.1,1.2-0.3c0,0,0,0,0.1,0.1c1,0.2,1.9,1,3,0.2l0.1,0.1
			c1.3,1.1,2.9,0.9,4.3,1.3c3.9,1.1,8.1,1.9,12.1,2.3c0.1-0.1,0.2,0,0.3-0.2c0.8,0.4,1.9,0.6,3,0.6c1.3,0.3,2.5,0.7,3.8,0.8
			c3.2,1.9,6.6,2.9,9.9,4.3c2.1,1.3,4.5,2.2,6.3,3.9c0.3,0.2,0.5,0.4,0.8,0.5c0.8,0.7,1.6,1.5,2.4,2.2c1.7,1.9,3,4,3.9,6.3
			c0,1.3,0.1,2.5,0.1,3.8c-0.4,0.8-0.2,1.6,0,2.4c-0.4,0.6-0.3,1.3-0.3,1.8c-0.3,2-1,4-0.9,6.1c-0.1,0.7-0.3,1.5-0.4,2.2
			c-0.2,0.8-0.4,1.6-0.5,2.3c-0.1,2.2-1.7,3.7-2.3,5.5c-0.1,0.1-0.2,0.3-0.2,0.6c-1.5,3.2-4.1,5.8-5.3,9.2c-0.3,0.4-0.5,0.8-0.7,1
			c-0.6,1.1-1.7,1.8-1.7,3.3c-0.6,0.9-1.5,1.8-1.5,2.9c-0.2,0.3-0.4,0.5-0.4,0.6c-0.4,0.6-1.1,1.3-0.9,2.2c-0.1,0.1-0.2,0.3-0.3,0.4
			c-1.7,3.7-3,7.5-3.6,11.6C400.4,395.1,400.2,395.3,399.8,395.4z M413.2,421c0,0,0.1-0.1,0.2,0C413.4,420.9,413.3,420.8,413.2,421
			c0.1-0.1,0.3-0.2,0.4-0.3c-0.5-3-2.6-5.1-5-6.9c-0.2,0-0.3-0.1-0.6,0c-0.1-0.6-0.6-1-1.1-1.3l0.1-0.1c-0.3-1.5-0.8-2.8-2.1-3.7
			c0,0-0.1-0.1-0.2,0c-0.2-1.6,1.4-2.8,1.6-4.4c0.1-0.1,0.2-0.3,0.2-0.3c0.4-0.6,1.1-1.3,1.2-2.2c1.6-2.6,2.9-5.5,4-8.3
			c0.1-0.1,0.2-0.3,0.3-0.4c0.5-0.8,1.4-1.5,1.2-2.5c1.2-2,2.4-4,3.6-5.9c0.5-0.8,1.3-1.5,1.4-2.6c0.2-0.3,0.2-0.6,0.3-0.7
			c1.6-0.4,2-2,2.9-3c0.2-0.3,0.4-0.5,0.4-0.6c1.3-1,1.6-2.6,2.7-3.9c1.4-2,2.7-3.9,2.8-6.5c1-3.3,1.8-6.6,1-10
			c0.2-2.1-0.3-4.1-1-6.1c-0.7-2.2-1.4-4.4-2.1-6.7c0.3,0.1,0.7,0.1,1,0.2c3.8,4.5,6.9,9.4,9.9,14.5c0,0.2,0.1,0.4,0.1,0.6
			c-0.2,2.5,0.5,4.9,0.7,7.3c0.5,3,0.4,6.1,0.3,9.2c-0.1,0.7-0.2,1.4-0.2,2.1c-1,4-1.8,7.9-3.4,11.7c-1.6,3.6-3.2,7.2-4.7,10.8
			c-0.2,0.3-0.4,0.5-0.5,0.8c-1.9,2.8-3.8,5.6-5.1,8.8c-0.4,0.6-1.1,1.3-0.9,2.2c-0.5,1-1.5,1.6-1.5,2.9c-0.6,0.9-1.4,1.7-1.5,2.9
			c-1.3,1.9-1.8,4.2-2.2,6.3c-0.2,0.3-0.3,0.4-0.3,0.7c-0.4,0.3-0.6,1.1-1.3,0.6c0.1-0.1,0.1-0.1,0.2-0.3c-0.2-1.8-0.9-3.5-2.3-4.8
			C413.6,420.9,413.4,420.9,413.2,421z"/>
	</g>
</g>
</svg>
