<?xml version="1.0" encoding="utf-8"?>
<!-- Generator: Adobe Illustrator 24.0.2, SVG Export Plug-In . SVG Version: 6.00 Build 0)  -->
<svg version="1.1" xmlns="http://www.w3.org/2000/svg" xmlns:xlink="http://www.w3.org/1999/xlink" x="0px" y="0px"
	 viewBox="0 0 110 112" style="enable-background:new 0 0 110 112;" xml:space="preserve">
<style type="text/css">
	.st0{display:none;}
	.st1{display:inline;}
	.st2{clip-path:url(#SVGID_2_);}
	.st3{fill:none;stroke:#000000;stroke-miterlimit:10;}
	.st4{fill:#231815;}
</style>
<g id="圖層_1" class="st0">
	<g class="st1">
		<defs>
			<rect id="SVGID_1_" y="0.5" width="110" height="111"/>
		</defs>
		<clipPath id="SVGID_2_">
			<use xlink:href="#SVGID_1_"  style="overflow:visible;"/>
		</clipPath>
		<g class="st2">
			<path d="M3.4,26.5c0.2,0.2,0.6,0.4,1.1,0.4c0.4,0,0.8-0.1,1.2-0.2c0.5-0.1,1-0.2,1.4-0.5c0.5-0.1,1-0.4,1.4-0.4
				c0.5-0.1,1-0.1,1.4,0c0.5,0.1,1,0.4,1.4,0.7c0.4,0.4,0.6,0.7,0.7,1.1s0.1,0.8,0.1,1.3c-0.1,0.5-0.2,0.8-0.5,1.3
				c-0.2,0.5-0.5,0.8-0.8,1.2c-0.1,0.2-0.5,0.6-0.7,0.8c-0.2,0.2-0.6,0.5-1,0.7c-0.4,0.2-0.7,0.4-1.1,0.5s-0.7,0.2-1.1,0.2l-1.4-2.9
				c0.5,0.4,1,0.7,1.4,0.8c0.5,0.1,1,0.2,1.3,0.2c0.4,0,0.8-0.1,1.2-0.2s0.6-0.4,0.8-0.6c0.2-0.4,0.4-0.7,0.4-1.2
				c0-0.5-0.2-0.8-0.6-1.1c-0.4-0.2-0.7-0.5-1.1-0.5s-0.8,0-1.3,0.1c-0.5,0.1-1,0.2-1.4,0.5S5.5,29.3,5,29.3s-1,0.1-1.4,0
				c-0.5-0.1-1-0.4-1.4-0.7c-0.4-0.4-0.6-0.7-0.7-1.1c-0.1-0.4-0.1-0.8,0-1.3c0.1-0.5,0.2-0.8,0.5-1.3c0.2-0.4,0.5-0.7,0.7-1.1
				c0.5-0.6,1-1,1.6-1.3s1.3-0.6,2-0.6l1.4,2.9c-0.5-0.5-0.8-0.8-1.3-1c-0.5-0.2-0.8-0.4-1.3-0.4c-0.4,0-0.7,0-1.1,0.1
				c-0.4,0.1-0.6,0.4-0.8,0.6c-0.1,0.1-0.2,0.4-0.2,0.5c-0.1,0.2-0.1,0.4-0.1,0.6s0.1,0.4,0.2,0.6C3,26.2,3.1,26.3,3.4,26.5z"/>
			<path d="M14.2,26.5l0.2-0.2c0.1-0.1,0.2-0.2,0.2-0.5c0-0.1,0-0.4-0.1-0.6s-0.1-0.4-0.2-0.6c-0.1-0.1-0.2-0.4-0.4-0.5l-7.2-9.8
				c-0.1-0.2-0.4-0.4-0.7-0.5c-0.2-0.1-0.6,0-0.8,0.2H5c0,0-0.1,0-0.1-0.1c0-0.1-0.1-0.1,0-0.1c0.1-0.2,0.2-0.5,0.4-0.6
				c0.1-0.2,0.2-0.4,0.4-0.6c0.4,0,0.4-0.2,0.5-0.4c0.1-0.2,0.2-0.4,0.4-0.6c0-0.1,0.1-0.2,0.1-0.2c0-0.1,0.1-0.1,0.2-0.2
				c0.2-0.2,0.4-0.2,0.4-0.1c0.1,0,0.1,0.1,0.2,0.4l4.3,6c0-0.4,0-0.7,0-1.1c0-0.4,0.1-0.6,0.2-1c0.1-0.2,0.4-0.5,0.5-0.7
				c0.2-0.2,0.5-0.5,0.7-0.6c0.6-0.5,1.2-0.7,1.7-0.7c0.5,0,1.1,0,1.6,0.2c0.5,0.2,1,0.6,1.4,1.1c0.5,0.5,1,1.1,1.4,1.7l1.9,2.6
				c0.1,0.1,0.2,0.2,0.4,0.5c0.1,0.1,0.2,0.4,0.5,0.5c0.1,0.1,0.4,0.2,0.5,0.2s0.4,0,0.5-0.1l0.2-0.2l0.2,0.4l-3.8,2.9l-0.2-0.4
				l0.2-0.2c0.1-0.1,0.2-0.2,0.2-0.5c0-0.1,0-0.4-0.1-0.6c-0.1-0.2-0.1-0.4-0.2-0.6c-0.1-0.2-0.2-0.4-0.4-0.5l-1.9-2.6
				c-1-1.2-1.7-2-2.4-2.4c-0.7-0.4-1.4-0.2-2,0.2c-0.4,0.2-0.6,0.7-0.6,1.3s0.2,1.4,0.6,2.3l2.8,3.7c0.1,0.1,0.2,0.2,0.4,0.5
				c0.1,0.2,0.2,0.4,0.5,0.5c0.1,0.1,0.4,0.2,0.5,0.2s0.4,0,0.5-0.1l0.2-0.2l0.2,0.4l-3.8,2.9L14.2,26.5z"/>
			<path d="M26.2,7.1c0.8-0.4,1.7-0.5,2.4-0.5c0.7,0,1.4,0.1,2,0.5c0.6,0.4,1.2,0.7,1.6,1.3c0.5,0.6,0.8,1.3,1.2,2.2
				c0.2,0.7,0.4,1.3,0.4,2s-0.1,1.4-0.4,2c-0.2,0.7-0.6,1.2-1.1,1.8c-0.5,0.6-1.1,1-1.9,1.2c-1,0.4-1.8,0.5-2.5,0.5
				c-0.7,0-1.4-0.2-2-0.5c-0.6-0.4-1.1-0.8-1.6-1.4c-0.5-0.6-0.8-1.3-1.1-2c-0.2-0.7-0.4-1.4-0.4-2.2c0-0.7,0.1-1.4,0.4-2
				c0.2-0.6,0.6-1.2,1.1-1.7C24.7,7.8,25.5,7.5,26.2,7.1z M30.3,16.8c0.5-0.1,0.8-0.5,1.1-0.8c0.2-0.4,0.4-0.8,0.5-1.3
				c0.1-0.5,0.1-1,0-1.6c-0.1-0.6-0.2-1.1-0.5-1.7c-0.2-0.5-0.4-1-0.7-1.4c-0.4-0.5-0.6-0.8-1.1-1.2c-0.4-0.4-0.8-0.7-1.3-0.8
				c-0.5-0.1-1-0.2-1.7,0c-0.5,0.1-0.8,0.5-1.1,0.8s-0.5,0.8-0.6,1.3c-0.1,0.5-0.1,1,0,1.6s0.2,1.1,0.4,1.6c0.2,0.6,0.5,1.2,0.8,1.7
				c0.4,0.5,0.7,1,1.1,1.3c0.5,0.4,0.8,0.6,1.3,0.7C29.2,17.1,29.7,17.1,30.3,16.8z"/>
			<path d="M42.5,3.3c0.7-0.1,1.3,0,1.9,0.2c0.6,0.2,1.1,0.6,1.4,1c0.4,0.5,0.7,1,1,1.6c0.2,0.6,0.4,1.2,0.5,1.9
				c0.1,0.7,0.1,1.6-0.1,2.3c-0.1,0.7-0.4,1.4-0.7,2c-0.4,0.6-0.8,1.2-1.6,1.6c-0.6,0.5-1.4,0.7-2.3,0.8c-0.4,0-0.8,0-1.2-0.1
				c-0.4-0.1-0.8-0.4-1.2-0.6l0.7,6.2c0,0.1,0,0.4,0.1,0.6c0,0.2,0.1,0.4,0.1,0.6c0.1,0.2,0.2,0.4,0.4,0.5C41.7,22,41.9,22,42,22
				h0.4v0.5l-4.8,0.6v-0.5h0.4c0.2,0,0.4-0.1,0.5-0.2c0.1-0.1,0.1-0.4,0.2-0.5c0-0.2,0-0.4,0-0.6s0-0.4,0-0.6L37.1,7
				c0-0.2-0.1-0.5-0.4-0.7C36.5,6,36.3,6,35.9,6h-0.1V5.9V5.8V5.7c0.2-0.2,0.5-0.4,0.6-0.5c0.2-0.1,0.4-0.2,0.6-0.4s0.4-0.2,0.6-0.4
				c0.2-0.1,0.4-0.2,0.6-0.4c0,0,0.1,0,0.2-0.1c0.1,0,0.1-0.1,0.2-0.1c0.2,0,0.4,0,0.4,0.1s0.1,0.2,0.1,0.5l0.1,1.1
				c0.1-0.4,0.2-0.7,0.5-1c0.2-0.2,0.5-0.5,0.8-0.7c0.4-0.2,0.6-0.4,1-0.5C41.8,3.4,42.2,3.3,42.5,3.3z M42.8,14.1
				c0.5,0,0.8-0.2,1.2-0.5c0.4-0.4,0.6-0.7,0.7-1.2c0.1-0.5,0.2-1,0.4-1.6c0-0.6,0-1.2,0-1.7c-0.1-0.6-0.2-1.2-0.4-1.8
				c-0.2-0.6-0.5-1.1-0.7-1.4c-0.2-0.5-0.6-0.7-1-1c-0.4-0.2-0.8-0.4-1.3-0.2c-0.2,0-0.6,0.1-0.8,0.4c-0.2,0.1-0.5,0.4-0.7,0.6
				c-0.2,0.2-0.4,0.5-0.5,0.8c-0.1,0.2-0.2,0.6-0.2,0.8c0.1,0.8,0.2,1.6,0.2,2.4c0.1,0.8,0.2,1.6,0.2,2.4c0.1,0.4,0.2,0.6,0.4,1
				c0.2,0.2,0.4,0.5,0.6,0.7s0.5,0.4,0.8,0.4C42.2,14.1,42.5,14.1,42.8,14.1z"/>
			<path d="M58,3.7c0.7,0.1,1.3,0.4,1.8,0.7c0.5,0.4,0.8,0.8,1.2,1.3c0.2,0.5,0.5,1.1,0.6,1.8c0.1,0.6,0.1,1.3,0,1.9
				c-0.1,0.7-0.4,1.4-0.6,2.2c-0.4,0.7-0.7,1.3-1.3,1.8c-0.5,0.5-1.2,1-1.9,1.2c-0.7,0.2-1.6,0.4-2.4,0.2c-0.4-0.1-0.8-0.2-1.2-0.5
				c-0.4-0.2-0.7-0.5-1-0.8l-1,6.2c0,0.1,0,0.4-0.1,0.6c-0.1,0.2,0,0.4,0,0.6s0.1,0.4,0.2,0.5c0.1,0.1,0.2,0.2,0.5,0.2h0.4l-0.1,0.5
				l-4.8-0.7l0.1-0.5h0.4c0.2,0,0.4,0,0.5-0.1c0.1-0.1,0.2-0.2,0.4-0.5c0.1-0.2,0.1-0.4,0.2-0.6c0-0.2,0.1-0.4,0.1-0.6l1.9-13.6
				c0-0.2,0-0.5-0.1-0.8c-0.1-0.2-0.4-0.4-0.7-0.5c0,0,0,0-0.1-0.1c-0.1-0.1,0-0.1,0-0.1V4c0,0,0,0,0.1-0.1c0.2-0.1,0.5-0.1,0.7-0.2
				c0.2,0,0.5-0.1,0.6-0.1c0.1,0,0.4-0.1,0.6-0.2c0.2-0.1,0.5-0.1,0.7-0.2c0.1,0,0.2-0.1,0.2-0.1c0.1,0,0.2,0,0.2,0
				c0.2,0,0.2,0.1,0.4,0.2c0,0.1,0,0.2,0,0.5l-0.2,1.7c0.2-0.4,0.5-0.6,0.7-0.7c0.2-0.2,0.6-0.4,1-0.5C56.3,4,56.7,3.9,57,3.9
				C57.4,3.7,57.8,3.7,58,3.7z M55.5,14.3c0.5,0.1,0.8,0,1.3-0.2c0.4-0.2,0.7-0.5,1.1-1c0.4-0.5,0.5-0.8,0.7-1.4
				c0.1-0.5,0.2-1,0.4-1.6c0.1-0.6,0.1-1.2,0.1-1.8S59,7.2,58.7,6.7c-0.1-0.5-0.4-0.8-0.7-1.2c-0.4-0.4-0.7-0.5-1.2-0.6
				c-0.2,0-0.6,0-0.8,0.1c-0.2,0.1-0.5,0.1-0.7,0.4C55,5.7,54.8,5.8,54.6,6c-0.1,0.2-0.5,0.5-0.6,0.7c-0.1,0.8-0.2,1.6-0.4,2.4
				c-0.1,0.8-0.2,1.6-0.4,2.4c0,0.4,0,0.7,0.1,1c0.1,0.2,0.2,0.6,0.5,0.8c0.2,0.2,0.4,0.5,0.7,0.6C55,14.2,55.2,14.3,55.5,14.3z"/>
			<path d="M62.3,15.7l0.4,0.1c0.2,0.1,0.4,0.1,0.6,0c0.1-0.1,0.2-0.2,0.4-0.4c0.1-0.1,0.2-0.4,0.4-0.5c0.1-0.2,0.1-0.4,0.2-0.5
				l2-5.6c0.1-0.2,0.1-0.5,0-0.7c-0.1-0.2-0.4-0.4-0.7-0.5c0,0-0.1-0.1,0-0.2c0-0.1,0.1-0.1,0.1-0.1c0.2,0,0.6,0,0.7,0
				c0.2,0,0.5,0,0.6,0c0.2,0,0.4,0,0.6,0c0.2,0,0.5,0,0.7-0.1c0.1,0,0.2,0,0.4,0s0.2,0,0.2,0c0.2,0.1,0.2,0.1,0.2,0.2
				c0,0.1,0,0.2-0.1,0.4l-2.6,7.6c0,0.1-0.1,0.4-0.1,0.5c0,0.2-0.1,0.4-0.1,0.6s0,0.4,0.1,0.6c0.1,0.1,0.2,0.2,0.4,0.4l0.2,0.1
				L66.8,18l-4.6-1.6L62.3,15.7z M68.8,2.5c-0.1,0-0.1-0.1-0.2-0.1c0-0.1,0-0.1,0-0.4l0.5-1.2c0-0.1,0.1-0.2,0.2-0.2
				c0.1,0,0.2,0,0.4,0L70.9,1c0.2,0.1,0.2,0.2,0.1,0.5l-0.5,1.2c0,0.1-0.1,0.2-0.2,0.4c-0.1,0-0.1,0-0.2,0L68.8,2.5z"/>
			<path d="M68.6,17.7l0.2,0.1c0.2,0.1,0.4,0.1,0.5,0.1c0.1,0,0.4-0.1,0.5-0.2c0.1-0.1,0.2-0.2,0.4-0.5c0.1-0.1,0.2-0.4,0.2-0.5l3-5
				c0.1-0.2,0.1-0.5,0.1-0.7c-0.1-0.2-0.2-0.5-0.6-0.6c0,0,0,0,0-0.1c0-0.1,0-0.1,0-0.1C72.9,10,73,10,73,10c0.2,0,0.5,0.1,0.7,0.1
				c0.5,0,0.7,0,1,0c0.2,0,0.4,0,0.6,0c0.2,0,0.5,0,0.7,0.1c0.1,0,0.2,0,0.2,0s0.2,0,0.2,0.1c0.2,0.1,0.4,0.2,0.4,0.4
				s-0.1,0.2-0.1,0.4l-0.5,0.8c0.6-0.4,1.3-0.6,1.9-0.5c0.6,0,1.2,0.2,1.7,0.6c0.6,0.4,1.1,0.8,1.3,1.3c0.2,0.5,0.4,1,0.4,1.6
				c0,0.6-0.1,1.2-0.4,1.8c-0.2,0.6-0.6,1.3-1.1,2l-1.7,2.8c-0.1,0.1-0.1,0.2-0.2,0.5c-0.1,0.1-0.1,0.4-0.2,0.5c0,0.2,0,0.4,0,0.6
				c0,0.1,0.1,0.4,0.4,0.5l0.2,0.1l-0.2,0.5l-4.1-2.5l0.2-0.5l0.2,0.1c0.2,0.1,0.4,0.1,0.5,0.1c0.1,0,0.4-0.1,0.5-0.2
				c0.1-0.1,0.2-0.2,0.4-0.5c0.1-0.1,0.2-0.4,0.2-0.5l1.7-2.8c0.8-1.3,1.2-2.4,1.2-3.1c0-0.7-0.4-1.4-1.1-1.8c-0.4-0.2-1-0.2-1.6,0
				c-0.6,0.2-1.2,0.7-1.8,1.4l-2.4,4c-0.1,0.1-0.1,0.2-0.2,0.5c-0.1,0.2-0.1,0.4-0.2,0.6c0,0.2,0,0.4,0,0.6c0,0.1,0.1,0.4,0.4,0.5
				l0.2,0.1l-0.2,0.5l-4.1-2.4L68.6,17.7z"/>
			<path d="M84.3,28.1c0.5,0.5,1,1.1,1.3,1.6c0.4,0.6,0.5,1.1,0.6,1.7s0,1.1-0.1,1.7c-0.2,0.6-0.6,1.1-1.1,1.7
				c-0.6,0.6-1.2,1-1.9,1.2s-1.4,0.2-2,0.2c-0.7-0.1-1.4-0.4-2-0.7c-0.6-0.4-1.3-0.8-1.8-1.3c-0.6-0.6-1-1.2-1.2-1.7
				c-0.2-0.6-0.4-1.2-0.4-1.7c0-0.6,0.1-1.1,0.4-1.6c0.2-0.5,0.5-1,0.8-1.2c0.2-0.2,0.6-0.5,0.8-0.6c0.4-0.1,0.6-0.2,1-0.4
				c0.4-0.1,0.7-0.1,1.1,0c0.4,0,0.7,0.1,1.1,0.4c-0.1-0.4-0.2-0.7-0.2-1s0-0.6,0-0.8s0.1-0.5,0.2-0.6c0.1-0.2,0.2-0.4,0.5-0.6
				c0.4-0.4,0.7-0.6,1.2-0.6c0.5-0.1,0.8,0,1.2,0.1c0-0.5,0-1.1,0.1-1.6c0.1-0.5,0.5-1,1-1.4c0.5-0.5,1-0.7,1.4-1
				c0.5-0.2,1.1-0.2,1.6-0.2c0.6,0,1.1,0.1,1.7,0.5c0.6,0.2,1.1,0.7,1.7,1.2l3.5,3.6l-0.2,0.2c-0.2-0.1-0.5-0.2-0.6-0.4
				c-0.1-0.1-0.4-0.1-0.5-0.2c-0.1-0.1-0.2-0.1-0.4-0.2c-0.1-0.1-0.2-0.1-0.4-0.2c0,0.6,0,1.2-0.2,1.7c-0.2,0.6-0.6,1.1-1.1,1.6
				c-0.4,0.4-0.8,0.6-1.3,0.8c-0.5,0.1-1,0.2-1.6,0.2c-0.6,0-1.1-0.2-1.7-0.5s-1.1-0.7-1.7-1.2c-0.6-0.6-1.1-1.3-1.3-2.2
				c-0.2-0.1-0.5-0.2-0.7-0.2c-0.2,0-0.5,0.1-0.7,0.2c-0.1,0.1-0.2,0.2-0.2,0.5s0,0.4,0.1,0.7s0.4,0.6,0.7,1.1
				C83.2,27,83.7,27.5,84.3,28.1z M79.4,34.2c0.2,0.4,0.6,0.6,1.1,0.8c0.4,0.2,0.8,0.4,1.2,0.5c0.4,0.1,0.8,0.1,1.2,0
				c0.4-0.1,0.8-0.4,1.1-0.7c0.4-0.4,0.6-0.8,0.6-1.3c0-0.5-0.1-1-0.4-1.4c-0.2-0.5-0.5-1-0.8-1.3c-0.4-0.5-0.7-0.8-1-1.1
				c-0.5-0.5-0.8-1-1.1-1.4c-0.5-0.4-1-0.5-1.4-0.4c-0.5,0-0.8,0.2-1.2,0.6c-0.2,0.2-0.5,0.6-0.7,1.1c-0.1,0.5-0.2,1-0.2,1.4
				c0,0.6,0.1,1.1,0.5,1.7C78.5,33.1,78.9,33.6,79.4,34.2z M90.3,21.5c-0.5-0.5-1.1-0.6-1.7-0.5c-0.7,0.1-1.3,0.6-2,1.3
				c-0.4,0.4-0.6,0.7-0.7,1.1c-0.1,0.4-0.2,0.7-0.4,1.1c0,0.4,0,0.7,0.1,1c0.1,0.2,0.2,0.6,0.5,0.8c0.5,0.5,1,0.6,1.6,0.5
				c0.6-0.1,1.3-0.5,2-1.2c0.4-0.4,0.6-0.7,0.8-1.1c0.2-0.4,0.4-0.7,0.4-1.1c0-0.4,0-0.7,0-1C90.7,22,90.5,21.7,90.3,21.5z"/>
			<path d="M94,43c0.1,0.2,0.4,0.6,0.5,0.8c0.2,0.2,0.5,0.5,0.7,0.7c0.2,0.2,0.5,0.4,0.8,0.5c0.4,0.1,0.6,0.1,1,0.1l0.1,0.2
				c-0.5,0.1-1.1,0.1-1.4,0.1c-0.5-0.1-1-0.2-1.3-0.5c-0.4-0.2-0.7-0.5-1.1-0.8s-0.6-0.7-0.7-1.1c-0.4-0.7-0.5-1.4-0.5-2.2
				c0-0.7,0.2-1.4,0.5-2c0.4-0.6,0.7-1.2,1.3-1.7c0.5-0.5,1.1-0.8,1.8-1.2c0.6-0.4,1.3-0.5,2-0.6c0.7-0.1,1.3,0,2,0.1
				c0.7,0.1,1.3,0.5,1.8,1c0.6,0.5,1.1,1.1,1.4,1.9c0.2,0.6,0.5,1.2,0.5,1.9s0,1.4-0.4,2.2l-3.2,0.1c0.4-0.2,0.8-0.5,1.2-0.7
				c0.4-0.4,0.7-0.6,1-1c0.2-0.4,0.5-0.7,0.5-1.1c0.1-0.4,0-0.7-0.1-1.1c-0.2-0.5-0.5-0.7-1-1c-0.4-0.2-0.8-0.4-1.3-0.4
				c-0.5,0-1.1,0-1.6,0.1c-0.5,0.1-1.1,0.4-1.7,0.6c-0.5,0.2-1.1,0.6-1.4,1c-0.5,0.4-0.8,0.7-1.1,1.2c-0.2,0.5-0.5,1-0.6,1.4
				C93.8,41.9,93.8,42.5,94,43z"/>
			<path d="M99.1,57.9c-0.7,0.1-1.2,0.1-1.6-0.1c-0.4-0.2-0.6-0.6-0.7-1.1c0-0.2-0.1-0.5-0.1-0.7c0-0.2,0-0.5,0.1-0.7
				c0.1-0.2,0.2-0.5,0.4-0.6c0.2-0.2,0.5-0.4,0.8-0.5c-0.7-0.2-1.2-0.6-1.6-1.1c-0.4-0.5-0.6-1-0.7-1.6c-0.1-0.5-0.1-1,0-1.4
				s0.2-0.8,0.5-1.2c0.2-0.4,0.5-0.6,0.8-0.8c0.4-0.2,0.7-0.4,1.1-0.5c0.5-0.1,0.8-0.1,1.3,0c0.5,0.1,1,0.2,1.3,0.6
				c0.5,0.4,0.8,0.7,1.2,1.3c0.4,0.6,0.6,1.2,0.8,2c0.1,0.5,0.2,1.1,0.4,1.6l1.2-0.2c1.8-0.4,2.5-1.2,2.3-2.3
				c-0.1-0.4-0.2-0.6-0.5-0.8c-0.2-0.2-0.5-0.4-0.8-0.4c-0.4-0.1-0.6-0.1-1-0.1s-0.6,0.1-1,0.1c0-0.1-0.1-0.4-0.1-0.5
				c-0.1-0.2-0.1-0.4-0.2-0.6c-0.1-0.2-0.2-0.4-0.4-0.6c-0.1-0.2-0.2-0.4-0.2-0.5c0.7-0.1,1.3-0.1,1.9,0c0.6,0.1,1.1,0.5,1.4,0.8
				s0.7,0.8,1,1.3c0.2,0.5,0.5,1.1,0.6,1.6c0.1,0.5,0.1,1.1,0.1,1.4c0,0.5-0.1,0.8-0.2,1.2c-0.2,0.4-0.5,0.7-0.8,1
				c-0.4,0.2-1,0.5-1.6,0.6l-5.8,1.2c-0.4,0.1-0.7,0.1-1,0.2c-0.2,0.1-0.4,0.2-0.2,0.5c0,0.1,0.1,0.2,0.1,0.2
				c0.1,0.1,0.2,0.1,0.4,0.1s0.2,0,0.4,0s0.2,0,0.4,0V57.9z M102.4,53.2c-0.1-0.2-0.1-0.5-0.2-0.7c-0.1-0.2-0.1-0.5-0.2-0.7
				c-0.1-0.5-0.4-0.8-0.6-1.1c-0.2-0.2-0.5-0.5-0.7-0.6c-0.2-0.1-0.6-0.2-0.8-0.2c-0.4,0-0.6,0-0.8,0c-0.2,0.1-0.6,0.1-0.8,0.4
				c-0.2,0.1-0.5,0.4-0.7,0.6C97.2,51,97,51.3,97,51.5c-0.1,0.2-0.1,0.6,0,0.8c0.1,0.4,0.2,0.7,0.6,1.1c0.4,0.4,0.7,0.6,1.3,0.7
				L102.4,53.2z"/>
			<path d="M97.8,64.3h-0.5v-4.8h0.5v0.4c0,0.2,0.1,0.4,0.2,0.5c0.1,0.1,0.2,0.2,0.5,0.2c0.2,0.1,0.4,0.1,0.6,0.1c0.2,0,0.4,0,0.6,0
				h5.9c0.2,0,0.5-0.1,0.7-0.2c0.2-0.1,0.2-0.5,0.2-0.8c0-0.1,0.1-0.1,0.2-0.1c0.1,0,0.1,0,0.2,0.1c0.1,0.2,0.2,0.5,0.2,0.7
				c0.1,0.2,0.1,0.4,0.2,0.6c0.1,0.2,0.1,0.4,0.2,0.6c0.1,0.2,0.2,0.4,0.4,0.7c0,0.1,0.1,0.2,0.1,0.2v0.2c0,0.2,0,0.4-0.1,0.4
				c-0.1,0-0.2,0-0.5,0h-1.4c0.7,0.4,1.2,0.8,1.7,1.6c0.4,0.6,0.6,1.4,0.6,2.2h-2.2c0-0.5,0-0.8,0-1.3c0-0.4-0.1-0.7-0.1-1.1
				s-0.2-0.6-0.4-0.8c-0.1-0.2-0.4-0.4-0.7-0.5h-5.4c-0.1,0-0.4,0-0.6,0c-0.2,0-0.4,0-0.6,0.1c-0.2,0-0.4,0.1-0.5,0.2
				s-0.2,0.2-0.2,0.5V64.3z"/>
			<path d="M97.6,75.7c-0.6-0.1-1.1-0.4-1.3-1c-0.2-0.5-0.4-1.1-0.2-1.8c0.1-0.7,0.4-1.3,0.7-1.7c0.4-0.4,0.7-0.6,1.2-0.8
				c0.5-0.1,1.1-0.2,1.6-0.1c0.6,0,1.2,0.1,1.8,0.2l5.6,1l0.2-1.3l0.5,0.1c0,0.2,0,0.6,0.1,1c0.1,0.4,0.2,0.6,0.5,0.8
				c0.2,0.2,0.5,0.6,0.7,0.8c0.2,0.2,0.6,0.5,1,0.7l0.1,0.1c0,0.1,0,0.1,0,0.4c0,0.1-0.1,0.2-0.2,0.1l-2.6-0.5l-0.5,2.4l-0.6-0.1
				l0.5-2.4l-5.5-1c-0.7-0.1-1.4-0.2-1.9-0.1c-0.5,0-1,0.1-1.3,0.2c-0.4,0.1-0.6,0.2-0.7,0.5c-0.1,0.2-0.2,0.4-0.4,0.6
				c0,0.1,0,0.4,0,0.5c0,0.1,0.1,0.4,0.2,0.5s0.2,0.2,0.4,0.4s0.2,0.1,0.4,0.2L97.6,75.7z"/>
			<path d="M74.3,80.7L67,47.1c-0.1-0.7-0.6-1.4-1.3-1.8c-0.6-0.4-1.4-0.6-2.2-0.4l-12.8,2.8L50,44.3l7-1.6c0.7-0.1,1.1-0.8,1-1.4
				l-1.1-5c-0.1-0.4-0.2-0.6-0.6-0.8c-0.4-0.2-0.6-0.2-1-0.1l-21.1,4.6c-0.7,0.1-1.1,0.8-1,1.4l1.1,5c0.1,0.4,0.2,0.6,0.6,0.8
				c0.2,0.1,0.5,0.2,0.7,0.2c0.1,0,0.1,0,0.2,0l7-1.6l0.7,3.4L30.6,52c-0.7,0.1-1.4,0.6-1.8,1.3c-0.4,0.6-0.6,1.4-0.4,2.2l7.3,33.6
				c0.1,0.7,0.6,1.4,1.3,1.8c0.5,0.4,1,0.5,1.6,0.5c0.2,0,0.4,0,0.6-0.1L72.1,84c0.7-0.1,1.4-0.6,1.8-1.3
				C74.3,82.1,74.5,81.4,74.3,80.7z M44,50.1l1.3-0.2l18.5-4c0.5-0.1,1,0,1.3,0.2c0.4,0.2,0.7,0.7,0.8,1.2l7.3,33.6
				c0.2,1-0.4,1.9-1.4,2.2l-32.9,7.1c-0.5,0.1-1,0-1.3-0.2c-0.4-0.2-0.7-0.7-0.8-1.2l-7.3-33.6c-0.1-0.5,0-1,0.2-1.3
				s0.7-0.7,1.2-0.8L44,50.1z M48.5,44.5l0.4-0.1l0.7,3.4l-3.1,0.7l-1.9,0.4l-0.7-3.4L48.5,44.5z M49.5,43.2l-3.4,0.7l-10.6,2.3
				h-0.1l-0.1-0.1l-1.1-5c0-0.1,0-0.2,0.1-0.2l21.1-4.6h0.1l0.1,0.1l1.1,5v0.1l-0.1,0.1L49.5,43.2z"/>
			<path d="M38.8,85.6C38.8,85.5,38.8,85.5,38.8,85.6l31.8-6.8c0.1,0,0.1,0,0.1-0.1c0,0,0-0.1,0-0.2l-2.2-10L66,56.1l-0.1-0.2
				c0-0.1-0.1-0.2-0.2-0.2h-0.2h-0.1c-4,0.8-7.4,3.4-9.5,6.7c0,0.1-0.1,0.1-0.1,0.2l-0.2,0.4c-1.9,3.1-5,5.4-8.8,6.2
				c-4,0.8-8-0.1-11.2-2.5l-0.7-0.2c-0.1-0.1-0.2-0.1-0.2,0c-0.1,0-0.1,0.1-0.1,0.2l4.1,18.7C38.5,85.5,38.7,85.6,38.8,85.6z
				 M69.7,77.8L68.4,78l-8.2,1.8l-20.8,4.4L37.7,76l30.1-6.5L69.7,77.8z M37.3,74.9L36,68.5c0,0,0.1,0,0.1,0.1l0.2,0.1
				c0.1,0.1,0.2,0.1,0.4,0.2l0.2,0.1c0.1,0.1,0.2,0.1,0.4,0.2c0.1,0,0.1,0.1,0.2,0.1h0.1c0.1,0.1,0.2,0.1,0.4,0.1
				c0.1,0,0.2,0.1,0.4,0.1c0.1,0,0.2,0.1,0.4,0.1c0.1,0,0.2,0.1,0.4,0.1c0.1,0,0.2,0.1,0.4,0.1c0.1,0,0.2,0.1,0.4,0.1
				c0.1,0,0.2,0.1,0.4,0.1c0.1,0,0.2,0,0.4,0.1c0.1,0,0.2,0,0.4,0.1h0.4c0.1,0,0.2,0,0.4,0c0.1,0,0.2,0,0.4,0c0.1,0,0.2,0,0.5,0
				c0.1,0,0.2,0,0.4,0c0.1,0,0.2,0,0.5,0s0.5,0,0.7,0h0.1c0.1,0,0.1,0,0.2,0c0.1,0,0.2,0,0.4,0h0.1c0.1,0,0.1,0,0.2,0
				c0.1,0,0.4,0,0.5,0H46c0.2,0,0.5-0.1,0.8-0.1c0.2,0,0.5-0.1,0.7-0.1c3.6-1,6.8-3.4,8.8-6.6l0.2-0.4c0-0.1,0.1-0.2,0.1-0.2
				c1.8-3,4.8-5.3,8.3-6.1l2.5,11.5L37.3,74.9z"/>
			<path class="st3" d="M93.5,82.9c-11.2,23.6-39.1,34.3-63.4,23.9C5.9,96.4-5.5,68.8,4,44.4"/>
		</g>
	</g>
</g>
<g id="圖層_2">
	<g>
		<path class="st4" d="M10.6,45.1c-0.3,0-0.7,0-1,0.2c-0.3,0.2-0.6,0.4-0.8,0.7c-0.3,0.3-0.5,0.6-0.8,0.9c-0.3,0.3-0.6,0.7-0.9,0.9
			c-0.3,0.3-0.7,0.5-1.1,0.6c-0.4,0.2-0.9,0.2-1.4,0.1c-0.4-0.1-0.8-0.2-1.1-0.5c-0.3-0.3-0.5-0.6-0.6-0.9c-0.1-0.4-0.2-0.7-0.2-1.2
			c0-0.4,0-0.8,0.1-1.2c0.1-0.3,0.1-0.7,0.3-1s0.3-0.6,0.4-1c0.2-0.3,0.4-0.6,0.6-0.8c0.2-0.3,0.4-0.5,0.7-0.6L7,43
			c-0.5-0.1-1-0.1-1.4,0c-0.4,0.1-0.8,0.2-1.1,0.4C4.2,43.5,4,43.8,3.8,44c-0.2,0.3-0.3,0.5-0.3,0.8l0,0c-0.1,0.4,0,0.7,0.2,1
			c0.2,0.3,0.5,0.5,0.9,0.6c0.4,0.1,0.7,0,1-0.2c0.3-0.2,0.6-0.4,0.9-0.7C6.7,45.4,7,45,7.2,44.7c0.3-0.3,0.6-0.6,0.9-0.9
			c0.3-0.3,0.7-0.5,1.1-0.6c0.4-0.2,0.9-0.2,1.4-0.1c0.4,0.1,0.8,0.2,1,0.5c0.3,0.3,0.5,0.6,0.6,0.9c0.1,0.3,0.2,0.7,0.2,1.1
			c0,0.4,0,0.8-0.1,1.1c-0.1,0.6-0.3,1.2-0.6,1.7c-0.3,0.5-0.7,1-1.3,1.4l-2.3-1.5c0.5,0.1,1,0.2,1.4,0.1c0.4-0.1,0.8-0.2,1.1-0.3
			s0.6-0.4,0.7-0.6c0.2-0.2,0.3-0.5,0.3-0.8l0,0c0-0.2,0-0.3,0-0.5c0-0.2-0.1-0.3-0.2-0.5c-0.1-0.1-0.2-0.3-0.4-0.4
			C11,45.2,10.9,45.1,10.6,45.1z"/>
		<path class="st4" d="M2.5,54l0,0.3c0,0.2,0.1,0.3,0.2,0.4c0.1,0.1,0.3,0.2,0.4,0.2c0.2,0,0.3,0,0.5,0c0.2,0,0.3,0,0.5,0l10.4-1.1
			c0.2,0,0.4-0.1,0.6-0.3c0.2-0.2,0.3-0.4,0.2-0.7c0,0,0-0.1,0-0.1c0,0,0.1,0,0.1,0c0.1,0,0.1,0,0.1,0c0.1,0.2,0.2,0.4,0.3,0.6
			c0.1,0.2,0.2,0.3,0.3,0.5c0.1,0.2,0.2,0.3,0.3,0.5c0.1,0.2,0.2,0.3,0.3,0.5c0,0.1,0.1,0.2,0.1,0.2c0,0.1,0.1,0.2,0.1,0.2
			c0,0.2,0,0.3-0.1,0.3c-0.1,0-0.2,0.1-0.4,0.1l-6.3,0.7c0.3,0.1,0.5,0.3,0.8,0.5c0.2,0.2,0.4,0.4,0.5,0.6c0.1,0.2,0.3,0.5,0.3,0.7
			c0.1,0.2,0.1,0.5,0.2,0.8c0.1,0.6,0,1.2-0.2,1.6c-0.2,0.4-0.5,0.8-0.9,1.1c-0.4,0.3-0.9,0.5-1.4,0.6c-0.6,0.1-1.2,0.3-1.9,0.3
			L5,62.7c-0.1,0-0.3,0-0.5,0.1c-0.2,0-0.3,0.1-0.5,0.1c-0.2,0.1-0.3,0.2-0.4,0.3c-0.1,0.1-0.1,0.3-0.1,0.4l0,0.3l-0.4,0l-0.4-4.1
			l0.4,0l0,0.3c0,0.2,0.1,0.3,0.2,0.4c0.1,0.1,0.3,0.1,0.4,0.2c0.2,0,0.3,0,0.5,0c0.2,0,0.3,0,0.5,0l2.7-0.3
			c1.3-0.1,2.2-0.4,2.8-0.8c0.5-0.4,0.8-0.9,0.7-1.6c0-0.4-0.3-0.7-0.8-1c-0.5-0.3-1.1-0.5-1.9-0.5l-4,0.4c-0.1,0-0.3,0-0.5,0.1
			c-0.2,0-0.3,0.1-0.5,0.1c-0.2,0.1-0.3,0.2-0.4,0.3c-0.1,0.1-0.1,0.3-0.1,0.4l0,0.3l-0.4,0L2.1,54L2.5,54z"/>
		<path class="st4" d="M15.2,70.1c0.3,0.7,0.5,1.4,0.5,2.1c0,0.6-0.1,1.2-0.4,1.7c-0.2,0.5-0.6,1-1.1,1.4c-0.5,0.4-1.1,0.8-1.8,1.1
			c-0.6,0.2-1.2,0.4-1.8,0.4c-0.6,0-1.2-0.1-1.8-0.3c-0.6-0.2-1.1-0.5-1.6-0.9S6.5,74.6,6.2,74c-0.3-0.8-0.5-1.5-0.5-2.1
			c0-0.6,0.1-1.2,0.4-1.8c0.3-0.5,0.6-1,1.1-1.4c0.5-0.4,1.1-0.7,1.8-1c0.6-0.2,1.2-0.4,1.8-0.4c0.6,0,1.2,0.1,1.8,0.3
			c0.6,0.2,1.1,0.5,1.5,0.9C14.6,68.9,14.9,69.4,15.2,70.1z M7,73.8c0.2,0.4,0.4,0.7,0.7,0.9C8,74.9,8.4,75,8.8,75.1
			c0.4,0.1,0.8,0,1.3-0.1c0.5-0.1,0.9-0.2,1.4-0.4c0.4-0.2,0.8-0.4,1.3-0.6c0.4-0.3,0.8-0.6,1.2-0.9c0.3-0.3,0.6-0.7,0.7-1.2
			c0.1-0.4,0.1-0.9-0.1-1.4c-0.2-0.4-0.4-0.7-0.7-0.9c-0.3-0.2-0.7-0.4-1.1-0.4c-0.4-0.1-0.9-0.1-1.3,0c-0.5,0.1-0.9,0.2-1.4,0.4
			c-0.5,0.2-1,0.5-1.4,0.8c-0.4,0.3-0.8,0.6-1.1,1C7.2,71.6,7,72,6.8,72.4C6.7,72.9,6.8,73.3,7,73.8z"/>
		<path class="st4" d="M22.4,81.6c0.4,0.5,0.6,1,0.7,1.5c0.1,0.5,0.1,1,0,1.5c-0.1,0.5-0.4,1-0.7,1.4c-0.3,0.5-0.7,0.9-1.1,1.2
			c-0.5,0.4-1.1,0.7-1.7,1c-0.6,0.3-1.2,0.4-1.9,0.4c-0.6,0-1.3-0.1-1.9-0.3c-0.6-0.3-1.2-0.7-1.7-1.3c-0.2-0.3-0.4-0.6-0.5-1
			c-0.1-0.4-0.1-0.7-0.1-1.1l-4.2,3.5c-0.1,0.1-0.2,0.2-0.4,0.3c-0.1,0.1-0.2,0.3-0.3,0.4c-0.1,0.1-0.2,0.3-0.2,0.4
			c0,0.1,0,0.3,0.1,0.4l0.2,0.2l-0.3,0.3l-2.6-3.2l0.3-0.3l0.2,0.2c0.1,0.1,0.2,0.2,0.4,0.2c0.2,0,0.3,0,0.5-0.1
			c0.2-0.1,0.3-0.2,0.5-0.3C7.9,87.2,8,87.1,8.1,87l9.1-7.5c0.2-0.2,0.3-0.4,0.3-0.6c0-0.2,0-0.5-0.2-0.7c0,0,0-0.1,0-0.1
			c0,0,0-0.1,0.1-0.1c0,0,0.1,0,0.1,0c0,0,0.1,0,0.1,0c0.2,0.1,0.4,0.2,0.6,0.3c0.2,0.1,0.3,0.2,0.5,0.3c0.2,0.1,0.3,0.2,0.5,0.2
			c0.2,0.1,0.4,0.2,0.6,0.3c0.1,0,0.2,0.1,0.2,0.1c0.1,0,0.1,0.1,0.2,0.2c0.1,0.1,0.1,0.2,0.1,0.3c0,0.1-0.1,0.2-0.3,0.3l-0.7,0.6
			c0.3-0.1,0.6-0.1,0.9-0.1c0.3,0,0.6,0.1,0.9,0.2c0.3,0.1,0.5,0.3,0.8,0.4C22.1,81.2,22.3,81.4,22.4,81.6z M14.8,86.9
			c0.3,0.3,0.6,0.5,0.9,0.6c0.4,0.1,0.8,0.1,1.2,0c0.4-0.1,0.8-0.2,1.3-0.5c0.4-0.2,0.8-0.5,1.2-0.8c0.4-0.3,0.8-0.7,1.1-1.1
			c0.3-0.4,0.6-0.8,0.7-1.2c0.2-0.4,0.3-0.8,0.3-1.2c0-0.4-0.1-0.7-0.4-1c-0.2-0.2-0.4-0.4-0.6-0.5C20.2,81.1,20,81,19.7,81
			c-0.3,0-0.5,0-0.8,0c-0.3,0-0.5,0.1-0.7,0.2c-0.5,0.4-1.1,0.9-1.6,1.3c-0.5,0.4-1.1,0.9-1.6,1.3c-0.2,0.2-0.4,0.5-0.5,0.7
			c-0.1,0.3-0.2,0.5-0.2,0.8c0,0.3,0,0.5,0.1,0.8C14.5,86.5,14.6,86.7,14.8,86.9z"/>
		<path class="st4" d="M32,89.8c0.5,0.3,0.9,0.7,1.1,1.2c0.2,0.5,0.4,1,0.4,1.5c0,0.5,0,1-0.2,1.6c-0.2,0.5-0.4,1-0.7,1.5
			c-0.4,0.5-0.8,1-1.3,1.4s-1.1,0.7-1.7,0.9c-0.6,0.2-1.2,0.3-1.9,0.2s-1.3-0.3-2-0.7c-0.3-0.2-0.6-0.5-0.7-0.8
			c-0.2-0.3-0.3-0.6-0.4-1l-3,4.5c-0.1,0.1-0.2,0.2-0.2,0.4c-0.1,0.2-0.2,0.3-0.2,0.5c0,0.2-0.1,0.3,0,0.5c0,0.2,0.1,0.3,0.3,0.4
			l0.2,0.2l-0.2,0.4l-3.4-2.3l0.2-0.4l0.2,0.2c0.1,0.1,0.3,0.1,0.4,0.1c0.1,0,0.3-0.1,0.4-0.2c0.1-0.1,0.3-0.2,0.4-0.4
			c0.1-0.1,0.2-0.3,0.3-0.4l6.5-9.8c0.1-0.2,0.2-0.4,0.2-0.7c0-0.3-0.2-0.5-0.4-0.6c0,0,0,0,0-0.1c0,0,0-0.1,0-0.1c0,0,0,0,0.1-0.1
			c0,0,0,0,0.1,0c0.2,0,0.5,0.1,0.6,0.1s0.4,0.1,0.5,0.1c0.2,0,0.4,0.1,0.5,0.1c0.2,0,0.4,0.1,0.6,0.1c0.1,0,0.2,0,0.3,0
			c0.1,0,0.2,0,0.2,0.1c0.1,0.1,0.2,0.2,0.2,0.3c0,0.1-0.1,0.2-0.2,0.3l-0.5,0.8c0.3-0.2,0.6-0.3,0.9-0.3c0.3-0.1,0.6-0.1,0.9,0
			c0.3,0,0.6,0.1,0.9,0.2C31.5,89.5,31.8,89.7,32,89.8z M26.2,97.1c0.3,0.2,0.7,0.3,1.1,0.3c0.4,0,0.8-0.1,1.1-0.3
			c0.4-0.2,0.7-0.5,1.1-0.8c0.3-0.3,0.7-0.7,0.9-1.2c0.3-0.4,0.5-0.9,0.7-1.4s0.3-0.9,0.4-1.4c0-0.4,0-0.8-0.1-1.2
			c-0.1-0.4-0.3-0.7-0.7-0.9C30.5,90.1,30.3,90,30,90c-0.3,0-0.5,0-0.8,0c-0.3,0.1-0.5,0.1-0.7,0.3c-0.2,0.1-0.4,0.3-0.6,0.4
			c-0.4,0.6-0.8,1.1-1.1,1.7c-0.4,0.6-0.8,1.2-1.1,1.8c-0.1,0.3-0.2,0.6-0.2,0.8c0,0.3,0,0.5,0.1,0.8c0.1,0.3,0.2,0.5,0.3,0.7
			C25.8,96.7,26,96.9,26.2,97.1z"/>
		<path class="st4" d="M34.8,101.5l0.3,0.1c0.2,0.1,0.3,0.1,0.5,0c0.1-0.1,0.3-0.2,0.4-0.3c0.1-0.1,0.2-0.3,0.3-0.5
			c0.1-0.2,0.1-0.3,0.2-0.4l1.8-4.8c0.1-0.2,0.1-0.4,0-0.6s-0.3-0.3-0.6-0.5c0,0-0.1-0.1,0-0.2c0-0.1,0.1-0.1,0.1-0.1
			c0.2,0,0.5,0,0.7,0c0.2,0,0.4,0,0.6,0c0.2,0,0.4,0,0.5,0c0.2,0,0.4,0,0.6-0.1c0.1,0,0.2,0,0.3,0c0.1,0,0.2,0,0.2,0
			c0.2,0.1,0.2,0.1,0.2,0.2c0,0.1,0,0.2-0.1,0.4l-2.4,6.4c0,0.1-0.1,0.3-0.1,0.4c-0.1,0.2-0.1,0.3-0.1,0.5c0,0.2,0,0.3,0.1,0.5
			c0.1,0.1,0.2,0.2,0.3,0.3l0.2,0.1l-0.1,0.4l-3.9-1.4L34.8,101.5z M40.4,90.3c-0.1,0-0.1-0.1-0.2-0.1c0-0.1,0-0.1,0-0.3l0.4-1
			c0-0.1,0.1-0.2,0.2-0.2s0.2,0,0.3,0l1.1,0.4c0.2,0.1,0.2,0.2,0.1,0.4l-0.4,1c-0.1,0.1-0.1,0.2-0.2,0.3c-0.1,0-0.1,0-0.2,0
			L40.4,90.3z"/>
		<path class="st4" d="M43.6,104.5l0.3,0c0.2,0,0.3,0,0.5-0.1c0.1-0.1,0.2-0.2,0.3-0.4c0.1-0.2,0.1-0.3,0.2-0.5
			c0-0.2,0.1-0.3,0.1-0.5l0.6-5.1c0-0.2,0-0.4-0.2-0.6c-0.1-0.2-0.4-0.3-0.7-0.3c0,0-0.1,0-0.1-0.1c0,0,0-0.1,0-0.1
			c0-0.1,0-0.1,0.1-0.1c0.2-0.1,0.4-0.1,0.6-0.2c0.2-0.1,0.4-0.1,0.5-0.2c0.2-0.1,0.3-0.1,0.5-0.2c0.2-0.1,0.4-0.1,0.6-0.2
			C47,96,47,96,47.1,96c0.1,0,0.2,0,0.2,0c0.2,0,0.3,0.1,0.3,0.2c0,0.1,0,0.2,0,0.4l-0.1,0.8c0.4-0.5,0.8-0.9,1.3-1
			c0.5-0.2,1-0.2,1.5-0.2c0.6,0.1,1.1,0.3,1.5,0.5c0.4,0.3,0.7,0.6,0.8,1.1c0.2,0.4,0.3,1,0.3,1.6c0,0.6,0,1.2-0.1,1.9l-0.3,2.7
			c0,0.1,0,0.3,0,0.5c0,0.2,0,0.4,0,0.5c0,0.2,0.1,0.3,0.2,0.4c0.1,0.1,0.2,0.2,0.4,0.2l0.3,0l-0.1,0.4l-4.1-0.5l0.1-0.4l0.3,0
			c0.2,0,0.3,0,0.5-0.1c0.1-0.1,0.2-0.2,0.3-0.4c0.1-0.2,0.1-0.3,0.2-0.5c0-0.2,0.1-0.3,0.1-0.5L51,101c0.2-1.3,0.1-2.3-0.1-2.9
			c-0.3-0.6-0.7-1-1.4-1.1c-0.4,0-0.8,0.1-1.2,0.5c-0.4,0.4-0.7,1-0.9,1.8l-0.5,3.9c0,0.1,0,0.3,0,0.5c0,0.2,0,0.4,0,0.5
			c0,0.2,0.1,0.3,0.2,0.4c0.1,0.1,0.2,0.2,0.4,0.2l0.3,0l-0.1,0.4l-4.1-0.5L43.6,104.5z"/>
		<path class="st4" d="M63.9,103.9c0.6-0.1,1.2-0.2,1.7-0.1c0.5,0,1,0.1,1.5,0.4c0.4,0.2,0.8,0.5,1.1,0.9c0.3,0.4,0.5,0.9,0.6,1.6
			c0.1,0.7,0.1,1.4-0.1,1.9c-0.2,0.6-0.5,1.1-0.9,1.6c-0.4,0.4-0.9,0.8-1.5,1.1c-0.6,0.3-1.2,0.5-1.8,0.6c-0.7,0.1-1.3,0.1-1.8,0
			c-0.5-0.1-1-0.3-1.4-0.6c-0.4-0.3-0.7-0.6-1-1c-0.2-0.4-0.4-0.8-0.5-1.2c-0.1-0.3-0.1-0.6,0-0.9c0-0.3,0.1-0.6,0.2-0.9
			c0.1-0.3,0.3-0.5,0.5-0.8c0.2-0.2,0.5-0.5,0.8-0.6c-0.3-0.1-0.6-0.2-0.8-0.3c-0.2-0.1-0.4-0.3-0.5-0.4c-0.1-0.2-0.2-0.3-0.3-0.5
			c-0.1-0.2-0.1-0.4-0.2-0.6c-0.1-0.4,0-0.8,0.2-1.1c0.2-0.3,0.4-0.6,0.7-0.8c-0.4-0.2-0.8-0.5-1-0.9c-0.3-0.4-0.5-0.8-0.6-1.3
			c-0.1-0.5-0.1-1,0-1.5c0.1-0.5,0.3-0.9,0.6-1.3c0.3-0.4,0.7-0.7,1.1-1c0.5-0.3,1-0.5,1.7-0.6l4.2-0.8l0,0.2
			c-0.2,0.1-0.4,0.2-0.5,0.3c-0.1,0.1-0.3,0.2-0.4,0.2c-0.1,0.1-0.2,0.1-0.3,0.2C65.1,95.9,65,96,64.8,96c0.4,0.2,0.8,0.6,1.1,1
			c0.3,0.4,0.5,0.9,0.6,1.5c0.1,0.4,0.1,0.9-0.1,1.3c-0.1,0.4-0.3,0.8-0.6,1.2c-0.3,0.4-0.7,0.7-1.1,1s-1,0.5-1.7,0.6
			c-0.7,0.1-1.4,0.1-2.1-0.1c-0.2,0.1-0.4,0.3-0.5,0.4c-0.1,0.2-0.2,0.4-0.1,0.6c0,0.2,0.1,0.3,0.2,0.4c0.1,0.1,0.3,0.2,0.6,0.2
			c0.3,0,0.6,0,1.1,0C62.6,104.1,63.2,104,63.9,103.9z M62,96.5c-0.6,0.1-1,0.4-1.2,1c-0.2,0.6-0.2,1.2-0.1,2.1
			c0.1,0.4,0.2,0.8,0.4,1.1c0.2,0.3,0.4,0.5,0.6,0.7c0.2,0.2,0.5,0.3,0.7,0.4c0.3,0.1,0.5,0.1,0.8,0c0.5-0.1,0.9-0.4,1.1-0.9
			c0.2-0.5,0.3-1.2,0.1-2c-0.1-0.4-0.2-0.8-0.4-1.1c-0.2-0.3-0.4-0.6-0.6-0.8c-0.2-0.2-0.5-0.3-0.7-0.4C62.6,96.4,62.3,96.4,62,96.5
			z M65.7,110.3c0.4-0.1,0.7-0.2,1.1-0.4c0.3-0.2,0.6-0.4,0.9-0.7c0.3-0.3,0.4-0.6,0.6-0.9s0.2-0.7,0.1-1.1c-0.1-0.5-0.3-0.8-0.6-1
			c-0.3-0.2-0.7-0.3-1.2-0.4c-0.4-0.1-0.9-0.1-1.4,0c-0.5,0-0.9,0.1-1.3,0.1c-0.6,0.1-1.1,0.1-1.6,0.1c-0.5,0.2-0.8,0.5-1,0.8
			c-0.2,0.3-0.2,0.7-0.2,1.1c0.1,0.3,0.2,0.7,0.5,1s0.6,0.6,1,0.9c0.4,0.2,0.9,0.4,1.4,0.5C64.5,110.4,65.1,110.4,65.7,110.3z"/>
		<path class="st4" d="M83.9,95.8c0.2-0.2,0.4-0.3,0.7-0.5c0.2-0.2,0.4-0.4,0.5-0.7s0.2-0.5,0.3-0.8c0-0.3,0-0.6-0.1-0.8l0.2-0.2
			c0.2,0.4,0.3,0.9,0.3,1.3c0,0.4-0.1,0.8-0.2,1.2c-0.1,0.4-0.3,0.7-0.6,1c-0.3,0.3-0.5,0.6-0.9,0.8c-0.6,0.4-1.2,0.6-1.8,0.7
			c-0.6,0.1-1.2,0-1.8-0.2c-0.6-0.2-1.1-0.5-1.6-0.9c-0.5-0.4-0.9-0.8-1.2-1.4c-0.3-0.5-0.6-1.1-0.7-1.6c-0.2-0.6-0.2-1.2-0.1-1.7
			c0.1-0.6,0.3-1.1,0.6-1.7c0.3-0.5,0.8-1,1.5-1.5c0.5-0.3,1-0.5,1.6-0.7c0.6-0.1,1.2-0.1,1.9,0l0.5,2.7c-0.2-0.3-0.5-0.6-0.8-0.9
			c-0.3-0.3-0.6-0.5-1-0.7c-0.3-0.2-0.7-0.3-1-0.3c-0.3,0-0.6,0.1-0.9,0.2c-0.3,0.2-0.6,0.5-0.7,0.9c-0.1,0.4-0.2,0.8-0.2,1.2
			c0,0.4,0.1,0.9,0.3,1.3c0.2,0.5,0.4,0.9,0.7,1.3c0.3,0.4,0.6,0.8,1,1.2c0.4,0.3,0.8,0.6,1.2,0.8c0.4,0.2,0.8,0.3,1.3,0.3
			C83,96.2,83.5,96.1,83.9,95.8z"/>
		<path class="st4" d="M95.9,83.6c0.4,0.4,0.7,0.8,0.8,1.2c0.1,0.4-0.1,0.7-0.4,1.1c-0.2,0.2-0.3,0.3-0.5,0.5
			c-0.2,0.1-0.3,0.2-0.5,0.3c-0.2,0.1-0.4,0.1-0.6,0c-0.2,0-0.5-0.2-0.7-0.4c0.2,0.6,0.2,1.1,0,1.7c-0.1,0.5-0.4,1-0.7,1.3
			c-0.3,0.3-0.6,0.6-1,0.8c-0.3,0.2-0.7,0.3-1,0.3c-0.3,0-0.7,0-1-0.1c-0.3-0.1-0.6-0.3-0.9-0.5c-0.3-0.2-0.5-0.6-0.7-0.9
			c-0.2-0.4-0.3-0.8-0.3-1.2c0-0.4,0.1-0.9,0.3-1.5c0.2-0.5,0.5-1.1,1-1.6c0.3-0.4,0.6-0.7,0.9-1.1l-0.8-0.7c-1.2-1-2.1-1.1-2.8-0.4
			c-0.2,0.2-0.3,0.5-0.3,0.7c0,0.3,0.1,0.5,0.2,0.8c0.1,0.3,0.3,0.5,0.5,0.7c0.2,0.2,0.4,0.4,0.6,0.6c-0.1,0.1-0.2,0.2-0.3,0.4
			c-0.1,0.2-0.2,0.3-0.3,0.5c-0.1,0.2-0.2,0.4-0.2,0.5c-0.1,0.2-0.1,0.3-0.2,0.4c-0.5-0.4-0.8-0.9-1-1.3c-0.2-0.5-0.2-0.9-0.2-1.4
			c0-0.5,0.2-0.9,0.4-1.4c0.2-0.4,0.5-0.9,0.8-1.2c0.3-0.3,0.6-0.6,0.9-0.9c0.3-0.2,0.6-0.4,1-0.4c0.3-0.1,0.7,0,1.1,0.1
			c0.4,0.1,0.8,0.4,1.2,0.8l3.8,3.3c0.3,0.2,0.5,0.4,0.7,0.5c0.2,0.1,0.4,0.1,0.5-0.1c0.1-0.1,0.1-0.2,0.1-0.3c0-0.1,0-0.2-0.1-0.3
			c0-0.1-0.1-0.2-0.2-0.3c-0.1-0.1-0.2-0.2-0.2-0.2L95.9,83.6z M90.9,83.7c-0.1,0.2-0.3,0.4-0.4,0.5c-0.1,0.2-0.3,0.4-0.4,0.5
			c-0.2,0.3-0.4,0.7-0.4,1c-0.1,0.3-0.1,0.6,0,0.9c0,0.3,0.1,0.5,0.3,0.7c0.1,0.2,0.3,0.4,0.5,0.6c0.2,0.2,0.4,0.3,0.7,0.4
			c0.2,0.1,0.5,0.2,0.7,0.2c0.2,0,0.5,0,0.7-0.1c0.2-0.1,0.4-0.2,0.6-0.4c0.2-0.3,0.4-0.6,0.4-1c0.1-0.4,0-0.8-0.2-1.3L90.9,83.7z"
			/>
		<path class="st4" d="M101.3,76.4l0.4,0.2l-1.9,3.7L99.4,80l0.1-0.2c0.1-0.2,0.1-0.3,0-0.5c-0.1-0.1-0.1-0.3-0.3-0.4
			c-0.1-0.1-0.3-0.2-0.4-0.3c-0.2-0.1-0.3-0.2-0.4-0.2L94,76.1c-0.2-0.1-0.4-0.1-0.6,0c-0.2,0.1-0.4,0.3-0.5,0.5
			c0,0.1-0.1,0.1-0.2,0c-0.1,0-0.1-0.1-0.1-0.1c0-0.2,0-0.5,0-0.7c0-0.2,0-0.4,0-0.6c0-0.2,0-0.4,0-0.5c0-0.2,0-0.4,0-0.6
			c0-0.1,0-0.2,0-0.3c0-0.1,0-0.2,0.1-0.2c0.1-0.1,0.2-0.2,0.2-0.2c0.1,0,0.2,0,0.3,0.1l1.1,0.6c-0.4-0.5-0.6-1.1-0.7-1.8
			c-0.1-0.7,0.1-1.3,0.4-1.9l1.6,0.8c-0.2,0.3-0.3,0.7-0.5,1c-0.1,0.3-0.2,0.6-0.3,0.9c-0.1,0.3-0.1,0.5,0,0.8
			c0,0.2,0.1,0.5,0.3,0.7l4.1,2.1c0.1,0.1,0.3,0.1,0.4,0.2c0.2,0.1,0.3,0.1,0.5,0.2c0.2,0,0.3,0,0.5,0c0.1,0,0.3-0.1,0.3-0.3
			L101.3,76.4z"/>
		<path class="st4" d="M104.6,63.7c0.5,0.1,0.9,0.4,1.1,0.9c0.2,0.4,0.3,1,0.1,1.5c-0.2,0.6-0.4,1.1-0.7,1.4
			c-0.3,0.3-0.7,0.5-1.1,0.6c-0.4,0.1-0.9,0.1-1.4,0c-0.5-0.1-1-0.2-1.5-0.3l-4.7-1.3L96,67.6l-0.4-0.1c0.1-0.2,0.1-0.5,0-0.8
			c-0.1-0.3-0.2-0.5-0.3-0.8c-0.2-0.3-0.3-0.5-0.6-0.8c-0.2-0.2-0.5-0.5-0.7-0.7c0,0-0.1-0.1-0.1-0.1c0-0.1,0-0.1,0-0.3
			c0-0.1,0.1-0.2,0.2-0.1l2.2,0.6l0.6-2l0.5,0.1l-0.5,2l4.7,1.3c0.6,0.2,1.2,0.3,1.6,0.3c0.5,0,0.8,0,1.1-0.1
			c0.3-0.1,0.5-0.2,0.7-0.4c0.2-0.2,0.3-0.3,0.3-0.5c0-0.2,0.1-0.3,0-0.4c0-0.1-0.1-0.3-0.1-0.4c-0.1-0.1-0.1-0.2-0.3-0.3
			c-0.1-0.1-0.2-0.2-0.3-0.2L104.6,63.7z"/>
	</g>
	<path class="st4" d="M107.2,52.1c-0.3,0-0.6-0.2-0.6-0.6c-3.9-26.9-20.4-45.2-44.2-49C41.6-0.9,21,8.6,10,26.5
		c-0.2,0.3-0.6,0.4-0.9,0.2c-0.3-0.2-0.4-0.6-0.2-0.9C20.2,7.4,41.3-2.2,62.6,1.2c24.4,3.9,41.3,22.6,45.2,50.1
		C107.9,51.7,107.7,52,107.2,52.1C107.3,52.1,107.3,52.1,107.2,52.1z"/>
	<g>
		<path class="st4" d="M78.1,64.5l-9.7-29.7c-0.2-0.7-0.7-1.2-1.3-1.5c-0.6-0.3-1.3-0.4-2-0.2l-11.4,3.7l-1-3l6.1-2l0,0
			c0.6-0.2,0.9-0.8,0.7-1.4l-1.4-4.4c-0.1-0.3-0.3-0.5-0.6-0.7c-0.3-0.1-0.6-0.2-0.9-0.1l-18.6,6.1c-0.6,0.2-0.9,0.8-0.7,1.4
			l1.4,4.4c0.1,0.3,0.3,0.5,0.6,0.7c0.2,0.1,0.4,0.1,0.6,0.1c0.1,0,0.2,0,0.2-0.1l6.1-2l1,3L36,42.7c-0.7,0.2-1.2,0.7-1.5,1.3
			c-0.3,0.6-0.4,1.3-0.2,2L44,75.7c0.2,0.7,0.7,1.2,1.3,1.5c0.5,0.2,1,0.3,1.5,0.3c0.2,0,0.4-0.1,0.6-0.1l29-9.5
			c0.7-0.2,1.2-0.7,1.5-1.3C78.2,65.9,78.3,65.2,78.1,64.5z M47.8,39.8C47.8,39.8,47.8,39.8,47.8,39.8l1.2-0.4l16.3-5.3
			c0.4-0.1,0.9-0.1,1.3,0.1c0.4,0.2,0.7,0.5,0.8,1l9.7,29.7c0.3,0.9-0.2,1.8-1.1,2.1l-29,9.5c-0.4,0.1-0.9,0.1-1.3-0.1
			c-0.4-0.2-0.7-0.5-0.8-1l-9.7-29.7c-0.1-0.4-0.1-0.9,0.1-1.3c0.2-0.4,0.5-0.7,1-0.8L47.8,39.8z M51.4,34.4l0.3-0.1l1,3l-2.8,0.9
			l-1.7,0.6l-1-3L51.4,34.4z M52.1,33.1C52.1,33.1,52.1,33.1,52.1,33.1l-2.9,1l-9.3,3.1c0,0-0.1,0-0.1,0c0,0-0.1-0.1-0.1-0.1
			l-1.4-4.4c0-0.1,0-0.2,0.1-0.2l0,0l18.6-6.1c0,0,0.1,0,0.1,0c0,0,0.1,0.1,0.1,0.1l1.4,4.4c0,0,0,0.1,0,0.1c0,0-0.1,0.1-0.1,0.1
			L52.1,33.1z"/>
		<path class="st4" d="M46.5,72.3C46.5,72.3,46.5,72.3,46.5,72.3L46.5,72.3C46.6,72.3,46.6,72.3,46.5,72.3l28.1-9.2
			c0.1,0,0.1-0.1,0.1-0.1c0-0.1,0-0.1,0-0.2L71.9,54c0,0,0,0,0,0l-3.6-10.9l-0.1-0.2c0-0.1-0.2-0.2-0.3-0.1l-0.2,0.1c0,0,0,0,0,0
			c0,0,0,0,0,0l-0.1,0c-3.5,1.1-6.4,3.7-7.9,7c0,0.1-0.1,0.2-0.1,0.2l-0.2,0.4c-1.4,3-4.1,5.4-7.3,6.5c-3.5,1.1-7.3,0.7-10.3-1.2
			l-0.6-0.4c-0.1-0.1-0.2,0-0.3,0c-0.1,0.1-0.1,0.2-0.1,0.2l5.4,16.5C46.3,72.2,46.4,72.3,46.5,72.3z M73.6,62.4l-1.1,0.4l-7.2,2.4
			l-18.3,6l-2.4-7.3l26.6-8.7L73.6,62.4z M44.3,62.9l-1.9-5.7c0,0,0.1,0,0.1,0.1l0.2,0.1c0.1,0.1,0.3,0.1,0.4,0.2l0.3,0.1
			c0.1,0,0.3,0.1,0.4,0.1c0.1,0,0.1,0,0.2,0.1l0.1,0c0.1,0,0.3,0.1,0.4,0.1c0.1,0,0.2,0.1,0.3,0.1c0.1,0,0.2,0.1,0.4,0.1
			c0.1,0,0.2,0,0.3,0.1c0.1,0,0.3,0.1,0.4,0.1c0.1,0,0.2,0,0.3,0.1c0.1,0,0.3,0,0.4,0.1c0.1,0,0.2,0,0.3,0c0.1,0,0.3,0,0.4,0l0.3,0
			c0.1,0,0.3,0,0.4,0c0.1,0,0.2,0,0.3,0c0.1,0,0.3,0,0.4,0c0.1,0,0.2,0,0.3,0c0.1,0,0.3,0,0.4,0c0.2,0,0.4,0,0.7-0.1l0.1,0
			c0.1,0,0.2,0,0.2,0c0.1,0,0.2,0,0.4-0.1l0.1,0c0.1,0,0.1,0,0.2,0c0.1,0,0.3-0.1,0.4-0.1l0.3-0.1c0.2-0.1,0.5-0.1,0.7-0.2
			c0.2-0.1,0.4-0.1,0.6-0.2c3.2-1.2,5.8-3.7,7.2-6.7c0,0,0,0,0,0l0.1-0.3c0-0.1,0.1-0.2,0.1-0.3c1.3-2.9,3.8-5.2,6.9-6.3l3.3,10.2
			L44.3,62.9z"/>
	</g>
</g>
</svg>
