<svg width="24" height="24" viewBox="0 0 24 24" fill="none" xmlns="http://www.w3.org/2000/svg">
<path d="M14.6008 11.5201L10.9258 13.6384V9.40179L14.6008 11.5201Z" fill="#9C8563" stroke="#9C8563" stroke-width="1.5" stroke-linecap="round" stroke-linejoin="round"/>
<path d="M2 12.2695V10.7707C2 7.70403 2 6.17073 2.95076 5.18416C3.90154 4.19759 5.39839 4.15488 8.39207 4.06947C9.81067 4.029 11.2597 4 12.5 4C13.7403 4 15.1894 4.029 16.6079 4.06947C19.6016 4.15488 21.0984 4.19759 22.0492 5.18416C23 6.17073 23 7.70403 23 10.7707V12.2695C23 15.336 23 16.8694 22.0492 17.8559C21.0984 18.8425 19.6017 18.8852 16.608 18.9706C15.1894 19.0111 13.7403 19.0401 12.5 19.0401C11.2597 19.0401 9.8106 19.0111 8.39198 18.9706C5.39834 18.8852 3.90152 18.8425 2.95075 17.8559C2 16.8694 2 15.336 2 12.2695Z" stroke="#9C8563" stroke-width="1.5"/>
</svg>
