<svg width="165" height="52" viewBox="0 0 165 52" fill="none" xmlns="http://www.w3.org/2000/svg">
<g clip-path="url(#clip0_1476_2233)">
<path d="M86.834 51.8325V46.8921H89.5973V47.3945H87.3364V48.9855H89.1786V49.4879H87.3364V51.3301H89.681V51.8325H86.834Z" fill="black" fill-opacity="0.6"/>
<path d="M94.1181 51.9162C93.4482 51.9162 92.862 51.665 92.4434 51.1626L92.7783 50.7439C93.1132 51.1626 93.5319 51.3301 94.0343 51.3301H94.1181C94.6205 51.3301 94.8717 51.1626 95.1229 50.9114C95.2066 50.8277 95.2066 50.6602 95.2066 50.4927C95.2066 50.2415 95.0392 49.9903 94.788 49.8228C94.7042 49.7391 94.5368 49.6554 94.3693 49.5716L93.6994 49.2367C93.197 48.9855 92.862 48.7343 92.7783 48.3156C92.7783 48.2319 92.7783 48.0644 92.7783 47.9806C92.7783 47.562 92.9458 47.227 93.2807 46.9758C93.5319 46.8083 93.8669 46.7246 94.2855 46.7246C94.788 46.7246 95.2904 46.8921 95.6253 47.227L95.7091 47.3108L95.3741 47.6457C95.0392 47.3108 94.7042 47.1433 94.2018 47.1433C93.7831 47.1433 93.5319 47.3108 93.3645 47.562C93.2807 47.6457 93.2807 47.8132 93.2807 47.8969C93.2807 48.1481 93.4482 48.3993 93.7831 48.5668C93.8669 48.5668 93.9506 48.6505 94.1181 48.7343L94.8717 49.0692C95.2904 49.2367 95.6253 49.4879 95.7928 49.8228C95.8765 49.9903 95.8765 50.1578 95.8765 50.409C95.8765 50.8277 95.7091 51.2463 95.2904 51.4976C94.9554 51.8325 94.5368 51.9162 94.1181 51.9162Z" fill="black" fill-opacity="0.6"/>
<path d="M99.8139 51.8325V47.3945H98.3066V46.8921H101.824V47.3945H100.316V51.8325H99.8139Z" fill="black" fill-opacity="0.6"/>
<path d="M104.921 51.9162C104.753 51.9162 104.586 51.8325 104.586 51.665C104.586 51.5813 104.586 51.5813 104.586 51.4975C104.586 51.3301 104.67 51.1626 104.837 51.0789C104.921 51.0789 104.921 51.0789 105.005 51.0789C105.172 51.0789 105.34 51.1626 105.423 51.3301C105.423 51.4138 105.423 51.4975 105.423 51.4975C105.423 51.665 105.34 51.8325 105.172 51.9162C105.088 51.9162 105.005 51.9162 104.921 51.9162Z" fill="black" fill-opacity="0.6"/>
<path d="M108.188 51.8325V51.4976C109.444 50.409 110.197 49.4879 110.365 48.7343C110.448 48.5668 110.448 48.3993 110.448 48.2319C110.448 47.8132 110.281 47.4782 109.946 47.3108C109.778 47.227 109.695 47.227 109.527 47.227C109.192 47.227 108.774 47.3945 108.522 47.8132L108.188 47.4782C108.606 47.0596 109.025 46.8083 109.444 46.7246C109.527 46.7246 109.527 46.7246 109.611 46.7246C110.197 46.7246 110.532 46.8921 110.783 47.3108C110.951 47.562 110.951 47.8132 110.951 48.1481C110.951 48.818 110.532 49.6554 109.695 50.5765C109.444 50.8277 109.276 51.0789 108.941 51.3301C109.192 51.3301 109.444 51.3301 109.778 51.3301H111.202V51.8325H108.188Z" fill="black" fill-opacity="0.6"/>
<path d="M115.388 51.9162C114.802 51.9162 114.383 51.5813 114.132 50.9114C113.965 50.4927 113.881 49.9903 113.881 49.4042C113.881 48.1481 114.132 47.3945 114.718 47.0596C114.886 46.9758 115.137 46.8921 115.388 46.8921C116.058 46.8921 116.477 47.227 116.728 47.9807C116.895 48.3993 116.895 48.818 116.895 49.4042C116.895 50.6602 116.644 51.4138 116.058 51.8325C115.891 51.9162 115.639 51.9162 115.388 51.9162ZM115.388 51.4976C115.807 51.4976 116.058 51.1626 116.225 50.4927C116.309 50.1578 116.309 49.8228 116.309 49.3204C116.309 48.1481 116.058 47.4782 115.639 47.3108C115.556 47.3108 115.472 47.227 115.388 47.227C114.969 47.227 114.718 47.562 114.551 48.1481C114.467 48.4831 114.383 48.9018 114.383 49.3204C114.383 50.409 114.634 51.1626 115.053 51.3301C115.221 51.4976 115.304 51.4976 115.388 51.4976Z" fill="black" fill-opacity="0.6"/>
<path d="M119.574 51.8325V51.4976C120.83 50.409 121.584 49.4879 121.751 48.7343C121.835 48.5668 121.835 48.3993 121.835 48.2319C121.835 47.8132 121.668 47.4782 121.333 47.3108C121.165 47.227 121.081 47.227 120.914 47.227C120.579 47.227 120.16 47.3945 119.909 47.8132L119.574 47.4782C119.993 47.0596 120.412 46.8083 120.83 46.7246C120.914 46.7246 120.914 46.7246 120.998 46.7246C121.584 46.7246 121.919 46.8921 122.17 47.3108C122.337 47.562 122.338 47.8132 122.338 48.1481C122.338 48.818 121.919 49.6554 121.081 50.5765C120.83 50.8277 120.663 51.0789 120.328 51.3301C120.579 51.3301 120.83 51.3301 121.165 51.3301H122.589V51.8325H119.574Z" fill="black" fill-opacity="0.6"/>
<path d="M126.693 51.9162C126.106 51.9162 125.52 51.665 125.102 51.2464L125.353 50.9114C125.688 51.2464 126.106 51.4976 126.525 51.4976H126.609C127.027 51.4976 127.279 51.3301 127.446 51.0789C127.53 50.9114 127.614 50.7439 127.614 50.5765C127.614 49.9066 127.111 49.5716 126.023 49.5716V49.153C126.944 49.153 127.362 48.818 127.362 48.1481C127.362 47.8132 127.195 47.562 126.944 47.3945C126.776 47.3108 126.693 47.3108 126.525 47.3108C126.19 47.3108 125.771 47.4782 125.52 47.8132L125.185 47.4782C125.604 47.0596 126.023 46.8921 126.525 46.8921C127.111 46.8921 127.446 47.0596 127.697 47.3945C127.865 47.562 127.865 47.8132 127.865 48.0644C127.865 48.5668 127.614 48.9855 127.111 49.2367C127.027 49.2367 127.027 49.2367 126.944 49.3204C127.362 49.4042 127.697 49.6554 127.865 49.9903C127.949 50.1578 128.032 50.409 128.032 50.5765C128.032 51.0789 127.865 51.4138 127.446 51.7488C127.362 51.8325 127.027 51.9162 126.693 51.9162Z" fill="black" fill-opacity="0.6"/>
<path d="M33.4102 51.9163V46.9758H34.7499C35.9222 46.9758 36.5084 47.3945 36.5921 48.2319C36.5921 48.3156 36.5921 48.3156 36.5921 48.3993C36.5921 49.0692 36.2572 49.5716 35.671 49.7391C35.4198 49.8229 35.1686 49.8229 34.8337 49.8229H33.9963V51.9163H33.4102ZM33.9126 49.4879H34.6662C35.3361 49.4879 35.8385 49.2367 35.9222 48.818C35.9222 48.7343 36.006 48.5668 36.006 48.3993C36.006 47.9807 35.8385 47.6457 35.4198 47.4782C35.2523 47.3945 35.0011 47.3945 34.6662 47.3945H33.9126V49.4879Z" fill="black" fill-opacity="0.6"/>
<path d="M39.6074 51.9163V46.9758H42.3707V47.4782H40.1098V49.0692H41.952V49.5716H40.1098V51.4138H42.4544V51.9163H39.6074Z" fill="black" fill-opacity="0.6"/>
<path d="M48.8182 51.9163H48.232L46.976 49.8229H46.0549V51.9163H45.4688V46.9758H46.976C48.0646 46.9758 48.6507 47.4782 48.6507 48.3156C48.6507 48.9855 48.3995 49.4042 47.8134 49.5716C47.7296 49.5716 47.6459 49.6554 47.5621 49.6554L48.8182 51.9163ZM46.0549 47.4782V49.4042H46.8923C47.7296 49.4042 48.1483 49.0692 48.1483 48.3993C48.1483 47.8969 47.8971 47.6457 47.3947 47.562C47.2272 47.562 47.0597 47.4782 46.8923 47.4782H46.0549Z" fill="black" fill-opacity="0.6"/>
<path d="M51.6641 51.9163V46.9758H54.4273V47.4782H52.1665V49.2367H54.0924V49.7391H52.1665V51.9163H51.6641Z" fill="black" fill-opacity="0.6"/>
<path d="M59.1178 52C58.1967 52 57.6106 51.5813 57.4431 50.6602C57.3594 50.409 57.3594 50.2415 57.3594 49.9066V46.9758H57.9455V49.9066C57.9455 50.9114 58.3642 51.4976 59.1178 51.4976C59.7877 51.4976 60.2064 51.0789 60.2901 50.3253C60.2901 50.2415 60.2901 50.0741 60.2901 49.9066V46.9758H60.7925V49.9066C60.7925 51.1626 60.2901 51.8325 59.369 51.9163C59.2853 52 59.2016 52 59.1178 52Z" fill="black" fill-opacity="0.6"/>
<path d="M64.1406 51.9163V46.9758H64.8105L65.7316 49.6554C65.7316 49.7391 65.8153 49.9066 65.8991 50.1578C65.9828 50.409 66.0666 50.5765 66.0666 50.6602C66.1503 50.4927 66.234 50.1578 66.4015 49.6554L67.3226 46.9758H67.9925V51.9163H67.4901V49.0692C67.4901 48.818 67.4901 48.3993 67.5738 47.6457L67.1551 48.7343L66.234 51.3301H65.8153L64.8105 48.7343L64.3918 47.6457C64.4756 48.3993 64.4756 48.818 64.4756 49.0692V51.9163H64.1406Z" fill="black" fill-opacity="0.6"/>
<path d="M71.5938 51.9163V46.9758H74.357V47.4782H72.0962V49.0692H73.9384V49.5716H72.0962V51.4138H74.4408V51.9163H71.5938Z" fill="black" fill-opacity="0.6"/>
<path d="M10.2158 8.37358L10.132 8.03864L1.67472 32.7407H0V33.4106H4.1868V32.7407H2.34461L10.3833 9.29467C10.3833 8.95973 10.2995 8.62479 10.2158 8.37358Z" fill="black" fill-opacity="0.6"/>
<path d="M15.0726 0.502437L14.9888 0.418701H11.2207L13.0629 5.27538L18.5895 20.2641H13.984V20.8503H18.8407L23.1949 32.7408H21.5202V33.4107H28.8052V32.7408H27.0468L15.0726 0.502437Z" fill="black" fill-opacity="0.6"/>
<path d="M146.036 8.37358L145.952 8.03864L137.495 32.7407H135.82V33.4106H140.007V32.7407H138.165L146.204 9.29467C146.204 8.95973 146.12 8.62479 146.036 8.37358Z" fill="black" fill-opacity="0.6"/>
<path d="M163.201 32.7408L151.143 0.502437V0.418701H147.375L149.133 5.27538L154.66 20.2641H150.138V20.8503H154.911L159.265 32.7408H157.591V33.4107H164.96V32.7408H163.201Z" fill="black" fill-opacity="0.6"/>
<path d="M40.8626 19.0918H40.4439V19.7617H40.8626C41.2813 19.7617 41.7 19.7617 42.1187 19.7617C42.5373 19.7617 43.0398 19.678 43.3747 19.678C43.7934 19.678 44.2121 19.5942 44.6307 19.5942C44.8819 19.5942 45.0494 19.5105 45.3006 19.5105C45.6356 19.4268 45.9705 19.4268 46.2217 19.343C46.5567 19.2593 46.8079 19.2593 47.1428 19.1755C47.4778 19.0918 47.729 19.0081 47.9802 18.9243C48.2314 18.8406 48.5663 18.7569 48.8175 18.6731C49.0687 18.5894 49.3199 18.5057 49.5712 18.4219C49.8224 18.3382 50.0736 18.2545 50.3248 18.087C50.576 18.0032 50.8272 17.8358 50.9947 17.752C51.2459 17.6683 51.4133 17.5008 51.6646 17.3334C51.9158 17.1659 52.0832 17.0821 52.2507 16.9147C52.4182 16.7472 52.6694 16.5797 52.8369 16.496C53.0043 16.3285 53.1718 16.1611 53.3393 15.9936C53.5067 15.8261 53.6742 15.6586 53.8417 15.4912C54.0092 15.3237 54.0929 15.1562 54.2604 14.905C54.4278 14.7375 54.5116 14.4863 54.5953 14.3189C54.679 14.1514 54.8465 13.9002 54.9303 13.649C55.014 13.3978 55.0977 13.2303 55.1815 12.9791C55.2652 12.7279 55.3489 12.4767 55.3489 12.3092C55.4327 12.058 55.4327 11.8068 55.5164 11.5556C55.5164 11.3044 55.6001 11.0532 55.6001 10.802C55.6001 10.5507 55.6001 10.3833 55.6001 10.1321C55.6001 3.85187 50.3248 0.418701 40.7789 0.418701H32.7402V1.08859H34.9174V32.7408H32.7402V33.4107H40.8626V32.7408H38.6855V1.08859H40.7789C48.2314 1.08859 51.9158 4.10308 51.9158 10.1321C51.9158 16.0773 48.2314 19.0918 40.8626 19.0918Z" fill="black" fill-opacity="0.6"/>
<path d="M57.0248 24.4509C56.3549 27.7166 54.0103 30.1449 51.6657 30.1449C48.9861 30.1449 46.7253 27.0467 45.5529 21.7714V21.6876L45.3855 21.7714C45.3017 21.7714 45.218 21.8551 45.1343 21.8551L44.9668 21.9388V22.0226C46.5578 29.81 49.4048 33.7456 53.3404 33.7456C54.429 33.7456 56.0199 33.2432 57.0248 31.7359V33.4107H57.6109V24.3672L57.0248 24.4509Z" fill="black" fill-opacity="0.6"/>
<path d="M79.5498 0C78.2101 0 76.7865 0.167472 75.363 0.586151H75.2793L75.363 0.837359C75.363 0.921095 75.4468 1.00483 75.4468 1.08857V1.1723H75.5305C76.3679 0.921095 77.289 0.837359 78.2938 0.837359C83.9878 0.837359 89.2632 5.77778 91.4403 13.0628C94.3711 23.1111 90.5192 29.7262 85.3276 31.9034H85.2439L85.4951 32.4895H85.5788C91.9427 30.0612 95.9621 24.1159 95.9621 16.9147C95.9621 7.53623 88.5933 0 79.5498 0Z" fill="black" fill-opacity="0.6"/>
<path d="M82.062 32.657C81.3921 32.8245 80.6385 32.8245 79.8848 32.8245C74.1908 32.8245 68.9154 27.8841 66.7383 20.5991C64.4774 12.8954 66.4033 5.61034 71.595 2.42837L71.6787 2.34464L71.595 2.2609C71.5112 2.09343 71.4275 1.92596 71.3438 1.84222L71.26 1.75848L71.1763 1.84222C65.566 4.77298 62.1328 10.5508 62.1328 16.9147C62.1328 26.1256 69.5016 33.6619 78.5451 33.6619C79.7174 33.6619 80.8897 33.4944 82.062 33.2432H82.1457V32.657H82.062Z" fill="black" fill-opacity="0.6"/>
<path d="M106.763 0.502437L102.492 0.418701L104.418 3.51693L117.648 24.1997V24.2834H118.318L119.826 21.6039V21.5202V21.4364C119.826 21.3527 108.102 2.59583 106.763 0.502437Z" fill="black" fill-opacity="0.6"/>
<path d="M103.414 9.54591C103.247 9.2947 103.079 9.0435 102.912 8.87602L102.744 8.62482V32.7408H100.232V33.4106H105.843V32.7408H103.331L103.414 9.54591Z" fill="black" fill-opacity="0.6"/>
<path d="M121.25 17.752L121.334 18.0032C121.417 18.087 121.417 18.2544 121.501 18.3382L121.585 18.5057L130.545 2.5121V32.7408H128.284V33.4107H136.406V32.7408H134.229V1.08859H136.406V0.418701H130.963L121.25 17.752Z" fill="black" fill-opacity="0.6"/>
<path d="M78.8797 17.5008C78.5448 17.8357 78.2936 18.1707 78.0424 18.5056C78.3773 18.2544 78.7123 18.0032 79.0472 17.6683C79.0472 18.0032 79.1309 18.2544 79.1309 18.5056C79.2147 19.1755 79.2147 19.8454 79.2984 20.4315C79.2984 20.4315 79.2984 20.5153 79.3821 20.5153C79.4659 19.5942 79.5496 18.5893 79.6334 17.5845C79.9683 17.9195 80.3032 18.1707 80.6382 18.4219C80.387 18.0869 80.052 17.752 79.8008 17.417C79.8008 17.417 79.8008 17.417 79.8008 17.3333C80.387 17.2496 80.9731 17.2496 81.5593 17.1658C81.8942 17.1658 82.2292 17.1658 82.4804 17.0821C82.5641 17.0821 82.5641 17.0821 82.6478 16.9984C81.7267 16.9146 80.7219 16.8309 79.8008 16.7472C79.8008 16.7472 79.8008 16.7472 79.8008 16.6634C80.052 16.3285 80.3032 15.9935 80.6382 15.6586C80.3032 15.9098 79.9683 16.161 79.6334 16.4959C79.6334 16.4959 79.6334 16.4959 79.5496 16.4959C79.4659 15.5749 79.3821 14.57 79.2984 13.6489C79.2984 13.6489 79.2984 13.6489 79.2147 13.6489C79.1309 14.57 79.0472 15.5749 78.9635 16.5797C78.6285 16.2447 78.2936 15.9935 77.9586 15.7423C78.2098 16.0773 78.461 16.4122 78.796 16.7472C77.7912 16.9146 76.8701 16.9146 75.8652 17.0821C76.9538 17.2496 77.9586 17.3333 78.8797 17.5008Z" fill="black" fill-opacity="0.6"/>
</g>
<defs>
<clipPath id="clip0_1476_2233">
<rect width="164.96" height="52" fill="white"/>
</clipPath>
</defs>
</svg>
