<svg width="110" height="112" viewBox="0 0 110 112" fill="none" xmlns="http://www.w3.org/2000/svg">
<g clip-path="url(#clip0_294_7145)">
<path d="M3.36254 26.5401C3.60271 26.7801 3.96297 26.9001 4.44332 26.9001C4.80359 26.9001 5.28393 26.7801 5.6442 26.6601C6.12455 26.5401 6.6049 26.4201 7.08524 26.1801C7.56559 26.0601 8.04594 25.8201 8.52629 25.8201C9.00664 25.7001 9.48699 25.7001 9.96734 25.8201C10.4477 25.9401 10.928 26.1801 11.4084 26.5401C11.7687 26.9001 12.0088 27.2601 12.1289 27.6201C12.249 27.9801 12.249 28.4601 12.249 28.9401C12.1289 29.4201 12.0088 29.7801 11.7687 30.2601C11.5285 30.7401 11.2883 31.1001 10.928 31.4601C10.808 31.7001 10.4477 32.0601 10.2075 32.3001C9.96734 32.5401 9.60708 32.7801 9.24682 33.0201C8.88655 33.2601 8.52629 33.3801 8.16603 33.5001C7.80577 33.6201 7.44551 33.7401 7.08524 33.7401L5.6442 30.8601C6.12455 31.2201 6.6049 31.5801 7.08524 31.7001C7.56559 31.8201 8.04594 31.9401 8.40621 31.9401C8.76647 31.9401 9.24682 31.8201 9.60708 31.7001C9.96734 31.5801 10.2075 31.3401 10.4477 31.1001C10.6879 30.7401 10.808 30.3801 10.808 29.9001C10.808 29.4201 10.5678 29.0601 10.2075 28.8201C9.84725 28.5801 9.48699 28.3401 9.12673 28.3401C8.76647 28.3401 8.28612 28.3401 7.80577 28.4601C7.32542 28.5801 6.84507 28.7001 6.36472 28.9401C5.88437 29.1801 5.52411 29.3001 5.04376 29.3001C4.56341 29.3001 4.08306 29.4201 3.60271 29.3001C3.12236 29.1801 2.64201 28.9401 2.16166 28.5801C1.8014 28.2201 1.56123 27.8601 1.44114 27.5001C1.32105 27.1401 1.32105 26.6601 1.44114 26.1801C1.56123 25.7001 1.68131 25.3401 1.92149 24.8601C2.16166 24.5001 2.40184 24.1401 2.64201 23.7801C3.12236 23.1801 3.60271 22.8201 4.20315 22.4601C4.80359 22.1001 5.52411 21.8601 6.24463 21.8601L7.68568 24.7401C7.20533 24.2601 6.84507 23.9001 6.36472 23.7801C5.88437 23.5401 5.52411 23.4201 5.04376 23.4201C4.6835 23.4201 4.32324 23.4201 3.96297 23.5401C3.60271 23.6601 3.36254 23.9001 3.12236 24.1401C3.00227 24.2601 2.88219 24.5001 2.88219 24.6201C2.7621 24.8601 2.7621 24.9801 2.7621 25.2201C2.7621 25.4601 2.88219 25.5801 3.00228 25.8201C3.00228 26.1801 3.12236 26.3001 3.36254 26.5401Z" fill="black"/>
<path d="M14.1702 26.54L14.4104 26.3C14.5305 26.18 14.6506 26.06 14.6506 25.82C14.6506 25.7 14.6506 25.46 14.5305 25.22C14.4104 24.98 14.4104 24.86 14.2903 24.62C14.1702 24.5 14.0501 24.26 13.93 24.14L6.7248 14.3C6.60471 14.06 6.36454 13.94 6.00428 13.82C5.7641 13.7 5.40384 13.82 5.16366 14.06H5.04358C5.04358 14.06 4.92349 14.06 4.92349 13.94C4.92349 13.82 4.8034 13.82 4.92349 13.82C5.04358 13.58 5.16366 13.34 5.28375 13.22C5.40384 12.98 5.52393 12.86 5.64401 12.62C6.00428 12.62 6.00428 12.38 6.12436 12.26C6.24445 12.02 6.36454 11.9 6.48462 11.66C6.48462 11.54 6.60471 11.42 6.60471 11.42C6.60471 11.3 6.7248 11.3 6.84489 11.18C7.08506 10.94 7.20515 10.94 7.20515 11.06C7.32524 11.06 7.32524 11.18 7.44532 11.42L11.7685 17.42C11.7685 17.06 11.7685 16.7 11.7685 16.34C11.7685 15.98 11.8886 15.74 12.0086 15.38C12.1287 15.14 12.3689 14.9 12.489 14.66C12.7292 14.42 12.9693 14.18 13.2095 14.06C13.81 13.58 14.4104 13.34 14.8907 13.34C15.3711 13.34 15.9715 13.34 16.4519 13.58C16.9322 13.82 17.4126 14.18 17.8929 14.66C18.3733 15.14 18.8536 15.74 19.334 16.34L21.2554 18.98C21.3755 19.1 21.4955 19.22 21.6156 19.46C21.7357 19.58 21.8558 19.82 22.096 19.94C22.2161 20.06 22.4562 20.18 22.5763 20.18C22.6964 20.18 22.9366 20.18 23.0567 20.06L23.2969 19.82L23.537 20.18L19.6942 23.06L19.4541 22.7L19.6942 22.46C19.8143 22.34 19.9344 22.22 19.9344 21.98C19.9344 21.86 19.9344 21.62 19.8143 21.38C19.6942 21.14 19.6942 21.02 19.5741 20.78C19.4541 20.54 19.334 20.42 19.2139 20.3L17.2925 17.66C16.3318 16.46 15.6113 15.62 14.8907 15.26C14.1702 14.9 13.4497 15.02 12.8493 15.5C12.489 15.74 12.2488 16.22 12.2488 16.82C12.2488 17.42 12.489 18.26 12.8493 19.1L15.6113 22.82C15.7313 22.94 15.8514 23.06 15.9715 23.3C16.0916 23.54 16.2117 23.66 16.4519 23.78C16.572 23.9 16.8121 24.02 16.9322 24.02C17.0523 24.02 17.2925 24.02 17.4126 23.9L17.6527 23.66L17.8929 24.02L14.0501 26.9L14.1702 26.54Z" fill="black"/>
<path d="M26.1793 7.10012C27.02 6.74012 27.8606 6.62012 28.5811 6.62012C29.3016 6.62012 30.0221 6.74012 30.6226 7.10012C31.223 7.46012 31.8234 7.82012 32.1837 8.42012C32.6641 9.02012 33.0243 9.74012 33.3846 10.5801C33.6248 11.3001 33.7448 11.9001 33.7448 12.6201C33.7448 13.3401 33.6248 14.0601 33.3846 14.6601C33.1444 15.3801 32.7841 15.8601 32.3038 16.4601C31.8234 17.0601 31.223 17.4201 30.3824 17.6601C29.4217 18.0201 28.5811 18.1401 27.8606 18.1401C27.14 18.1401 26.4195 17.9001 25.8191 17.6601C25.2186 17.3001 24.7383 16.8201 24.2579 16.2201C23.7776 15.6201 23.4173 14.9001 23.1772 14.1801C22.937 13.4601 22.8169 12.7401 22.8169 12.0201C22.8169 11.3001 22.937 10.5801 23.1772 9.98012C23.4173 9.38012 23.7776 8.78012 24.2579 8.30012C24.7383 7.82012 25.4588 7.46012 26.1793 7.10012ZM30.2623 16.8201C30.7427 16.7001 31.1029 16.3401 31.3431 15.9801C31.5833 15.6201 31.7034 15.1401 31.8234 14.6601C31.9435 14.1801 31.9435 13.7001 31.8234 13.1001C31.7034 12.5001 31.5833 12.0201 31.3431 11.4201C31.1029 10.9401 30.9828 10.4601 30.6226 9.98012C30.2623 9.50012 30.0221 9.14012 29.5418 8.78012C29.1815 8.42012 28.7012 8.06012 28.2208 7.94012C27.7405 7.82012 27.2601 7.70012 26.5396 7.94012C26.0593 8.06012 25.699 8.42012 25.4588 8.78012C25.2186 9.14012 24.9785 9.62012 24.8584 10.1001C24.7383 10.5801 24.7383 11.0601 24.8584 11.6601C24.9785 12.2601 25.0986 12.7401 25.2186 13.2201C25.4588 13.8201 25.699 14.4201 26.0593 14.9001C26.4195 15.3801 26.7798 15.8601 27.14 16.2201C27.6204 16.5801 27.9807 16.8201 28.461 16.9401C29.1815 17.0601 29.6619 17.0601 30.2623 16.8201Z" fill="black"/>
<path d="M42.511 3.26021C43.2316 3.14021 43.832 3.26021 44.4324 3.50021C45.0329 3.74021 45.5132 4.10021 45.8735 4.46021C46.2337 4.94021 46.594 5.42021 46.8342 6.02021C47.0743 6.62021 47.1944 7.22021 47.3145 7.94021C47.4346 8.66021 47.4346 9.50021 47.1944 10.2202C47.0743 10.9402 46.8342 11.6602 46.4739 12.2602C46.1136 12.8602 45.6333 13.4602 44.9128 13.8202C44.3123 14.3002 43.4717 14.5402 42.6311 14.6602C42.2708 14.6602 41.7905 14.6602 41.4302 14.5402C41.07 14.4202 40.5896 14.1802 40.2294 13.9402L40.9499 20.1802C40.9499 20.3002 40.9499 20.5402 41.07 20.7802C41.07 21.0202 41.1901 21.1402 41.1901 21.3802C41.3102 21.6202 41.4302 21.7402 41.5503 21.8602C41.6704 21.9802 41.9106 21.9802 42.0307 21.9802H42.3909V22.4602L37.5874 23.0602V22.5802H37.9477C38.1879 22.5802 38.308 22.4602 38.4281 22.3402C38.5481 22.2202 38.5481 21.9802 38.6682 21.8602C38.6682 21.6202 38.6682 21.5002 38.6682 21.2602C38.6682 21.0202 38.6682 20.9002 38.6682 20.6602L37.1071 6.98021C37.1071 6.74021 36.987 6.50021 36.7468 6.26021C36.5067 6.02021 36.2665 6.02021 35.9062 6.02021H35.7861V5.90021V5.78021V5.66021C36.0263 5.42021 36.2665 5.30021 36.3866 5.18021C36.6267 5.06021 36.7468 4.94021 36.987 4.82021C37.2272 4.70021 37.3473 4.58021 37.5874 4.46021C37.8276 4.34021 37.9477 4.22021 38.1879 4.10021C38.1879 4.10021 38.308 4.10021 38.4281 3.98021C38.5481 3.98021 38.5481 3.86021 38.6682 3.86021C38.9084 3.86021 39.0285 3.86021 39.0285 3.98021C39.0285 4.10021 39.1486 4.22021 39.1486 4.46021L39.2687 5.54021C39.3888 5.18021 39.5088 4.82021 39.749 4.58021C39.9892 4.34021 40.2294 4.10021 40.5896 3.86021C40.9499 3.62021 41.1901 3.50021 41.5503 3.38021C41.7905 3.38021 42.1508 3.26021 42.511 3.26021ZM42.7512 14.0602C43.2315 14.0602 43.5918 13.8202 43.9521 13.5802C44.3123 13.2202 44.5525 12.8602 44.6726 12.3802C44.7927 11.9002 44.9128 11.4202 45.0329 10.8202C45.0329 10.2202 45.0329 9.62021 45.0329 9.14021C44.9128 8.54021 44.7927 7.94021 44.6726 7.34021C44.4324 6.74021 44.1922 6.26021 43.9521 5.90021C43.7119 5.42021 43.3516 5.18021 42.9914 4.94021C42.6311 4.70021 42.1508 4.58021 41.6704 4.70021C41.4302 4.70021 41.07 4.82021 40.8298 5.06021C40.5896 5.18021 40.3495 5.42021 40.1093 5.66021C39.8691 5.90021 39.749 6.14021 39.6289 6.50021C39.5088 6.74021 39.3888 7.10021 39.3888 7.34021C39.5088 8.18021 39.6289 8.90021 39.6289 9.74021C39.749 10.5802 39.8691 11.3002 39.8691 12.1402C39.9892 12.5002 40.1093 12.7402 40.2294 13.1002C40.4695 13.3402 40.5896 13.5802 40.8298 13.8202C41.07 14.0602 41.3102 14.1802 41.6704 14.1802C42.1508 14.0602 42.511 14.0602 42.7512 14.0602Z" fill="black"/>
<path d="M58.0025 3.74015C58.723 3.86015 59.3234 4.10015 59.8038 4.46015C60.2841 4.82015 60.6444 5.30015 61.0046 5.78015C61.2448 6.26015 61.485 6.86015 61.6051 7.58015C61.7252 8.18015 61.7252 8.90015 61.6051 9.50015C61.485 10.2201 61.2448 10.9401 61.0046 11.6601C60.6444 12.3801 60.2841 12.9801 59.6837 13.4601C59.2033 13.9401 58.4828 14.4201 57.7623 14.6601C57.0418 14.9001 56.2012 15.0201 55.3605 14.9001C55.0003 14.7801 54.5199 14.6601 54.1597 14.4201C53.7994 14.1801 53.4391 13.9401 53.199 13.5801L52.2383 19.8201C52.2383 19.9401 52.2383 20.1801 52.1182 20.4201C51.9981 20.6601 52.1182 20.7801 52.1182 21.0201C52.1182 21.2601 52.2383 21.3801 52.3584 21.5001C52.4784 21.6201 52.5985 21.7401 52.8387 21.7401H53.199L53.0789 22.2201L48.2754 21.5001L48.3955 21.0201H48.7557C48.9959 21.0201 49.116 21.0201 49.2361 20.9001C49.3562 20.7801 49.4763 20.6601 49.5963 20.4201C49.7164 20.1801 49.7164 20.0601 49.8365 19.8201C49.8365 19.5801 49.9566 19.4601 49.9566 19.2201L51.878 5.66015C51.878 5.42015 51.878 5.18015 51.7579 4.82015C51.6378 4.58015 51.3977 4.46015 51.0374 4.34015C51.0374 4.34015 51.0374 4.34015 50.9173 4.22015C50.7972 4.10015 50.9173 4.10015 50.9173 4.10015V3.98015C50.9173 3.98015 50.9173 3.98015 51.0374 3.86015C51.2776 3.74015 51.5177 3.74015 51.7579 3.62015C51.9981 3.62015 52.2383 3.50015 52.3584 3.50015C52.4784 3.50015 52.7186 3.38015 52.9588 3.26015C53.199 3.14015 53.4391 3.14015 53.6793 3.02015C53.7994 3.02015 53.9195 2.90015 53.9195 2.90015C54.0396 2.90015 54.1597 2.90015 54.1597 2.90015C54.3998 2.90015 54.3998 3.02015 54.5199 3.14015C54.5199 3.26015 54.5199 3.38015 54.5199 3.62015L54.2798 5.30015C54.5199 4.94015 54.7601 4.70015 55.0003 4.58015C55.2405 4.34015 55.6007 4.22015 55.961 4.10015C56.3212 3.98015 56.6815 3.86015 57.0418 3.86015C57.402 3.74015 57.7623 3.74015 58.0025 3.74015ZM55.4806 14.3001C55.961 14.4201 56.3212 14.3001 56.8016 14.0601C57.1619 13.8201 57.5221 13.5801 57.8824 13.1001C58.2426 12.6201 58.3627 12.2601 58.6029 11.6601C58.723 11.1801 58.8431 10.7001 58.9632 10.1001C59.0832 9.50015 59.0833 8.90015 59.0833 8.30015C59.0833 7.70015 58.9632 7.22015 58.723 6.74015C58.6029 6.26015 58.3627 5.90015 58.0025 5.54015C57.6422 5.18015 57.2819 5.06015 56.8016 4.94015C56.5614 4.94015 56.2012 4.94015 55.961 5.06015C55.7208 5.18015 55.4806 5.18015 55.2405 5.42015C55.0003 5.66015 54.7601 5.78015 54.64 6.02015C54.5199 6.26015 54.1597 6.50015 54.0396 6.74015C53.9195 7.58015 53.7994 8.30015 53.6793 9.14015C53.5592 9.98015 53.4391 10.7001 53.3191 11.5401C53.3191 11.9001 53.3191 12.2601 53.4391 12.5001C53.5592 12.7401 53.6793 13.1001 53.9195 13.3401C54.1597 13.5801 54.2798 13.8201 54.64 13.9401C55.0003 14.1801 55.2405 14.3001 55.4806 14.3001Z" fill="black"/>
<path d="M62.3257 15.7401L62.6859 15.8601C62.9261 15.9801 63.0462 15.9801 63.2864 15.8601C63.4064 15.7401 63.5265 15.6201 63.6466 15.5001C63.7667 15.3801 63.8868 15.1401 64.0069 15.0201C64.127 14.7801 64.127 14.6601 64.2471 14.5401L66.2885 8.90012C66.4086 8.66012 66.4086 8.42012 66.2885 8.18012C66.1685 7.94012 65.9283 7.82012 65.568 7.70012C65.568 7.70012 65.4479 7.58012 65.568 7.46012C65.568 7.34012 65.6881 7.34012 65.6881 7.34012C65.9283 7.34012 66.2885 7.34012 66.4086 7.34012C66.6488 7.34012 66.889 7.34012 67.0091 7.34012C67.2492 7.34012 67.3693 7.34012 67.6095 7.34012C67.8497 7.34012 68.0898 7.34012 68.33 7.22012C68.4501 7.22012 68.5702 7.22012 68.6903 7.22012C68.8104 7.22012 68.9305 7.22012 68.9305 7.22012C69.1706 7.34012 69.1706 7.34012 69.1706 7.46012C69.1706 7.58012 69.1706 7.70012 69.0505 7.82012L66.4086 15.3801C66.4086 15.5001 66.2885 15.7401 66.2885 15.8601C66.2885 16.1001 66.1684 16.2201 66.1684 16.4601C66.1684 16.7001 66.1685 16.8201 66.2885 17.0601C66.4086 17.1801 66.5287 17.3001 66.6488 17.4201L66.889 17.5401L66.7689 18.0201L62.2056 16.4601L62.3257 15.7401ZM68.8104 2.54012C68.6903 2.54012 68.6903 2.42012 68.5702 2.42012C68.5702 2.30012 68.5702 2.30012 68.5702 2.06012L69.0505 0.860117C69.0505 0.740117 69.1706 0.620117 69.2907 0.620117C69.4108 0.620117 69.5309 0.620117 69.651 0.620117L70.8519 0.980117C71.092 1.10012 71.092 1.22012 70.9719 1.46012L70.4916 2.66012C70.4916 2.78012 70.3715 2.90012 70.2514 3.02012C70.1313 3.02012 70.1313 3.02012 70.0112 3.02012L68.8104 2.54012Z" fill="black"/>
<path d="M68.5702 17.6602L68.8104 17.7802C69.0505 17.9002 69.1706 17.9002 69.2907 17.9002C69.4108 17.9002 69.651 17.7802 69.7711 17.6602C69.8912 17.5402 70.0112 17.4202 70.1313 17.1802C70.2514 17.0602 70.3715 16.8202 70.3715 16.7002L73.3737 11.6602C73.4938 11.4202 73.4938 11.1802 73.4938 10.9402C73.3737 10.7002 73.2536 10.4602 72.8933 10.3402C72.8933 10.3402 72.8933 10.3402 72.8933 10.2202C72.8933 10.1002 72.8933 10.1002 72.8933 10.1002C72.8933 9.98022 73.0134 9.98022 73.0134 9.98022C73.2536 9.98022 73.4938 10.1002 73.7339 10.1002C74.2143 10.1002 74.4545 10.1002 74.6946 10.1002C74.9348 10.1002 75.0549 10.1002 75.2951 10.1002C75.5353 10.1002 75.7754 10.1002 76.0156 10.2202C76.1357 10.2202 76.2558 10.2202 76.2558 10.2202C76.2558 10.2202 76.496 10.2202 76.496 10.3402C76.7361 10.4602 76.8562 10.5802 76.8562 10.7002C76.8562 10.8202 76.7361 10.9402 76.7361 11.0602L76.2558 11.9002C76.8562 11.5402 77.5767 11.3002 78.1772 11.4202C78.7776 11.4202 79.3781 11.6602 79.8584 12.0202C80.4588 12.3802 80.9392 12.8602 81.1794 13.3402C81.4195 13.8202 81.5396 14.3002 81.5396 14.9002C81.5396 15.5002 81.4195 16.1002 81.1794 16.7002C80.9392 17.3002 80.5789 18.0202 80.0986 18.7402L78.4174 21.5002C78.2973 21.6202 78.2973 21.7402 78.1772 21.9802C78.0571 22.1002 78.0571 22.3402 77.937 22.4602C77.937 22.7002 77.937 22.8202 77.937 23.0602C77.937 23.1802 78.0571 23.4202 78.2973 23.5402L78.5374 23.6602L78.2973 24.1402L74.2143 21.6202L74.4545 21.1402L74.6946 21.2602C74.9348 21.3802 75.0549 21.3802 75.175 21.3802C75.2951 21.3802 75.5353 21.2602 75.6553 21.1402C75.7754 21.0202 75.8955 20.9002 76.0156 20.6602C76.1357 20.5402 76.2558 20.3002 76.2558 20.1802L77.937 17.4202C78.7776 16.1002 79.1379 15.0202 79.1379 14.3002C79.1379 13.5802 78.7776 12.8602 78.0571 12.5002C77.6968 12.2602 77.0964 12.2602 76.496 12.5002C75.8955 12.7402 75.2951 13.2202 74.6946 13.9402L72.2929 17.9002C72.1728 18.0202 72.1728 18.1402 72.0527 18.3802C71.9326 18.6202 71.9326 18.7402 71.8125 18.9802C71.8125 19.2202 71.8125 19.3402 71.8125 19.5802C71.8125 19.7002 71.9326 19.9402 72.1728 20.0602L72.413 20.1802L72.1728 20.6602L68.0898 18.2602L68.5702 17.6602Z" fill="black"/>
<path d="M84.3016 28.1002C84.7819 28.5802 85.2623 29.1802 85.6225 29.6602C85.9828 30.2602 86.1029 30.7402 86.223 31.3402C86.3431 31.9402 86.223 32.4202 86.1029 33.0202C85.8627 33.6202 85.5024 34.1002 85.0221 34.7002C84.4217 35.3002 83.8212 35.6602 83.1007 35.9002C82.3802 36.1402 81.6596 36.1402 81.0592 36.1402C80.3387 36.0202 79.6182 35.7802 79.0177 35.4202C78.4173 35.0602 77.6968 34.5802 77.2164 34.1002C76.616 33.5002 76.2557 32.9002 76.0155 32.4202C75.7754 31.8202 75.6553 31.2202 75.6553 30.7402C75.6553 30.1402 75.7754 29.6602 76.0155 29.1802C76.2557 28.7002 76.4959 28.2202 76.8561 27.9802C77.0963 27.7402 77.4566 27.5002 77.6968 27.3802C78.057 27.2602 78.2972 27.1402 78.6575 27.0202C79.0177 26.9002 79.378 26.9002 79.7382 27.0202C80.0985 27.0202 80.4588 27.1402 80.819 27.3802C80.6989 27.0202 80.5789 26.6602 80.5789 26.4202C80.5789 26.1802 80.5789 25.8202 80.5789 25.5802C80.5789 25.3402 80.6989 25.1002 80.819 24.9802C80.9391 24.7402 81.0592 24.6202 81.2994 24.3802C81.6596 24.0202 82.0199 23.7802 82.5002 23.7802C82.9806 23.6602 83.3409 23.7802 83.7011 23.9002C83.7011 23.4202 83.7011 22.8202 83.8212 22.3402C83.9413 21.8602 84.3016 21.3802 84.7819 20.9002C85.2623 20.4202 85.7426 20.1802 86.223 19.9402C86.7033 19.7002 87.3037 19.7002 87.7841 19.7002C88.3845 19.7002 88.8649 19.8202 89.4653 20.1802C90.0658 20.4202 90.5461 20.9002 91.1465 21.3802L94.6291 24.9802L94.3889 25.2202C94.1487 25.1002 93.9085 24.9802 93.7885 24.8602C93.6684 24.7402 93.4282 24.7402 93.3081 24.6202C93.188 24.5002 93.0679 24.5002 92.9479 24.3802C92.8278 24.2602 92.7077 24.2602 92.5876 24.1402C92.5876 24.7402 92.5876 25.3402 92.3474 25.8202C92.1072 26.4202 91.747 26.9002 91.2666 27.3802C90.9064 27.7402 90.426 27.9802 89.9457 28.2202C89.4653 28.3402 88.985 28.4602 88.3845 28.4602C87.7841 28.4602 87.3037 28.2202 86.7033 27.9802C86.1029 27.7402 85.6225 27.2602 85.0221 26.7802C84.4217 26.1802 83.9413 25.4602 83.7011 24.6202C83.4609 24.5002 83.2208 24.3802 82.9806 24.3802C82.7404 24.3802 82.5003 24.5002 82.2601 24.6202C82.14 24.7402 82.0199 24.8602 82.0199 25.1002C82.0199 25.3402 82.0199 25.4602 82.14 25.8202C82.2601 26.1802 82.5003 26.4202 82.8605 26.9002C83.2208 27.0202 83.7011 27.5002 84.3016 28.1002ZM79.378 34.2202C79.6182 34.5802 79.9784 34.8202 80.4588 35.0602C80.819 35.3002 81.2994 35.4202 81.6596 35.5402C82.0199 35.6602 82.5003 35.6602 82.8605 35.5402C83.2208 35.4202 83.7011 35.1802 83.9413 34.8202C84.3016 34.4602 84.5417 33.9802 84.5417 33.5002C84.5417 33.0202 84.4216 32.5402 84.1815 32.0602C83.9413 31.5802 83.7011 31.1002 83.3409 30.7402C82.9806 30.2602 82.6203 29.9002 82.3802 29.6602C81.8998 29.1802 81.5395 28.7002 81.2994 28.2202C80.819 27.8602 80.3387 27.7402 79.8583 27.8602C79.378 27.8602 79.0177 28.1002 78.6575 28.4602C78.4173 28.7002 78.1771 29.0602 77.9369 29.5402C77.8168 30.0202 77.6968 30.5002 77.6968 30.9802C77.6968 31.5802 77.8168 32.0602 78.1771 32.6602C78.5374 33.1402 78.8976 33.6202 79.378 34.2202ZM90.3059 21.5002C89.8256 21.0202 89.2251 20.9002 88.6247 21.0202C87.9042 21.1402 87.3037 21.6202 86.5832 22.3402C86.223 22.7002 85.9828 23.0602 85.8627 23.4202C85.7426 23.7802 85.6225 24.1402 85.5024 24.5002C85.5024 24.8602 85.5024 25.2202 85.6225 25.4602C85.7426 25.7002 85.8627 26.0602 86.1029 26.3002C86.5832 26.7802 87.0636 26.9002 87.664 26.7802C88.2644 26.6602 88.985 26.3002 89.7055 25.5802C90.0658 25.2202 90.3059 24.8602 90.5461 24.5002C90.7863 24.1402 90.9064 23.7802 90.9064 23.4202C90.9064 23.0602 90.9064 22.7002 90.9064 22.4602C90.6662 21.9802 90.5461 21.7402 90.3059 21.5002Z" fill="black"/>
<path d="M94.0283 42.9801C94.1484 43.2201 94.3886 43.5801 94.5087 43.8201C94.7489 44.0601 94.989 44.3001 95.2292 44.5401C95.4694 44.7801 95.7096 44.9001 96.0698 45.0201C96.4301 45.1401 96.6703 45.1401 97.0305 45.1401L97.1506 45.3801C96.6703 45.5001 96.0698 45.5001 95.7096 45.5001C95.2292 45.3801 94.7489 45.2601 94.3886 45.0201C94.0283 44.7801 93.6681 44.5401 93.3078 44.1801C92.9475 43.8201 92.7074 43.4601 92.5873 43.1001C92.227 42.3801 92.1069 41.6601 92.1069 40.9401C92.1069 40.2201 92.3471 39.5001 92.5873 38.9001C92.9475 38.3001 93.3078 37.7001 93.9082 37.2201C94.3886 36.7401 94.989 36.3801 95.7096 36.0201C96.31 35.6601 97.0305 35.5401 97.751 35.4201C98.4716 35.3001 99.072 35.4201 99.7925 35.5401C100.513 35.6601 101.113 36.0201 101.594 36.5001C102.194 36.9801 102.675 37.5801 103.035 38.4201C103.275 39.0201 103.515 39.6201 103.515 40.3401C103.515 41.0601 103.515 41.7801 103.155 42.5001L99.9126 42.6201C100.273 42.3801 100.753 42.1401 101.113 41.9001C101.474 41.5401 101.834 41.3001 102.074 40.9401C102.314 40.5801 102.555 40.2201 102.555 39.8601C102.675 39.5001 102.555 39.1401 102.434 38.7801C102.194 38.3001 101.954 38.0601 101.474 37.8201C101.113 37.5801 100.633 37.4601 100.153 37.4601C99.6724 37.4601 99.072 37.4601 98.5917 37.5801C98.1113 37.7001 97.5109 37.9401 96.9104 38.1801C96.4301 38.4201 95.8296 38.7801 95.4694 39.1401C94.989 39.5001 94.6288 39.8601 94.3886 40.3401C94.1484 40.8201 93.9082 41.3001 93.7882 41.7801C93.7882 41.9001 93.7882 42.5001 94.0283 42.9801Z" fill="black"/>
<path d="M99.0721 57.8601C98.3516 57.9801 97.8713 57.9801 97.511 57.7401C97.1507 57.5001 96.9106 57.1401 96.7905 56.6601C96.7905 56.4201 96.6704 56.1801 96.6704 55.9401C96.6704 55.7001 96.6704 55.4601 96.7905 55.2201C96.9106 54.9801 97.0307 54.7401 97.1507 54.6201C97.3909 54.3801 97.6311 54.2601 97.9914 54.1401C97.2708 53.9001 96.7905 53.5401 96.4302 53.0601C96.07 52.5801 95.8298 52.1001 95.7097 51.5001C95.5896 51.0201 95.5896 50.5401 95.7097 50.0601C95.8298 49.5801 95.9499 49.2201 96.19 48.8601C96.4302 48.5001 96.6704 48.2601 97.0307 48.0201C97.3909 47.7801 97.7512 47.6601 98.1114 47.5401C98.5918 47.4201 98.9521 47.4201 99.4324 47.5401C99.9128 47.6601 100.393 47.7801 100.753 48.1401C101.234 48.5001 101.594 48.8601 101.954 49.4601C102.315 50.0601 102.555 50.6601 102.795 51.5001C102.915 51.9801 103.035 52.5801 103.155 53.0601L104.356 52.8201C106.157 52.4601 106.878 51.6201 106.638 50.5401C106.518 50.1801 106.397 49.9401 106.157 49.7001C105.917 49.4601 105.677 49.3401 105.317 49.3401C104.956 49.2201 104.716 49.2201 104.356 49.2201C103.996 49.2201 103.756 49.3401 103.395 49.3401C103.395 49.2201 103.275 48.9801 103.275 48.8601C103.155 48.6201 103.155 48.5001 103.035 48.2601C102.915 48.0201 102.795 47.9001 102.675 47.6601C102.555 47.4201 102.435 47.3001 102.435 47.1801C103.155 47.0601 103.756 47.0601 104.356 47.1801C104.956 47.3001 105.437 47.6601 105.797 48.0201C106.157 48.3801 106.518 48.8601 106.758 49.3401C106.998 49.8201 107.238 50.4201 107.358 50.9001C107.478 51.3801 107.478 51.9801 107.478 52.3401C107.478 52.8201 107.358 53.1801 107.238 53.5401C106.998 53.9001 106.758 54.2601 106.397 54.5001C106.037 54.7401 105.437 54.9801 104.836 55.1001L99.0721 56.3001C98.7119 56.4201 98.3516 56.4201 98.1114 56.5401C97.8713 56.6601 97.7512 56.7801 97.8713 57.0201C97.8713 57.1401 97.9914 57.2601 97.9914 57.2601C98.1114 57.3801 98.2315 57.3801 98.3516 57.3801C98.4717 57.3801 98.5918 57.3801 98.7119 57.3801C98.832 57.3801 98.9521 57.3801 99.0721 57.3801V57.8601ZM102.435 53.1801C102.315 52.9401 102.314 52.7001 102.194 52.4601C102.074 52.2201 102.074 51.9801 101.954 51.7401C101.834 51.2601 101.594 50.9001 101.354 50.6601C101.114 50.4201 100.873 50.1801 100.633 50.0601C100.393 49.9401 100.033 49.8201 99.7927 49.8201C99.4324 49.8201 99.1922 49.8201 98.9521 49.8201C98.7119 49.9401 98.3516 49.9401 98.1114 50.1801C97.8713 50.3001 97.6311 50.5401 97.3909 50.7801C97.1507 51.0201 97.0307 51.2601 97.0307 51.5001C96.9106 51.7401 96.9106 52.1001 97.0307 52.3401C97.1507 52.7001 97.2708 53.0601 97.6311 53.4201C97.9914 53.7801 98.3516 54.0201 98.9521 54.1401L102.435 53.1801Z" fill="black"/>
<path d="M97.7513 64.34H97.271V59.54H97.7513V59.9C97.7513 60.14 97.8714 60.26 97.9915 60.38C98.1116 60.5 98.2317 60.62 98.4719 60.62C98.712 60.74 98.8321 60.74 99.0723 60.74C99.3125 60.74 99.4326 60.74 99.6727 60.74H105.557C105.797 60.74 106.037 60.62 106.278 60.5C106.518 60.38 106.518 60.02 106.518 59.66C106.518 59.54 106.638 59.54 106.758 59.54C106.878 59.54 106.878 59.54 106.998 59.66C107.118 59.9 107.238 60.14 107.238 60.38C107.358 60.62 107.358 60.74 107.478 60.98C107.599 61.22 107.599 61.34 107.719 61.58C107.839 61.82 107.959 61.94 108.079 62.3C108.079 62.42 108.199 62.54 108.199 62.54V62.78C108.199 63.02 108.199 63.14 108.079 63.14C107.959 63.14 107.839 63.14 107.599 63.14H106.157C106.878 63.5 107.358 63.98 107.839 64.7C108.199 65.3 108.439 66.14 108.439 66.86H106.278C106.278 66.38 106.278 66.02 106.278 65.54C106.278 65.18 106.157 64.82 106.157 64.46C106.157 64.1 105.917 63.86 105.797 63.62C105.677 63.38 105.437 63.26 105.077 63.14H99.6727C99.5527 63.14 99.3125 63.14 99.0723 63.14C98.8321 63.14 98.712 63.14 98.4719 63.26C98.2317 63.26 98.1116 63.38 97.9915 63.5C97.8714 63.62 97.7513 63.74 97.7513 63.98V64.34Z" fill="black"/>
<path d="M97.6312 75.7402C97.0308 75.6202 96.5504 75.3802 96.3102 74.7802C96.0701 74.3002 95.95 73.7002 96.0701 72.9802C96.1901 72.2602 96.4303 71.6602 96.7906 71.3002C97.1508 70.9402 97.5111 70.7002 97.9915 70.4602C98.4718 70.3402 99.0722 70.2202 99.5526 70.3402C100.153 70.3402 100.753 70.4602 101.354 70.5802L106.998 71.5402L107.238 70.2202L107.719 70.3402C107.719 70.5802 107.719 70.9402 107.839 71.3002C107.959 71.6602 108.079 71.9002 108.319 72.1402C108.559 72.3802 108.799 72.7402 109.039 72.9802C109.28 73.2202 109.64 73.4602 110 73.7002L110.12 73.8202C110.12 73.9402 110.12 73.9402 110.12 74.1802C110.12 74.3002 110 74.4202 109.88 74.3002L107.238 73.8202L106.758 76.2202L106.157 76.1002L106.638 73.7002L101.114 72.7402C100.393 72.6202 99.6727 72.5002 99.1923 72.6202C98.712 72.6202 98.2316 72.7402 97.8714 72.8602C97.5111 72.9802 97.2709 73.1002 97.1508 73.3402C97.0308 73.5802 96.9107 73.7002 96.7906 73.9402C96.7906 74.0602 96.7906 74.3002 96.7906 74.4202C96.7906 74.5402 96.9107 74.7802 97.0308 74.9002C97.1509 75.0202 97.2709 75.1402 97.391 75.2602C97.5111 75.3802 97.6312 75.3802 97.7513 75.5002L97.6312 75.7402Z" fill="black"/>
<path d="M74.3343 80.66L67.009 47.06C66.8889 46.34 66.4085 45.62 65.688 45.26C65.0876 44.9 64.247 44.66 63.5264 44.9L50.6771 47.66L49.9566 44.3L56.9216 42.74C57.6422 42.62 58.0024 41.9 57.8823 41.3L56.8015 36.26C56.6815 35.9 56.5614 35.66 56.2011 35.42C55.8408 35.18 55.6007 35.18 55.2404 35.3L34.105 39.86C33.3845 39.98 33.0243 40.7 33.1443 41.3L34.2251 46.34C34.3452 46.7 34.4653 46.94 34.8256 47.18C35.0657 47.3 35.3059 47.42 35.5461 47.42C35.6662 47.42 35.6662 47.42 35.7863 47.42L42.7513 45.86L43.4719 49.22L30.6225 51.98C29.902 52.1 29.1815 52.58 28.8212 53.3C28.4609 53.9 28.2208 54.74 28.4609 55.46L35.7863 89.06C35.9063 89.78 36.3867 90.5 37.1072 90.86C37.5876 91.22 38.0679 91.34 38.6684 91.34C38.9085 91.34 39.0286 91.34 39.2688 91.22L72.0526 84.02C72.7732 83.9 73.4937 83.42 73.8539 82.7C74.3343 82.1 74.4544 81.38 74.3343 80.66ZM43.9522 50.06L45.2732 49.82L63.7666 45.86C64.247 45.74 64.7273 45.86 65.0876 46.1C65.4478 46.34 65.8081 46.82 65.9282 47.3L73.2535 80.9C73.4937 81.86 72.8932 82.82 71.8125 83.06L38.9085 90.14C38.4282 90.26 37.9478 90.14 37.5876 89.9C37.2273 89.66 36.867 89.18 36.747 88.7L29.4216 55.1C29.3015 54.62 29.4216 54.14 29.6618 53.78C29.902 53.42 30.3823 53.06 30.8627 52.94L43.9522 50.06ZM48.5155 44.54L48.8758 44.42L49.5963 47.78L46.474 48.5L44.5526 48.86L43.8321 45.5L48.5155 44.54ZM49.4762 43.22L46.1138 43.94L35.5461 46.22H35.426L35.3059 46.1L34.2251 41.06C34.2251 40.94 34.2251 40.82 34.3452 40.82L55.4806 36.26H55.6007L55.7208 36.38L56.8015 41.42V41.54L56.6815 41.66L49.4762 43.22Z" fill="black"/>
<path d="M38.7885 85.5801C38.7885 85.4601 38.7885 85.4601 38.7885 85.5801L70.6116 78.7401C70.7317 78.7401 70.7317 78.7401 70.7317 78.6201C70.7317 78.6201 70.7317 78.5001 70.7317 78.3801L68.5701 68.4201L66.0483 56.0601L65.9282 55.8201C65.9282 55.7001 65.8081 55.5801 65.688 55.5801H65.4479H65.3278C61.3649 56.4201 57.8824 58.9401 55.8409 62.3001C55.8409 62.4201 55.7208 62.4201 55.7208 62.5401L55.4806 62.9001C53.5592 66.0201 50.4369 68.3001 46.7142 69.1401C42.7514 69.9801 38.6684 69.0201 35.5461 66.6201L34.8256 66.3801C34.7055 66.2601 34.5854 66.2601 34.5854 66.3801C34.4653 66.3801 34.4653 66.5001 34.4653 66.6201L38.5483 85.3401C38.5483 85.4601 38.6684 85.5801 38.7885 85.5801ZM69.6509 77.7801L68.45 78.0201L60.2841 79.8201L39.509 84.2601L37.7077 75.9801L67.8496 69.5001L69.6509 77.7801ZM37.3474 74.9001L36.0265 68.5401C36.0265 68.5401 36.1466 68.5401 36.1466 68.6601L36.3867 68.7801C36.5068 68.9001 36.6269 68.9001 36.747 69.0201L36.9872 69.1401C37.1073 69.2601 37.2273 69.2601 37.3474 69.3801C37.4675 69.3801 37.4675 69.5001 37.5876 69.5001H37.7077C37.8278 69.6201 37.9479 69.6201 38.068 69.6201C38.188 69.6201 38.3081 69.7401 38.4282 69.7401C38.5483 69.7401 38.6684 69.8601 38.7885 69.8601C38.9086 69.8601 39.0286 69.9801 39.1487 69.9801C39.2688 69.9801 39.3889 70.1001 39.509 70.1001C39.6291 70.1001 39.7492 70.2201 39.8693 70.2201C39.9893 70.2201 40.1094 70.3401 40.2295 70.3401C40.3496 70.3401 40.4697 70.3401 40.5898 70.4601C40.7099 70.4601 40.83 70.4601 40.95 70.5801H41.3103C41.4304 70.5801 41.5505 70.5801 41.6706 70.5801C41.7907 70.5801 41.9107 70.5801 42.0308 70.5801C42.1509 70.5801 42.271 70.5801 42.5112 70.5801C42.6313 70.5801 42.7514 70.5801 42.8714 70.5801C42.9915 70.5801 43.1116 70.5801 43.3518 70.5801C43.592 70.5801 43.8321 70.5801 44.0723 70.5801H44.1924C44.3125 70.5801 44.3125 70.5801 44.4326 70.5801C44.5527 70.5801 44.6728 70.5801 44.7928 70.5801H44.9129C45.033 70.5801 45.033 70.5801 45.1531 70.5801C45.2732 70.5801 45.5134 70.5801 45.6335 70.5801H45.9937C46.2339 70.5801 46.4741 70.4601 46.8343 70.4601C47.0745 70.4601 47.3147 70.3401 47.5548 70.3401C51.1575 69.3801 54.3998 66.9801 56.3212 63.7401L56.5614 63.3801C56.5614 63.2601 56.6815 63.1401 56.6815 63.1401C58.4828 60.1401 61.485 57.8601 64.9675 57.0201L67.4893 68.5401L37.3474 74.9001Z" fill="black"/>
<path d="M93.5479 82.9399C82.3797 106.58 54.3994 117.26 30.1417 106.82C5.8841 96.3799 -5.5242 68.7799 3.9627 44.4199" stroke="black" stroke-miterlimit="10"/>
</g>
<defs>
<clipPath id="clip0_294_7145">
<rect width="110" height="111" fill="white" transform="translate(0 0.5)"/>
</clipPath>
</defs>
</svg>
