<svg width="24" height="24" viewBox="0 0 24 24" fill="none" xmlns="http://www.w3.org/2000/svg">
<path d="M12.0022 16.889C14.7022 16.889 16.8911 14.7001 16.8911 12.0001C16.8911 9.30003 14.7022 7.11121 12.0022 7.11121C9.30211 7.11121 7.11328 9.30003 7.11328 12.0001C7.11328 14.7001 9.30211 16.889 12.0022 16.889Z" stroke="#9C8563" stroke-width="1.5" stroke-linecap="round" stroke-linejoin="round"/>
<path d="M1 16.8889V7.11111C1 3.73604 3.73604 1 7.11111 1H16.8889C20.2639 1 23 3.73604 23 7.11111V16.8889C23 20.2639 20.2639 23 16.8889 23H7.11111C3.73604 23 1 20.2639 1 16.8889Z" stroke="#9C8563" stroke-width="1.5"/>
<path d="M18.7207 5.29083L18.7337 5.27643" stroke="#9C8563" stroke-width="1.5" stroke-linecap="round" stroke-linejoin="round"/>
</svg>
