<?xml version="1.0" encoding="utf-8"?>
<!-- Generator: Adobe Illustrator 24.0.2, SVG Export Plug-In . SVG Version: 6.00 Build 0)  -->
<svg version="1.1" id="圖層_1" xmlns="http://www.w3.org/2000/svg" xmlns:xlink="http://www.w3.org/1999/xlink" x="0px" y="0px"
	 viewBox="0 0 841.9 595.3" style="enable-background:new 0 0 841.9 595.3;" xml:space="preserve">
<path d="M593.8,316.1c-2.9,0-4.8,0-6.6,0c-127.2,0-254.5,0-381.7,0c-10,0-16.9-4.2-19.8-12.1c-4.3-11.7,3.9-24.2,16.4-24.9
	c1.7-0.1,3.4,0,5.1,0c126.8,0,253.6,0,380.3,0c1.8,0,3.6,0,6.4,0c-2-2.1-3.3-3.5-4.7-4.9c-19.8-19.8-39.7-39.5-59.5-59.3
	c-5.3-5.3-7-11.6-5-18.6c2-6.9,6.8-11.3,13.8-12.8c6.9-1.5,12.7,0.8,17.6,5.7c18,17.9,36,35.8,54,53.7
	c13.6,13.6,27.3,27.1,40.9,40.7c8.5,8.5,8.6,19.3,0.1,27.8c-31.7,31.6-63.4,63.2-95.2,94.7c-7.2,7.2-17.2,7.9-24.7,2.2
	c-7.3-5.6-9.5-15.7-5-23.6c1.3-2.2,3.1-4.2,4.9-6c19.6-19.6,39.2-39.1,58.9-58.6C591.1,319.1,592,318,593.8,316.1z"/>
</svg>
