<svg width="26" height="26" viewBox="0 0 26 26" fill="none" xmlns="http://www.w3.org/2000/svg">
<path d="M15.065 16.6077C14.3823 19.8058 13.7107 22.9029 13.0504 25.9888C13.0056 25.9888 12.972 25.9888 12.9272 25.9888C12.2669 22.8917 11.5954 19.8058 10.9126 16.6077C8.20405 18.8407 5.57383 21.0065 2.94361 23.1834C2.91003 23.1498 2.87645 23.1273 2.84288 23.0937C5.00301 20.4566 7.16315 17.8196 9.40164 15.0928C6.2118 14.4083 3.11149 13.735 0.0111924 13.0617C0.0111924 13.0281 0 12.9944 0 12.9607C3.1003 12.2874 6.2118 11.6142 9.41283 10.9297C7.14077 8.16918 4.94705 5.49849 2.75334 2.83902C2.77572 2.80535 2.8093 2.78291 2.83168 2.74924C5.49548 4.93742 8.14808 7.13682 10.9014 9.40354C11.5842 6.20544 12.2557 3.10833 12.9161 0.0112214C12.9608 0.0112214 12.9944 0 13.0392 0C13.6995 3.09711 14.3711 6.183 15.065 9.40354C17.7848 7.15926 20.4374 4.9823 23.0788 2.79413C23.1124 2.82779 23.1347 2.85024 23.1683 2.8839C20.997 5.53215 18.8257 8.18041 16.576 10.9184C19.7658 11.6142 22.8661 12.2762 25.9664 12.9495C25.9664 12.9832 25.9552 13.0168 25.9552 13.0617C22.8661 13.735 19.777 14.3971 16.576 15.0928C18.848 17.8645 21.0529 20.5576 23.2579 23.2395C23.2355 23.262 23.2131 23.2844 23.1795 23.3181C20.5045 21.0962 17.8183 18.8744 15.065 16.6077Z" fill="black"/>
</svg>
