<svg width="272" height="54" viewBox="0 0 272 54" fill="none" xmlns="http://www.w3.org/2000/svg">
<path d="M271.25 27C271.25 28.5891 270.442 30.2272 268.715 31.9031C266.986 33.58 264.397 35.2334 260.994 36.8307C254.192 40.0233 244.302 42.9181 232.02 45.3562C207.47 50.2302 173.522 53.25 136 53.25C98.4784 53.25 64.5296 50.2302 39.9795 45.3562C27.6983 42.9181 17.8081 40.0233 11.0062 36.8307C7.60331 35.2334 5.01369 33.58 3.28528 31.9031C1.55787 30.2272 0.75 28.5891 0.75 27C0.75 25.4109 1.55787 23.7728 3.28528 22.0969C5.01369 20.42 7.60331 18.7666 11.0062 17.1693C17.8081 13.9767 27.6983 11.0819 39.9795 8.64376C64.5296 3.76985 98.4784 0.75 136 0.75C173.522 0.75 207.47 3.76985 232.02 8.64376C244.302 11.0819 254.192 13.9767 260.994 17.1693C264.397 18.7666 266.986 20.42 268.715 22.0969C270.442 23.7728 271.25 25.4109 271.25 27Z" stroke="black" stroke-width="1.5"/>
</svg>
